solid model
facet normal 0.0 0.0 -1.0
outer loop
vertex 10.605 21.2132034355964 0.0
vertex -10.605 17.555 0.0
vertex -10.605 21.2132034355964 0.0
endloop
endfacet
facet normal 0.0 0.0 -1.0
outer loop
vertex -10.605 17.555 0.0
vertex 10.605 21.2132034355964 0.0
vertex 10.605 17.555 0.0
endloop
endfacet
facet normal 0.0 0.0 -1.0
outer loop
vertex 10.605 17.555 0.0
vertex 10.605 21.2132034355964 0.0
vertex 21.2132034355964 21.2132034355964 0.0
endloop
endfacet
facet normal 0.0 0.0 -1.0
outer loop
vertex 10.605 17.555 0.0
vertex 21.2132034355964 21.2132034355964 0.0
vertex 10.605 13.605 0.0
endloop
endfacet
facet normal 0.0 0.0 -1.0
outer loop
vertex 10.605 13.605 0.0
vertex 21.2132034355964 21.2132034355964 0.0
vertex 13.605 10.605 0.0
endloop
endfacet
facet normal 0.0 0.0 -1.0
outer loop
vertex 10.605 13.605 0.0
vertex 13.605 10.605 0.0
vertex 10.605 0.0 0.0
endloop
endfacet
facet normal 0.0 0.0 -1.0
outer loop
vertex 13.605 10.605 0.0
vertex 21.2132034355964 21.2132034355964 0.0
vertex 17.555 10.605 0.0
endloop
endfacet
facet normal 0.0 0.0 -1.0
outer loop
vertex 17.555 10.605 0.0
vertex 21.2132034355964 21.2132034355964 0.0
vertex 17.555 -10.605 0.0
endloop
endfacet
facet normal 0.0 0.0 -1.0
outer loop
vertex 17.555 -10.605 0.0
vertex 21.2132034355964 21.2132034355964 0.0
vertex 21.2132034355964 10.605 0.0
endloop
endfacet
facet normal 0.0 0.0 -1.0
outer loop
vertex -10.605 21.2132034355964 0.0
vertex -21.0986758923678 15.5875544039269 0.0
vertex -21.2132034355964 21.2132034355964 0.0
endloop
endfacet
facet normal 0.0 0.0 -1.0
outer loop
vertex -21.0986758923678 15.5875544039269 0.0
vertex -10.605 21.2132034355964 0.0
vertex -20.2052550257836 10.0321207808122 0.0
endloop
endfacet
facet normal 0.0 0.0 -1.0
outer loop
vertex -20.2052550257836 10.0321207808122 0.0
vertex -10.605 21.2132034355964 0.0
vertex -18.5501992903552 4.65421839249126 0.0
endloop
endfacet
facet normal 0.0 0.0 -1.0
outer loop
vertex -18.5501992903552 4.65421839249126 0.0
vertex -10.605 21.2132034355964 0.0
vertex -16.1654798490503 -0.442266354071208 0.0
endloop
endfacet
facet normal 0.0 0.0 -1.0
outer loop
vertex -16.1654798490503 -0.442266354071208 0.0
vertex -10.605 21.2132034355964 0.0
vertex -13.0971629776184 -5.1588832732378 0.0
endloop
endfacet
facet normal 0.0 0.0 -1.0
outer loop
vertex -13.0971629776184 -5.1588832732378 0.0
vertex -10.605 21.2132034355964 0.0
vertex -10.605 0.0 0.0
endloop
endfacet
facet normal 0.0 0.0 -1.0
outer loop
vertex -13.0971629776184 -5.1588832732378 0.0
vertex -10.605 0.0 0.0
vertex -9.40452018978108 -9.40452018978108 0.0
endloop
endfacet
facet normal 0.0 0.0 -1.0
outer loop
vertex -10.605 0.0 0.0
vertex -10.605 21.2132034355964 0.0
vertex -10.605 17.555 0.0
endloop
endfacet
facet normal 0.0 0.0 -1.0
outer loop
vertex -10.605 0.0 0.0
vertex -10.605 17.555 0.0
vertex -10.605 13.605 0.0
endloop
endfacet
facet normal 0.0 0.0 -1.0
outer loop
vertex -9.40452018978108 -9.40452018978108 0.0
vertex -10.605 0.0 0.0
vertex -10.2436433877956 -2.74477597331223 0.0
endloop
endfacet
facet normal 0.0 0.0 -1.0
outer loop
vertex -9.40452018978108 -9.40452018978108 0.0
vertex -10.2436433877956 -2.74477597331223 0.0
vertex -9.18419940713397 -5.3025 0.0
endloop
endfacet
facet normal 0.0 0.0 -1.0
outer loop
vertex -9.40452018978108 -9.40452018978108 0.0
vertex -9.18419940713397 -5.3025 0.0
vertex -5.1588832732378 -13.0971629776184 0.0
endloop
endfacet
facet normal 0.0 0.0 -1.0
outer loop
vertex -5.1588832732378 -13.0971629776184 0.0
vertex -9.18419940713397 -5.3025 0.0
vertex -7.49886741448334 -7.49886741448333 0.0
endloop
endfacet
facet normal 0.0 0.0 -1.0
outer loop
vertex -5.1588832732378 -13.0971629776184 0.0
vertex -7.49886741448334 -7.49886741448333 0.0
vertex -5.30250000000001 -9.18419940713397 0.0
endloop
endfacet
facet normal 0.0 0.0 -1.0
outer loop
vertex -5.1588832732378 -13.0971629776184 0.0
vertex -5.30250000000001 -9.18419940713397 0.0
vertex -2.74477597331224 -10.2436433877956 0.0
endloop
endfacet
facet normal 0.0 0.0 -1.0
outer loop
vertex -5.1588832732378 -13.0971629776184 0.0
vertex -2.74477597331224 -10.2436433877956 0.0
vertex -0.442266354071213 -16.1654798490503 0.0
endloop
endfacet
facet normal 0.0 0.0 -1.0
outer loop
vertex -0.442266354071213 -16.1654798490503 0.0
vertex -2.74477597331224 -10.2436433877956 0.0
vertex -2.8199664825479e-015 -10.605 0.0
endloop
endfacet
facet normal 0.0 0.0 -1.0
outer loop
vertex -0.442266354071213 -16.1654798490503 0.0
vertex -2.8199664825479e-015 -10.605 0.0
vertex 4.65421839249127 -18.5501992903553 0.0
endloop
endfacet
facet normal 0.0 0.0 -1.0
outer loop
vertex 4.65421839249127 -18.5501992903553 0.0
vertex -2.8199664825479e-015 -10.605 0.0
vertex 2.74477597331223 -10.2436433877956 0.0
endloop
endfacet
facet normal 0.0 0.0 -1.0
outer loop
vertex 4.65421839249127 -18.5501992903553 0.0
vertex 2.74477597331223 -10.2436433877956 0.0
vertex 5.30249999999999 -9.18419940713398 0.0
endloop
endfacet
facet normal 0.0 0.0 -1.0
outer loop
vertex 4.65421839249127 -18.5501992903553 0.0
vertex 5.30249999999999 -9.18419940713398 0.0
vertex 10.0321207808122 -20.2052550257836 0.0
endloop
endfacet
facet normal 0.0 0.0 -1.0
outer loop
vertex 10.0321207808122 -20.2052550257836 0.0
vertex 5.30249999999999 -9.18419940713398 0.0
vertex 7.49886741448333 -7.49886741448334 0.0
endloop
endfacet
facet normal 0.0 0.0 -1.0
outer loop
vertex 10.0321207808122 -20.2052550257836 0.0
vertex 7.49886741448333 -7.49886741448334 0.0
vertex 9.18419940713397 -5.30250000000001 0.0
endloop
endfacet
facet normal 0.0 0.0 -1.0
outer loop
vertex 10.0321207808122 -20.2052550257836 0.0
vertex 9.18419940713397 -5.30250000000001 0.0
vertex 10.2436433877956 -2.74477597331224 0.0
endloop
endfacet
facet normal 0.0 0.0 -1.0
outer loop
vertex 10.0321207808122 -20.2052550257836 0.0
vertex 10.2436433877956 -2.74477597331224 0.0
vertex 15.5875544039269 -21.0986758923678 0.0
endloop
endfacet
facet normal 0.0 0.0 -1.0
outer loop
vertex 15.5875544039269 -21.0986758923678 0.0
vertex 10.2436433877956 -2.74477597331224 0.0
vertex 10.605 0.0 0.0
endloop
endfacet
facet normal 0.0 0.0 -1.0
outer loop
vertex 15.5875544039269 -21.0986758923678 0.0
vertex 10.605 0.0 0.0
vertex 13.605 -10.605 0.0
endloop
endfacet
facet normal 0.0 0.0 -1.0
outer loop
vertex 13.605 -10.605 0.0
vertex 10.605 0.0 0.0
vertex 13.605 10.605 0.0
endloop
endfacet
facet normal 0.0 0.0 -1.0
outer loop
vertex 15.5875544039269 -21.0986758923678 0.0
vertex 13.605 -10.605 0.0
vertex 17.555 -10.605 0.0
endloop
endfacet
facet normal 0.0 0.0 -1.0
outer loop
vertex 15.5875544039269 -21.0986758923678 0.0
vertex 17.555 -10.605 0.0
vertex 21.2132034355964 -21.2132034355964 0.0
endloop
endfacet
facet normal 0.0 0.0 -1.0
outer loop
vertex 21.2132034355964 -21.2132034355964 0.0
vertex 17.555 -10.605 0.0
vertex 21.2132034355964 10.605 0.0
endloop
endfacet
facet normal 0.0 0.0 -1.0
outer loop
vertex 21.2132034355964 -21.2132034355964 0.0
vertex 21.2132034355964 10.605 0.0
vertex 21.2132034355964 -10.605 0.0
endloop
endfacet
facet normal 0.0 0.0 -1.0
outer loop
vertex -10.605 13.605 0.0
vertex -10.2436433877956 2.74477597331224 0.0
vertex -10.605 0.0 0.0
endloop
endfacet
facet normal 0.0 0.0 -1.0
outer loop
vertex -10.2436433877956 2.74477597331224 0.0
vertex -10.605 13.605 0.0
vertex -9.18419940713397 5.3025 0.0
endloop
endfacet
facet normal 0.0 0.0 -1.0
outer loop
vertex -9.18419940713397 5.3025 0.0
vertex -10.605 13.605 0.0
vertex -7.49886741448333 7.49886741448333 0.0
endloop
endfacet
facet normal 0.0 0.0 -1.0
outer loop
vertex -7.49886741448333 7.49886741448333 0.0
vertex -10.605 13.605 0.0
vertex -5.3025 9.18419940713397 0.0
endloop
endfacet
facet normal 0.0 0.0 -1.0
outer loop
vertex -5.3025 9.18419940713397 0.0
vertex -10.605 13.605 0.0
vertex -2.74477597331223 10.2436433877956 0.0
endloop
endfacet
facet normal 0.0 0.0 -1.0
outer loop
vertex -2.74477597331223 10.2436433877956 0.0
vertex -10.605 13.605 0.0
vertex 10.605 13.605 0.0
endloop
endfacet
facet normal 0.0 0.0 -1.0
outer loop
vertex -2.74477597331223 10.2436433877956 0.0
vertex 10.605 13.605 0.0
vertex 0.0 10.605 0.0
endloop
endfacet
facet normal 0.0 0.0 -1.0
outer loop
vertex 0.0 10.605 0.0
vertex 10.605 13.605 0.0
vertex 2.74477597331224 10.2436433877956 0.0
endloop
endfacet
facet normal 0.0 0.0 -1.0
outer loop
vertex 2.74477597331224 10.2436433877956 0.0
vertex 10.605 13.605 0.0
vertex 5.3025 9.18419940713397 0.0
endloop
endfacet
facet normal 0.0 0.0 -1.0
outer loop
vertex 5.3025 9.18419940713397 0.0
vertex 10.605 13.605 0.0
vertex 7.49886741448333 7.49886741448333 0.0
endloop
endfacet
facet normal 0.0 0.0 -1.0
outer loop
vertex 7.49886741448333 7.49886741448333 0.0
vertex 10.605 13.605 0.0
vertex 9.18419940713397 5.3025 0.0
endloop
endfacet
facet normal 0.0 0.0 -1.0
outer loop
vertex 9.18419940713397 5.3025 0.0
vertex 10.605 13.605 0.0
vertex 10.2436433877956 2.74477597331223 0.0
endloop
endfacet
facet normal 0.0 0.0 -1.0
outer loop
vertex 10.2436433877956 2.74477597331223 0.0
vertex 10.605 13.605 0.0
vertex 10.605 0.0 0.0
endloop
endfacet
facet normal -0.0 -1.0 -0.0
outer loop
vertex 10.605 17.555 1.95
vertex -10.605 17.555 0.0
vertex 10.605 17.555 0.0
endloop
endfacet
facet normal -0.0 -1.0 -0.0
outer loop
vertex -10.605 17.555 0.0
vertex 10.605 17.555 1.95
vertex -10.605 17.555 1.95
endloop
endfacet
facet normal -1.0 0.0 0.0
outer loop
vertex 10.605 17.555 1.95
vertex 10.605 13.605 0.0
vertex 10.605 13.605 1.95
endloop
endfacet
facet normal -1.0 0.0 0.0
outer loop
vertex 10.605 13.605 0.0
vertex 10.605 17.555 1.95
vertex 10.605 17.555 0.0
endloop
endfacet
facet normal 0.0 1.0 0.0
outer loop
vertex -10.605 13.605 1.95
vertex 10.605 13.605 0.0
vertex -10.605 13.605 0.0
endloop
endfacet
facet normal 0.0 1.0 0.0
outer loop
vertex 10.605 13.605 0.0
vertex -10.605 13.605 1.95
vertex 10.605 13.605 1.95
endloop
endfacet
facet normal 1.0 0.0 0.0
outer loop
vertex -10.605 17.555 0.0
vertex -10.605 13.605 1.95
vertex -10.605 13.605 0.0
endloop
endfacet
facet normal 1.0 0.0 0.0
outer loop
vertex -10.605 13.605 1.95
vertex -10.605 17.555 0.0
vertex -10.605 17.555 1.95
endloop
endfacet
facet normal -0.38268343236509 -0.923879532511287 -0.0
outer loop
vertex 5.3025 9.18419940713397 1.95
vertex 2.74477597331224 10.2436433877956 0.0
vertex 5.3025 9.18419940713397 0.0
endloop
endfacet
facet normal -0.38268343236509 -0.923879532511287 -0.0
outer loop
vertex 2.74477597331224 10.2436433877956 0.0
vertex 5.3025 9.18419940713397 1.95
vertex 2.74477597331224 10.2436433877956 1.95
endloop
endfacet
facet normal -0.608761429008721 -0.793353340291235 -0.0
outer loop
vertex 7.49886741448333 7.49886741448333 1.95
vertex 5.3025 9.18419940713397 0.0
vertex 7.49886741448333 7.49886741448333 0.0
endloop
endfacet
facet normal -0.608761429008721 -0.793353340291235 -0.0
outer loop
vertex 5.3025 9.18419940713397 0.0
vertex 7.49886741448333 7.49886741448333 1.95
vertex 5.3025 9.18419940713397 1.95
endloop
endfacet
facet normal -0.793353340291235 -0.608761429008721 -0.0
outer loop
vertex 7.49886741448333 7.49886741448333 1.95
vertex 9.18419940713397 5.3025 0.0
vertex 9.18419940713397 5.3025 1.95
endloop
endfacet
facet normal -0.793353340291235 -0.608761429008721 -0.0
outer loop
vertex 9.18419940713397 5.3025 0.0
vertex 7.49886741448333 7.49886741448333 1.95
vertex 7.49886741448333 7.49886741448333 0.0
endloop
endfacet
facet normal -0.923879532511287 -0.38268343236509 -0.0
outer loop
vertex 9.18419940713397 5.3025 1.95
vertex 10.2436433877956 2.74477597331223 0.0
vertex 10.2436433877956 2.74477597331223 1.95
endloop
endfacet
facet normal -0.923879532511287 -0.38268343236509 -0.0
outer loop
vertex 10.2436433877956 2.74477597331223 0.0
vertex 9.18419940713397 5.3025 1.95
vertex 9.18419940713397 5.3025 0.0
endloop
endfacet
facet normal -0.99144486137381 -0.130526192220051 -0.0
outer loop
vertex 10.2436433877956 2.74477597331223 1.95
vertex 10.605 0.0 0.0
vertex 10.605 0.0 1.95
endloop
endfacet
facet normal -0.99144486137381 -0.130526192220051 -0.0
outer loop
vertex 10.605 0.0 0.0
vertex 10.2436433877956 2.74477597331223 1.95
vertex 10.2436433877956 2.74477597331223 0.0
endloop
endfacet
facet normal -0.99144486137381 0.130526192220052 0.0
outer loop
vertex 10.605 0.0 1.95
vertex 10.2436433877956 -2.74477597331224 0.0
vertex 10.2436433877956 -2.74477597331224 1.95
endloop
endfacet
facet normal -0.99144486137381 0.130526192220052 0.0
outer loop
vertex 10.2436433877956 -2.74477597331224 0.0
vertex 10.605 0.0 1.95
vertex 10.605 0.0 0.0
endloop
endfacet
facet normal -0.923879532511287 0.38268343236509 0.0
outer loop
vertex 10.2436433877956 -2.74477597331224 1.95
vertex 9.18419940713397 -5.30250000000001 0.0
vertex 9.18419940713397 -5.30250000000001 1.95
endloop
endfacet
facet normal -0.923879532511287 0.38268343236509 0.0
outer loop
vertex 9.18419940713397 -5.30250000000001 0.0
vertex 10.2436433877956 -2.74477597331224 1.95
vertex 10.2436433877956 -2.74477597331224 0.0
endloop
endfacet
facet normal -0.793353340291235 0.608761429008721 0.0
outer loop
vertex 9.18419940713397 -5.30250000000001 1.95
vertex 7.49886741448333 -7.49886741448334 0.0
vertex 7.49886741448333 -7.49886741448334 1.95
endloop
endfacet
facet normal -0.793353340291235 0.608761429008721 0.0
outer loop
vertex 7.49886741448333 -7.49886741448334 0.0
vertex 9.18419940713397 -5.30250000000001 1.95
vertex 9.18419940713397 -5.30250000000001 0.0
endloop
endfacet
facet normal -0.608761429008721 0.793353340291235 0.0
outer loop
vertex 5.30249999999999 -9.18419940713398 1.95
vertex 7.49886741448333 -7.49886741448334 0.0
vertex 5.30249999999999 -9.18419940713398 0.0
endloop
endfacet
facet normal -0.608761429008721 0.793353340291235 0.0
outer loop
vertex 7.49886741448333 -7.49886741448334 0.0
vertex 5.30249999999999 -9.18419940713398 1.95
vertex 7.49886741448333 -7.49886741448334 1.95
endloop
endfacet
facet normal -0.382683432365089 0.923879532511287 0.0
outer loop
vertex 2.74477597331223 -10.2436433877956 1.95
vertex 5.30249999999999 -9.18419940713398 0.0
vertex 2.74477597331223 -10.2436433877956 0.0
endloop
endfacet
facet normal -0.382683432365089 0.923879532511287 0.0
outer loop
vertex 5.30249999999999 -9.18419940713398 0.0
vertex 2.74477597331223 -10.2436433877956 1.95
vertex 5.30249999999999 -9.18419940713398 1.95
endloop
endfacet
facet normal -0.130526192220051 0.991444861373811 0.0
outer loop
vertex -2.8199664825479e-015 -10.605 1.95
vertex 2.74477597331223 -10.2436433877956 0.0
vertex -2.8199664825479e-015 -10.605 0.0
endloop
endfacet
facet normal -0.130526192220051 0.991444861373811 0.0
outer loop
vertex 2.74477597331223 -10.2436433877956 0.0
vertex -2.8199664825479e-015 -10.605 1.95
vertex 2.74477597331223 -10.2436433877956 1.95
endloop
endfacet
facet normal 2.658770187926e-016 1.0 0.0
outer loop
vertex -21.2132034355964 21.2132034355964 1.95
vertex -10.605 21.2132034355964 0.0
vertex -21.2132034355964 21.2132034355964 0.0
endloop
endfacet
facet normal 2.658770187926e-016 1.0 0.0
outer loop
vertex -10.605 21.2132034355964 0.0
vertex -21.2132034355964 21.2132034355964 1.95
vertex 10.605 21.2132034355964 0.0
endloop
endfacet
facet normal 2.658770187926e-016 1.0 0.0
outer loop
vertex 10.605 21.2132034355964 0.0
vertex -21.2132034355964 21.2132034355964 1.95
vertex 21.2132034355964 21.2132034355964 0.0
endloop
endfacet
facet normal 2.658770187926e-016 1.0 0.0
outer loop
vertex 21.2132034355964 21.2132034355964 0.0
vertex -21.2132034355964 21.2132034355964 1.95
vertex 21.2132034355964 21.2132034355964 1.95
endloop
endfacet
facet normal 2.658770187926e-016 1.0 0.0
outer loop
vertex 21.2132034355964 21.2132034355964 1.95
vertex -21.2132034355964 21.2132034355964 1.95
vertex -10.605 21.2132034355964 1.95
endloop
endfacet
facet normal 2.658770187926e-016 1.0 0.0
outer loop
vertex 21.2132034355964 21.2132034355964 1.95
vertex -10.605 21.2132034355964 1.95
vertex 10.605 21.2132034355964 1.95
endloop
endfacet
facet normal -0.999792838210022 -0.0203538857211208 -0.0
outer loop
vertex -21.2132034355964 21.2132034355964 1.95
vertex -21.0986758923678 15.5875544039269 0.0
vertex -21.0986758923678 15.5875544039269 1.95
endloop
endfacet
facet normal -0.999792838210022 -0.0203538857211208 -0.0
outer loop
vertex -21.0986758923678 15.5875544039269 0.0
vertex -21.2132034355964 21.2132034355964 1.95
vertex -21.2132034355964 21.2132034355964 0.0
endloop
endfacet
facet normal -0.987314124694507 -0.158779152216905 -0.0
outer loop
vertex -21.0986758923678 15.5875544039269 1.95
vertex -20.2052550257836 10.0321207808122 0.0
vertex -20.2052550257836 10.0321207808122 1.95
endloop
endfacet
facet normal -0.987314124694507 -0.158779152216905 -0.0
outer loop
vertex -20.2052550257836 10.0321207808122 0.0
vertex -21.0986758923678 15.5875544039269 1.95
vertex -21.0986758923678 15.5875544039269 0.0
endloop
endfacet
facet normal -0.955763194996218 -0.294137238530963 -0.0
outer loop
vertex -20.2052550257836 10.0321207808122 1.95
vertex -18.5501992903552 4.65421839249126 0.0
vertex -18.5501992903552 4.65421839249126 1.95
endloop
endfacet
facet normal -0.955763194996218 -0.294137238530963 -0.0
outer loop
vertex -18.5501992903552 4.65421839249126 0.0
vertex -20.2052550257836 10.0321207808122 1.95
vertex -20.2052550257836 10.0321207808122 0.0
endloop
endfacet
facet normal -0.90574952702793 -0.423813395598442 -0.0
outer loop
vertex -18.5501992903552 4.65421839249126 1.95
vertex -16.1654798490503 -0.442266354071208 0.0
vertex -16.1654798490503 -0.442266354071208 1.95
endloop
endfacet
facet normal -0.90574952702793 -0.423813395598442 -0.0
outer loop
vertex -16.1654798490503 -0.442266354071208 0.0
vertex -18.5501992903552 4.65421839249126 1.95
vertex -18.5501992903552 4.65421839249126 0.0
endloop
endfacet
facet normal -0.838239248452286 -0.545302633731166 -0.0
outer loop
vertex -16.1654798490503 -0.442266354071208 1.95
vertex -13.0971629776184 -5.1588832732378 0.0
vertex -13.0971629776184 -5.1588832732378 1.95
endloop
endfacet
facet normal -0.838239248452286 -0.545302633731166 -0.0
outer loop
vertex -13.0971629776184 -5.1588832732378 0.0
vertex -16.1654798490503 -0.442266354071208 1.95
vertex -16.1654798490503 -0.442266354071208 0.0
endloop
endfacet
facet normal -0.754536473730277 -0.656258112186569 -0.0
outer loop
vertex -13.0971629776184 -5.1588832732378 1.95
vertex -9.40452018978108 -9.40452018978108 0.0
vertex -9.40452018978108 -9.40452018978108 1.95
endloop
endfacet
facet normal -0.754536473730277 -0.656258112186569 -0.0
outer loop
vertex -9.40452018978108 -9.40452018978108 0.0
vertex -13.0971629776184 -5.1588832732378 1.95
vertex -13.0971629776184 -5.1588832732378 0.0
endloop
endfacet
facet normal -0.656258112186569 -0.754536473730277 -0.0
outer loop
vertex -5.1588832732378 -13.0971629776184 1.95
vertex -9.40452018978108 -9.40452018978108 0.0
vertex -5.1588832732378 -13.0971629776184 0.0
endloop
endfacet
facet normal -0.656258112186569 -0.754536473730277 -0.0
outer loop
vertex -9.40452018978108 -9.40452018978108 0.0
vertex -5.1588832732378 -13.0971629776184 1.95
vertex -9.40452018978108 -9.40452018978108 1.95
endloop
endfacet
facet normal -0.545302633731167 -0.838239248452286 -0.0
outer loop
vertex -0.442266354071213 -16.1654798490503 1.95
vertex -5.1588832732378 -13.0971629776184 0.0
vertex -0.442266354071213 -16.1654798490503 0.0
endloop
endfacet
facet normal -0.545302633731167 -0.838239248452286 -0.0
outer loop
vertex -5.1588832732378 -13.0971629776184 0.0
vertex -0.442266354071213 -16.1654798490503 1.95
vertex -5.1588832732378 -13.0971629776184 1.95
endloop
endfacet
facet normal -0.423813395598442 -0.90574952702793 -0.0
outer loop
vertex 4.65421839249127 -18.5501992903553 1.95
vertex -0.442266354071213 -16.1654798490503 0.0
vertex 4.65421839249127 -18.5501992903553 0.0
endloop
endfacet
facet normal -0.423813395598442 -0.90574952702793 -0.0
outer loop
vertex -0.442266354071213 -16.1654798490503 0.0
vertex 4.65421839249127 -18.5501992903553 1.95
vertex -0.442266354071213 -16.1654798490503 1.95
endloop
endfacet
facet normal -0.294137238530964 -0.955763194996218 -0.0
outer loop
vertex 10.0321207808122 -20.2052550257836 1.95
vertex 4.65421839249127 -18.5501992903553 0.0
vertex 10.0321207808122 -20.2052550257836 0.0
endloop
endfacet
facet normal -0.294137238530964 -0.955763194996218 -0.0
outer loop
vertex 4.65421839249127 -18.5501992903553 0.0
vertex 10.0321207808122 -20.2052550257836 1.95
vertex 4.65421839249127 -18.5501992903553 1.95
endloop
endfacet
facet normal -0.158779152216905 -0.987314124694507 -0.0
outer loop
vertex 15.5875544039269 -21.0986758923678 1.95
vertex 10.0321207808122 -20.2052550257836 0.0
vertex 15.5875544039269 -21.0986758923678 0.0
endloop
endfacet
facet normal -0.158779152216905 -0.987314124694507 -0.0
outer loop
vertex 10.0321207808122 -20.2052550257836 0.0
vertex 15.5875544039269 -21.0986758923678 1.95
vertex 10.0321207808122 -20.2052550257836 1.95
endloop
endfacet
facet normal -0.0203538857211199 -0.999792838210022 -0.0
outer loop
vertex 21.2132034355964 -21.2132034355964 1.95
vertex 15.5875544039269 -21.0986758923678 0.0
vertex 21.2132034355964 -21.2132034355964 0.0
endloop
endfacet
facet normal -0.0203538857211199 -0.999792838210022 -0.0
outer loop
vertex 15.5875544039269 -21.0986758923678 0.0
vertex 21.2132034355964 -21.2132034355964 1.95
vertex 15.5875544039269 -21.0986758923678 1.95
endloop
endfacet
facet normal 1.0 -1.86115519221784e-016 1.09557231776962e-031
outer loop
vertex 21.2132034355964 -10.605 0.0
vertex 21.2132034355964 -21.2132034355964 1.95
vertex 21.2132034355964 -21.2132034355964 0.0
endloop
endfacet
facet normal 1.0 -1.86115519221784e-016 1.09557231776962e-031
outer loop
vertex 21.2132034355964 -21.2132034355964 1.95
vertex 21.2132034355964 -10.605 0.0
vertex 21.2132034355964 -10.605 1.95
endloop
endfacet
facet normal 1.0 -1.86115519221784e-016 1.09557231776962e-031
outer loop
vertex 21.2132034355964 -10.605 1.95
vertex 21.2132034355964 -10.605 0.0
vertex 21.2132034355964 10.605 0.0
endloop
endfacet
facet normal 1.0 -1.86115519221784e-016 1.09557231776962e-031
outer loop
vertex 21.2132034355964 -10.605 1.95
vertex 21.2132034355964 10.605 0.0
vertex 21.2132034355964 10.605 1.95
endloop
endfacet
facet normal 1.0 -1.86115519221784e-016 1.09557231776962e-031
outer loop
vertex 21.2132034355964 10.605 1.95
vertex 21.2132034355964 10.605 0.0
vertex 21.2132034355964 21.2132034355964 0.0
endloop
endfacet
facet normal 1.0 -1.86115519221784e-016 1.09557231776962e-031
outer loop
vertex 21.2132034355964 10.605 1.95
vertex 21.2132034355964 21.2132034355964 0.0
vertex 21.2132034355964 21.2132034355964 1.95
endloop
endfacet
facet normal 0.0 0.0 1.0
outer loop
vertex -9.40452018978108 -9.40452018978108 1.95
vertex -10.605 0.0 1.95
vertex -13.0971629776184 -5.1588832732378 1.95
endloop
endfacet
facet normal 0.0 0.0 1.0
outer loop
vertex -10.605 0.0 1.95
vertex -9.40452018978108 -9.40452018978108 1.95
vertex -10.2436433877956 -2.74477597331223 1.95
endloop
endfacet
facet normal 0.0 0.0 1.0
outer loop
vertex -10.2436433877956 -2.74477597331223 1.95
vertex -9.40452018978108 -9.40452018978108 1.95
vertex -9.18419940713397 -5.3025 1.95
endloop
endfacet
facet normal 0.0 0.0 1.0
outer loop
vertex -9.18419940713397 -5.3025 1.95
vertex -9.40452018978108 -9.40452018978108 1.95
vertex -5.1588832732378 -13.0971629776184 1.95
endloop
endfacet
facet normal 0.0 0.0 1.0
outer loop
vertex -9.18419940713397 -5.3025 1.95
vertex -5.1588832732378 -13.0971629776184 1.95
vertex -7.49886741448334 -7.49886741448333 1.95
endloop
endfacet
facet normal 0.0 0.0 1.0
outer loop
vertex -7.49886741448334 -7.49886741448333 1.95
vertex -5.1588832732378 -13.0971629776184 1.95
vertex -5.30250000000001 -9.18419940713397 1.95
endloop
endfacet
facet normal 0.0 0.0 1.0
outer loop
vertex -5.30250000000001 -9.18419940713397 1.95
vertex -5.1588832732378 -13.0971629776184 1.95
vertex -2.74477597331224 -10.2436433877956 1.95
endloop
endfacet
facet normal 0.0 0.0 1.0
outer loop
vertex -2.74477597331224 -10.2436433877956 1.95
vertex -5.1588832732378 -13.0971629776184 1.95
vertex -0.442266354071213 -16.1654798490503 1.95
endloop
endfacet
facet normal 0.0 0.0 1.0
outer loop
vertex -2.74477597331224 -10.2436433877956 1.95
vertex -0.442266354071213 -16.1654798490503 1.95
vertex -2.8199664825479e-015 -10.605 1.95
endloop
endfacet
facet normal 0.0 0.0 1.0
outer loop
vertex -2.8199664825479e-015 -10.605 1.95
vertex -0.442266354071213 -16.1654798490503 1.95
vertex 4.65421839249127 -18.5501992903553 1.95
endloop
endfacet
facet normal 0.0 0.0 1.0
outer loop
vertex -2.8199664825479e-015 -10.605 1.95
vertex 4.65421839249127 -18.5501992903553 1.95
vertex 2.74477597331223 -10.2436433877956 1.95
endloop
endfacet
facet normal 0.0 0.0 1.0
outer loop
vertex 2.74477597331223 -10.2436433877956 1.95
vertex 4.65421839249127 -18.5501992903553 1.95
vertex 5.30249999999999 -9.18419940713398 1.95
endloop
endfacet
facet normal 0.0 0.0 1.0
outer loop
vertex 5.30249999999999 -9.18419940713398 1.95
vertex 4.65421839249127 -18.5501992903553 1.95
vertex 10.0321207808122 -20.2052550257836 1.95
endloop
endfacet
facet normal 0.0 0.0 1.0
outer loop
vertex 5.30249999999999 -9.18419940713398 1.95
vertex 10.0321207808122 -20.2052550257836 1.95
vertex 7.49886741448333 -7.49886741448334 1.95
endloop
endfacet
facet normal 0.0 0.0 1.0
outer loop
vertex 7.49886741448333 -7.49886741448334 1.95
vertex 10.0321207808122 -20.2052550257836 1.95
vertex 9.18419940713397 -5.30250000000001 1.95
endloop
endfacet
facet normal 0.0 0.0 1.0
outer loop
vertex 9.18419940713397 -5.30250000000001 1.95
vertex 10.0321207808122 -20.2052550257836 1.95
vertex 10.2436433877956 -2.74477597331224 1.95
endloop
endfacet
facet normal 0.0 0.0 1.0
outer loop
vertex 10.2436433877956 -2.74477597331224 1.95
vertex 10.0321207808122 -20.2052550257836 1.95
vertex 15.5875544039269 -21.0986758923678 1.95
endloop
endfacet
facet normal 0.0 0.0 1.0
outer loop
vertex 10.2436433877956 -2.74477597331224 1.95
vertex 15.5875544039269 -21.0986758923678 1.95
vertex 10.605 0.0 1.95
endloop
endfacet
facet normal 0.0 0.0 1.0
outer loop
vertex 10.605 0.0 1.95
vertex 15.5875544039269 -21.0986758923678 1.95
vertex 13.605 -10.605 1.95
endloop
endfacet
facet normal 0.0 0.0 1.0
outer loop
vertex 10.605 0.0 1.95
vertex 13.605 -10.605 1.95
vertex 10.605 13.605 1.95
endloop
endfacet
facet normal 0.0 0.0 1.0
outer loop
vertex 10.605 13.605 1.95
vertex 13.605 -10.605 1.95
vertex 10.605 17.555 1.95
endloop
endfacet
facet normal 0.0 0.0 1.0
outer loop
vertex 10.605 17.555 1.95
vertex 13.605 -10.605 1.95
vertex 10.605 21.2132034355964 1.95
endloop
endfacet
facet normal 0.0 0.0 1.0
outer loop
vertex 13.605 -10.605 1.95
vertex 15.5875544039269 -21.0986758923678 1.95
vertex 17.555 -10.605 1.95
endloop
endfacet
facet normal 0.0 0.0 1.0
outer loop
vertex 17.555 -10.605 1.95
vertex 15.5875544039269 -21.0986758923678 1.95
vertex 21.2132034355964 -21.2132034355964 1.95
endloop
endfacet
facet normal 0.0 0.0 1.0
outer loop
vertex 17.555 -10.605 1.95
vertex 21.2132034355964 -21.2132034355964 1.95
vertex 17.555 10.605 1.95
endloop
endfacet
facet normal 0.0 0.0 1.0
outer loop
vertex 10.605 21.2132034355964 1.95
vertex 13.605 10.605 1.95
vertex 21.2132034355964 21.2132034355964 1.95
endloop
endfacet
facet normal 0.0 0.0 1.0
outer loop
vertex 13.605 10.605 1.95
vertex 10.605 21.2132034355964 1.95
vertex 13.605 -10.605 1.95
endloop
endfacet
facet normal 0.0 0.0 1.0
outer loop
vertex 21.2132034355964 21.2132034355964 1.95
vertex 13.605 10.605 1.95
vertex 17.555 10.605 1.95
endloop
endfacet
facet normal 0.0 0.0 1.0
outer loop
vertex 21.2132034355964 21.2132034355964 1.95
vertex 17.555 10.605 1.95
vertex 21.2132034355964 10.605 1.95
endloop
endfacet
facet normal 0.0 0.0 1.0
outer loop
vertex 21.2132034355964 10.605 1.95
vertex 17.555 10.605 1.95
vertex 21.2132034355964 -21.2132034355964 1.95
endloop
endfacet
facet normal 0.0 0.0 1.0
outer loop
vertex 21.2132034355964 10.605 1.95
vertex 21.2132034355964 -21.2132034355964 1.95
vertex 21.2132034355964 -10.605 1.95
endloop
endfacet
facet normal 0.0 0.0 1.0
outer loop
vertex -21.0986758923678 15.5875544039269 1.95
vertex -10.605 21.2132034355964 1.95
vertex -21.2132034355964 21.2132034355964 1.95
endloop
endfacet
facet normal 0.0 0.0 1.0
outer loop
vertex -10.605 21.2132034355964 1.95
vertex -21.0986758923678 15.5875544039269 1.95
vertex -20.2052550257836 10.0321207808122 1.95
endloop
endfacet
facet normal 0.0 0.0 1.0
outer loop
vertex -10.605 21.2132034355964 1.95
vertex -20.2052550257836 10.0321207808122 1.95
vertex -18.5501992903552 4.65421839249126 1.95
endloop
endfacet
facet normal 0.0 0.0 1.0
outer loop
vertex -10.605 21.2132034355964 1.95
vertex -18.5501992903552 4.65421839249126 1.95
vertex -16.1654798490503 -0.442266354071208 1.95
endloop
endfacet
facet normal 0.0 0.0 1.0
outer loop
vertex -10.605 21.2132034355964 1.95
vertex -16.1654798490503 -0.442266354071208 1.95
vertex -13.0971629776184 -5.1588832732378 1.95
endloop
endfacet
facet normal 0.0 0.0 1.0
outer loop
vertex -10.605 21.2132034355964 1.95
vertex -13.0971629776184 -5.1588832732378 1.95
vertex -10.605 0.0 1.95
endloop
endfacet
facet normal 0.0 0.0 1.0
outer loop
vertex -10.605 21.2132034355964 1.95
vertex -10.605 0.0 1.95
vertex -10.605 13.605 1.95
endloop
endfacet
facet normal 0.0 0.0 1.0
outer loop
vertex -10.605 21.2132034355964 1.95
vertex -10.605 13.605 1.95
vertex -10.605 17.555 1.95
endloop
endfacet
facet normal 0.0 0.0 1.0
outer loop
vertex -10.605 21.2132034355964 1.95
vertex -10.605 17.555 1.95
vertex 10.605 17.555 1.95
endloop
endfacet
facet normal 0.0 0.0 1.0
outer loop
vertex -10.605 21.2132034355964 1.95
vertex 10.605 17.555 1.95
vertex 10.605 21.2132034355964 1.95
endloop
endfacet
facet normal 0.0 0.0 1.0
outer loop
vertex -10.2436433877956 2.74477597331224 1.95
vertex -10.605 13.605 1.95
vertex -10.605 0.0 1.95
endloop
endfacet
facet normal 0.0 0.0 1.0
outer loop
vertex -10.605 13.605 1.95
vertex -10.2436433877956 2.74477597331224 1.95
vertex -9.18419940713397 5.3025 1.95
endloop
endfacet
facet normal 0.0 0.0 1.0
outer loop
vertex -10.605 13.605 1.95
vertex -9.18419940713397 5.3025 1.95
vertex -7.49886741448333 7.49886741448333 1.95
endloop
endfacet
facet normal 0.0 0.0 1.0
outer loop
vertex -10.605 13.605 1.95
vertex -7.49886741448333 7.49886741448333 1.95
vertex -5.3025 9.18419940713397 1.95
endloop
endfacet
facet normal 0.0 0.0 1.0
outer loop
vertex -10.605 13.605 1.95
vertex -5.3025 9.18419940713397 1.95
vertex -2.74477597331223 10.2436433877956 1.95
endloop
endfacet
facet normal 0.0 0.0 1.0
outer loop
vertex -10.605 13.605 1.95
vertex -2.74477597331223 10.2436433877956 1.95
vertex 10.605 13.605 1.95
endloop
endfacet
facet normal 0.0 0.0 1.0
outer loop
vertex 10.605 13.605 1.95
vertex -2.74477597331223 10.2436433877956 1.95
vertex 0.0 10.605 1.95
endloop
endfacet
facet normal 0.0 0.0 1.0
outer loop
vertex 10.605 13.605 1.95
vertex 0.0 10.605 1.95
vertex 2.74477597331224 10.2436433877956 1.95
endloop
endfacet
facet normal 0.0 0.0 1.0
outer loop
vertex 10.605 13.605 1.95
vertex 2.74477597331224 10.2436433877956 1.95
vertex 5.3025 9.18419940713397 1.95
endloop
endfacet
facet normal 0.0 0.0 1.0
outer loop
vertex 10.605 13.605 1.95
vertex 5.3025 9.18419940713397 1.95
vertex 7.49886741448333 7.49886741448333 1.95
endloop
endfacet
facet normal 0.0 0.0 1.0
outer loop
vertex 10.605 13.605 1.95
vertex 7.49886741448333 7.49886741448333 1.95
vertex 9.18419940713397 5.3025 1.95
endloop
endfacet
facet normal 0.0 0.0 1.0
outer loop
vertex 10.605 13.605 1.95
vertex 9.18419940713397 5.3025 1.95
vertex 10.2436433877956 2.74477597331223 1.95
endloop
endfacet
facet normal 0.0 0.0 1.0
outer loop
vertex 10.605 13.605 1.95
vertex 10.2436433877956 2.74477597331223 1.95
vertex 10.605 0.0 1.95
endloop
endfacet
facet normal 0.130526192220052 0.99144486137381 0.0
outer loop
vertex -2.74477597331224 -10.2436433877956 1.95
vertex -2.8199664825479e-015 -10.605 0.0
vertex -2.74477597331224 -10.2436433877956 0.0
endloop
endfacet
facet normal 0.130526192220052 0.99144486137381 0.0
outer loop
vertex -2.8199664825479e-015 -10.605 0.0
vertex -2.74477597331224 -10.2436433877956 1.95
vertex -2.8199664825479e-015 -10.605 1.95
endloop
endfacet
facet normal 0.38268343236509 0.923879532511287 0.0
outer loop
vertex -5.30250000000001 -9.18419940713397 1.95
vertex -2.74477597331224 -10.2436433877956 0.0
vertex -5.30250000000001 -9.18419940713397 0.0
endloop
endfacet
facet normal 0.38268343236509 0.923879532511287 0.0
outer loop
vertex -2.74477597331224 -10.2436433877956 0.0
vertex -5.30250000000001 -9.18419940713397 1.95
vertex -2.74477597331224 -10.2436433877956 1.95
endloop
endfacet
facet normal 0.608761429008721 0.793353340291235 0.0
outer loop
vertex -7.49886741448334 -7.49886741448333 1.95
vertex -5.30250000000001 -9.18419940713397 0.0
vertex -7.49886741448334 -7.49886741448333 0.0
endloop
endfacet
facet normal 0.608761429008721 0.793353340291235 0.0
outer loop
vertex -5.30250000000001 -9.18419940713397 0.0
vertex -7.49886741448334 -7.49886741448333 1.95
vertex -5.30250000000001 -9.18419940713397 1.95
endloop
endfacet
facet normal 0.793353340291236 0.60876142900872 0.0
outer loop
vertex -9.18419940713397 -5.3025 0.0
vertex -7.49886741448334 -7.49886741448333 1.95
vertex -7.49886741448334 -7.49886741448333 0.0
endloop
endfacet
facet normal 0.793353340291236 0.60876142900872 0.0
outer loop
vertex -7.49886741448334 -7.49886741448333 1.95
vertex -9.18419940713397 -5.3025 0.0
vertex -9.18419940713397 -5.3025 1.95
endloop
endfacet
facet normal 0.923879532511287 0.38268343236509 0.0
outer loop
vertex -10.2436433877956 -2.74477597331223 0.0
vertex -9.18419940713397 -5.3025 1.95
vertex -9.18419940713397 -5.3025 0.0
endloop
endfacet
facet normal 0.923879532511287 0.38268343236509 0.0
outer loop
vertex -9.18419940713397 -5.3025 1.95
vertex -10.2436433877956 -2.74477597331223 0.0
vertex -10.2436433877956 -2.74477597331223 1.95
endloop
endfacet
facet normal 0.991444861373811 0.130526192220051 0.0
outer loop
vertex -10.605 0.0 0.0
vertex -10.2436433877956 -2.74477597331223 1.95
vertex -10.2436433877956 -2.74477597331223 0.0
endloop
endfacet
facet normal 0.991444861373811 0.130526192220051 0.0
outer loop
vertex -10.2436433877956 -2.74477597331223 1.95
vertex -10.605 0.0 0.0
vertex -10.605 0.0 1.95
endloop
endfacet
facet normal 0.99144486137381 -0.130526192220052 0.0
outer loop
vertex -10.2436433877956 2.74477597331224 0.0
vertex -10.605 0.0 1.95
vertex -10.605 0.0 0.0
endloop
endfacet
facet normal 0.99144486137381 -0.130526192220052 0.0
outer loop
vertex -10.605 0.0 1.95
vertex -10.2436433877956 2.74477597331224 0.0
vertex -10.2436433877956 2.74477597331224 1.95
endloop
endfacet
facet normal 0.923879532511287 -0.38268343236509 0.0
outer loop
vertex -9.18419940713397 5.3025 0.0
vertex -10.2436433877956 2.74477597331224 1.95
vertex -10.2436433877956 2.74477597331224 0.0
endloop
endfacet
facet normal 0.923879532511287 -0.38268343236509 0.0
outer loop
vertex -10.2436433877956 2.74477597331224 1.95
vertex -9.18419940713397 5.3025 0.0
vertex -9.18419940713397 5.3025 1.95
endloop
endfacet
facet normal 0.793353340291235 -0.608761429008721 0.0
outer loop
vertex -7.49886741448333 7.49886741448333 0.0
vertex -9.18419940713397 5.3025 1.95
vertex -9.18419940713397 5.3025 0.0
endloop
endfacet
facet normal 0.793353340291235 -0.608761429008721 0.0
outer loop
vertex -9.18419940713397 5.3025 1.95
vertex -7.49886741448333 7.49886741448333 0.0
vertex -7.49886741448333 7.49886741448333 1.95
endloop
endfacet
facet normal 0.60876142900872 -0.793353340291235 0.0
outer loop
vertex -5.3025 9.18419940713397 1.95
vertex -7.49886741448333 7.49886741448333 0.0
vertex -5.3025 9.18419940713397 0.0
endloop
endfacet
facet normal 0.60876142900872 -0.793353340291235 0.0
outer loop
vertex -7.49886741448333 7.49886741448333 0.0
vertex -5.3025 9.18419940713397 1.95
vertex -7.49886741448333 7.49886741448333 1.95
endloop
endfacet
facet normal 0.38268343236509 -0.923879532511287 0.0
outer loop
vertex -2.74477597331223 10.2436433877956 1.95
vertex -5.3025 9.18419940713397 0.0
vertex -2.74477597331223 10.2436433877956 0.0
endloop
endfacet
facet normal 0.38268343236509 -0.923879532511287 0.0
outer loop
vertex -5.3025 9.18419940713397 0.0
vertex -2.74477597331223 10.2436433877956 1.95
vertex -5.3025 9.18419940713397 1.95
endloop
endfacet
facet normal 0.130526192220052 -0.991444861373811 0.0
outer loop
vertex 0.0 10.605 1.95
vertex -2.74477597331223 10.2436433877956 0.0
vertex 0.0 10.605 0.0
endloop
endfacet
facet normal 0.130526192220052 -0.991444861373811 0.0
outer loop
vertex -2.74477597331223 10.2436433877956 0.0
vertex 0.0 10.605 1.95
vertex -2.74477597331223 10.2436433877956 1.95
endloop
endfacet
facet normal -0.130526192220052 -0.99144486137381 -0.0
outer loop
vertex 2.74477597331224 10.2436433877956 1.95
vertex 0.0 10.605 0.0
vertex 2.74477597331224 10.2436433877956 0.0
endloop
endfacet
facet normal -0.130526192220052 -0.99144486137381 -0.0
outer loop
vertex 0.0 10.605 0.0
vertex 2.74477597331224 10.2436433877956 1.95
vertex 0.0 10.605 1.95
endloop
endfacet
facet normal 1.0 0.0 0.0
outer loop
vertex 13.605 10.605 0.0
vertex 13.605 -10.605 1.95
vertex 13.605 -10.605 0.0
endloop
endfacet
facet normal 1.0 0.0 0.0
outer loop
vertex 13.605 -10.605 1.95
vertex 13.605 10.605 0.0
vertex 13.605 10.605 1.95
endloop
endfacet
facet normal -0.0 -1.0 -0.0
outer loop
vertex 17.555 10.605 1.95
vertex 13.605 10.605 0.0
vertex 17.555 10.605 0.0
endloop
endfacet
facet normal -0.0 -1.0 -0.0
outer loop
vertex 13.605 10.605 0.0
vertex 17.555 10.605 1.95
vertex 13.605 10.605 1.95
endloop
endfacet
facet normal -1.0 0.0 0.0
outer loop
vertex 17.555 10.605 1.95
vertex 17.555 -10.605 0.0
vertex 17.555 -10.605 1.95
endloop
endfacet
facet normal -1.0 0.0 0.0
outer loop
vertex 17.555 -10.605 0.0
vertex 17.555 10.605 1.95
vertex 17.555 10.605 0.0
endloop
endfacet
facet normal 0.0 1.0 0.0
outer loop
vertex 13.605 -10.605 1.95
vertex 17.555 -10.605 0.0
vertex 13.605 -10.605 0.0
endloop
endfacet
facet normal 0.0 1.0 0.0
outer loop
vertex 17.555 -10.605 0.0
vertex 13.605 -10.605 1.95
vertex 17.555 -10.605 1.95
endloop
endfacet
endsolid model
