999
DXF created by Inkscape
  0
SECTION
  2
HEADER
  9
$ACADVER
  1
AC1014
  9
$HANDSEED
  5
FFFF
  9
$MEASUREMENT
 70
     1
  0
ENDSEC
  0
SECTION
  2
TABLES
  0
TABLE
  2
VPORT
  5
8
330
0
100
AcDbSymbolTable
 70
     4
  0
VPORT
  5
2E
330
8
100
AcDbSymbolTableRecord
100
AcDbViewportTableRecord
  2
*ACTIVE
 70
     0
 10
0.0
 20
0.0
 11
1.0
 21
1.0
 12
210.0
 22
148.5
 13
0.0
 23
0.0
 14
10.0
 24
10.0
 15
10.0
 25
10.0
 16
0.0
 26
0.0
 36
1.0
 17
0.0
 27
0.0
 37
0.0
 40
341.0
 41
1.24
 42
50.0
 43
0.0
 44
0.0
 50
0.0
 51
0.0
 71
     0
 72
   100
 73
     1
 74
     3
 75
     0
 76
     0
 77
     0
 78
     0
  0
ENDTAB
  0
TABLE
  2
LTYPE
  5
5
330
0
100
AcDbSymbolTable
 70
     1
  0
LTYPE
  5
14
330
5
100
AcDbSymbolTableRecord
100
AcDbLinetypeTableRecord
  2
BYBLOCK
 70
     0
  3

 72
    65
 73
     0
 40
0.0
  0
LTYPE
  5
15
330
5
100
AcDbSymbolTableRecord
100
AcDbLinetypeTableRecord
  2
BYLAYER
 70
     0
  3

 72
    65
 73
     0
 40
0.0
  0
LTYPE
  5
16
330
5
100
AcDbSymbolTableRecord
100
AcDbLinetypeTableRecord
  2
CONTINUOUS
 70
     0
  3
Solid line
 72
    65
 73
     0
 40
0.0
  0
ENDTAB
  0
TABLE
  2
LAYER
  5
2
100
AcDbSymbolTable
 70
2
  0
LAYER
  5
50
100
AcDbSymbolTableRecord
100
AcDbLayerTableRecord
  2
0
 70
0
  6
CONTINUOUS
  0
LAYER
  5
51
100
AcDbSymbolTableRecord
100
AcDbLayerTableRecord
  2
Layer_1
 70
0
  6
CONTINUOUS
  0
ENDTAB
  0
TABLE
  2
STYLE
  5
3
330
0
100
AcDbSymbolTable
 70
     1
  0
STYLE
  5
11
330
3
100
AcDbSymbolTableRecord
100
AcDbTextStyleTableRecord
  2
STANDARD
 70
     0
 40
0.0
 41
1.0
 50
0.0
 71
     0
 42
2.5
  3
txt
  4

  0
ENDTAB
  0
TABLE
  2
VIEW
  5
6
330
0
100
AcDbSymbolTable
 70
     0
  0
ENDTAB
  0
TABLE
  2
UCS
  5
7
330
0
100
AcDbSymbolTable
 70
     0
  0
ENDTAB
  0
TABLE
  2
APPID
  5
9
330
0
100
AcDbSymbolTable
 70
     2
  0
APPID
  5
12
330
9
100
AcDbSymbolTableRecord
100
AcDbRegAppTableRecord
  2
ACAD
 70
     0
  0
ENDTAB
  0
TABLE
  2
DIMSTYLE
  5
A
330
0
100
AcDbSymbolTable
 70
     1
  0
DIMSTYLE
105
27
330
A
100
AcDbSymbolTableRecord
100
AcDbDimStyleTableRecord
  2
ISO-25
 70
     0
  3

  4

  5

  6

  7

 40
1.0
 41
2.5
 42
0.625
 43
3.75
 44
1.25
 45
0.0
 46
0.0
 47
0.0
 48
0.0
140
2.5
141
2.5
142
0.0
143
0.03937007874016
144
1.0
145
0.0
146
1.0
147
0.625
 71
     0
 72
     0
 73
     0
 74
     0
 75
     0
 76
     0
 77
     1
 78
     8
170
     0
171
     3
172
     1
173
     0
174
     0
175
     0
176
     0
177
     0
178
     0
270
     2
271
     2
272
     2
273
     2
274
     3
340
11
275
     0
280
     0
281
     0
282
     0
283
     0
284
     8
285
     0
286
     0
287
     3
288
     0
  0
ENDTAB
  0
TABLE
  2
BLOCK_RECORD
  5
1
330
0
100
AcDbSymbolTable
 70
     1
  0
BLOCK_RECORD
  5
1F
330
1
100
AcDbSymbolTableRecord
100
AcDbBlockTableRecord
  2
*MODEL_SPACE
  0
BLOCK_RECORD
  5
1B
330
1
100
AcDbSymbolTableRecord
100
AcDbBlockTableRecord
  2
*PAPER_SPACE
  0
ENDTAB
  0
ENDSEC
  0
SECTION
  2
BLOCKS
  0
BLOCK
  5
20
330
1F
100
AcDbEntity
  8
0
100
AcDbBlockBegin
  2
*MODEL_SPACE
 70
     0
 10
0.0
 20
0.0
 30
0.0
  3
*MODEL_SPACE
  1

  0
ENDBLK
  5
21
330
1F
100
AcDbEntity
  8
0
100
AcDbBlockEnd
  0
BLOCK
  5
1C
330
1B
100
AcDbEntity
 67
     1
  8
0
100
AcDbBlockBegin
  2
*PAPER_SPACE
  1

  0
ENDBLK
  5
1D
330
1B
100
AcDbEntity
 67
     1
  8
0
100
AcDbBlockEnd
  0
ENDSEC
  0
SECTION
  2
ENTITIES
  0
LWPOLYLINE
  5
100
100
AcDbEntity
  8
Layer_1
 62
7
100
AcDbPolyline
 90
609
 70
0
 10
14.446250
 20
12.541251
 30
0.0
 10
14.395904
 20
12.540997
 30
0.0
 10
14.342188
 20
12.538175
 30
0.0
 10
14.285055
 20
12.534224
 30
0.0
 10
14.224457
 20
12.528580
 30
0.0
 10
14.160346
 20
12.521242
 30
0.0
 10
14.092675
 20
12.511928
 30
0.0
 10
14.021396
 20
12.500922
 30
0.0
 10
13.946462
 20
12.487940
 30
0.0
 10
13.867824
 20
12.473264
 30
0.0
 10
13.785435
 20
12.456895
 30
0.0
 10
13.699247
 20
12.438551
 30
0.0
 10
13.609212
 20
12.418513
 30
0.0
 10
13.515284
 20
12.396500
 30
0.0
 10
13.417413
 20
12.372511
 30
0.0
 10
13.315553
 20
12.346828
 30
0.0
 10
13.209655
 20
12.319171
 30
0.0
 10
13.099673
 20
12.289791
 30
0.0
 10
12.985557
 20
12.258549
 30
0.0
 10
12.867262
 20
12.225416
 30
0.0
 10
12.744738
 20
12.190449
 30
0.0
 10
12.617938
 20
12.153591
 30
0.0
 10
12.486814
 20
12.114842
 30
0.0
 10
12.351320
 20
12.074202
 30
0.0
 10
12.211406
 20
12.031699
 30
0.0
 10
12.067026
 20
11.987277
 30
0.0
 10
11.918132
 20
11.940965
 30
0.0
 10
11.764675
 20
11.892733
 30
0.0
 10
11.606609
 20
11.842610
 30
0.0
 10
11.443885
 20
11.790540
 30
0.0
 10
11.276456
 20
11.736579
 30
0.0
 10
11.104274
 20
11.680699
 30
0.0
 10
10.927292
 20
11.622872
 30
0.0
 10
10.316023
 20
11.415749
 30
0.0
 10
9.721237
 20
11.200414
 30
0.0
 10
9.143051
 20
10.977006
 30
0.0
 10
8.581581
 20
10.745584
 30
0.0
 10
8.036946
 20
10.506316
 30
0.0
 10
7.509262
 20
10.259287
 30
0.0
 10
6.998646
 20
10.004582
 30
0.0
 10
6.505216
 20
9.742312
 30
0.0
 10
6.029089
 20
9.472621
 30
0.0
 10
5.570383
 20
9.195592
 30
0.0
 10
5.129214
 20
8.911337
 30
0.0
 10
4.705700
 20
8.619971
 30
0.0
 10
4.299958
 20
8.321578
 30
0.0
 10
3.912105
 20
8.016270
 30
0.0
 10
3.542259
 20
7.704188
 30
0.0
 10
3.190536
 20
7.385390
 30
0.0
 10
2.857054
 20
7.060016
 30
0.0
 10
2.541931
 20
6.728179
 30
0.0
 10
2.245283
 20
6.389964
 30
0.0
 10
1.967228
 20
6.045512
 30
0.0
 10
1.707882
 20
5.694879
 30
0.0
 10
1.467364
 20
5.338206
 30
0.0
 10
1.245791
 20
4.975607
 30
0.0
 10
1.043279
 20
4.607194
 30
0.0
 10
0.859946
 20
4.233052
 30
0.0
 10
0.695909
 20
3.853294
 30
0.0
 10
0.551285
 20
3.468004
 30
0.0
 10
0.426192
 20
3.077352
 30
0.0
 10
0.320747
 20
2.681395
 30
0.0
 10
0.235068
 20
2.280272
 30
0.0
 10
0.169270
 20
1.874042
 30
0.0
 10
0.123472
 20
1.462872
 30
0.0
 10
0.119614
 20
1.417124
 30
0.0
 10
0.115755
 20
1.371376
 30
0.0
 10
0.111897
 20
1.325627
 30
0.0
 10
0.108038
 20
1.279879
 30
0.0
 10
0.104180
 20
1.234131
 30
0.0
 10
0.100321
 20
1.188354
 30
0.0
 10
0.096463
 20
1.142606
 30
0.0
 10
0.092604
 20
1.096858
 30
0.0
 10
0.088746
 20
1.051110
 30
0.0
 10
0.084887
 20
1.005362
 30
0.0
 10
0.081029
 20
0.959613
 30
0.0
 10
0.077170
 20
0.913865
 30
0.0
 10
0.073312
 20
0.868117
 30
0.0
 10
0.069453
 20
0.822369
 30
0.0
 10
0.065595
 20
0.776620
 30
0.0
 10
0.061736
 20
0.730844
 30
0.0
 10
0.057877
 20
0.685096
 30
0.0
 10
0.054019
 20
0.639348
 30
0.0
 10
0.050160
 20
0.593599
 30
0.0
 10
0.046302
 20
0.547851
 30
0.0
 10
0.042443
 20
0.502103
 30
0.0
 10
0.038585
 20
0.456355
 30
0.0
 10
0.034726
 20
0.410606
 30
0.0
 10
0.030868
 20
0.364858
 30
0.0
 10
0.027009
 20
0.319110
 30
0.0
 10
0.023151
 20
0.273362
 30
0.0
 10
0.019292
 20
0.227585
 30
0.0
 10
0.015434
 20
0.181837
 30
0.0
 10
0.011575
 20
0.136089
 30
0.0
 10
0.007717
 20
0.090341
 30
0.0
 10
0.003858
 20
0.044592
 30
0.0
 10
0.000000
 20
0.000001
 30
0.0
 10
0.068075
 20
0.002824
 30
0.0
 10
0.136150
 20
0.005646
 30
0.0
 10
0.204225
 20
0.008468
 30
0.0
 10
0.272300
 20
0.011290
 30
0.0
 10
0.340375
 20
0.014112
 30
0.0
 10
0.408451
 20
0.016935
 30
0.0
 10
0.476526
 20
0.019757
 30
0.0
 10
0.544601
 20
0.022579
 30
0.0
 10
0.612676
 20
0.025401
 30
0.0
 10
0.680751
 20
0.028224
 30
0.0
 10
0.748826
 20
0.031046
 30
0.0
 10
0.816901
 20
0.033868
 30
0.0
 10
0.884976
 20
0.036690
 30
0.0
 10
0.953051
 20
0.039512
 30
0.0
 10
1.021126
 20
0.042335
 30
0.0
 10
1.089201
 20
0.045157
 30
0.0
 10
1.157276
 20
0.047979
 30
0.0
 10
1.225352
 20
0.050801
 30
0.0
 10
1.293427
 20
0.053624
 30
0.0
 10
1.361502
 20
0.056446
 30
0.0
 10
1.429577
 20
0.059268
 30
0.0
 10
1.497652
 20
0.062090
 30
0.0
 10
1.565727
 20
0.064912
 30
0.0
 10
1.633802
 20
0.067735
 30
0.0
 10
1.701877
 20
0.070557
 30
0.0
 10
1.769952
 20
0.073379
 30
0.0
 10
1.838027
 20
0.076201
 30
0.0
 10
1.906102
 20
0.079024
 30
0.0
 10
1.974178
 20
0.081846
 30
0.0
 10
2.042253
 20
0.084668
 30
0.0
 10
2.110328
 20
0.087490
 30
0.0
 10
2.178403
 20
0.090312
 30
0.0
 10
2.343814
 20
0.096239
 30
0.0
 10
2.503216
 20
0.102730
 30
0.0
 10
2.656954
 20
0.110068
 30
0.0
 10
2.805375
 20
0.118252
 30
0.0
 10
2.948826
 20
0.127566
 30
0.0
 10
3.087652
 20
0.138008
 30
0.0
 10
3.222201
 20
0.149579
 30
0.0
 10
3.352818
 20
0.162561
 30
0.0
 10
3.479850
 20
0.176672
 30
0.0
 10
3.603644
 20
0.192195
 30
0.0
 10
3.724545
 20
0.209410
 30
0.0
 10
3.842901
 20
0.228037
 30
0.0
 10
3.959058
 20
0.248357
 30
0.0
 10
4.073361
 20
0.270652
 30
0.0
 10
4.186158
 20
0.294641
 30
0.0
 10
4.297795
 20
0.320606
 30
0.0
 10
4.408619
 20
0.348546
 30
0.0
 10
4.518975
 20
0.378659
 30
0.0
 10
4.629210
 20
0.410945
 30
0.0
 10
4.739671
 20
0.445517
 30
0.0
 10
4.850703
 20
0.482460
 30
0.0
 10
4.962655
 20
0.521830
 30
0.0
 10
5.075871
 20
0.563740
 30
0.0
 10
5.190698
 20
0.608275
 30
0.0
 10
5.307483
 20
0.655491
 30
0.0
 10
5.426572
 20
0.705500
 30
0.0
 10
5.548311
 20
0.758361
 30
0.0
 10
5.673047
 20
0.814184
 30
0.0
 10
5.801127
 20
0.873056
 30
0.0
 10
5.932896
 20
0.935032
 30
0.0
 10
6.068701
 20
1.000225
 30
0.0
 10
6.208889
 20
1.068692
 30
0.0
 10
6.489510
 20
1.212259
 30
0.0
 10
6.763251
 20
1.363248
 30
0.0
 10
7.030040
 20
1.521518
 30
0.0
 10
7.289805
 20
1.687013
 30
0.0
 10
7.542475
 20
1.859592
 30
0.0
 10
7.787978
 20
2.039170
 30
0.0
 10
8.026243
 20
2.225634
 30
0.0
 10
8.257198
 20
2.418872
 30
0.0
 10
8.480772
 20
2.618826
 30
0.0
 10
8.696893
 20
2.825328
 30
0.0
 10
8.905490
 20
3.038293
 30
0.0
 10
9.106491
 20
3.257636
 30
0.0
 10
9.299824
 20
3.483244
 30
0.0
 10
9.485418
 20
3.715005
 30
0.0
 10
9.663202
 20
3.952834
 30
0.0
 10
9.833104
 20
4.196589
 30
0.0
 10
9.995052
 20
4.446215
 30
0.0
 10
10.148974
 20
4.701570
 30
0.0
 10
10.294800
 20
4.962540
 30
0.0
 10
10.432458
 20
5.229071
 30
0.0
 10
10.561876
 20
5.501020
 30
0.0
 10
10.682982
 20
5.778304
 30
0.0
 10
10.795706
 20
6.060808
 30
0.0
 10
10.899975
 20
6.348421
 30
0.0
 10
10.995718
 20
6.641029
 30
0.0
 10
11.082863
 20
6.938576
 30
0.0
 10
11.161340
 20
7.240892
 30
0.0
 10
11.231075
 20
7.547950
 30
0.0
 10
11.291999
 20
7.859580
 30
0.0
 10
11.344038
 20
8.175697
 30
0.0
 10
11.387123
 20
8.496188
 30
0.0
 10
11.421181
 20
8.820970
 30
0.0
 10
11.434123
 20
8.965863
 30
0.0
 10
11.445988
 20
9.102345
 30
0.0
 10
11.456735
 20
9.230559
 30
0.0
 10
11.466328
 20
9.350729
 30
0.0
 10
11.474729
 20
9.463025
 30
0.0
 10
11.481901
 20
9.567617
 30
0.0
 10
11.487802
 20
9.664730
 30
0.0
 10
11.492399
 20
9.754476
 30
0.0
 10
11.495651
 20
9.837111
 30
0.0
 10
11.497513
 20
9.912775
 30
0.0
 10
11.497965
 20
9.981665
 30
0.0
 10
11.496949
 20
10.043980
 30
0.0
 10
11.494437
 20
10.099860
 30
0.0
 10
11.490401
 20
10.149531
 30
0.0
 10
11.484796
 20
10.193162
 30
0.0
 10
11.477583
 20
10.230924
 30
0.0
 10
11.468721
 20
10.263012
 30
0.0
 10
11.458174
 20
10.289541
 30
0.0
 10
11.445906
 20
10.310708
 30
0.0
 10
11.431877
 20
10.326795
 30
0.0
 10
11.416050
 20
10.338084
 30
0.0
 10
11.398388
 20
10.344575
 30
0.0
 10
11.378853
 20
10.347397
 30
0.0
 10
11.357407
 20
10.344575
 30
0.0
 10
11.334011
 20
10.337801
 30
0.0
 10
11.308628
 20
10.327077
 30
0.0
 10
11.281218
 20
10.312401
 30
0.0
 10
11.251746
 20
10.294057
 30
0.0
 10
11.220174
 20
10.272326
 30
0.0
 10
11.186463
 20
10.247208
 30
0.0
 10
11.150576
 20
10.218986
 30
0.0
 10
11.112474
 20
10.187941
 30
0.0
 10
11.088519
 20
10.166210
 30
0.0
 10
11.064067
 20
10.140528
 30
0.0
 10
11.039164
 20
10.111092
 30
0.0
 10
11.013857
 20
10.077959
 30
0.0
 10
10.988195
 20
10.041214
 30
0.0
 10
10.962227
 20
10.001054
 30
0.0
 10
10.936000
 20
9.957535
 30
0.0
 10
10.909562
 20
9.910856
 30
0.0
 10
10.882960
 20
9.861072
 30
0.0
 10
10.856244
 20
9.808381
 30
0.0
 10
10.829462
 20
9.752896
 30
0.0
 10
10.802659
 20
9.694702
 30
0.0
 10
10.775885
 20
9.633967
 30
0.0
 10
10.749186
 20
9.570834
 30
0.0
 10
10.722612
 20
9.505387
 30
0.0
 10
10.696213
 20
9.437795
 30
0.0
 10
10.670034
 20
9.368170
 30
0.0
 10
10.644123
 20
9.296655
 30
0.0
 10
10.618529
 20
9.223362
 30
0.0
 10
10.593298
 20
9.148404
 30
0.0
 10
10.568479
 20
9.071950
 30
0.0
 10
10.544121
 20
8.994113
 30
0.0
 10
10.520270
 20
8.915034
 30
0.0
 10
10.496976
 20
8.834827
 30
0.0
 10
10.474285
 20
8.753603
 30
0.0
 10
10.452246
 20
8.671533
 30
0.0
 10
10.430905
 20
8.588701
 30
0.0
 10
10.410311
 20
8.505276
 30
0.0
 10
10.390513
 20
8.421371
 30
0.0
 10
10.371559
 20
8.337128
 30
0.0
 10
10.353497
 20
8.252631
 30
0.0
 10
10.336374
 20
8.168077
 30
0.0
 10
10.271756
 20
7.861668
 30
0.0
 10
10.199682
 20
7.561412
 30
0.0
 10
10.120160
 20
7.267308
 30
0.0
 10
10.033198
 20
6.979357
 30
0.0
 10
9.938806
 20
6.697614
 30
0.0
 10
9.836991
 20
6.422024
 30
0.0
 10
9.727762
 20
6.152615
 30
0.0
 10
9.611128
 20
5.889415
 30
0.0
 10
9.487098
 20
5.632395
 30
0.0
 10
9.355679
 20
5.381584
 30
0.0
 10
9.216881
 20
5.136982
 30
0.0
 10
9.070711
 20
4.898617
 30
0.0
 10
8.917179
 20
4.666461
 30
0.0
 10
8.756293
 20
4.440542
 30
0.0
 10
8.588062
 20
4.220889
 30
0.0
 10
8.412494
 20
4.007444
 30
0.0
 10
8.229597
 20
3.800265
 30
0.0
 10
8.039381
 20
3.599351
 30
0.0
 10
7.841853
 20
3.404702
 30
0.0
 10
7.637023
 20
3.216347
 30
0.0
 10
7.424898
 20
3.034229
 30
0.0
 10
7.205488
 20
2.858433
 30
0.0
 10
6.978801
 20
2.688930
 30
0.0
 10
6.744845
 20
2.525693
 30
0.0
 10
6.503629
 20
2.368805
 30
0.0
 10
6.255161
 20
2.218212
 30
0.0
 10
5.999451
 20
2.073940
 30
0.0
 10
5.736506
 20
1.935989
 30
0.0
 10
5.466336
 20
1.804389
 30
0.0
 10
5.188948
 20
1.679139
 30
0.0
 10
4.904352
 20
1.560210
 30
0.0
 10
4.612555
 20
1.447660
 30
0.0
 10
4.363350
 20
1.355656
 30
0.0
 10
4.129072
 20
1.269804
 30
0.0
 10
3.909583
 20
1.190132
 30
0.0
 10
3.704750
 20
1.116614
 30
0.0
 10
3.514436
 20
1.049332
 30
0.0
 10
3.338506
 20
0.988259
 30
0.0
 10
3.176824
 20
0.933480
 30
0.0
 10
3.029255
 20
0.884966
 30
0.0
 10
2.895663
 20
0.842773
 30
0.0
 10
2.775912
 20
0.806875
 30
0.0
 10
2.669868
 20
0.777382
 30
0.0
 10
2.577394
 20
0.754240
 30
0.0
 10
2.498355
 20
0.737589
 30
0.0
 10
2.432616
 20
0.727429
 30
0.0
 10
2.380041
 20
0.723478
 30
0.0
 10
2.340494
 20
0.726300
 30
0.0
 10
2.313840
 20
0.735331
 30
0.0
 10
2.299944
 20
0.750854
 30
0.0
 10
2.298668
 20
0.773149
 30
0.0
 10
2.309880
 20
0.801908
 30
0.0
 10
2.333442
 20
0.837270
 30
0.0
 10
2.369219
 20
0.879236
 30
0.0
 10
2.417076
 20
0.927863
 30
0.0
 10
2.476878
 20
0.983151
 30
0.0
 10
2.548488
 20
1.045127
 30
0.0
 10
2.631771
 20
1.113820
 30
0.0
 10
2.726591
 20
1.189258
 30
0.0
 10
2.832813
 20
1.271469
 30
0.0
 10
2.950302
 20
1.360454
 30
0.0
 10
3.078922
 20
1.456268
 30
0.0
 10
3.218537
 20
1.558884
 30
0.0
 10
3.369012
 20
1.668386
 30
0.0
 10
3.545852
 20
1.800297
 30
0.0
 10
3.729584
 20
1.944541
 30
0.0
 10
3.919387
 20
2.100158
 30
0.0
 10
4.114443
 20
2.266246
 30
0.0
 10
4.313930
 20
2.441844
 30
0.0
 10
4.517029
 20
2.626051
 30
0.0
 10
4.722918
 20
2.817934
 30
0.0
 10
4.930780
 20
3.016505
 30
0.0
 10
5.139792
 20
3.220891
 30
0.0
 10
5.349135
 20
3.430130
 30
0.0
 10
5.557989
 20
3.643293
 30
0.0
 10
5.765534
 20
3.859447
 30
0.0
 10
5.970949
 20
4.077689
 30
0.0
 10
6.173414
 20
4.297032
 30
0.0
 10
6.372110
 20
4.516573
 30
0.0
 10
6.566216
 20
4.735380
 30
0.0
 10
6.754912
 20
4.952522
 30
0.0
 10
6.937378
 20
5.167039
 30
0.0
 10
7.112793
 20
5.378028
 30
0.0
 10
7.280338
 20
5.584558
 30
0.0
 10
7.439193
 20
5.785698
 30
0.0
 10
7.588537
 20
5.980460
 30
0.0
 10
7.727549
 20
6.167996
 30
0.0
 10
7.855412
 20
6.347292
 30
0.0
 10
7.971302
 20
6.517472
 30
0.0
 10
8.074402
 20
6.677577
 30
0.0
 10
8.163890
 20
6.826703
 30
0.0
 10
8.238947
 20
6.963863
 30
0.0
 10
8.298752
 20
7.088182
 30
0.0
 10
8.342486
 20
7.198672
 30
0.0
 10
8.369328
 20
7.294458
 30
0.0
 10
8.378458
 20
7.374553
 30
0.0
 10
8.378340
 20
7.400799
 30
0.0
 10
8.378002
 20
7.426764
 30
0.0
 10
8.377437
 20
7.452446
 30
0.0
 10
8.376647
 20
7.477846
 30
0.0
 10
8.375631
 20
7.502682
 30
0.0
 10
8.374389
 20
7.527235
 30
0.0
 10
8.372950
 20
7.551224
 30
0.0
 10
8.371313
 20
7.574648
 30
0.0
 10
8.369450
 20
7.597508
 30
0.0
 10
8.367418
 20
7.619804
 30
0.0
 10
8.365189
 20
7.641535
 30
0.0
 10
8.362762
 20
7.662702
 30
0.0
 10
8.360165
 20
7.683022
 30
0.0
 10
8.357371
 20
7.702777
 30
0.0
 10
8.354408
 20
7.721686
 30
0.0
 10
8.351275
 20
7.739748
 30
0.0
 10
8.347976
 20
7.757246
 30
0.0
 10
8.344513
 20
7.773897
 30
0.0
 10
8.340895
 20
7.789419
 30
0.0
 10
8.337122
 20
7.804095
 30
0.0
 10
8.333199
 20
7.817924
 30
0.0
 10
8.329132
 20
7.830624
 30
0.0
 10
8.324927
 20
7.842195
 30
0.0
 10
8.320586
 20
7.852919
 30
0.0
 10
8.316113
 20
7.862515
 30
0.0
 10
8.311513
 20
7.870982
 30
0.0
 10
8.306791
 20
7.878037
 30
0.0
 10
8.301951
 20
7.883964
 30
0.0
 10
8.296998
 20
7.888762
 30
0.0
 10
8.291935
 20
7.892148
 30
0.0
 10
8.286768
 20
7.894970
 30
0.0
 10
8.281498
 20
7.894970
 30
0.0
 10
8.273895
 20
7.892148
 30
0.0
 10
8.261805
 20
7.883964
 30
0.0
 10
8.245349
 20
7.870417
 30
0.0
 10
8.224648
 20
7.851508
 30
0.0
 10
8.199821
 20
7.827519
 30
0.0
 10
8.170989
 20
7.798620
 30
0.0
 10
8.138274
 20
7.764894
 30
0.0
 10
8.101797
 20
7.726484
 30
0.0
 10
8.061678
 20
7.683558
 30
0.0
 10
8.018038
 20
7.636229
 30
0.0
 10
7.970998
 20
7.584639
 30
0.0
 10
7.920679
 20
7.528928
 30
0.0
 10
7.867201
 20
7.469238
 30
0.0
 10
7.810687
 20
7.405682
 30
0.0
 10
7.751255
 20
7.338428
 30
0.0
 10
7.689028
 20
7.267590
 30
0.0
 10
7.624126
 20
7.193338
 30
0.0
 10
7.556670
 20
7.115783
 30
0.0
 10
7.486781
 20
7.035068
 30
0.0
 10
7.414579
 20
6.951332
 30
0.0
 10
7.340186
 20
6.864690
 30
0.0
 10
7.263722
 20
6.775310
 30
0.0
 10
7.185308
 20
6.683334
 30
0.0
 10
7.105065
 20
6.588902
 30
0.0
 10
7.023114
 20
6.492100
 30
0.0
 10
6.939576
 20
6.393125
 30
0.0
 10
6.854571
 20
6.292089
 30
0.0
 10
6.768220
 20
6.189106
 30
0.0
 10
6.680645
 20
6.084374
 30
0.0
 10
6.591965
 20
5.977976
 30
0.0
 10
6.502302
 20
5.870082
 30
0.0
 10
6.411777
 20
5.760806
 30
0.0
 10
6.264225
 20
5.585038
 30
0.0
 10
6.109805
 20
5.406081
 30
0.0
 10
5.949168
 20
5.224471
 30
0.0
 10
5.782965
 20
5.040829
 30
0.0
 10
5.611844
 20
4.855691
 30
0.0
 10
5.436457
 20
4.669650
 30
0.0
 10
5.257453
 20
4.483299
 30
0.0
 10
5.075482
 20
4.297202
 30
0.0
 10
4.891194
 20
4.111923
 30
0.0
 10
4.705239
 20
3.928055
 30
0.0
 10
4.518268
 20
3.746163
 30
0.0
 10
4.330930
 20
3.566810
 30
0.0
 10
4.143875
 20
3.390591
 30
0.0
 10
3.957753
 20
3.218097
 30
0.0
 10
3.773214
 20
3.049892
 30
0.0
 10
3.590909
 20
2.886542
 30
0.0
 10
3.411487
 20
2.728610
 30
0.0
 10
3.235599
 20
2.576718
 30
0.0
 10
3.063893
 20
2.431402
 30
0.0
 10
2.897021
 20
2.293226
 30
0.0
 10
2.735633
 20
2.162840
 30
0.0
 10
2.580378
 20
2.040722
 30
0.0
 10
2.431906
 20
1.927523
 30
0.0
 10
2.290868
 20
1.823806
 30
0.0
 10
2.157913
 20
1.730108
 30
0.0
 10
2.033691
 20
1.647050
 30
0.0
 10
1.918853
 20
1.575196
 30
0.0
 10
1.814049
 20
1.515083
 30
0.0
 10
1.719928
 20
1.467359
 30
0.0
 10
1.637141
 20
1.432533
 30
0.0
 10
1.566337
 20
1.411366
 30
0.0
 10
1.508166
 20
1.404029
 30
0.0
 10
1.475667
 20
1.408544
 30
0.0
 10
1.446444
 20
1.421809
 30
0.0
 10
1.420448
 20
1.443540
 30
0.0
 10
1.397631
 20
1.473427
 30
0.0
 10
1.377944
 20
1.511019
 30
0.0
 10
1.361339
 20
1.555977
 30
0.0
 10
1.347767
 20
1.607878
 30
0.0
 10
1.337179
 20
1.666382
 30
0.0
 10
1.329528
 20
1.731124
 30
0.0
 10
1.324764
 20
1.801708
 30
0.0
 10
1.322839
 20
1.877767
 30
0.0
 10
1.323702
 20
1.958962
 30
0.0
 10
1.327309
 20
2.044871
 30
0.0
 10
1.333608
 20
2.135182
 30
0.0
 10
1.342552
 20
2.229472
 30
0.0
 10
1.354092
 20
2.327403
 30
0.0
 10
1.368179
 20
2.428580
 30
0.0
 10
1.384765
 20
2.532635
 30
0.0
 10
1.403801
 20
2.639231
 30
0.0
 10
1.425238
 20
2.747971
 30
0.0
 10
1.449029
 20
2.858461
 30
0.0
 10
1.475123
 20
2.970362
 30
0.0
 10
1.503474
 20
3.083307
 30
0.0
 10
1.534032
 20
3.196902
 30
0.0
 10
1.566748
 20
3.310778
 30
0.0
 10
1.601575
 20
3.424599
 30
0.0
 10
1.638463
 20
3.537939
 30
0.0
 10
1.677363
 20
3.650489
 30
0.0
 10
1.718228
 20
3.761826
 30
0.0
 10
1.761009
 20
3.871582
 30
0.0
 10
1.805657
 20
3.979419
 30
0.0
 10
1.852124
 20
4.084942
 30
0.0
 10
1.918850
 20
4.222638
 30
0.0
 10
1.995781
 20
4.364737
 30
0.0
 10
2.082542
 20
4.510900
 30
0.0
 10
2.178753
 20
4.660788
 30
0.0
 10
2.284040
 20
4.814035
 30
0.0
 10
2.398023
 20
4.970330
 30
0.0
 10
2.520327
 20
5.129306
 30
0.0
 10
2.650574
 20
5.290596
 30
0.0
 10
2.788387
 20
5.453889
 30
0.0
 10
2.933389
 20
5.618820
 30
0.0
 10
3.085203
 20
5.785049
 30
0.0
 10
3.243452
 20
5.952209
 30
0.0
 10
3.407759
 20
6.119990
 30
0.0
 10
3.577747
 20
6.288025
 30
0.0
 10
3.753038
 20
6.455976
 30
0.0
 10
3.933256
 20
6.623503
 30
0.0
 10
4.118024
 20
6.790212
 30
0.0
 10
4.306964
 20
6.955820
 30
0.0
 10
4.499699
 20
7.119960
 30
0.0
 10
4.695852
 20
7.282266
 30
0.0
 10
4.895047
 20
7.442427
 30
0.0
 10
5.096906
 20
7.600048
 30
0.0
 10
5.301052
 20
7.754819
 30
0.0
 10
5.507108
 20
7.906400
 30
0.0
 10
5.714697
 20
8.054426
 30
0.0
 10
5.923442
 20
8.198557
 30
0.0
 10
6.132966
 20
8.338426
 30
0.0
 10
6.342891
 20
8.473724
 30
0.0
 10
6.552841
 20
8.604082
 30
0.0
 10
6.762439
 20
8.729163
 30
0.0
 10
6.971307
 20
8.848599
 30
0.0
 10
7.179068
 20
8.962081
 30
0.0
 10
7.271085
 20
9.010341
 30
0.0
 10
7.369503
 20
9.060435
 30
0.0
 10
7.474026
 20
9.112280
 30
0.0
 10
7.584353
 20
9.165732
 30
0.0
 10
7.700187
 20
9.220709
 30
0.0
 10
7.821228
 20
9.277041
 30
0.0
 10
7.947179
 20
9.334614
 30
0.0
 10
8.077741
 20
9.393345
 30
0.0
 10
8.212615
 20
9.453063
 30
0.0
 10
8.351502
 20
9.513712
 30
0.0
 10
8.494104
 20
9.575124
 30
0.0
 10
8.640123
 20
9.637185
 30
0.0
 10
8.789259
 20
9.699782
 30
0.0
 10
8.941214
 20
9.762802
 30
0.0
 10
9.095690
 20
9.826104
 30
0.0
 10
9.252388
 20
9.889604
 30
0.0
 10
9.411010
 20
9.953161
 30
0.0
 10
9.571256
 20
10.016632
 30
0.0
 10
9.732828
 20
10.079963
 30
0.0
 10
9.895428
 20
10.142955
 30
0.0
 10
10.058757
 20
10.205524
 30
0.0
 10
10.222517
 20
10.267584
 30
0.0
 10
10.386408
 20
10.328940
 30
0.0
 10
10.550133
 20
10.389561
 30
0.0
 10
10.713392
 20
10.449251
 30
0.0
 10
10.875887
 20
10.507925
 30
0.0
 10
11.037320
 20
10.565442
 30
0.0
 10
11.197392
 20
10.621717
 30
0.0
 10
11.355804
 20
10.676609
 30
0.0
 10
11.512257
 20
10.730006
 30
0.0
 10
11.666454
 20
10.781765
 30
0.0
 10
11.818096
 20
10.831803
 30
0.0
 10
11.994963
 20
10.890054
 30
0.0
 10
12.166654
 20
10.947430
 30
0.0
 10
12.333153
 20
11.003930
 30
0.0
 10
12.494441
 20
11.059585
 30
0.0
 10
12.650503
 20
11.114364
 30
0.0
 10
12.801320
 20
11.168240
 30
0.0
 10
12.946876
 20
11.221213
 30
0.0
 10
13.087153
 20
11.273312
 30
0.0
 10
13.222134
 20
11.324478
 30
0.0
 10
13.351802
 20
11.374742
 30
0.0
 10
13.476141
 20
11.424103
 30
0.0
 10
13.595131
 20
11.472504
 30
0.0
 10
13.708757
 20
11.519974
 30
0.0
 10
13.817001
 20
11.566512
 30
0.0
 10
13.919847
 20
11.612091
 30
0.0
 10
14.017276
 20
11.656710
 30
0.0
 10
14.109272
 20
11.700342
 30
0.0
 10
14.195817
 20
11.743014
 30
0.0
 10
14.276895
 20
11.784726
 30
0.0
 10
14.352488
 20
11.825423
 30
0.0
 10
14.422578
 20
11.865132
 30
0.0
 10
14.487150
 20
11.903852
 30
0.0
 10
14.546185
 20
11.941529
 30
0.0
 10
14.599667
 20
11.978218
 30
0.0
 10
14.647577
 20
12.013863
 30
0.0
 10
14.689900
 20
12.048491
 30
0.0
 10
14.726618
 20
12.082076
 30
0.0
 10
14.757713
 20
12.114588
 30
0.0
 10
14.783169
 20
12.146084
 30
0.0
 10
14.802967
 20
12.176507
 30
0.0
 10
14.817092
 20
12.205830
 30
0.0
 10
14.825525
 20
12.234109
 30
0.0
 10
14.829044
 20
12.253582
 30
0.0
 10
14.831669
 20
12.272491
 30
0.0
 10
14.833362
 20
12.290836
 30
0.0
 10
14.834153
 20
12.308616
 30
0.0
 10
14.834011
 20
12.325831
 30
0.0
 10
14.832939
 20
12.342482
 30
0.0
 10
14.830907
 20
12.358287
 30
0.0
 10
14.827927
 20
12.373527
 30
0.0
 10
14.823981
 20
12.388202
 30
0.0
 10
14.819062
 20
12.402313
 30
0.0
 10
14.813161
 20
12.415860
 30
0.0
 10
14.806266
 20
12.428842
 30
0.0
 10
14.798372
 20
12.441260
 30
0.0
 10
14.789468
 20
12.453113
 30
0.0
 10
14.779545
 20
12.464402
 30
0.0
 10
14.768595
 20
12.475127
 30
0.0
 10
14.756609
 20
12.485004
 30
0.0
 10
14.743576
 20
12.494318
 30
0.0
 10
14.729490
 20
12.503067
 30
0.0
 10
14.714341
 20
12.511251
 30
0.0
 10
14.698118
 20
12.518871
 30
0.0
 10
14.680813
 20
12.525927
 30
0.0
 10
14.662417
 20
12.532136
 30
0.0
 10
14.642921
 20
12.537780
 30
0.0
 10
14.622316
 20
12.542860
 30
0.0
 10
14.600594
 20
12.547376
 30
0.0
 10
14.577745
 20
12.551327
 30
0.0
 10
14.553762
 20
12.554431
 30
0.0
 10
14.528633
 20
12.557253
 30
0.0
 10
14.502349
 20
12.560076
 30
0.0
 10
14.474903
 20
12.560076
 30
0.0
 10
14.446250
 20
12.541251
 30
0.0
  0
ENDSEC
  0
SECTION
  2
OBJECTS
  0
DICTIONARY
  5
C
330
0
100
AcDbDictionary
  3
ACAD_GROUP
350
D
  3
ACAD_MLINESTYLE
350
17
  0
DICTIONARY
  5
D
330
C
100
AcDbDictionary
  0
DICTIONARY
  5
1A
330
C
100
AcDbDictionary
  0
DICTIONARY
  5
17
330
C
100
AcDbDictionary
  3
STANDARD
350
18
  0
DICTIONARY
  5
19
330
C
100
AcDbDictionary
  0
ENDSEC
  0
EOF
