solid Default
  facet normal -4.060240e-15 -1.000000e+00 0.000000e+00
    outer loop
      vertex -5.175000e+01 3.425000e+01 5.000000e+01
      vertex -5.175000e+01 3.425000e+01 0.000000e+00
      vertex -5.000000e+01 3.425000e+01 0.000000e+00
    endloop
  endfacet
  facet normal -4.060240e-15 -1.000000e+00 0.000000e+00
    outer loop
      vertex -5.000000e+01 3.425000e+01 5.000000e+01
      vertex -5.175000e+01 3.425000e+01 5.000000e+01
      vertex -5.000000e+01 3.425000e+01 0.000000e+00
    endloop
  endfacet
  facet normal 0.000000e+00 0.000000e+00 -1.000000e+00
    outer loop
      vertex -5.175000e+01 3.425000e+01 0.000000e+00
      vertex -5.175000e+01 3.725000e+01 0.000000e+00
      vertex -5.000000e+01 3.425000e+01 0.000000e+00
    endloop
  endfacet
  facet normal 0.000000e+00 0.000000e+00 -1.000000e+00
    outer loop
      vertex -5.000000e+01 3.425000e+01 0.000000e+00
      vertex -5.175000e+01 3.725000e+01 0.000000e+00
      vertex -5.175000e+01 3.925000e+01 0.000000e+00
    endloop
  endfacet
  facet normal 0.000000e+00 0.000000e+00 -1.000000e+00
    outer loop
      vertex -5.000000e+01 3.425000e+01 0.000000e+00
      vertex -5.175000e+01 3.925000e+01 0.000000e+00
      vertex -5.075000e+01 3.925000e+01 0.000000e+00
    endloop
  endfacet
  facet normal 0.000000e+00 0.000000e+00 -1.000000e+00
    outer loop
      vertex -5.000000e+01 3.425000e+01 0.000000e+00
      vertex -5.075000e+01 3.925000e+01 0.000000e+00
      vertex -4.675000e+01 3.925000e+01 0.000000e+00
    endloop
  endfacet
  facet normal 0.000000e+00 0.000000e+00 -1.000000e+00
    outer loop
      vertex -5.000000e+01 3.425000e+01 0.000000e+00
      vertex -4.675000e+01 3.925000e+01 0.000000e+00
      vertex -4.675000e+01 3.750000e+01 0.000000e+00
    endloop
  endfacet
  facet normal 0.000000e+00 0.000000e+00 -1.000000e+00
    outer loop
      vertex -5.000000e+01 3.425000e+01 0.000000e+00
      vertex -4.675000e+01 3.750000e+01 0.000000e+00
      vertex 4.675000e+01 3.750000e+01 0.000000e+00
    endloop
  endfacet
  facet normal 0.000000e+00 0.000000e+00 -1.000000e+00
    outer loop
      vertex 4.675000e+01 3.750000e+01 0.000000e+00
      vertex 4.675000e+01 3.925000e+01 0.000000e+00
      vertex 4.975000e+01 3.925000e+01 0.000000e+00
    endloop
  endfacet
  facet normal 0.000000e+00 0.000000e+00 -1.000000e+00
    outer loop
      vertex 4.975000e+01 3.925000e+01 0.000000e+00
      vertex 5.175000e+01 3.925000e+01 0.000000e+00
      vertex 4.675000e+01 3.750000e+01 0.000000e+00
    endloop
  endfacet
  facet normal 0.000000e+00 0.000000e+00 -1.000000e+00
    outer loop
      vertex 4.675000e+01 3.750000e+01 0.000000e+00
      vertex 5.175000e+01 3.925000e+01 0.000000e+00
      vertex 5.175000e+01 3.825000e+01 0.000000e+00
    endloop
  endfacet
  facet normal 0.000000e+00 0.000000e+00 -1.000000e+00
    outer loop
      vertex 4.675000e+01 3.750000e+01 0.000000e+00
      vertex 5.175000e+01 3.825000e+01 0.000000e+00
      vertex 5.175000e+01 3.425000e+01 0.000000e+00
    endloop
  endfacet
  facet normal 0.000000e+00 0.000000e+00 -1.000000e+00
    outer loop
      vertex 4.675000e+01 3.750000e+01 0.000000e+00
      vertex 5.175000e+01 3.425000e+01 0.000000e+00
      vertex 5.000000e+01 3.425000e+01 0.000000e+00
    endloop
  endfacet
  facet normal 0.000000e+00 0.000000e+00 -1.000000e+00
    outer loop
      vertex 4.675000e+01 3.750000e+01 0.000000e+00
      vertex 5.000000e+01 3.425000e+01 0.000000e+00
      vertex -5.000000e+01 3.425000e+01 0.000000e+00
    endloop
  endfacet
  facet normal -0.000000e+00 -0.000000e+00 -1.000000e+00
    outer loop
      vertex -4.675000e+01 -3.750000e+01 0.000000e+00
      vertex -5.000000e+01 3.425000e+01 0.000000e+00
      vertex 4.675000e+01 -3.750000e+01 0.000000e+00
    endloop
  endfacet
  facet normal 0.000000e+00 0.000000e+00 -1.000000e+00
    outer loop
      vertex 5.000000e+01 -3.425000e+01 0.000000e+00
      vertex -5.000000e+01 3.425000e+01 0.000000e+00
      vertex 5.000000e+01 3.425000e+01 0.000000e+00
    endloop
  endfacet
  facet normal 0.000000e+00 0.000000e+00 -1.000000e+00
    outer loop
      vertex 5.000000e+01 -3.425000e+01 0.000000e+00
      vertex 5.175000e+01 -3.425000e+01 0.000000e+00
      vertex 5.175000e+01 -3.725000e+01 0.000000e+00
    endloop
  endfacet
  facet normal 0.000000e+00 0.000000e+00 -1.000000e+00
    outer loop
      vertex 5.075000e+01 -3.925000e+01 0.000000e+00
      vertex 4.675000e+01 -3.925000e+01 0.000000e+00
      vertex 4.675000e+01 -3.750000e+01 0.000000e+00
    endloop
  endfacet
  facet normal 0.000000e+00 0.000000e+00 -1.000000e+00
    outer loop
      vertex -4.975000e+01 -3.925000e+01 0.000000e+00
      vertex -5.175000e+01 -3.925000e+01 0.000000e+00
      vertex -5.175000e+01 -3.825000e+01 0.000000e+00
    endloop
  endfacet
  facet normal 0.000000e+00 0.000000e+00 -1.000000e+00
    outer loop
      vertex -4.975000e+01 -3.925000e+01 0.000000e+00
      vertex -5.175000e+01 -3.825000e+01 0.000000e+00
      vertex -5.175000e+01 -3.425000e+01 0.000000e+00
    endloop
  endfacet
  facet normal 0.000000e+00 0.000000e+00 -1.000000e+00
    outer loop
      vertex -4.975000e+01 -3.925000e+01 0.000000e+00
      vertex -5.175000e+01 -3.425000e+01 0.000000e+00
      vertex -5.000000e+01 -3.425000e+01 0.000000e+00
    endloop
  endfacet
  facet normal 0.000000e+00 0.000000e+00 -1.000000e+00
    outer loop
      vertex -5.000000e+01 3.425000e+01 0.000000e+00
      vertex 5.000000e+01 -3.425000e+01 0.000000e+00
      vertex 5.175000e+01 -3.725000e+01 0.000000e+00
    endloop
  endfacet
  facet normal 0.000000e+00 0.000000e+00 -1.000000e+00
    outer loop
      vertex -5.000000e+01 3.425000e+01 0.000000e+00
      vertex 5.175000e+01 -3.725000e+01 0.000000e+00
      vertex 5.175000e+01 -3.925000e+01 0.000000e+00
    endloop
  endfacet
  facet normal 0.000000e+00 0.000000e+00 -1.000000e+00
    outer loop
      vertex -5.000000e+01 3.425000e+01 0.000000e+00
      vertex 5.175000e+01 -3.925000e+01 0.000000e+00
      vertex 5.075000e+01 -3.925000e+01 0.000000e+00
    endloop
  endfacet
  facet normal 0.000000e+00 0.000000e+00 -1.000000e+00
    outer loop
      vertex -5.000000e+01 3.425000e+01 0.000000e+00
      vertex 5.075000e+01 -3.925000e+01 0.000000e+00
      vertex 4.675000e+01 -3.750000e+01 0.000000e+00
    endloop
  endfacet
  facet normal 0.000000e+00 0.000000e+00 -1.000000e+00
    outer loop
      vertex -5.000000e+01 3.425000e+01 0.000000e+00
      vertex -4.675000e+01 -3.750000e+01 0.000000e+00
      vertex -4.675000e+01 -3.925000e+01 0.000000e+00
    endloop
  endfacet
  facet normal 0.000000e+00 0.000000e+00 -1.000000e+00
    outer loop
      vertex -5.000000e+01 3.425000e+01 0.000000e+00
      vertex -4.675000e+01 -3.925000e+01 0.000000e+00
      vertex -4.975000e+01 -3.925000e+01 0.000000e+00
    endloop
  endfacet
  facet normal 0.000000e+00 0.000000e+00 -1.000000e+00
    outer loop
      vertex -5.000000e+01 3.425000e+01 0.000000e+00
      vertex -4.975000e+01 -3.925000e+01 0.000000e+00
      vertex -5.000000e+01 -3.425000e+01 0.000000e+00
    endloop
  endfacet
  facet normal -1.000000e+00 2.368480e-15 0.000000e+00
    outer loop
      vertex -5.175000e+01 3.425000e+01 0.000000e+00
      vertex -5.175000e+01 3.425000e+01 5.000000e+01
      vertex -5.175000e+01 3.725000e+01 0.000000e+00
    endloop
  endfacet
  facet normal -1.000000e+00 2.368480e-15 0.000000e+00
    outer loop
      vertex -5.175000e+01 3.725000e+01 0.000000e+00
      vertex -5.175000e+01 3.425000e+01 5.000000e+01
      vertex -5.175000e+01 3.725000e+01 5.000000e+01
    endloop
  endfacet
  facet normal 0.000000e+00 0.000000e+00 1.000000e+00
    outer loop
      vertex -5.000000e+01 -3.425000e+01 5.000000e+01
      vertex -4.975000e+01 -3.925000e+01 5.000000e+01
      vertex -5.000000e+01 3.425000e+01 5.000000e+01
    endloop
  endfacet
  facet normal 0.000000e+00 0.000000e+00 1.000000e+00
    outer loop
      vertex -5.175000e+01 3.725000e+01 5.000000e+01
      vertex -5.175000e+01 3.425000e+01 5.000000e+01
      vertex -5.000000e+01 3.425000e+01 5.000000e+01
    endloop
  endfacet
  facet normal 0.000000e+00 0.000000e+00 1.000000e+00
    outer loop
      vertex -5.175000e+01 -3.425000e+01 5.000000e+01
      vertex -5.175000e+01 -3.825000e+01 5.000000e+01
      vertex -5.000000e+01 -3.425000e+01 5.000000e+01
    endloop
  endfacet
  facet normal 0.000000e+00 0.000000e+00 1.000000e+00
    outer loop
      vertex -5.000000e+01 3.425000e+01 5.000000e+01
      vertex -4.800000e+01 3.550000e+01 5.000000e+01
      vertex -5.175000e+01 3.725000e+01 5.000000e+01
    endloop
  endfacet
  facet normal 0.000000e+00 0.000000e+00 1.000000e+00
    outer loop
      vertex -5.175000e+01 -3.825000e+01 5.000000e+01
      vertex -5.175000e+01 -3.925000e+01 5.000000e+01
      vertex -5.000000e+01 -3.425000e+01 5.000000e+01
    endloop
  endfacet
  facet normal 0.000000e+00 0.000000e+00 1.000000e+00
    outer loop
      vertex -5.175000e+01 -3.925000e+01 5.000000e+01
      vertex -4.975000e+01 -3.925000e+01 5.000000e+01
      vertex -5.000000e+01 -3.425000e+01 5.000000e+01
    endloop
  endfacet
  facet normal 0.000000e+00 0.000000e+00 1.000000e+00
    outer loop
      vertex -4.800000e+01 -3.550000e+01 5.000000e+01
      vertex -4.800000e+01 3.550000e+01 5.000000e+01
      vertex -5.000000e+01 3.425000e+01 5.000000e+01
    endloop
  endfacet
  facet normal 0.000000e+00 0.000000e+00 1.000000e+00
    outer loop
      vertex 4.675000e+01 -3.925000e+01 5.000000e+01
      vertex 5.075000e+01 -3.925000e+01 5.000000e+01
      vertex 4.675000e+01 -3.750000e+01 5.000000e+01
    endloop
  endfacet
  facet normal 0.000000e+00 0.000000e+00 1.000000e+00
    outer loop
      vertex 4.800000e+01 3.550000e+01 5.000000e+01
      vertex 5.000000e+01 -3.425000e+01 5.000000e+01
      vertex 5.000000e+01 3.425000e+01 5.000000e+01
    endloop
  endfacet
  facet normal 0.000000e+00 0.000000e+00 1.000000e+00
    outer loop
      vertex -4.800000e+01 3.550000e+01 5.000000e+01
      vertex 4.800000e+01 3.550000e+01 5.000000e+01
      vertex -5.175000e+01 3.725000e+01 5.000000e+01
    endloop
  endfacet
  facet normal 0.000000e+00 0.000000e+00 1.000000e+00
    outer loop
      vertex 4.800000e+01 3.550000e+01 5.000000e+01
      vertex 5.000000e+01 3.425000e+01 5.000000e+01
      vertex 5.175000e+01 3.425000e+01 5.000000e+01
    endloop
  endfacet
  facet normal 0.000000e+00 0.000000e+00 1.000000e+00
    outer loop
      vertex 5.000000e+01 -3.425000e+01 5.000000e+01
      vertex 4.800000e+01 -3.550000e+01 5.000000e+01
      vertex 5.175000e+01 -3.725000e+01 5.000000e+01
    endloop
  endfacet
  facet normal 0.000000e+00 0.000000e+00 1.000000e+00
    outer loop
      vertex 4.675000e+01 3.750000e+01 5.000000e+01
      vertex -4.675000e+01 3.750000e+01 5.000000e+01
      vertex -5.175000e+01 3.725000e+01 5.000000e+01
    endloop
  endfacet
  facet normal 0.000000e+00 0.000000e+00 1.000000e+00
    outer loop
      vertex -4.675000e+01 3.750000e+01 5.000000e+01
      vertex -4.675000e+01 3.925000e+01 5.000000e+01
      vertex -5.175000e+01 3.725000e+01 5.000000e+01
    endloop
  endfacet
  facet normal 0.000000e+00 0.000000e+00 1.000000e+00
    outer loop
      vertex 4.800000e+01 -3.550000e+01 5.000000e+01
      vertex 5.075000e+01 -3.925000e+01 5.000000e+01
      vertex 5.175000e+01 -3.925000e+01 5.000000e+01
    endloop
  endfacet
  facet normal 0.000000e+00 0.000000e+00 1.000000e+00
    outer loop
      vertex 4.800000e+01 3.550000e+01 5.000000e+01
      vertex 4.675000e+01 3.750000e+01 5.000000e+01
      vertex -5.175000e+01 3.725000e+01 5.000000e+01
    endloop
  endfacet
  facet normal 0.000000e+00 0.000000e+00 1.000000e+00
    outer loop
      vertex 5.175000e+01 3.425000e+01 5.000000e+01
      vertex 5.175000e+01 3.825000e+01 5.000000e+01
      vertex 4.675000e+01 3.750000e+01 5.000000e+01
    endloop
  endfacet
  facet normal 0.000000e+00 0.000000e+00 1.000000e+00
    outer loop
      vertex 4.800000e+01 3.550000e+01 5.000000e+01
      vertex 4.800000e+01 -3.550000e+01 5.000000e+01
      vertex 5.000000e+01 -3.425000e+01 5.000000e+01
    endloop
  endfacet
  facet normal 0.000000e+00 0.000000e+00 1.000000e+00
    outer loop
      vertex -4.675000e+01 3.925000e+01 5.000000e+01
      vertex -5.075000e+01 3.925000e+01 5.000000e+01
      vertex -5.175000e+01 3.725000e+01 5.000000e+01
    endloop
  endfacet
  facet normal 0.000000e+00 0.000000e+00 1.000000e+00
    outer loop
      vertex -5.075000e+01 3.925000e+01 5.000000e+01
      vertex -5.175000e+01 3.925000e+01 5.000000e+01
      vertex -5.175000e+01 3.725000e+01 5.000000e+01
    endloop
  endfacet
  facet normal 0.000000e+00 0.000000e+00 1.000000e+00
    outer loop
      vertex -4.975000e+01 -3.925000e+01 5.000000e+01
      vertex -4.800000e+01 -3.550000e+01 5.000000e+01
      vertex -5.000000e+01 3.425000e+01 5.000000e+01
    endloop
  endfacet
  facet normal 0.000000e+00 0.000000e+00 1.000000e+00
    outer loop
      vertex -4.975000e+01 -3.925000e+01 5.000000e+01
      vertex -4.675000e+01 -3.925000e+01 5.000000e+01
      vertex -4.800000e+01 -3.550000e+01 5.000000e+01
    endloop
  endfacet
  facet normal 0.000000e+00 0.000000e+00 1.000000e+00
    outer loop
      vertex 4.800000e+01 -3.550000e+01 5.000000e+01
      vertex 4.675000e+01 -3.750000e+01 5.000000e+01
      vertex 5.075000e+01 -3.925000e+01 5.000000e+01
    endloop
  endfacet
  facet normal 0.000000e+00 0.000000e+00 1.000000e+00
    outer loop
      vertex 5.175000e+01 3.425000e+01 5.000000e+01
      vertex 4.675000e+01 3.750000e+01 5.000000e+01
      vertex 4.800000e+01 3.550000e+01 5.000000e+01
    endloop
  endfacet
  facet normal 0.000000e+00 0.000000e+00 1.000000e+00
    outer loop
      vertex 5.175000e+01 -3.925000e+01 5.000000e+01
      vertex 5.175000e+01 -3.725000e+01 5.000000e+01
      vertex 4.800000e+01 -3.550000e+01 5.000000e+01
    endloop
  endfacet
  facet normal 0.000000e+00 0.000000e+00 1.000000e+00
    outer loop
      vertex 5.175000e+01 -3.725000e+01 5.000000e+01
      vertex 5.175000e+01 -3.425000e+01 5.000000e+01
      vertex 5.000000e+01 -3.425000e+01 5.000000e+01
    endloop
  endfacet
  facet normal 0.000000e+00 0.000000e+00 1.000000e+00
    outer loop
      vertex 4.975000e+01 3.925000e+01 5.000000e+01
      vertex 5.175000e+01 3.825000e+01 5.000000e+01
      vertex 5.175000e+01 3.925000e+01 5.000000e+01
    endloop
  endfacet
  facet normal 0.000000e+00 0.000000e+00 1.000000e+00
    outer loop
      vertex 4.675000e+01 3.925000e+01 5.000000e+01
      vertex 5.175000e+01 3.825000e+01 5.000000e+01
      vertex 4.975000e+01 3.925000e+01 5.000000e+01
    endloop
  endfacet
  facet normal 0.000000e+00 0.000000e+00 1.000000e+00
    outer loop
      vertex 4.675000e+01 3.925000e+01 5.000000e+01
      vertex 4.675000e+01 3.750000e+01 5.000000e+01
      vertex 5.175000e+01 3.825000e+01 5.000000e+01
    endloop
  endfacet
  facet normal 0.000000e+00 0.000000e+00 1.000000e+00
    outer loop
      vertex 4.800000e+01 -3.550000e+01 5.000000e+01
      vertex -4.675000e+01 -3.750000e+01 5.000000e+01
      vertex 4.675000e+01 -3.750000e+01 5.000000e+01
    endloop
  endfacet
  facet normal 0.000000e+00 0.000000e+00 1.000000e+00
    outer loop
      vertex -4.675000e+01 -3.750000e+01 5.000000e+01
      vertex -4.800000e+01 -3.550000e+01 5.000000e+01
      vertex -4.675000e+01 -3.925000e+01 5.000000e+01
    endloop
  endfacet
  facet normal 0.000000e+00 0.000000e+00 1.000000e+00
    outer loop
      vertex 4.800000e+01 -3.550000e+01 5.000000e+01
      vertex -4.800000e+01 -3.550000e+01 5.000000e+01
      vertex -4.675000e+01 -3.750000e+01 5.000000e+01
    endloop
  endfacet
  facet normal -1.000000e+00 -0.000000e+00 -0.000000e+00
    outer loop
      vertex -5.000000e+01 -3.425000e+01 0.000000e+00
      vertex -5.000000e+01 -3.425000e+01 5.000000e+01
      vertex -5.000000e+01 3.425000e+01 0.000000e+00
    endloop
  endfacet
  facet normal -1.000000e+00 0.000000e+00 0.000000e+00
    outer loop
      vertex -5.000000e+01 3.425000e+01 0.000000e+00
      vertex -5.000000e+01 -3.425000e+01 5.000000e+01
      vertex -5.000000e+01 3.425000e+01 5.000000e+01
    endloop
  endfacet
  facet normal 0.000000e+00 1.000000e+00 0.000000e+00
    outer loop
      vertex -5.175000e+01 -3.425000e+01 0.000000e+00
      vertex -5.175000e+01 -3.425000e+01 5.000000e+01
      vertex -5.000000e+01 -3.425000e+01 0.000000e+00
    endloop
  endfacet
  facet normal 0.000000e+00 1.000000e+00 0.000000e+00
    outer loop
      vertex -5.000000e+01 -3.425000e+01 0.000000e+00
      vertex -5.175000e+01 -3.425000e+01 5.000000e+01
      vertex -5.000000e+01 -3.425000e+01 5.000000e+01
    endloop
  endfacet
  facet normal -1.000000e+00 1.776360e-15 0.000000e+00
    outer loop
      vertex -5.175000e+01 -3.825000e+01 0.000000e+00
      vertex -5.175000e+01 -3.825000e+01 5.000000e+01
      vertex -5.175000e+01 -3.425000e+01 0.000000e+00
    endloop
  endfacet
  facet normal -1.000000e+00 1.776360e-15 0.000000e+00
    outer loop
      vertex -5.175000e+01 -3.425000e+01 0.000000e+00
      vertex -5.175000e+01 -3.825000e+01 5.000000e+01
      vertex -5.175000e+01 -3.425000e+01 5.000000e+01
    endloop
  endfacet
  facet normal -1.000000e+00 -0.000000e+00 -0.000000e+00
    outer loop
      vertex -5.175000e+01 -3.925000e+01 0.000000e+00
      vertex -5.175000e+01 -3.925000e+01 5.000000e+01
      vertex -5.175000e+01 -3.825000e+01 0.000000e+00
    endloop
  endfacet
  facet normal -1.000000e+00 0.000000e+00 0.000000e+00
    outer loop
      vertex -5.175000e+01 -3.825000e+01 0.000000e+00
      vertex -5.175000e+01 -3.925000e+01 5.000000e+01
      vertex -5.175000e+01 -3.825000e+01 5.000000e+01
    endloop
  endfacet
  facet normal -3.552710e-15 -1.000000e+00 0.000000e+00
    outer loop
      vertex -5.175000e+01 -3.925000e+01 5.000000e+01
      vertex -5.175000e+01 -3.925000e+01 0.000000e+00
      vertex -4.975000e+01 -3.925000e+01 0.000000e+00
    endloop
  endfacet
  facet normal -3.552710e-15 -1.000000e+00 0.000000e+00
    outer loop
      vertex -4.975000e+01 -3.925000e+01 5.000000e+01
      vertex -5.175000e+01 -3.925000e+01 5.000000e+01
      vertex -4.975000e+01 -3.925000e+01 0.000000e+00
    endloop
  endfacet
  facet normal -2.368480e-15 -1.000000e+00 0.000000e+00
    outer loop
      vertex -4.975000e+01 -3.925000e+01 5.000000e+01
      vertex -4.975000e+01 -3.925000e+01 0.000000e+00
      vertex -4.675000e+01 -3.925000e+01 0.000000e+00
    endloop
  endfacet
  facet normal -2.368480e-15 -1.000000e+00 0.000000e+00
    outer loop
      vertex -4.675000e+01 -3.925000e+01 5.000000e+01
      vertex -4.975000e+01 -3.925000e+01 5.000000e+01
      vertex -4.675000e+01 -3.925000e+01 0.000000e+00
    endloop
  endfacet
  facet normal 1.000000e+00 -4.060240e-15 0.000000e+00
    outer loop
      vertex -4.675000e+01 -3.925000e+01 5.000000e+01
      vertex -4.675000e+01 -3.925000e+01 0.000000e+00
      vertex -4.675000e+01 -3.750000e+01 0.000000e+00
    endloop
  endfacet
  facet normal 1.000000e+00 -4.060240e-15 0.000000e+00
    outer loop
      vertex -4.675000e+01 -3.750000e+01 5.000000e+01
      vertex -4.675000e+01 -3.925000e+01 5.000000e+01
      vertex -4.675000e+01 -3.750000e+01 0.000000e+00
    endloop
  endfacet
  facet normal 0.000000e+00 -1.000000e+00 0.000000e+00
    outer loop
      vertex -4.675000e+01 -3.750000e+01 5.000000e+01
      vertex -4.675000e+01 -3.750000e+01 0.000000e+00
      vertex 4.675000e+01 -3.750000e+01 0.000000e+00
    endloop
  endfacet
  facet normal 0.000000e+00 -1.000000e+00 0.000000e+00
    outer loop
      vertex -1.913420e+00 -3.750000e+01 3.704730e+01
      vertex -4.675000e+01 -3.750000e+01 5.000000e+01
      vertex 4.675000e+01 -3.750000e+01 0.000000e+00
    endloop
  endfacet
  facet normal 0.000000e+00 -1.000000e+00 0.000000e+00
    outer loop
      vertex -5.000000e+00 -3.750000e+01 4.166670e+01
      vertex -4.675000e+01 -3.750000e+01 5.000000e+01
      vertex -4.619400e+00 -3.750000e+01 3.975320e+01
    endloop
  endfacet
  facet normal 0.000000e+00 -1.000000e+00 0.000000e+00
    outer loop
      vertex 0.000000e+00 -3.750000e+01 3.666670e+01
      vertex -1.913420e+00 -3.750000e+01 3.704730e+01
      vertex 4.675000e+01 -3.750000e+01 0.000000e+00
    endloop
  endfacet
  facet normal 0.000000e+00 -1.000000e+00 0.000000e+00
    outer loop
      vertex -4.619400e+00 -3.750000e+01 4.358010e+01
      vertex -4.675000e+01 -3.750000e+01 5.000000e+01
      vertex -5.000000e+00 -3.750000e+01 4.166670e+01
    endloop
  endfacet
  facet normal 0.000000e+00 -1.000000e+00 0.000000e+00
    outer loop
      vertex -3.535530e+00 -3.750000e+01 4.520220e+01
      vertex -4.675000e+01 -3.750000e+01 5.000000e+01
      vertex -4.619400e+00 -3.750000e+01 4.358010e+01
    endloop
  endfacet
  facet normal 0.000000e+00 -1.000000e+00 0.000000e+00
    outer loop
      vertex -1.913420e+00 -3.750000e+01 4.628610e+01
      vertex -4.675000e+01 -3.750000e+01 5.000000e+01
      vertex -3.535530e+00 -3.750000e+01 4.520220e+01
    endloop
  endfacet
  facet normal 0.000000e+00 -1.000000e+00 0.000000e+00
    outer loop
      vertex 0.000000e+00 -3.750000e+01 4.666670e+01
      vertex -4.675000e+01 -3.750000e+01 5.000000e+01
      vertex -1.913420e+00 -3.750000e+01 4.628610e+01
    endloop
  endfacet
  facet normal 0.000000e+00 -1.000000e+00 0.000000e+00
    outer loop
      vertex 1.913420e+00 -3.750000e+01 4.628610e+01
      vertex 3.535530e+00 -3.750000e+01 4.520220e+01
      vertex 4.675000e+01 -3.750000e+01 5.000000e+01
    endloop
  endfacet
  facet normal 0.000000e+00 -1.000000e+00 0.000000e+00
    outer loop
      vertex 4.675000e+01 -3.750000e+01 5.000000e+01
      vertex -4.675000e+01 -3.750000e+01 5.000000e+01
      vertex 0.000000e+00 -3.750000e+01 4.666670e+01
    endloop
  endfacet
  facet normal 0.000000e+00 -1.000000e+00 0.000000e+00
    outer loop
      vertex 3.535530e+00 -3.750000e+01 4.520220e+01
      vertex 4.619400e+00 -3.750000e+01 4.358010e+01
      vertex 4.675000e+01 -3.750000e+01 5.000000e+01
    endloop
  endfacet
  facet normal 0.000000e+00 -1.000000e+00 0.000000e+00
    outer loop
      vertex 4.675000e+01 -3.750000e+01 5.000000e+01
      vertex 5.000000e+00 -3.750000e+01 4.166670e+01
      vertex 4.675000e+01 -3.750000e+01 0.000000e+00
    endloop
  endfacet
  facet normal 0.000000e+00 -1.000000e+00 0.000000e+00
    outer loop
      vertex 5.000000e+00 -3.750000e+01 4.166670e+01
      vertex 4.619400e+00 -3.750000e+01 3.975320e+01
      vertex 4.675000e+01 -3.750000e+01 0.000000e+00
    endloop
  endfacet
  facet normal 0.000000e+00 -1.000000e+00 0.000000e+00
    outer loop
      vertex 4.619400e+00 -3.750000e+01 3.975320e+01
      vertex 3.535530e+00 -3.750000e+01 3.813110e+01
      vertex 4.675000e+01 -3.750000e+01 0.000000e+00
    endloop
  endfacet
  facet normal 0.000000e+00 -1.000000e+00 0.000000e+00
    outer loop
      vertex 3.535530e+00 -3.750000e+01 3.813110e+01
      vertex 1.913420e+00 -3.750000e+01 3.704730e+01
      vertex 4.675000e+01 -3.750000e+01 0.000000e+00
    endloop
  endfacet
  facet normal 0.000000e+00 -1.000000e+00 0.000000e+00
    outer loop
      vertex 1.913420e+00 -3.750000e+01 3.704730e+01
      vertex 0.000000e+00 -3.750000e+01 3.666670e+01
      vertex 4.675000e+01 -3.750000e+01 0.000000e+00
    endloop
  endfacet
  facet normal 0.000000e+00 -1.000000e+00 0.000000e+00
    outer loop
      vertex -3.535530e+00 -3.750000e+01 3.813110e+01
      vertex -4.675000e+01 -3.750000e+01 5.000000e+01
      vertex -1.913420e+00 -3.750000e+01 3.704730e+01
    endloop
  endfacet
  facet normal 0.000000e+00 -1.000000e+00 0.000000e+00
    outer loop
      vertex -4.619400e+00 -3.750000e+01 3.975320e+01
      vertex -4.675000e+01 -3.750000e+01 5.000000e+01
      vertex -3.535530e+00 -3.750000e+01 3.813110e+01
    endloop
  endfacet
  facet normal 0.000000e+00 -1.000000e+00 0.000000e+00
    outer loop
      vertex 0.000000e+00 -3.750000e+01 4.666670e+01
      vertex 1.913420e+00 -3.750000e+01 4.628610e+01
      vertex 4.675000e+01 -3.750000e+01 5.000000e+01
    endloop
  endfacet
  facet normal 0.000000e+00 -1.000000e+00 0.000000e+00
    outer loop
      vertex 4.619400e+00 -3.750000e+01 4.358010e+01
      vertex 5.000000e+00 -3.750000e+01 4.166670e+01
      vertex 4.675000e+01 -3.750000e+01 5.000000e+01
    endloop
  endfacet
  facet normal -1.000000e+00 -0.000000e+00 -0.000000e+00
    outer loop
      vertex 4.675000e+01 -3.925000e+01 0.000000e+00
      vertex 4.675000e+01 -3.925000e+01 5.000000e+01
      vertex 4.675000e+01 -3.750000e+01 0.000000e+00
    endloop
  endfacet
  facet normal -1.000000e+00 0.000000e+00 0.000000e+00
    outer loop
      vertex 4.675000e+01 -3.750000e+01 0.000000e+00
      vertex 4.675000e+01 -3.925000e+01 5.000000e+01
      vertex 4.675000e+01 -3.750000e+01 5.000000e+01
    endloop
  endfacet
  facet normal 0.000000e+00 -1.000000e+00 0.000000e+00
    outer loop
      vertex 4.675000e+01 -3.925000e+01 5.000000e+01
      vertex 4.675000e+01 -3.925000e+01 0.000000e+00
      vertex 5.075000e+01 -3.925000e+01 0.000000e+00
    endloop
  endfacet
  facet normal 0.000000e+00 -1.000000e+00 0.000000e+00
    outer loop
      vertex 5.075000e+01 -3.925000e+01 5.000000e+01
      vertex 4.675000e+01 -3.925000e+01 5.000000e+01
      vertex 5.075000e+01 -3.925000e+01 0.000000e+00
    endloop
  endfacet
  facet normal 0.000000e+00 -1.000000e+00 0.000000e+00
    outer loop
      vertex 5.075000e+01 -3.925000e+01 5.000000e+01
      vertex 5.075000e+01 -3.925000e+01 0.000000e+00
      vertex 5.175000e+01 -3.925000e+01 0.000000e+00
    endloop
  endfacet
  facet normal 0.000000e+00 -1.000000e+00 0.000000e+00
    outer loop
      vertex 5.175000e+01 -3.925000e+01 5.000000e+01
      vertex 5.075000e+01 -3.925000e+01 5.000000e+01
      vertex 5.175000e+01 -3.925000e+01 0.000000e+00
    endloop
  endfacet
  facet normal 1.000000e+00 0.000000e+00 0.000000e+00
    outer loop
      vertex 5.175000e+01 -3.925000e+01 5.000000e+01
      vertex 5.175000e+01 -3.925000e+01 0.000000e+00
      vertex 5.175000e+01 -3.725000e+01 0.000000e+00
    endloop
  endfacet
  facet normal 1.000000e+00 0.000000e+00 0.000000e+00
    outer loop
      vertex 5.175000e+01 -3.725000e+01 5.000000e+01
      vertex 5.175000e+01 -3.925000e+01 5.000000e+01
      vertex 5.175000e+01 -3.725000e+01 0.000000e+00
    endloop
  endfacet
  facet normal 1.000000e+00 -2.368480e-15 0.000000e+00
    outer loop
      vertex 5.175000e+01 -3.725000e+01 5.000000e+01
      vertex 5.175000e+01 -3.725000e+01 0.000000e+00
      vertex 5.175000e+01 -3.425000e+01 0.000000e+00
    endloop
  endfacet
  facet normal 1.000000e+00 -2.368480e-15 0.000000e+00
    outer loop
      vertex 5.175000e+01 -3.425000e+01 5.000000e+01
      vertex 5.175000e+01 -3.725000e+01 5.000000e+01
      vertex 5.175000e+01 -3.425000e+01 0.000000e+00
    endloop
  endfacet
  facet normal 4.060240e-15 1.000000e+00 0.000000e+00
    outer loop
      vertex 5.000000e+01 -3.425000e+01 0.000000e+00
      vertex 5.000000e+01 -3.425000e+01 5.000000e+01
      vertex 5.175000e+01 -3.425000e+01 0.000000e+00
    endloop
  endfacet
  facet normal 4.060240e-15 1.000000e+00 0.000000e+00
    outer loop
      vertex 5.175000e+01 -3.425000e+01 0.000000e+00
      vertex 5.000000e+01 -3.425000e+01 5.000000e+01
      vertex 5.175000e+01 -3.425000e+01 5.000000e+01
    endloop
  endfacet
  facet normal 1.000000e+00 0.000000e+00 0.000000e+00
    outer loop
      vertex 5.000000e+01 -3.425000e+01 5.000000e+01
      vertex 5.000000e+01 -3.425000e+01 0.000000e+00
      vertex 5.000000e+01 3.425000e+01 0.000000e+00
    endloop
  endfacet
  facet normal 1.000000e+00 0.000000e+00 0.000000e+00
    outer loop
      vertex 5.000000e+01 3.425000e+01 5.000000e+01
      vertex 5.000000e+01 -3.425000e+01 5.000000e+01
      vertex 5.000000e+01 3.425000e+01 0.000000e+00
    endloop
  endfacet
  facet normal 0.000000e+00 -1.000000e+00 0.000000e+00
    outer loop
      vertex 5.000000e+01 3.425000e+01 5.000000e+01
      vertex 5.000000e+01 3.425000e+01 0.000000e+00
      vertex 5.175000e+01 3.425000e+01 0.000000e+00
    endloop
  endfacet
  facet normal 0.000000e+00 -1.000000e+00 0.000000e+00
    outer loop
      vertex 5.175000e+01 3.425000e+01 5.000000e+01
      vertex 5.000000e+01 3.425000e+01 5.000000e+01
      vertex 5.175000e+01 3.425000e+01 0.000000e+00
    endloop
  endfacet
  facet normal 1.000000e+00 -1.776360e-15 0.000000e+00
    outer loop
      vertex 5.175000e+01 3.425000e+01 5.000000e+01
      vertex 5.175000e+01 3.425000e+01 0.000000e+00
      vertex 5.175000e+01 3.825000e+01 0.000000e+00
    endloop
  endfacet
  facet normal 1.000000e+00 -1.776360e-15 0.000000e+00
    outer loop
      vertex 5.175000e+01 3.825000e+01 5.000000e+01
      vertex 5.175000e+01 3.425000e+01 5.000000e+01
      vertex 5.175000e+01 3.825000e+01 0.000000e+00
    endloop
  endfacet
  facet normal 1.000000e+00 0.000000e+00 0.000000e+00
    outer loop
      vertex 5.175000e+01 3.825000e+01 5.000000e+01
      vertex 5.175000e+01 3.825000e+01 0.000000e+00
      vertex 5.175000e+01 3.925000e+01 0.000000e+00
    endloop
  endfacet
  facet normal 1.000000e+00 0.000000e+00 0.000000e+00
    outer loop
      vertex 5.175000e+01 3.925000e+01 5.000000e+01
      vertex 5.175000e+01 3.825000e+01 5.000000e+01
      vertex 5.175000e+01 3.925000e+01 0.000000e+00
    endloop
  endfacet
  facet normal 3.552710e-15 1.000000e+00 0.000000e+00
    outer loop
      vertex 4.975000e+01 3.925000e+01 0.000000e+00
      vertex 4.975000e+01 3.925000e+01 5.000000e+01
      vertex 5.175000e+01 3.925000e+01 0.000000e+00
    endloop
  endfacet
  facet normal 3.552710e-15 1.000000e+00 0.000000e+00
    outer loop
      vertex 5.175000e+01 3.925000e+01 0.000000e+00
      vertex 4.975000e+01 3.925000e+01 5.000000e+01
      vertex 5.175000e+01 3.925000e+01 5.000000e+01
    endloop
  endfacet
  facet normal 2.368480e-15 1.000000e+00 0.000000e+00
    outer loop
      vertex 4.675000e+01 3.925000e+01 0.000000e+00
      vertex 4.675000e+01 3.925000e+01 5.000000e+01
      vertex 4.975000e+01 3.925000e+01 0.000000e+00
    endloop
  endfacet
  facet normal 2.368480e-15 1.000000e+00 0.000000e+00
    outer loop
      vertex 4.975000e+01 3.925000e+01 0.000000e+00
      vertex 4.675000e+01 3.925000e+01 5.000000e+01
      vertex 4.975000e+01 3.925000e+01 5.000000e+01
    endloop
  endfacet
  facet normal -1.000000e+00 4.060240e-15 0.000000e+00
    outer loop
      vertex 4.675000e+01 3.750000e+01 0.000000e+00
      vertex 4.675000e+01 3.750000e+01 5.000000e+01
      vertex 4.675000e+01 3.925000e+01 0.000000e+00
    endloop
  endfacet
  facet normal -1.000000e+00 4.060240e-15 0.000000e+00
    outer loop
      vertex 4.675000e+01 3.925000e+01 0.000000e+00
      vertex 4.675000e+01 3.750000e+01 5.000000e+01
      vertex 4.675000e+01 3.925000e+01 5.000000e+01
    endloop
  endfacet
  facet normal 0.000000e+00 1.000000e+00 0.000000e+00
    outer loop
      vertex -3.208640e+01 3.750000e+01 4.343630e+01
      vertex 4.675000e+01 3.750000e+01 0.000000e+00
      vertex -3.377840e+01 3.750000e+01 4.305010e+01
    endloop
  endfacet
  facet normal 0.000000e+00 1.000000e+00 0.000000e+00
    outer loop
      vertex -3.208640e+01 3.750000e+01 4.656370e+01
      vertex -4.675000e+01 3.750000e+01 5.000000e+01
      vertex 4.675000e+01 3.750000e+01 5.000000e+01
    endloop
  endfacet
  facet normal 0.000000e+00 1.000000e+00 0.000000e+00
    outer loop
      vertex -3.513530e+01 3.750000e+01 4.413220e+01
      vertex -4.675000e+01 3.750000e+01 5.000000e+01
      vertex -3.513530e+01 3.750000e+01 4.586780e+01
    endloop
  endfacet
  facet normal 0.000000e+00 1.000000e+00 0.000000e+00
    outer loop
      vertex -4.675000e+01 3.750000e+01 0.000000e+00
      vertex -4.675000e+01 3.750000e+01 5.000000e+01
      vertex -3.377840e+01 3.750000e+01 4.305010e+01
    endloop
  endfacet
  facet normal 0.000000e+00 1.000000e+00 0.000000e+00
    outer loop
      vertex -4.675000e+01 3.750000e+01 0.000000e+00
      vertex -3.377840e+01 3.750000e+01 4.305010e+01
      vertex 4.675000e+01 3.750000e+01 0.000000e+00
    endloop
  endfacet
  facet normal 0.000000e+00 1.000000e+00 0.000000e+00
    outer loop
      vertex -3.133330e+01 3.750000e+01 4.500000e+01
      vertex 4.675000e+01 3.750000e+01 0.000000e+00
      vertex -3.208640e+01 3.750000e+01 4.343630e+01
    endloop
  endfacet
  facet normal 0.000000e+00 1.000000e+00 0.000000e+00
    outer loop
      vertex -3.208640e+01 3.750000e+01 4.656370e+01
      vertex 4.675000e+01 3.750000e+01 5.000000e+01
      vertex -3.133330e+01 3.750000e+01 4.500000e+01
    endloop
  endfacet
  facet normal 0.000000e+00 1.000000e+00 0.000000e+00
    outer loop
      vertex 3.288830e+01 3.750000e+01 4.694990e+01
      vertex -3.133330e+01 3.750000e+01 4.500000e+01
      vertex 4.675000e+01 3.750000e+01 5.000000e+01
    endloop
  endfacet
  facet normal 0.000000e+00 1.000000e+00 0.000000e+00
    outer loop
      vertex -3.377840e+01 3.750000e+01 4.694990e+01
      vertex -4.675000e+01 3.750000e+01 5.000000e+01
      vertex -3.208640e+01 3.750000e+01 4.656370e+01
    endloop
  endfacet
  facet normal 0.000000e+00 1.000000e+00 0.000000e+00
    outer loop
      vertex 3.288830e+01 3.750000e+01 4.305010e+01
      vertex 4.675000e+01 3.750000e+01 0.000000e+00
      vertex 3.153140e+01 3.750000e+01 4.413220e+01
    endloop
  endfacet
  facet normal 0.000000e+00 1.000000e+00 0.000000e+00
    outer loop
      vertex -3.513530e+01 3.750000e+01 4.586780e+01
      vertex -4.675000e+01 3.750000e+01 5.000000e+01
      vertex -3.377840e+01 3.750000e+01 4.694990e+01
    endloop
  endfacet
  facet normal 0.000000e+00 1.000000e+00 0.000000e+00
    outer loop
      vertex 3.153140e+01 3.750000e+01 4.413220e+01
      vertex -3.133330e+01 3.750000e+01 4.500000e+01
      vertex 3.153140e+01 3.750000e+01 4.586780e+01
    endloop
  endfacet
  facet normal 0.000000e+00 1.000000e+00 0.000000e+00
    outer loop
      vertex 4.675000e+01 3.750000e+01 0.000000e+00
      vertex -3.133330e+01 3.750000e+01 4.500000e+01
      vertex 3.153140e+01 3.750000e+01 4.413220e+01
    endloop
  endfacet
  facet normal 0.000000e+00 1.000000e+00 0.000000e+00
    outer loop
      vertex 3.533330e+01 3.750000e+01 4.500000e+01
      vertex 4.675000e+01 3.750000e+01 5.000000e+01
      vertex 3.458030e+01 3.750000e+01 4.343630e+01
    endloop
  endfacet
  facet normal 0.000000e+00 1.000000e+00 0.000000e+00
    outer loop
      vertex 4.675000e+01 3.750000e+01 0.000000e+00
      vertex 3.288830e+01 3.750000e+01 4.305010e+01
      vertex 3.458030e+01 3.750000e+01 4.343630e+01
    endloop
  endfacet
  facet normal 0.000000e+00 1.000000e+00 0.000000e+00
    outer loop
      vertex 4.675000e+01 3.750000e+01 0.000000e+00
      vertex 3.458030e+01 3.750000e+01 4.343630e+01
      vertex 4.675000e+01 3.750000e+01 5.000000e+01
    endloop
  endfacet
  facet normal 0.000000e+00 1.000000e+00 0.000000e+00
    outer loop
      vertex 3.288830e+01 3.750000e+01 4.694990e+01
      vertex 4.675000e+01 3.750000e+01 5.000000e+01
      vertex 3.458030e+01 3.750000e+01 4.656370e+01
    endloop
  endfacet
  facet normal 0.000000e+00 1.000000e+00 0.000000e+00
    outer loop
      vertex 3.533330e+01 3.750000e+01 4.500000e+01
      vertex 3.458030e+01 3.750000e+01 4.656370e+01
      vertex 4.675000e+01 3.750000e+01 5.000000e+01
    endloop
  endfacet
  facet normal 0.000000e+00 1.000000e+00 0.000000e+00
    outer loop
      vertex 3.153140e+01 3.750000e+01 4.586780e+01
      vertex -3.133330e+01 3.750000e+01 4.500000e+01
      vertex 3.288830e+01 3.750000e+01 4.694990e+01
    endloop
  endfacet
  facet normal 0.000000e+00 1.000000e+00 0.000000e+00
    outer loop
      vertex -3.377840e+01 3.750000e+01 4.305010e+01
      vertex -4.675000e+01 3.750000e+01 5.000000e+01
      vertex -3.513530e+01 3.750000e+01 4.413220e+01
    endloop
  endfacet
  facet normal 1.000000e+00 0.000000e+00 0.000000e+00
    outer loop
      vertex -4.675000e+01 3.750000e+01 5.000000e+01
      vertex -4.675000e+01 3.750000e+01 0.000000e+00
      vertex -4.675000e+01 3.925000e+01 0.000000e+00
    endloop
  endfacet
  facet normal 1.000000e+00 0.000000e+00 0.000000e+00
    outer loop
      vertex -4.675000e+01 3.925000e+01 5.000000e+01
      vertex -4.675000e+01 3.750000e+01 5.000000e+01
      vertex -4.675000e+01 3.925000e+01 0.000000e+00
    endloop
  endfacet
  facet normal 1.776360e-15 1.000000e+00 0.000000e+00
    outer loop
      vertex -5.075000e+01 3.925000e+01 0.000000e+00
      vertex -5.075000e+01 3.925000e+01 5.000000e+01
      vertex -4.675000e+01 3.925000e+01 0.000000e+00
    endloop
  endfacet
  facet normal 1.776360e-15 1.000000e+00 0.000000e+00
    outer loop
      vertex -4.675000e+01 3.925000e+01 0.000000e+00
      vertex -5.075000e+01 3.925000e+01 5.000000e+01
      vertex -4.675000e+01 3.925000e+01 5.000000e+01
    endloop
  endfacet
  facet normal 0.000000e+00 1.000000e+00 0.000000e+00
    outer loop
      vertex -5.175000e+01 3.925000e+01 0.000000e+00
      vertex -5.175000e+01 3.925000e+01 5.000000e+01
      vertex -5.075000e+01 3.925000e+01 0.000000e+00
    endloop
  endfacet
  facet normal 0.000000e+00 1.000000e+00 0.000000e+00
    outer loop
      vertex -5.075000e+01 3.925000e+01 0.000000e+00
      vertex -5.175000e+01 3.925000e+01 5.000000e+01
      vertex -5.075000e+01 3.925000e+01 5.000000e+01
    endloop
  endfacet
  facet normal -1.000000e+00 3.552710e-15 0.000000e+00
    outer loop
      vertex -5.175000e+01 3.725000e+01 0.000000e+00
      vertex -5.175000e+01 3.725000e+01 5.000000e+01
      vertex -5.175000e+01 3.925000e+01 0.000000e+00
    endloop
  endfacet
  facet normal -1.000000e+00 3.552710e-15 0.000000e+00
    outer loop
      vertex -5.175000e+01 3.925000e+01 0.000000e+00
      vertex -5.175000e+01 3.725000e+01 5.000000e+01
      vertex -5.175000e+01 3.925000e+01 5.000000e+01
    endloop
  endfacet
  facet normal 1.000000e+00 0.000000e+00 0.000000e+00
    outer loop
      vertex -4.800000e+01 3.550000e+01 5.000000e+00
      vertex -4.800000e+01 3.550000e+01 5.000000e+01
      vertex -4.800000e+01 -3.550000e+01 5.000000e+01
    endloop
  endfacet
  facet normal 1.000000e+00 0.000000e+00 0.000000e+00
    outer loop
      vertex -4.800000e+01 -3.550000e+01 5.000000e+00
      vertex -4.800000e+01 3.550000e+01 5.000000e+00
      vertex -4.800000e+01 -3.550000e+01 5.000000e+01
    endloop
  endfacet
  facet normal 0.000000e+00 1.000000e+00 0.000000e+00
    outer loop
      vertex -5.000000e-01 -3.550000e+01 3.816670e+01
      vertex 4.800000e+01 -3.550000e+01 5.000000e+00
      vertex -4.800000e+01 -3.550000e+01 5.000000e+01
    endloop
  endfacet
  facet normal 0.000000e+00 1.000000e+00 0.000000e+00
    outer loop
      vertex -4.800000e+01 -3.550000e+01 5.000000e+01
      vertex 4.800000e+01 -3.550000e+01 5.000000e+00
      vertex -4.800000e+01 -3.550000e+01 5.000000e+00
    endloop
  endfacet
  facet normal 0.000000e+00 1.000000e+00 0.000000e+00
    outer loop
      vertex 1.060660e+00 -3.550000e+01 4.060600e+01
      vertex 4.800000e+01 -3.550000e+01 5.000000e+01
      vertex 5.740250e-01 -3.550000e+01 4.028080e+01
    endloop
  endfacet
  facet normal 0.000000e+00 1.000000e+00 0.000000e+00
    outer loop
      vertex -1.500000e+00 -3.550000e+01 4.166670e+01
      vertex -1.385820e+00 -3.550000e+01 4.109260e+01
      vertex -4.800000e+01 -3.550000e+01 5.000000e+01
    endloop
  endfacet
  facet normal 0.000000e+00 1.000000e+00 0.000000e+00
    outer loop
      vertex -1.385820e+00 -3.550000e+01 4.109260e+01
      vertex -1.060660e+00 -3.550000e+01 4.060600e+01
      vertex -4.800000e+01 -3.550000e+01 5.000000e+01
    endloop
  endfacet
  facet normal 0.000000e+00 1.000000e+00 0.000000e+00
    outer loop
      vertex 5.000000e-01 -3.550000e+01 3.816670e+01
      vertex 4.800000e+01 -3.550000e+01 5.000000e+00
      vertex -5.000000e-01 -3.550000e+01 3.816670e+01
    endloop
  endfacet
  facet normal 0.000000e+00 1.000000e+00 0.000000e+00
    outer loop
      vertex -1.060660e+00 -3.550000e+01 4.060600e+01
      vertex -5.000000e-01 -3.550000e+01 3.816670e+01
      vertex -4.800000e+01 -3.550000e+01 5.000000e+01
    endloop
  endfacet
  facet normal 0.000000e+00 1.000000e+00 0.000000e+00
    outer loop
      vertex 5.000000e-01 -3.550000e+01 4.026610e+01
      vertex 4.800000e+01 -3.550000e+01 5.000000e+00
      vertex 5.000000e-01 -3.550000e+01 3.816670e+01
    endloop
  endfacet
  facet normal 0.000000e+00 1.000000e+00 0.000000e+00
    outer loop
      vertex 5.740250e-01 -3.550000e+01 4.028080e+01
      vertex 4.800000e+01 -3.550000e+01 5.000000e+00
      vertex 5.000000e-01 -3.550000e+01 4.026610e+01
    endloop
  endfacet
  facet normal 0.000000e+00 1.000000e+00 0.000000e+00
    outer loop
      vertex 4.800000e+01 -3.550000e+01 5.000000e+01
      vertex 4.800000e+01 -3.550000e+01 5.000000e+00
      vertex 5.740250e-01 -3.550000e+01 4.028080e+01
    endloop
  endfacet
  facet normal 0.000000e+00 1.000000e+00 0.000000e+00
    outer loop
      vertex 1.500000e+00 -3.550000e+01 4.166670e+01
      vertex 4.800000e+01 -3.550000e+01 5.000000e+01
      vertex 1.385820e+00 -3.550000e+01 4.109260e+01
    endloop
  endfacet
  facet normal 0.000000e+00 1.000000e+00 0.000000e+00
    outer loop
      vertex 4.800000e+01 -3.550000e+01 5.000000e+01
      vertex 1.060660e+00 -3.550000e+01 4.060600e+01
      vertex 1.385820e+00 -3.550000e+01 4.109260e+01
    endloop
  endfacet
  facet normal 0.000000e+00 1.000000e+00 0.000000e+00
    outer loop
      vertex -5.740250e-01 -3.550000e+01 4.305250e+01
      vertex -4.800000e+01 -3.550000e+01 5.000000e+01
      vertex 0.000000e+00 -3.550000e+01 4.316670e+01
    endloop
  endfacet
  facet normal 0.000000e+00 1.000000e+00 0.000000e+00
    outer loop
      vertex 4.800000e+01 -3.550000e+01 5.000000e+01
      vertex 1.500000e+00 -3.550000e+01 4.166670e+01
      vertex 1.385820e+00 -3.550000e+01 4.224070e+01
    endloop
  endfacet
  facet normal 0.000000e+00 1.000000e+00 0.000000e+00
    outer loop
      vertex 4.800000e+01 -3.550000e+01 5.000000e+01
      vertex 1.385820e+00 -3.550000e+01 4.224070e+01
      vertex 1.060660e+00 -3.550000e+01 4.272730e+01
    endloop
  endfacet
  facet normal 0.000000e+00 1.000000e+00 0.000000e+00
    outer loop
      vertex 4.800000e+01 -3.550000e+01 5.000000e+01
      vertex 1.060660e+00 -3.550000e+01 4.272730e+01
      vertex 5.740250e-01 -3.550000e+01 4.305250e+01
    endloop
  endfacet
  facet normal 0.000000e+00 1.000000e+00 0.000000e+00
    outer loop
      vertex 4.800000e+01 -3.550000e+01 5.000000e+01
      vertex 5.740250e-01 -3.550000e+01 4.305250e+01
      vertex 0.000000e+00 -3.550000e+01 4.316670e+01
    endloop
  endfacet
  facet normal 0.000000e+00 1.000000e+00 0.000000e+00
    outer loop
      vertex 4.800000e+01 -3.550000e+01 5.000000e+01
      vertex 0.000000e+00 -3.550000e+01 4.316670e+01
      vertex -4.800000e+01 -3.550000e+01 5.000000e+01
    endloop
  endfacet
  facet normal 0.000000e+00 1.000000e+00 0.000000e+00
    outer loop
      vertex -1.060660e+00 -3.550000e+01 4.272730e+01
      vertex -4.800000e+01 -3.550000e+01 5.000000e+01
      vertex -5.740250e-01 -3.550000e+01 4.305250e+01
    endloop
  endfacet
  facet normal 0.000000e+00 1.000000e+00 0.000000e+00
    outer loop
      vertex -1.385820e+00 -3.550000e+01 4.224070e+01
      vertex -4.800000e+01 -3.550000e+01 5.000000e+01
      vertex -1.060660e+00 -3.550000e+01 4.272730e+01
    endloop
  endfacet
  facet normal 0.000000e+00 1.000000e+00 0.000000e+00
    outer loop
      vertex -1.500000e+00 -3.550000e+01 4.166670e+01
      vertex -4.800000e+01 -3.550000e+01 5.000000e+01
      vertex -1.385820e+00 -3.550000e+01 4.224070e+01
    endloop
  endfacet
  facet normal 0.000000e+00 1.000000e+00 0.000000e+00
    outer loop
      vertex -5.000000e-01 -3.550000e+01 3.816670e+01
      vertex -1.060660e+00 -3.550000e+01 4.060600e+01
      vertex -5.740250e-01 -3.550000e+01 4.028080e+01
    endloop
  endfacet
  facet normal 0.000000e+00 1.000000e+00 0.000000e+00
    outer loop
      vertex -5.000000e-01 -3.550000e+01 3.816670e+01
      vertex -5.740250e-01 -3.550000e+01 4.028080e+01
      vertex -5.000000e-01 -3.550000e+01 4.026610e+01
    endloop
  endfacet
  facet normal -1.000000e+00 0.000000e+00 0.000000e+00
    outer loop
      vertex 4.800000e+01 3.550000e+01 5.000000e+01
      vertex 4.800000e+01 3.550000e+01 5.000000e+00
      vertex 4.800000e+01 -3.550000e+01 5.000000e+01
    endloop
  endfacet
  facet normal -1.000000e+00 0.000000e+00 0.000000e+00
    outer loop
      vertex 4.800000e+01 -3.550000e+01 5.000000e+01
      vertex 4.800000e+01 3.550000e+01 5.000000e+00
      vertex 4.800000e+01 -3.550000e+01 5.000000e+00
    endloop
  endfacet
  facet normal 0.000000e+00 -1.000000e+00 0.000000e+00
    outer loop
      vertex -3.377840e+01 3.550000e+01 4.694990e+01
      vertex 4.800000e+01 3.550000e+01 5.000000e+01
      vertex -4.800000e+01 3.550000e+01 5.000000e+01
    endloop
  endfacet
  facet normal 0.000000e+00 -1.000000e+00 0.000000e+00
    outer loop
      vertex -3.513530e+01 3.550000e+01 4.586780e+01
      vertex -3.377840e+01 3.550000e+01 4.694990e+01
      vertex -4.800000e+01 3.550000e+01 5.000000e+01
    endloop
  endfacet
  facet normal 0.000000e+00 -1.000000e+00 0.000000e+00
    outer loop
      vertex -3.208640e+01 3.550000e+01 4.656370e+01
      vertex 4.800000e+01 3.550000e+01 5.000000e+01
      vertex -3.377840e+01 3.550000e+01 4.694990e+01
    endloop
  endfacet
  facet normal 0.000000e+00 -1.000000e+00 0.000000e+00
    outer loop
      vertex -3.133330e+01 3.550000e+01 4.500000e+01
      vertex -3.208640e+01 3.550000e+01 4.343630e+01
      vertex 4.800000e+01 3.550000e+01 5.000000e+00
    endloop
  endfacet
  facet normal 0.000000e+00 -1.000000e+00 0.000000e+00
    outer loop
      vertex 3.288830e+01 3.550000e+01 4.694990e+01
      vertex 4.800000e+01 3.550000e+01 5.000000e+01
      vertex -3.133330e+01 3.550000e+01 4.500000e+01
    endloop
  endfacet
  facet normal 0.000000e+00 -1.000000e+00 0.000000e+00
    outer loop
      vertex -3.208640e+01 3.550000e+01 4.656370e+01
      vertex -3.133330e+01 3.550000e+01 4.500000e+01
      vertex 4.800000e+01 3.550000e+01 5.000000e+01
    endloop
  endfacet
  facet normal 0.000000e+00 -1.000000e+00 0.000000e+00
    outer loop
      vertex -3.377840e+01 3.550000e+01 4.305010e+01
      vertex -3.513530e+01 3.550000e+01 4.413220e+01
      vertex -4.800000e+01 3.550000e+01 5.000000e+01
    endloop
  endfacet
  facet normal 0.000000e+00 -1.000000e+00 0.000000e+00
    outer loop
      vertex -4.800000e+01 3.550000e+01 5.000000e+00
      vertex -3.377840e+01 3.550000e+01 4.305010e+01
      vertex -4.800000e+01 3.550000e+01 5.000000e+01
    endloop
  endfacet
  facet normal 0.000000e+00 -1.000000e+00 0.000000e+00
    outer loop
      vertex -4.800000e+01 3.550000e+01 5.000000e+00
      vertex 4.800000e+01 3.550000e+01 5.000000e+00
      vertex -3.377840e+01 3.550000e+01 4.305010e+01
    endloop
  endfacet
  facet normal 0.000000e+00 -1.000000e+00 0.000000e+00
    outer loop
      vertex 3.288830e+01 3.550000e+01 4.694990e+01
      vertex 3.458030e+01 3.550000e+01 4.656370e+01
      vertex 4.800000e+01 3.550000e+01 5.000000e+01
    endloop
  endfacet
  facet normal 0.000000e+00 -1.000000e+00 0.000000e+00
    outer loop
      vertex 3.153140e+01 3.550000e+01 4.413220e+01
      vertex 3.153140e+01 3.550000e+01 4.586780e+01
      vertex -3.133330e+01 3.550000e+01 4.500000e+01
    endloop
  endfacet
  facet normal 0.000000e+00 -1.000000e+00 0.000000e+00
    outer loop
      vertex 3.153140e+01 3.550000e+01 4.586780e+01
      vertex 3.288830e+01 3.550000e+01 4.694990e+01
      vertex -3.133330e+01 3.550000e+01 4.500000e+01
    endloop
  endfacet
  facet normal 0.000000e+00 -1.000000e+00 0.000000e+00
    outer loop
      vertex 3.533330e+01 3.550000e+01 4.500000e+01
      vertex 3.458030e+01 3.550000e+01 4.343630e+01
      vertex 4.800000e+01 3.550000e+01 5.000000e+00
    endloop
  endfacet
  facet normal 0.000000e+00 -1.000000e+00 0.000000e+00
    outer loop
      vertex 3.533330e+01 3.550000e+01 4.500000e+01
      vertex 4.800000e+01 3.550000e+01 5.000000e+01
      vertex 3.458030e+01 3.550000e+01 4.656370e+01
    endloop
  endfacet
  facet normal 0.000000e+00 -1.000000e+00 0.000000e+00
    outer loop
      vertex 3.288830e+01 3.550000e+01 4.305010e+01
      vertex 3.153140e+01 3.550000e+01 4.413220e+01
      vertex 4.800000e+01 3.550000e+01 5.000000e+00
    endloop
  endfacet
  facet normal 0.000000e+00 -1.000000e+00 0.000000e+00
    outer loop
      vertex 4.800000e+01 3.550000e+01 5.000000e+00
      vertex 4.800000e+01 3.550000e+01 5.000000e+01
      vertex 3.533330e+01 3.550000e+01 4.500000e+01
    endloop
  endfacet
  facet normal 0.000000e+00 -1.000000e+00 0.000000e+00
    outer loop
      vertex 4.800000e+01 3.550000e+01 5.000000e+00
      vertex 3.458030e+01 3.550000e+01 4.343630e+01
      vertex 3.288830e+01 3.550000e+01 4.305010e+01
    endloop
  endfacet
  facet normal 0.000000e+00 -1.000000e+00 0.000000e+00
    outer loop
      vertex 4.800000e+01 3.550000e+01 5.000000e+00
      vertex 3.153140e+01 3.550000e+01 4.413220e+01
      vertex -3.133330e+01 3.550000e+01 4.500000e+01
    endloop
  endfacet
  facet normal 0.000000e+00 -1.000000e+00 0.000000e+00
    outer loop
      vertex -3.513530e+01 3.550000e+01 4.413220e+01
      vertex -3.513530e+01 3.550000e+01 4.586780e+01
      vertex -4.800000e+01 3.550000e+01 5.000000e+01
    endloop
  endfacet
  facet normal 0.000000e+00 -1.000000e+00 0.000000e+00
    outer loop
      vertex -3.208640e+01 3.550000e+01 4.343630e+01
      vertex -3.377840e+01 3.550000e+01 4.305010e+01
      vertex 4.800000e+01 3.550000e+01 5.000000e+00
    endloop
  endfacet
  facet normal -8.314699e-01 -0.000000e+00 -5.555699e-01
    outer loop
      vertex -4.619400e+00 -3.800000e+01 3.975320e+01
      vertex -4.619400e+00 -3.750000e+01 3.975320e+01
      vertex -3.535530e+00 -3.800000e+01 3.813110e+01
    endloop
  endfacet
  facet normal -8.314699e-01 -0.000000e+00 -5.555699e-01
    outer loop
      vertex -3.535530e+00 -3.800000e+01 3.813110e+01
      vertex -4.619400e+00 -3.750000e+01 3.975320e+01
      vertex -3.535530e+00 -3.750000e+01 3.813110e+01
    endloop
  endfacet
  facet normal -9.807854e-01 -0.000000e+00 -1.950901e-01
    outer loop
      vertex -5.000000e+00 -3.800000e+01 4.166670e+01
      vertex -5.000000e+00 -3.750000e+01 4.166670e+01
      vertex -4.619400e+00 -3.800000e+01 3.975320e+01
    endloop
  endfacet
  facet normal -9.807854e-01 -0.000000e+00 -1.950901e-01
    outer loop
      vertex -4.619400e+00 -3.800000e+01 3.975320e+01
      vertex -5.000000e+00 -3.750000e+01 4.166670e+01
      vertex -4.619400e+00 -3.750000e+01 3.975320e+01
    endloop
  endfacet
  facet normal -5.555699e-01 -0.000000e+00 -8.314699e-01
    outer loop
      vertex -3.535530e+00 -3.800000e+01 3.813110e+01
      vertex -3.535530e+00 -3.750000e+01 3.813110e+01
      vertex -1.913420e+00 -3.800000e+01 3.704730e+01
    endloop
  endfacet
  facet normal -5.555699e-01 -0.000000e+00 -8.314699e-01
    outer loop
      vertex -1.913420e+00 -3.800000e+01 3.704730e+01
      vertex -3.535530e+00 -3.750000e+01 3.813110e+01
      vertex -1.913420e+00 -3.750000e+01 3.704730e+01
    endloop
  endfacet
  facet normal -1.950901e-01 -0.000000e+00 -9.807854e-01
    outer loop
      vertex -1.913420e+00 -3.800000e+01 3.704730e+01
      vertex -1.913420e+00 -3.750000e+01 3.704730e+01
      vertex 0.000000e+00 -3.800000e+01 3.666670e+01
    endloop
  endfacet
  facet normal -1.950901e-01 -0.000000e+00 -9.807854e-01
    outer loop
      vertex 0.000000e+00 -3.800000e+01 3.666670e+01
      vertex -1.913420e+00 -3.750000e+01 3.704730e+01
      vertex 0.000000e+00 -3.750000e+01 3.666670e+01
    endloop
  endfacet
  facet normal 1.950901e-01 0.000000e+00 -9.807854e-01
    outer loop
      vertex 0.000000e+00 -3.800000e+01 3.666670e+01
      vertex 0.000000e+00 -3.750000e+01 3.666670e+01
      vertex 1.913420e+00 -3.800000e+01 3.704730e+01
    endloop
  endfacet
  facet normal 1.950901e-01 0.000000e+00 -9.807854e-01
    outer loop
      vertex 1.913420e+00 -3.800000e+01 3.704730e+01
      vertex 0.000000e+00 -3.750000e+01 3.666670e+01
      vertex 1.913420e+00 -3.750000e+01 3.704730e+01
    endloop
  endfacet
  facet normal 5.555699e-01 0.000000e+00 -8.314699e-01
    outer loop
      vertex 1.913420e+00 -3.800000e+01 3.704730e+01
      vertex 1.913420e+00 -3.750000e+01 3.704730e+01
      vertex 3.535530e+00 -3.800000e+01 3.813110e+01
    endloop
  endfacet
  facet normal 5.555699e-01 0.000000e+00 -8.314699e-01
    outer loop
      vertex 3.535530e+00 -3.800000e+01 3.813110e+01
      vertex 1.913420e+00 -3.750000e+01 3.704730e+01
      vertex 3.535530e+00 -3.750000e+01 3.813110e+01
    endloop
  endfacet
  facet normal 8.314699e-01 0.000000e+00 -5.555699e-01
    outer loop
      vertex 4.619400e+00 -3.800000e+01 3.975320e+01
      vertex 3.535530e+00 -3.800000e+01 3.813110e+01
      vertex 3.535530e+00 -3.750000e+01 3.813110e+01
    endloop
  endfacet
  facet normal 8.314699e-01 0.000000e+00 -5.555699e-01
    outer loop
      vertex 4.619400e+00 -3.750000e+01 3.975320e+01
      vertex 4.619400e+00 -3.800000e+01 3.975320e+01
      vertex 3.535530e+00 -3.750000e+01 3.813110e+01
    endloop
  endfacet
  facet normal 9.807854e-01 0.000000e+00 -1.950901e-01
    outer loop
      vertex 5.000000e+00 -3.800000e+01 4.166670e+01
      vertex 4.619400e+00 -3.800000e+01 3.975320e+01
      vertex 4.619400e+00 -3.750000e+01 3.975320e+01
    endloop
  endfacet
  facet normal 9.807854e-01 0.000000e+00 -1.950901e-01
    outer loop
      vertex 5.000000e+00 -3.750000e+01 4.166670e+01
      vertex 5.000000e+00 -3.800000e+01 4.166670e+01
      vertex 4.619400e+00 -3.750000e+01 3.975320e+01
    endloop
  endfacet
  facet normal 9.807854e-01 0.000000e+00 1.950901e-01
    outer loop
      vertex 4.619400e+00 -3.750000e+01 4.358010e+01
      vertex 4.619400e+00 -3.800000e+01 4.358010e+01
      vertex 5.000000e+00 -3.800000e+01 4.166670e+01
    endloop
  endfacet
  facet normal 9.807854e-01 0.000000e+00 1.950901e-01
    outer loop
      vertex 5.000000e+00 -3.750000e+01 4.166670e+01
      vertex 4.619400e+00 -3.750000e+01 4.358010e+01
      vertex 5.000000e+00 -3.800000e+01 4.166670e+01
    endloop
  endfacet
  facet normal 8.314699e-01 0.000000e+00 5.555699e-01
    outer loop
      vertex 3.535530e+00 -3.750000e+01 4.520220e+01
      vertex 3.535530e+00 -3.800000e+01 4.520220e+01
      vertex 4.619400e+00 -3.800000e+01 4.358010e+01
    endloop
  endfacet
  facet normal 8.314699e-01 0.000000e+00 5.555699e-01
    outer loop
      vertex 4.619400e+00 -3.750000e+01 4.358010e+01
      vertex 3.535530e+00 -3.750000e+01 4.520220e+01
      vertex 4.619400e+00 -3.800000e+01 4.358010e+01
    endloop
  endfacet
  facet normal 5.555699e-01 0.000000e+00 8.314699e-01
    outer loop
      vertex 1.913420e+00 -3.750000e+01 4.628610e+01
      vertex 1.913420e+00 -3.800000e+01 4.628610e+01
      vertex 3.535530e+00 -3.800000e+01 4.520220e+01
    endloop
  endfacet
  facet normal 5.555699e-01 0.000000e+00 8.314699e-01
    outer loop
      vertex 3.535530e+00 -3.750000e+01 4.520220e+01
      vertex 1.913420e+00 -3.750000e+01 4.628610e+01
      vertex 3.535530e+00 -3.800000e+01 4.520220e+01
    endloop
  endfacet
  facet normal 1.950901e-01 0.000000e+00 9.807854e-01
    outer loop
      vertex 0.000000e+00 -3.750000e+01 4.666670e+01
      vertex 0.000000e+00 -3.800000e+01 4.666670e+01
      vertex 1.913420e+00 -3.800000e+01 4.628610e+01
    endloop
  endfacet
  facet normal 1.950901e-01 0.000000e+00 9.807854e-01
    outer loop
      vertex 1.913420e+00 -3.750000e+01 4.628610e+01
      vertex 0.000000e+00 -3.750000e+01 4.666670e+01
      vertex 1.913420e+00 -3.800000e+01 4.628610e+01
    endloop
  endfacet
  facet normal -1.950901e-01 0.000000e+00 9.807854e-01
    outer loop
      vertex -1.913420e+00 -3.750000e+01 4.628610e+01
      vertex -1.913420e+00 -3.800000e+01 4.628610e+01
      vertex 0.000000e+00 -3.800000e+01 4.666670e+01
    endloop
  endfacet
  facet normal -1.950901e-01 0.000000e+00 9.807854e-01
    outer loop
      vertex 0.000000e+00 -3.750000e+01 4.666670e+01
      vertex -1.913420e+00 -3.750000e+01 4.628610e+01
      vertex 0.000000e+00 -3.800000e+01 4.666670e+01
    endloop
  endfacet
  facet normal -5.555699e-01 0.000000e+00 8.314699e-01
    outer loop
      vertex -3.535530e+00 -3.750000e+01 4.520220e+01
      vertex -3.535530e+00 -3.800000e+01 4.520220e+01
      vertex -1.913420e+00 -3.800000e+01 4.628610e+01
    endloop
  endfacet
  facet normal -5.555699e-01 0.000000e+00 8.314699e-01
    outer loop
      vertex -1.913420e+00 -3.750000e+01 4.628610e+01
      vertex -3.535530e+00 -3.750000e+01 4.520220e+01
      vertex -1.913420e+00 -3.800000e+01 4.628610e+01
    endloop
  endfacet
  facet normal -8.314699e-01 0.000000e+00 5.555699e-01
    outer loop
      vertex -4.619400e+00 -3.800000e+01 4.358010e+01
      vertex -3.535530e+00 -3.800000e+01 4.520220e+01
      vertex -4.619400e+00 -3.750000e+01 4.358010e+01
    endloop
  endfacet
  facet normal -8.314699e-01 0.000000e+00 5.555699e-01
    outer loop
      vertex -4.619400e+00 -3.750000e+01 4.358010e+01
      vertex -3.535530e+00 -3.800000e+01 4.520220e+01
      vertex -3.535530e+00 -3.750000e+01 4.520220e+01
    endloop
  endfacet
  facet normal -9.807854e-01 0.000000e+00 1.950901e-01
    outer loop
      vertex -5.000000e+00 -3.800000e+01 4.166670e+01
      vertex -4.619400e+00 -3.800000e+01 4.358010e+01
      vertex -5.000000e+00 -3.750000e+01 4.166670e+01
    endloop
  endfacet
  facet normal -9.807854e-01 0.000000e+00 1.950901e-01
    outer loop
      vertex -5.000000e+00 -3.750000e+01 4.166670e+01
      vertex -4.619400e+00 -3.800000e+01 4.358010e+01
      vertex -4.619400e+00 -3.750000e+01 4.358010e+01
    endloop
  endfacet
  facet normal 1.000000e+00 0.000000e+00 0.000000e+00
    outer loop
      vertex -3.513530e+01 3.750000e+01 4.413220e+01
      vertex -3.513530e+01 3.750000e+01 4.586780e+01
      vertex -3.513530e+01 3.550000e+01 4.586780e+01
    endloop
  endfacet
  facet normal 1.000000e+00 0.000000e+00 0.000000e+00
    outer loop
      vertex -3.513530e+01 3.550000e+01 4.413220e+01
      vertex -3.513530e+01 3.750000e+01 4.413220e+01
      vertex -3.513530e+01 3.550000e+01 4.586780e+01
    endloop
  endfacet
  facet normal 6.234901e-01 0.000000e+00 -7.818312e-01
    outer loop
      vertex -3.377840e+01 3.750000e+01 4.694990e+01
      vertex -3.377840e+01 3.550000e+01 4.694990e+01
      vertex -3.513530e+01 3.750000e+01 4.586780e+01
    endloop
  endfacet
  facet normal 6.234901e-01 0.000000e+00 -7.818312e-01
    outer loop
      vertex -3.513530e+01 3.750000e+01 4.586780e+01
      vertex -3.377840e+01 3.550000e+01 4.694990e+01
      vertex -3.513530e+01 3.550000e+01 4.586780e+01
    endloop
  endfacet
  facet normal -2.225210e-01 0.000000e+00 -9.749279e-01
    outer loop
      vertex -3.208640e+01 3.750000e+01 4.656370e+01
      vertex -3.208640e+01 3.550000e+01 4.656370e+01
      vertex -3.377840e+01 3.750000e+01 4.694990e+01
    endloop
  endfacet
  facet normal -2.225210e-01 0.000000e+00 -9.749279e-01
    outer loop
      vertex -3.377840e+01 3.750000e+01 4.694990e+01
      vertex -3.208640e+01 3.550000e+01 4.656370e+01
      vertex -3.377840e+01 3.550000e+01 4.694990e+01
    endloop
  endfacet
  facet normal -9.009688e-01 0.000000e+00 -4.338839e-01
    outer loop
      vertex -3.133330e+01 3.750000e+01 4.500000e+01
      vertex -3.133330e+01 3.550000e+01 4.500000e+01
      vertex -3.208640e+01 3.750000e+01 4.656370e+01
    endloop
  endfacet
  facet normal -9.009688e-01 0.000000e+00 -4.338839e-01
    outer loop
      vertex -3.208640e+01 3.750000e+01 4.656370e+01
      vertex -3.133330e+01 3.550000e+01 4.500000e+01
      vertex -3.208640e+01 3.550000e+01 4.656370e+01
    endloop
  endfacet
  facet normal -9.009688e-01 0.000000e+00 4.338839e-01
    outer loop
      vertex -3.133330e+01 3.750000e+01 4.500000e+01
      vertex -3.208640e+01 3.750000e+01 4.343630e+01
      vertex -3.133330e+01 3.550000e+01 4.500000e+01
    endloop
  endfacet
  facet normal -9.009688e-01 0.000000e+00 4.338839e-01
    outer loop
      vertex -3.133330e+01 3.550000e+01 4.500000e+01
      vertex -3.208640e+01 3.750000e+01 4.343630e+01
      vertex -3.208640e+01 3.550000e+01 4.343630e+01
    endloop
  endfacet
  facet normal -2.225210e-01 0.000000e+00 9.749279e-01
    outer loop
      vertex -3.208640e+01 3.550000e+01 4.343630e+01
      vertex -3.208640e+01 3.750000e+01 4.343630e+01
      vertex -3.377840e+01 3.750000e+01 4.305010e+01
    endloop
  endfacet
  facet normal -2.225210e-01 0.000000e+00 9.749279e-01
    outer loop
      vertex -3.377840e+01 3.550000e+01 4.305010e+01
      vertex -3.208640e+01 3.550000e+01 4.343630e+01
      vertex -3.377840e+01 3.750000e+01 4.305010e+01
    endloop
  endfacet
  facet normal 6.234901e-01 0.000000e+00 7.818312e-01
    outer loop
      vertex -3.377840e+01 3.550000e+01 4.305010e+01
      vertex -3.377840e+01 3.750000e+01 4.305010e+01
      vertex -3.513530e+01 3.750000e+01 4.413220e+01
    endloop
  endfacet
  facet normal 6.234901e-01 0.000000e+00 7.818312e-01
    outer loop
      vertex -3.513530e+01 3.550000e+01 4.413220e+01
      vertex -3.377840e+01 3.550000e+01 4.305010e+01
      vertex -3.513530e+01 3.750000e+01 4.413220e+01
    endloop
  endfacet
  facet normal 6.234901e-01 0.000000e+00 -7.818312e-01
    outer loop
      vertex 3.288830e+01 3.750000e+01 4.694990e+01
      vertex 3.288830e+01 3.550000e+01 4.694990e+01
      vertex 3.153140e+01 3.750000e+01 4.586780e+01
    endloop
  endfacet
  facet normal 6.234901e-01 0.000000e+00 -7.818312e-01
    outer loop
      vertex 3.153140e+01 3.750000e+01 4.586780e+01
      vertex 3.288830e+01 3.550000e+01 4.694990e+01
      vertex 3.153140e+01 3.550000e+01 4.586780e+01
    endloop
  endfacet
  facet normal 1.000000e+00 0.000000e+00 0.000000e+00
    outer loop
      vertex 3.153140e+01 3.750000e+01 4.413220e+01
      vertex 3.153140e+01 3.750000e+01 4.586780e+01
      vertex 3.153140e+01 3.550000e+01 4.586780e+01
    endloop
  endfacet
  facet normal 1.000000e+00 0.000000e+00 0.000000e+00
    outer loop
      vertex 3.153140e+01 3.550000e+01 4.413220e+01
      vertex 3.153140e+01 3.750000e+01 4.413220e+01
      vertex 3.153140e+01 3.550000e+01 4.586780e+01
    endloop
  endfacet
  facet normal -2.225210e-01 0.000000e+00 -9.749279e-01
    outer loop
      vertex 3.458030e+01 3.750000e+01 4.656370e+01
      vertex 3.458030e+01 3.550000e+01 4.656370e+01
      vertex 3.288830e+01 3.750000e+01 4.694990e+01
    endloop
  endfacet
  facet normal -2.225210e-01 0.000000e+00 -9.749279e-01
    outer loop
      vertex 3.288830e+01 3.750000e+01 4.694990e+01
      vertex 3.458030e+01 3.550000e+01 4.656370e+01
      vertex 3.288830e+01 3.550000e+01 4.694990e+01
    endloop
  endfacet
  facet normal -9.009688e-01 0.000000e+00 -4.338839e-01
    outer loop
      vertex 3.533330e+01 3.750000e+01 4.500000e+01
      vertex 3.533330e+01 3.550000e+01 4.500000e+01
      vertex 3.458030e+01 3.750000e+01 4.656370e+01
    endloop
  endfacet
  facet normal -9.009688e-01 0.000000e+00 -4.338839e-01
    outer loop
      vertex 3.458030e+01 3.750000e+01 4.656370e+01
      vertex 3.533330e+01 3.550000e+01 4.500000e+01
      vertex 3.458030e+01 3.550000e+01 4.656370e+01
    endloop
  endfacet
  facet normal -9.009688e-01 0.000000e+00 4.338839e-01
    outer loop
      vertex 3.533330e+01 3.750000e+01 4.500000e+01
      vertex 3.458030e+01 3.750000e+01 4.343630e+01
      vertex 3.533330e+01 3.550000e+01 4.500000e+01
    endloop
  endfacet
  facet normal -9.009688e-01 0.000000e+00 4.338839e-01
    outer loop
      vertex 3.533330e+01 3.550000e+01 4.500000e+01
      vertex 3.458030e+01 3.750000e+01 4.343630e+01
      vertex 3.458030e+01 3.550000e+01 4.343630e+01
    endloop
  endfacet
  facet normal -2.225210e-01 0.000000e+00 9.749279e-01
    outer loop
      vertex 3.458030e+01 3.550000e+01 4.343630e+01
      vertex 3.458030e+01 3.750000e+01 4.343630e+01
      vertex 3.288830e+01 3.750000e+01 4.305010e+01
    endloop
  endfacet
  facet normal -2.225210e-01 0.000000e+00 9.749279e-01
    outer loop
      vertex 3.288830e+01 3.550000e+01 4.305010e+01
      vertex 3.458030e+01 3.550000e+01 4.343630e+01
      vertex 3.288830e+01 3.750000e+01 4.305010e+01
    endloop
  endfacet
  facet normal 6.234901e-01 0.000000e+00 7.818312e-01
    outer loop
      vertex 3.288830e+01 3.550000e+01 4.305010e+01
      vertex 3.288830e+01 3.750000e+01 4.305010e+01
      vertex 3.153140e+01 3.750000e+01 4.413220e+01
    endloop
  endfacet
  facet normal 6.234901e-01 0.000000e+00 7.818312e-01
    outer loop
      vertex 3.153140e+01 3.550000e+01 4.413220e+01
      vertex 3.288830e+01 3.550000e+01 4.305010e+01
      vertex 3.153140e+01 3.750000e+01 4.413220e+01
    endloop
  endfacet
  facet normal 0.000000e+00 0.000000e+00 1.000000e+00
    outer loop
      vertex 4.800000e+01 -3.550000e+01 5.000000e+00
      vertex 4.800000e+01 3.550000e+01 5.000000e+00
      vertex -4.800000e+01 3.550000e+01 5.000000e+00
    endloop
  endfacet
  facet normal 0.000000e+00 0.000000e+00 1.000000e+00
    outer loop
      vertex -4.800000e+01 -3.550000e+01 5.000000e+00
      vertex 4.800000e+01 -3.550000e+01 5.000000e+00
      vertex -4.800000e+01 3.550000e+01 5.000000e+00
    endloop
  endfacet
  facet normal 9.807851e-01 0.000000e+00 1.950910e-01
    outer loop
      vertex -1.385820e+00 -3.800000e+01 4.109260e+01
      vertex -1.385820e+00 -3.550000e+01 4.109260e+01
      vertex -1.500000e+00 -3.550000e+01 4.166670e+01
    endloop
  endfacet
  facet normal 9.807851e-01 2.772410e-16 1.950910e-01
    outer loop
      vertex -1.500000e+00 -3.800000e+01 4.166670e+01
      vertex -1.385820e+00 -3.800000e+01 4.109260e+01
      vertex -1.500000e+00 -3.550000e+01 4.166670e+01
    endloop
  endfacet
  facet normal 8.314699e-01 3.947559e-16 5.555699e-01
    outer loop
      vertex -1.060660e+00 -3.800000e+01 4.060600e+01
      vertex -1.060660e+00 -3.550000e+01 4.060600e+01
      vertex -1.385820e+00 -3.550000e+01 4.109260e+01
    endloop
  endfacet
  facet normal 8.314699e-01 0.000000e+00 5.555699e-01
    outer loop
      vertex -1.385820e+00 -3.800000e+01 4.109260e+01
      vertex -1.060660e+00 -3.800000e+01 4.060600e+01
      vertex -1.385820e+00 -3.550000e+01 4.109260e+01
    endloop
  endfacet
  facet normal 9.807851e-01 0.000000e+00 -1.950910e-01
    outer loop
      vertex -1.500000e+00 -3.550000e+01 4.166670e+01
      vertex -1.385820e+00 -3.550000e+01 4.224070e+01
      vertex -1.385820e+00 -3.800000e+01 4.224070e+01
    endloop
  endfacet
  facet normal 9.807851e-01 -2.772410e-16 -1.950910e-01
    outer loop
      vertex -1.500000e+00 -3.800000e+01 4.166670e+01
      vertex -1.500000e+00 -3.550000e+01 4.166670e+01
      vertex -1.385820e+00 -3.800000e+01 4.224070e+01
    endloop
  endfacet
  facet normal 8.314699e-01 0.000000e+00 -5.555699e-01
    outer loop
      vertex -1.385820e+00 -3.550000e+01 4.224070e+01
      vertex -1.060660e+00 -3.550000e+01 4.272730e+01
      vertex -1.060660e+00 -3.800000e+01 4.272730e+01
    endloop
  endfacet
  facet normal 8.314699e-01 0.000000e+00 -5.555699e-01
    outer loop
      vertex -1.385820e+00 -3.800000e+01 4.224070e+01
      vertex -1.385820e+00 -3.550000e+01 4.224070e+01
      vertex -1.060660e+00 -3.800000e+01 4.272730e+01
    endloop
  endfacet
  facet normal 5.555699e-01 0.000000e+00 -8.314699e-01
    outer loop
      vertex -5.740250e-01 -3.550000e+01 4.305250e+01
      vertex -5.740250e-01 -3.800000e+01 4.305250e+01
      vertex -1.060660e+00 -3.550000e+01 4.272730e+01
    endloop
  endfacet
  facet normal 5.555699e-01 0.000000e+00 -8.314699e-01
    outer loop
      vertex -1.060660e+00 -3.550000e+01 4.272730e+01
      vertex -5.740250e-01 -3.800000e+01 4.305250e+01
      vertex -1.060660e+00 -3.800000e+01 4.272730e+01
    endloop
  endfacet
  facet normal 1.950910e-01 -1.393780e-15 -9.807851e-01
    outer loop
      vertex 0.000000e+00 -3.550000e+01 4.316670e+01
      vertex 0.000000e+00 -3.800000e+01 4.316670e+01
      vertex -5.740250e-01 -3.550000e+01 4.305250e+01
    endloop
  endfacet
  facet normal 1.950910e-01 0.000000e+00 -9.807851e-01
    outer loop
      vertex -5.740250e-01 -3.550000e+01 4.305250e+01
      vertex 0.000000e+00 -3.800000e+01 4.316670e+01
      vertex -5.740250e-01 -3.800000e+01 4.305250e+01
    endloop
  endfacet
  facet normal -1.950910e-01 0.000000e+00 -9.807851e-01
    outer loop
      vertex 5.740250e-01 -3.550000e+01 4.305250e+01
      vertex 5.740250e-01 -3.800000e+01 4.305250e+01
      vertex 0.000000e+00 -3.550000e+01 4.316670e+01
    endloop
  endfacet
  facet normal -1.950910e-01 -1.393780e-15 -9.807851e-01
    outer loop
      vertex 0.000000e+00 -3.550000e+01 4.316670e+01
      vertex 5.740250e-01 -3.800000e+01 4.305250e+01
      vertex 0.000000e+00 -3.800000e+01 4.316670e+01
    endloop
  endfacet
  facet normal -5.555699e-01 0.000000e+00 -8.314699e-01
    outer loop
      vertex 1.060660e+00 -3.550000e+01 4.272730e+01
      vertex 1.060660e+00 -3.800000e+01 4.272730e+01
      vertex 5.740250e-01 -3.550000e+01 4.305250e+01
    endloop
  endfacet
  facet normal -5.555699e-01 0.000000e+00 -8.314699e-01
    outer loop
      vertex 5.740250e-01 -3.550000e+01 4.305250e+01
      vertex 1.060660e+00 -3.800000e+01 4.272730e+01
      vertex 5.740250e-01 -3.800000e+01 4.305250e+01
    endloop
  endfacet
  facet normal -8.314699e-01 0.000000e+00 -5.555699e-01
    outer loop
      vertex 1.385820e+00 -3.550000e+01 4.224070e+01
      vertex 1.385820e+00 -3.800000e+01 4.224070e+01
      vertex 1.060660e+00 -3.550000e+01 4.272730e+01
    endloop
  endfacet
  facet normal -8.314699e-01 0.000000e+00 -5.555699e-01
    outer loop
      vertex 1.060660e+00 -3.550000e+01 4.272730e+01
      vertex 1.385820e+00 -3.800000e+01 4.224070e+01
      vertex 1.060660e+00 -3.800000e+01 4.272730e+01
    endloop
  endfacet
  facet normal -9.807851e-01 -2.772410e-16 -1.950910e-01
    outer loop
      vertex 1.500000e+00 -3.550000e+01 4.166670e+01
      vertex 1.500000e+00 -3.800000e+01 4.166670e+01
      vertex 1.385820e+00 -3.550000e+01 4.224070e+01
    endloop
  endfacet
  facet normal -9.807851e-01 0.000000e+00 -1.950910e-01
    outer loop
      vertex 1.385820e+00 -3.550000e+01 4.224070e+01
      vertex 1.500000e+00 -3.800000e+01 4.166670e+01
      vertex 1.385820e+00 -3.800000e+01 4.224070e+01
    endloop
  endfacet
  facet normal -9.807851e-01 2.772410e-16 1.950910e-01
    outer loop
      vertex 1.500000e+00 -3.550000e+01 4.166670e+01
      vertex 1.385820e+00 -3.550000e+01 4.109260e+01
      vertex 1.500000e+00 -3.800000e+01 4.166670e+01
    endloop
  endfacet
  facet normal -9.807851e-01 0.000000e+00 1.950910e-01
    outer loop
      vertex 1.500000e+00 -3.800000e+01 4.166670e+01
      vertex 1.385820e+00 -3.550000e+01 4.109260e+01
      vertex 1.385820e+00 -3.800000e+01 4.109260e+01
    endloop
  endfacet
  facet normal -8.314699e-01 0.000000e+00 5.555699e-01
    outer loop
      vertex 1.385820e+00 -3.550000e+01 4.109260e+01
      vertex 1.060660e+00 -3.550000e+01 4.060600e+01
      vertex 1.385820e+00 -3.800000e+01 4.109260e+01
    endloop
  endfacet
  facet normal -8.314699e-01 3.983569e-16 5.555699e-01
    outer loop
      vertex 1.385820e+00 -3.800000e+01 4.109260e+01
      vertex 1.060660e+00 -3.550000e+01 4.060600e+01
      vertex 1.060660e+00 -3.800000e+01 4.060600e+01
    endloop
  endfacet
  facet normal -5.555699e-01 5.907949e-16 8.314699e-01
    outer loop
      vertex 1.060660e+00 -3.800000e+01 4.060600e+01
      vertex 1.060660e+00 -3.550000e+01 4.060600e+01
      vertex 5.740250e-01 -3.550000e+01 4.028080e+01
    endloop
  endfacet
  facet normal -5.555699e-01 0.000000e+00 8.314699e-01
    outer loop
      vertex 5.740250e-01 -3.800000e+01 4.028080e+01
      vertex 1.060660e+00 -3.800000e+01 4.060600e+01
      vertex 5.740250e-01 -3.550000e+01 4.028080e+01
    endloop
  endfacet
  facet normal -1.950910e-01 0.000000e+00 9.807851e-01
    outer loop
      vertex 5.740250e-01 -3.800000e+01 4.028080e+01
      vertex 5.740250e-01 -3.550000e+01 4.028080e+01
      vertex 5.000000e-01 -3.550000e+01 4.026610e+01
    endloop
  endfacet
  facet normal -1.950910e-01 0.000000e+00 9.807851e-01
    outer loop
      vertex 5.000000e-01 -3.800000e+01 4.026610e+01
      vertex 5.740250e-01 -3.800000e+01 4.028080e+01
      vertex 5.000000e-01 -3.550000e+01 4.026610e+01
    endloop
  endfacet
  facet normal -1.000000e+00 0.000000e+00 0.000000e+00
    outer loop
      vertex 5.000000e-01 -3.550000e+01 4.026610e+01
      vertex 5.000000e-01 -3.550000e+01 3.816670e+01
      vertex 5.000000e-01 -3.800000e+01 4.026610e+01
    endloop
  endfacet
  facet normal -1.000000e+00 0.000000e+00 0.000000e+00
    outer loop
      vertex 5.000000e-01 -3.800000e+01 4.026610e+01
      vertex 5.000000e-01 -3.550000e+01 3.816670e+01
      vertex 5.000000e-01 -3.800000e+01 3.816670e+01
    endloop
  endfacet
  facet normal 0.000000e+00 0.000000e+00 1.000000e+00
    outer loop
      vertex 5.000000e-01 -3.800000e+01 3.816670e+01
      vertex 5.000000e-01 -3.550000e+01 3.816670e+01
      vertex -5.000000e-01 -3.550000e+01 3.816670e+01
    endloop
  endfacet
  facet normal 0.000000e+00 0.000000e+00 1.000000e+00
    outer loop
      vertex -5.000000e-01 -3.800000e+01 3.816670e+01
      vertex 5.000000e-01 -3.800000e+01 3.816670e+01
      vertex -5.000000e-01 -3.550000e+01 3.816670e+01
    endloop
  endfacet
  facet normal 1.000000e+00 0.000000e+00 0.000000e+00
    outer loop
      vertex -5.000000e-01 -3.550000e+01 3.816670e+01
      vertex -5.000000e-01 -3.550000e+01 4.026610e+01
      vertex -5.000000e-01 -3.800000e+01 4.026610e+01
    endloop
  endfacet
  facet normal 1.000000e+00 0.000000e+00 0.000000e+00
    outer loop
      vertex -5.000000e-01 -3.800000e+01 3.816670e+01
      vertex -5.000000e-01 -3.550000e+01 3.816670e+01
      vertex -5.000000e-01 -3.800000e+01 4.026610e+01
    endloop
  endfacet
  facet normal 1.950910e-01 0.000000e+00 9.807851e-01
    outer loop
      vertex -5.000000e-01 -3.800000e+01 4.026610e+01
      vertex -5.000000e-01 -3.550000e+01 4.026610e+01
      vertex -5.740250e-01 -3.550000e+01 4.028080e+01
    endloop
  endfacet
  facet normal 1.950910e-01 0.000000e+00 9.807851e-01
    outer loop
      vertex -5.740250e-01 -3.800000e+01 4.028080e+01
      vertex -5.000000e-01 -3.800000e+01 4.026610e+01
      vertex -5.740250e-01 -3.550000e+01 4.028080e+01
    endloop
  endfacet
  facet normal 5.555699e-01 0.000000e+00 8.314699e-01
    outer loop
      vertex -5.740250e-01 -3.800000e+01 4.028080e+01
      vertex -5.740250e-01 -3.550000e+01 4.028080e+01
      vertex -1.060660e+00 -3.550000e+01 4.060600e+01
    endloop
  endfacet
  facet normal 5.555699e-01 5.907949e-16 8.314699e-01
    outer loop
      vertex -1.060660e+00 -3.800000e+01 4.060600e+01
      vertex -5.740250e-01 -3.800000e+01 4.028080e+01
      vertex -1.060660e+00 -3.550000e+01 4.060600e+01
    endloop
  endfacet
  facet normal 9.334460e-15 -1.000000e+00 1.856740e-15
    outer loop
      vertex -4.619400e+00 -3.800000e+01 4.358010e+01
      vertex -5.000000e+00 -3.800000e+01 4.166670e+01
      vertex -4.619400e+00 -3.800000e+01 3.975320e+01
    endloop
  endfacet
  facet normal 1.004860e-15 -1.000000e+00 1.503880e-15
    outer loop
      vertex -1.913420e+00 -3.800000e+01 3.704730e+01
      vertex -4.619400e+00 -3.800000e+01 4.358010e+01
      vertex -3.535530e+00 -3.800000e+01 3.813110e+01
    endloop
  endfacet
  facet normal 2.778800e-15 -1.000000e+00 1.856740e-15
    outer loop
      vertex -3.535530e+00 -3.800000e+01 3.813110e+01
      vertex -4.619400e+00 -3.800000e+01 4.358010e+01
      vertex -4.619400e+00 -3.800000e+01 3.975320e+01
    endloop
  endfacet
  facet normal 2.357730e-16 -1.000000e+00 1.185310e-15
    outer loop
      vertex 0.000000e+00 -3.800000e+01 3.666670e+01
      vertex -4.619400e+00 -3.800000e+01 4.358010e+01
      vertex -1.913420e+00 -3.800000e+01 3.704730e+01
    endloop
  endfacet
  facet normal -3.069400e-15 -1.000000e+00 -1.023130e-15
    outer loop
      vertex -5.000000e-01 -3.800000e+01 3.816670e+01
      vertex -4.619400e+00 -3.800000e+01 4.358010e+01
      vertex 0.000000e+00 -3.800000e+01 3.666670e+01
    endloop
  endfacet
  facet normal -2.471300e-15 -1.000000e+00 -5.680070e-16
    outer loop
      vertex -5.000000e-01 -3.800000e+01 3.816670e+01
      vertex -1.060660e+00 -3.800000e+01 4.060600e+01
      vertex -4.619400e+00 -3.800000e+01 4.358010e+01
    endloop
  endfacet
  facet normal 0.000000e+00 -1.000000e+00 1.237830e-14
    outer loop
      vertex 1.385820e+00 -3.800000e+01 4.224070e+01
      vertex 1.500000e+00 -3.800000e+01 4.166670e+01
      vertex 5.000000e+00 -3.800000e+01 4.166670e+01
    endloop
  endfacet
  facet normal 0.000000e+00 -1.000000e+00 0.000000e+00
    outer loop
      vertex 3.535530e+00 -3.800000e+01 4.520220e+01
      vertex -4.619400e+00 -3.800000e+01 4.358010e+01
      vertex 4.619400e+00 -3.800000e+01 4.358010e+01
    endloop
  endfacet
  facet normal 0.000000e+00 -1.000000e+00 0.000000e+00
    outer loop
      vertex 1.913420e+00 -3.800000e+01 4.628610e+01
      vertex -4.619400e+00 -3.800000e+01 4.358010e+01
      vertex 3.535530e+00 -3.800000e+01 4.520220e+01
    endloop
  endfacet
  facet normal 0.000000e+00 -1.000000e+00 0.000000e+00
    outer loop
      vertex 0.000000e+00 -3.800000e+01 4.666670e+01
      vertex -4.619400e+00 -3.800000e+01 4.358010e+01
      vertex 1.913420e+00 -3.800000e+01 4.628610e+01
    endloop
  endfacet
  facet normal 0.000000e+00 -1.000000e+00 0.000000e+00
    outer loop
      vertex -1.913420e+00 -3.800000e+01 4.628610e+01
      vertex -4.619400e+00 -3.800000e+01 4.358010e+01
      vertex 0.000000e+00 -3.800000e+01 4.666670e+01
    endloop
  endfacet
  facet normal 0.000000e+00 -1.000000e+00 0.000000e+00
    outer loop
      vertex -3.535530e+00 -3.800000e+01 4.520220e+01
      vertex -4.619400e+00 -3.800000e+01 4.358010e+01
      vertex -1.913420e+00 -3.800000e+01 4.628610e+01
    endloop
  endfacet
  facet normal 0.000000e+00 -1.000000e+00 0.000000e+00
    outer loop
      vertex -5.000000e-01 -3.800000e+01 3.816670e+01
      vertex -5.000000e-01 -3.800000e+01 4.026610e+01
      vertex -5.740250e-01 -3.800000e+01 4.028080e+01
    endloop
  endfacet
  facet normal -2.199390e-15 -1.000000e+00 -1.469590e-15
    outer loop
      vertex 1.060660e+00 -3.800000e+01 4.272730e+01
      vertex 1.385820e+00 -3.800000e+01 4.224070e+01
      vertex 5.000000e+00 -3.800000e+01 4.166670e+01
    endloop
  endfacet
  facet normal 0.000000e+00 -1.000000e+00 0.000000e+00
    outer loop
      vertex 1.385820e+00 -3.800000e+01 4.109260e+01
      vertex 1.060660e+00 -3.800000e+01 4.060600e+01
      vertex 4.619400e+00 -3.800000e+01 3.975320e+01
    endloop
  endfacet
  facet normal 0.000000e+00 -1.000000e+00 0.000000e+00
    outer loop
      vertex -1.060660e+00 -3.800000e+01 4.272730e+01
      vertex -4.619400e+00 -3.800000e+01 4.358010e+01
      vertex -1.385820e+00 -3.800000e+01 4.224070e+01
    endloop
  endfacet
  facet normal 0.000000e+00 -1.000000e+00 0.000000e+00
    outer loop
      vertex 0.000000e+00 -3.800000e+01 4.316670e+01
      vertex 5.740250e-01 -3.800000e+01 4.305250e+01
      vertex 4.619400e+00 -3.800000e+01 4.358010e+01
    endloop
  endfacet
  facet normal 0.000000e+00 -1.000000e+00 0.000000e+00
    outer loop
      vertex 0.000000e+00 -3.800000e+01 4.316670e+01
      vertex -4.619400e+00 -3.800000e+01 4.358010e+01
      vertex -5.740250e-01 -3.800000e+01 4.305250e+01
    endloop
  endfacet
  facet normal 0.000000e+00 -1.000000e+00 0.000000e+00
    outer loop
      vertex 4.619400e+00 -3.800000e+01 4.358010e+01
      vertex -4.619400e+00 -3.800000e+01 4.358010e+01
      vertex 0.000000e+00 -3.800000e+01 4.316670e+01
    endloop
  endfacet
  facet normal -4.720660e-16 -1.000000e+00 3.619580e-15
    outer loop
      vertex 4.619400e+00 -3.800000e+01 4.358010e+01
      vertex 5.740250e-01 -3.800000e+01 4.305250e+01
      vertex 5.000000e+00 -3.800000e+01 4.166670e+01
    endloop
  endfacet
  facet normal -3.021080e-15 -1.000000e+00 -4.521370e-15
    outer loop
      vertex 5.740250e-01 -3.800000e+01 4.305250e+01
      vertex 1.060660e+00 -3.800000e+01 4.272730e+01
      vertex 5.000000e+00 -3.800000e+01 4.166670e+01
    endloop
  endfacet
  facet normal 0.000000e+00 -1.000000e+00 0.000000e+00
    outer loop
      vertex 1.500000e+00 -3.800000e+01 4.166670e+01
      vertex 1.385820e+00 -3.800000e+01 4.109260e+01
      vertex 4.619400e+00 -3.800000e+01 3.975320e+01
    endloop
  endfacet
  facet normal 0.000000e+00 -1.000000e+00 0.000000e+00
    outer loop
      vertex 5.000000e+00 -3.800000e+01 4.166670e+01
      vertex 1.500000e+00 -3.800000e+01 4.166670e+01
      vertex 4.619400e+00 -3.800000e+01 3.975320e+01
    endloop
  endfacet
  facet normal 0.000000e+00 -1.000000e+00 0.000000e+00
    outer loop
      vertex -1.060660e+00 -3.800000e+01 4.272730e+01
      vertex -5.740250e-01 -3.800000e+01 4.305250e+01
      vertex -4.619400e+00 -3.800000e+01 4.358010e+01
    endloop
  endfacet
  facet normal 0.000000e+00 -1.000000e+00 0.000000e+00
    outer loop
      vertex 4.619400e+00 -3.800000e+01 3.975320e+01
      vertex 1.060660e+00 -3.800000e+01 4.060600e+01
      vertex 3.535530e+00 -3.800000e+01 3.813110e+01
    endloop
  endfacet
  facet normal 0.000000e+00 -1.000000e+00 0.000000e+00
    outer loop
      vertex 1.060660e+00 -3.800000e+01 4.060600e+01
      vertex 5.740250e-01 -3.800000e+01 4.028080e+01
      vertex 3.535530e+00 -3.800000e+01 3.813110e+01
    endloop
  endfacet
  facet normal 0.000000e+00 -1.000000e+00 0.000000e+00
    outer loop
      vertex 5.740250e-01 -3.800000e+01 4.028080e+01
      vertex 5.000000e-01 -3.800000e+01 4.026610e+01
      vertex 3.535530e+00 -3.800000e+01 3.813110e+01
    endloop
  endfacet
  facet normal 0.000000e+00 -1.000000e+00 0.000000e+00
    outer loop
      vertex 1.913420e+00 -3.800000e+01 3.704730e+01
      vertex 5.000000e-01 -3.800000e+01 3.816670e+01
      vertex 0.000000e+00 -3.800000e+01 3.666670e+01
    endloop
  endfacet
  facet normal 0.000000e+00 -1.000000e+00 0.000000e+00
    outer loop
      vertex 5.000000e-01 -3.800000e+01 3.816670e+01
      vertex -5.000000e-01 -3.800000e+01 3.816670e+01
      vertex 0.000000e+00 -3.800000e+01 3.666670e+01
    endloop
  endfacet
  facet normal 0.000000e+00 -1.000000e+00 0.000000e+00
    outer loop
      vertex -5.000000e-01 -3.800000e+01 3.816670e+01
      vertex -5.740250e-01 -3.800000e+01 4.028080e+01
      vertex -1.060660e+00 -3.800000e+01 4.060600e+01
    endloop
  endfacet
  facet normal -4.521360e-15 -1.000000e+00 -3.021080e-15
    outer loop
      vertex -1.385820e+00 -3.800000e+01 4.109260e+01
      vertex -4.619400e+00 -3.800000e+01 4.358010e+01
      vertex -1.060660e+00 -3.800000e+01 4.060600e+01
    endloop
  endfacet
  facet normal -2.594360e-15 -1.000000e+00 -5.160520e-16
    outer loop
      vertex -1.385820e+00 -3.800000e+01 4.109260e+01
      vertex -1.500000e+00 -3.800000e+01 4.166670e+01
      vertex -4.619400e+00 -3.800000e+01 4.358010e+01
    endloop
  endfacet
  facet normal 4.736950e-15 -1.000000e+00 1.143600e-14
    outer loop
      vertex -1.500000e+00 -3.800000e+01 4.166670e+01
      vertex -1.385820e+00 -3.800000e+01 4.224070e+01
      vertex -4.619400e+00 -3.800000e+01 4.358010e+01
    endloop
  endfacet
  facet normal 0.000000e+00 -1.000000e+00 0.000000e+00
    outer loop
      vertex 5.000000e-01 -3.800000e+01 4.026610e+01
      vertex 1.913420e+00 -3.800000e+01 3.704730e+01
      vertex 3.535530e+00 -3.800000e+01 3.813110e+01
    endloop
  endfacet
  facet normal 0.000000e+00 -1.000000e+00 0.000000e+00
    outer loop
      vertex 5.000000e-01 -3.800000e+01 4.026610e+01
      vertex 5.000000e-01 -3.800000e+01 3.816670e+01
      vertex 1.913420e+00 -3.800000e+01 3.704730e+01
    endloop
  endfacet
endsolid Default
