solid Default
  facet normal -1.776360e-15 -1.000000e+00 0.000000e+00
    outer loop
      vertex -3.950000e+01 2.200000e+01 2.500000e+01
      vertex -3.950000e+01 2.200000e+01 0.000000e+00
      vertex -3.750000e+01 2.200000e+01 0.000000e+00
    endloop
  endfacet
  facet normal -1.776360e-15 -1.000000e+00 0.000000e+00
    outer loop
      vertex -3.750000e+01 2.200000e+01 2.500000e+01
      vertex -3.950000e+01 2.200000e+01 2.500000e+01
      vertex -3.750000e+01 2.200000e+01 0.000000e+00
    endloop
  endfacet
  facet normal 0.000000e+00 0.000000e+00 -1.000000e+00
    outer loop
      vertex -3.950000e+01 2.200000e+01 0.000000e+00
      vertex -3.950000e+01 2.500000e+01 0.000000e+00
      vertex -3.750000e+01 2.200000e+01 0.000000e+00
    endloop
  endfacet
  facet normal 0.000000e+00 0.000000e+00 -1.000000e+00
    outer loop
      vertex -3.750000e+01 2.200000e+01 0.000000e+00
      vertex -3.950000e+01 2.500000e+01 0.000000e+00
      vertex -3.950000e+01 2.700000e+01 0.000000e+00
    endloop
  endfacet
  facet normal 0.000000e+00 0.000000e+00 -1.000000e+00
    outer loop
      vertex -3.750000e+01 2.200000e+01 0.000000e+00
      vertex -3.950000e+01 2.700000e+01 0.000000e+00
      vertex -3.850000e+01 2.700000e+01 0.000000e+00
    endloop
  endfacet
  facet normal 0.000000e+00 0.000000e+00 -1.000000e+00
    outer loop
      vertex -3.750000e+01 2.467770e+01 0.000000e+00
      vertex -3.850000e+01 2.700000e+01 0.000000e+00
      vertex -3.450000e+01 2.700000e+01 0.000000e+00
    endloop
  endfacet
  facet normal 0.000000e+00 0.000000e+00 -1.000000e+00
    outer loop
      vertex 3.725000e+01 2.500000e+01 0.000000e+00
      vertex 3.450000e+01 2.700000e+01 0.000000e+00
      vertex 3.750000e+01 2.700000e+01 0.000000e+00
    endloop
  endfacet
  facet normal 0.000000e+00 0.000000e+00 -1.000000e+00
    outer loop
      vertex 3.750000e+01 2.700000e+01 0.000000e+00
      vertex 3.950000e+01 2.700000e+01 0.000000e+00
      vertex 3.725000e+01 2.500000e+01 0.000000e+00
    endloop
  endfacet
  facet normal 0.000000e+00 0.000000e+00 -1.000000e+00
    outer loop
      vertex 3.725000e+01 2.500000e+01 0.000000e+00
      vertex 3.950000e+01 2.700000e+01 0.000000e+00
      vertex 3.950000e+01 2.600000e+01 0.000000e+00
    endloop
  endfacet
  facet normal 0.000000e+00 0.000000e+00 -1.000000e+00
    outer loop
      vertex 3.725000e+01 2.500000e+01 0.000000e+00
      vertex 3.950000e+01 2.600000e+01 0.000000e+00
      vertex 3.950000e+01 2.200000e+01 0.000000e+00
    endloop
  endfacet
  facet normal 0.000000e+00 0.000000e+00 -1.000000e+00
    outer loop
      vertex 3.725000e+01 2.500000e+01 0.000000e+00
      vertex 3.950000e+01 2.200000e+01 0.000000e+00
      vertex 3.750000e+01 2.200000e+01 0.000000e+00
    endloop
  endfacet
  facet normal 0.000000e+00 0.000000e+00 -1.000000e+00
    outer loop
      vertex 3.950000e+01 -2.200000e+01 0.000000e+00
      vertex 3.750000e+01 -2.450000e+01 0.000000e+00
      vertex 3.750000e+01 -2.200000e+01 0.000000e+00
    endloop
  endfacet
  facet normal 0.000000e+00 0.000000e+00 -1.000000e+00
    outer loop
      vertex 3.750000e+01 -2.450000e+01 0.000000e+00
      vertex 3.950000e+01 -2.200000e+01 0.000000e+00
      vertex 3.950000e+01 -2.500000e+01 0.000000e+00
    endloop
  endfacet
  facet normal 0.000000e+00 0.000000e+00 -1.000000e+00
    outer loop
      vertex 3.950000e+01 -2.500000e+01 0.000000e+00
      vertex 3.950000e+01 -2.700000e+01 0.000000e+00
      vertex 3.750000e+01 -2.450000e+01 0.000000e+00
    endloop
  endfacet
  facet normal 0.000000e+00 0.000000e+00 -1.000000e+00
    outer loop
      vertex 3.850000e+01 -2.700000e+01 0.000000e+00
      vertex 3.450000e+01 -2.700000e+01 0.000000e+00
      vertex 3.450000e+01 -2.500000e+01 0.000000e+00
    endloop
  endfacet
  facet normal 0.000000e+00 0.000000e+00 -1.000000e+00
    outer loop
      vertex -3.450000e+01 -2.700000e+01 0.000000e+00
      vertex -3.725000e+01 -2.500000e+01 0.000000e+00
      vertex -3.450000e+01 -2.500000e+01 0.000000e+00
    endloop
  endfacet
  facet normal 0.000000e+00 0.000000e+00 -1.000000e+00
    outer loop
      vertex -3.750000e+01 -2.200000e+01 0.000000e+00
      vertex -3.750000e+01 -2.700000e+01 0.000000e+00
      vertex -3.950000e+01 -2.200000e+01 0.000000e+00
    endloop
  endfacet
  facet normal 0.000000e+00 0.000000e+00 -1.000000e+00
    outer loop
      vertex -3.750000e+01 2.467770e+01 0.000000e+00
      vertex -3.450000e+01 2.500000e+01 0.000000e+00
      vertex 3.725000e+01 2.500000e+01 0.000000e+00
    endloop
  endfacet
  facet normal 0.000000e+00 0.000000e+00 -1.000000e+00
    outer loop
      vertex -3.450000e+01 -2.700000e+01 0.000000e+00
      vertex -3.750000e+01 -2.700000e+01 0.000000e+00
      vertex -3.725000e+01 -2.500000e+01 0.000000e+00
    endloop
  endfacet
  facet normal 0.000000e+00 0.000000e+00 -1.000000e+00
    outer loop
      vertex -3.750000e+01 -2.700000e+01 0.000000e+00
      vertex -3.950000e+01 -2.700000e+01 0.000000e+00
      vertex -3.950000e+01 -2.600000e+01 0.000000e+00
    endloop
  endfacet
  facet normal 0.000000e+00 0.000000e+00 -1.000000e+00
    outer loop
      vertex -3.750000e+01 -2.700000e+01 0.000000e+00
      vertex -3.950000e+01 -2.600000e+01 0.000000e+00
      vertex -3.950000e+01 -2.200000e+01 0.000000e+00
    endloop
  endfacet
  facet normal 0.000000e+00 0.000000e+00 -1.000000e+00
    outer loop
      vertex -3.750000e+01 2.467770e+01 0.000000e+00
      vertex 3.725000e+01 2.500000e+01 0.000000e+00
      vertex 3.750000e+01 2.200000e+01 0.000000e+00
    endloop
  endfacet
  facet normal 0.000000e+00 0.000000e+00 -1.000000e+00
    outer loop
      vertex -3.750000e+01 2.467770e+01 0.000000e+00
      vertex -3.450000e+01 2.700000e+01 0.000000e+00
      vertex -3.450000e+01 2.500000e+01 0.000000e+00
    endloop
  endfacet
  facet normal 0.000000e+00 0.000000e+00 -1.000000e+00
    outer loop
      vertex -3.750000e+01 -2.700000e+01 0.000000e+00
      vertex -3.750000e+01 -2.200000e+01 0.000000e+00
      vertex -3.725000e+01 -2.500000e+01 0.000000e+00
    endloop
  endfacet
  facet normal 0.000000e+00 0.000000e+00 -1.000000e+00
    outer loop
      vertex -3.750000e+01 2.200000e+01 0.000000e+00
      vertex -3.850000e+01 2.700000e+01 0.000000e+00
      vertex -3.750000e+01 2.467770e+01 0.000000e+00
    endloop
  endfacet
  facet normal 0.000000e+00 0.000000e+00 -1.000000e+00
    outer loop
      vertex 3.450000e+01 2.700000e+01 0.000000e+00
      vertex 3.725000e+01 2.500000e+01 0.000000e+00
      vertex 3.450000e+01 2.500000e+01 0.000000e+00
    endloop
  endfacet
  facet normal 0.000000e+00 0.000000e+00 -1.000000e+00
    outer loop
      vertex -3.750000e+01 2.467770e+01 0.000000e+00
      vertex 3.750000e+01 2.200000e+01 0.000000e+00
      vertex 3.750000e+01 -2.450000e+01 0.000000e+00
    endloop
  endfacet
  facet normal 0.000000e+00 0.000000e+00 -1.000000e+00
    outer loop
      vertex -3.750000e+01 2.467770e+01 0.000000e+00
      vertex 3.750000e+01 -2.450000e+01 0.000000e+00
      vertex 3.950000e+01 -2.700000e+01 0.000000e+00
    endloop
  endfacet
  facet normal 0.000000e+00 0.000000e+00 -1.000000e+00
    outer loop
      vertex -3.750000e+01 2.467770e+01 0.000000e+00
      vertex 3.950000e+01 -2.700000e+01 0.000000e+00
      vertex 3.850000e+01 -2.700000e+01 0.000000e+00
    endloop
  endfacet
  facet normal 0.000000e+00 0.000000e+00 -1.000000e+00
    outer loop
      vertex -3.750000e+01 2.467770e+01 0.000000e+00
      vertex 3.850000e+01 -2.700000e+01 0.000000e+00
      vertex 3.450000e+01 -2.500000e+01 0.000000e+00
    endloop
  endfacet
  facet normal 0.000000e+00 0.000000e+00 -1.000000e+00
    outer loop
      vertex -3.750000e+01 2.467770e+01 0.000000e+00
      vertex 3.450000e+01 -2.500000e+01 0.000000e+00
      vertex -3.725000e+01 -2.500000e+01 0.000000e+00
    endloop
  endfacet
  facet normal 0.000000e+00 0.000000e+00 -1.000000e+00
    outer loop
      vertex -3.750000e+01 2.467770e+01 0.000000e+00
      vertex -3.725000e+01 -2.500000e+01 0.000000e+00
      vertex -3.750000e+01 -2.200000e+01 0.000000e+00
    endloop
  endfacet
  facet normal -1.000000e+00 2.368480e-15 0.000000e+00
    outer loop
      vertex -3.950000e+01 2.200000e+01 0.000000e+00
      vertex -3.950000e+01 2.200000e+01 2.500000e+01
      vertex -3.950000e+01 2.500000e+01 0.000000e+00
    endloop
  endfacet
  facet normal -1.000000e+00 2.368480e-15 0.000000e+00
    outer loop
      vertex -3.950000e+01 2.500000e+01 0.000000e+00
      vertex -3.950000e+01 2.200000e+01 2.500000e+01
      vertex -3.950000e+01 2.500000e+01 2.500000e+01
    endloop
  endfacet
  facet normal 0.000000e+00 0.000000e+00 1.000000e+00
    outer loop
      vertex -3.725000e+01 -2.500000e+01 2.500000e+01
      vertex -7.500000e+00 -2.500000e+01 2.500000e+01
      vertex -3.550000e+01 -2.300000e+01 2.500000e+01
    endloop
  endfacet
  facet normal 0.000000e+00 0.000000e+00 1.000000e+00
    outer loop
      vertex -3.950000e+01 2.500000e+01 2.500000e+01
      vertex -3.950000e+01 2.200000e+01 2.500000e+01
      vertex -3.750000e+01 2.200000e+01 2.500000e+01
    endloop
  endfacet
  facet normal 0.000000e+00 0.000000e+00 1.000000e+00
    outer loop
      vertex -3.750000e+01 2.467770e+01 2.500000e+01
      vertex -3.950000e+01 2.500000e+01 2.500000e+01
      vertex -3.750000e+01 2.200000e+01 2.500000e+01
    endloop
  endfacet
  facet normal 0.000000e+00 0.000000e+00 1.000000e+00
    outer loop
      vertex -3.950000e+01 -2.200000e+01 2.500000e+01
      vertex -3.950000e+01 -2.600000e+01 2.500000e+01
      vertex -3.750000e+01 -2.200000e+01 2.500000e+01
    endloop
  endfacet
  facet normal 0.000000e+00 0.000000e+00 1.000000e+00
    outer loop
      vertex -3.950000e+01 -2.600000e+01 2.500000e+01
      vertex -3.950000e+01 -2.700000e+01 2.500000e+01
      vertex -3.750000e+01 -2.200000e+01 2.500000e+01
    endloop
  endfacet
  facet normal 0.000000e+00 0.000000e+00 1.000000e+00
    outer loop
      vertex -3.950000e+01 -2.700000e+01 2.500000e+01
      vertex -3.750000e+01 -2.700000e+01 2.500000e+01
      vertex -3.750000e+01 -2.200000e+01 2.500000e+01
    endloop
  endfacet
  facet normal 0.000000e+00 0.000000e+00 1.000000e+00
    outer loop
      vertex 3.750000e+01 -2.450000e+01 2.500000e+01
      vertex 3.750000e+01 2.200000e+01 2.500000e+01
      vertex 3.550000e+01 -2.300000e+01 2.500000e+01
    endloop
  endfacet
  facet normal 0.000000e+00 0.000000e+00 1.000000e+00
    outer loop
      vertex 3.550000e+01 2.300000e+01 2.500000e+01
      vertex 3.550000e+01 -2.300000e+01 2.500000e+01
      vertex 3.750000e+01 2.200000e+01 2.500000e+01
    endloop
  endfacet
  facet normal 0.000000e+00 0.000000e+00 1.000000e+00
    outer loop
      vertex -3.750000e+01 -2.700000e+01 2.500000e+01
      vertex -3.725000e+01 -2.500000e+01 2.500000e+01
      vertex -3.750000e+01 -2.200000e+01 2.500000e+01
    endloop
  endfacet
  facet normal 0.000000e+00 0.000000e+00 1.000000e+00
    outer loop
      vertex -3.750000e+01 -2.700000e+01 2.500000e+01
      vertex -3.450000e+01 -2.700000e+01 2.500000e+01
      vertex -3.725000e+01 -2.500000e+01 2.500000e+01
    endloop
  endfacet
  facet normal 0.000000e+00 0.000000e+00 1.000000e+00
    outer loop
      vertex -3.550000e+01 2.300000e+01 2.500000e+01
      vertex 3.550000e+01 2.300000e+01 2.500000e+01
      vertex -3.450000e+01 2.500000e+01 2.500000e+01
    endloop
  endfacet
  facet normal 0.000000e+00 0.000000e+00 1.000000e+00
    outer loop
      vertex 3.450000e+01 -2.700000e+01 2.500000e+01
      vertex 3.850000e+01 -2.700000e+01 2.500000e+01
      vertex 3.450000e+01 -2.500000e+01 2.500000e+01
    endloop
  endfacet
  facet normal 0.000000e+00 0.000000e+00 1.000000e+00
    outer loop
      vertex -3.550000e+01 2.300000e+01 2.500000e+01
      vertex -3.450000e+01 2.500000e+01 2.500000e+01
      vertex -3.750000e+01 2.467770e+01 2.500000e+01
    endloop
  endfacet
  facet normal 0.000000e+00 0.000000e+00 1.000000e+00
    outer loop
      vertex 3.725000e+01 2.500000e+01 2.500000e+01
      vertex 3.550000e+01 2.300000e+01 2.500000e+01
      vertex 3.950000e+01 2.200000e+01 2.500000e+01
    endloop
  endfacet
  facet normal 0.000000e+00 0.000000e+00 1.000000e+00
    outer loop
      vertex 3.750000e+01 -2.200000e+01 2.500000e+01
      vertex 3.750000e+01 -2.450000e+01 2.500000e+01
      vertex 3.950000e+01 -2.500000e+01 2.500000e+01
    endloop
  endfacet
  facet normal 0.000000e+00 0.000000e+00 1.000000e+00
    outer loop
      vertex 3.750000e+01 2.700000e+01 2.500000e+01
      vertex 3.950000e+01 2.600000e+01 2.500000e+01
      vertex 3.950000e+01 2.700000e+01 2.500000e+01
    endloop
  endfacet
  facet normal 0.000000e+00 0.000000e+00 1.000000e+00
    outer loop
      vertex 3.950000e+01 -2.700000e+01 2.500000e+01
      vertex 3.950000e+01 -2.500000e+01 2.500000e+01
      vertex 3.750000e+01 -2.450000e+01 2.500000e+01
    endloop
  endfacet
  facet normal 0.000000e+00 0.000000e+00 1.000000e+00
    outer loop
      vertex 3.550000e+01 -2.300000e+01 2.500000e+01
      vertex 3.950000e+01 -2.700000e+01 2.500000e+01
      vertex 3.750000e+01 -2.450000e+01 2.500000e+01
    endloop
  endfacet
  facet normal 0.000000e+00 0.000000e+00 1.000000e+00
    outer loop
      vertex 3.725000e+01 2.500000e+01 2.500000e+01
      vertex -3.450000e+01 2.500000e+01 2.500000e+01
      vertex 3.550000e+01 2.300000e+01 2.500000e+01
    endloop
  endfacet
  facet normal 0.000000e+00 0.000000e+00 1.000000e+00
    outer loop
      vertex -3.450000e+01 2.700000e+01 2.500000e+01
      vertex -3.850000e+01 2.700000e+01 2.500000e+01
      vertex -3.950000e+01 2.500000e+01 2.500000e+01
    endloop
  endfacet
  facet normal 0.000000e+00 0.000000e+00 1.000000e+00
    outer loop
      vertex 3.725000e+01 2.500000e+01 2.500000e+01
      vertex 3.950000e+01 2.600000e+01 2.500000e+01
      vertex 3.450000e+01 2.500000e+01 2.500000e+01
    endloop
  endfacet
  facet normal 0.000000e+00 0.000000e+00 1.000000e+00
    outer loop
      vertex -3.450000e+01 2.500000e+01 2.500000e+01
      vertex -3.450000e+01 2.700000e+01 2.500000e+01
      vertex -3.950000e+01 2.500000e+01 2.500000e+01
    endloop
  endfacet
  facet normal 0.000000e+00 0.000000e+00 1.000000e+00
    outer loop
      vertex 3.950000e+01 2.200000e+01 2.500000e+01
      vertex 3.950000e+01 2.600000e+01 2.500000e+01
      vertex 3.725000e+01 2.500000e+01 2.500000e+01
    endloop
  endfacet
  facet normal 0.000000e+00 0.000000e+00 1.000000e+00
    outer loop
      vertex -3.550000e+01 -2.300000e+01 2.500000e+01
      vertex -3.550000e+01 2.300000e+01 2.500000e+01
      vertex -3.750000e+01 2.467770e+01 2.500000e+01
    endloop
  endfacet
  facet normal 0.000000e+00 0.000000e+00 1.000000e+00
    outer loop
      vertex -3.850000e+01 2.700000e+01 2.500000e+01
      vertex -3.950000e+01 2.700000e+01 2.500000e+01
      vertex -3.950000e+01 2.500000e+01 2.500000e+01
    endloop
  endfacet
  facet normal 0.000000e+00 0.000000e+00 1.000000e+00
    outer loop
      vertex -3.750000e+01 -2.200000e+01 2.500000e+01
      vertex -3.550000e+01 -2.300000e+01 2.500000e+01
      vertex -3.750000e+01 2.467770e+01 2.500000e+01
    endloop
  endfacet
  facet normal 0.000000e+00 0.000000e+00 1.000000e+00
    outer loop
      vertex 3.550000e+01 2.300000e+01 2.500000e+01
      vertex 3.750000e+01 2.200000e+01 2.500000e+01
      vertex 3.950000e+01 2.200000e+01 2.500000e+01
    endloop
  endfacet
  facet normal 0.000000e+00 0.000000e+00 1.000000e+00
    outer loop
      vertex -3.750000e+01 2.467770e+01 2.500000e+01
      vertex -3.450000e+01 2.500000e+01 2.500000e+01
      vertex -3.950000e+01 2.500000e+01 2.500000e+01
    endloop
  endfacet
  facet normal 0.000000e+00 0.000000e+00 1.000000e+00
    outer loop
      vertex -3.725000e+01 -2.500000e+01 2.500000e+01
      vertex -3.550000e+01 -2.300000e+01 2.500000e+01
      vertex -3.750000e+01 -2.200000e+01 2.500000e+01
    endloop
  endfacet
  facet normal 0.000000e+00 0.000000e+00 1.000000e+00
    outer loop
      vertex 3.950000e+01 -2.500000e+01 2.500000e+01
      vertex 3.950000e+01 -2.200000e+01 2.500000e+01
      vertex 3.750000e+01 -2.200000e+01 2.500000e+01
    endloop
  endfacet
  facet normal 0.000000e+00 0.000000e+00 1.000000e+00
    outer loop
      vertex -3.450000e+01 -2.500000e+01 2.500000e+01
      vertex -3.725000e+01 -2.500000e+01 2.500000e+01
      vertex -3.450000e+01 -2.700000e+01 2.500000e+01
    endloop
  endfacet
  facet normal 0.000000e+00 0.000000e+00 1.000000e+00
    outer loop
      vertex 3.450000e+01 2.700000e+01 2.500000e+01
      vertex 3.950000e+01 2.600000e+01 2.500000e+01
      vertex 3.750000e+01 2.700000e+01 2.500000e+01
    endloop
  endfacet
  facet normal 0.000000e+00 0.000000e+00 1.000000e+00
    outer loop
      vertex 3.450000e+01 2.700000e+01 2.500000e+01
      vertex 3.450000e+01 2.500000e+01 2.500000e+01
      vertex 3.950000e+01 2.600000e+01 2.500000e+01
    endloop
  endfacet
  facet normal 0.000000e+00 0.000000e+00 1.000000e+00
    outer loop
      vertex 3.550000e+01 -2.300000e+01 2.500000e+01
      vertex 3.850000e+01 -2.700000e+01 2.500000e+01
      vertex 3.950000e+01 -2.700000e+01 2.500000e+01
    endloop
  endfacet
  facet normal 0.000000e+00 0.000000e+00 1.000000e+00
    outer loop
      vertex 3.550000e+01 -2.300000e+01 2.500000e+01
      vertex 3.450000e+01 -2.500000e+01 2.500000e+01
      vertex 3.850000e+01 -2.700000e+01 2.500000e+01
    endloop
  endfacet
  facet normal 0.000000e+00 0.000000e+00 1.000000e+00
    outer loop
      vertex 3.550000e+01 -2.300000e+01 2.500000e+01
      vertex 7.500000e+00 -2.500000e+01 2.500000e+01
      vertex 3.450000e+01 -2.500000e+01 2.500000e+01
    endloop
  endfacet
  facet normal 0.000000e+00 0.000000e+00 1.000000e+00
    outer loop
      vertex 3.550000e+01 -2.300000e+01 2.500000e+01
      vertex -7.500000e+00 -2.500000e+01 2.500000e+01
      vertex 7.500000e+00 -2.500000e+01 2.500000e+01
    endloop
  endfacet
  facet normal 0.000000e+00 0.000000e+00 1.000000e+00
    outer loop
      vertex 3.550000e+01 -2.300000e+01 2.500000e+01
      vertex -3.550000e+01 -2.300000e+01 2.500000e+01
      vertex -7.500000e+00 -2.500000e+01 2.500000e+01
    endloop
  endfacet
  facet normal 1.000000e+00 0.000000e+00 0.000000e+00
    outer loop
      vertex -3.750000e+01 2.200000e+01 2.500000e+01
      vertex -3.750000e+01 2.200000e+01 0.000000e+00
      vertex -3.750000e+01 2.467770e+01 0.000000e+00
    endloop
  endfacet
  facet normal 1.000000e+00 0.000000e+00 0.000000e+00
    outer loop
      vertex -3.750000e+01 2.467770e+01 2.500000e+01
      vertex -3.750000e+01 2.200000e+01 2.500000e+01
      vertex -3.750000e+01 2.467770e+01 0.000000e+00
    endloop
  endfacet
  facet normal -1.000000e+00 -0.000000e+00 -0.000000e+00
    outer loop
      vertex -3.750000e+01 -2.200000e+01 0.000000e+00
      vertex -3.750000e+01 -2.200000e+01 2.500000e+01
      vertex -3.750000e+01 2.467770e+01 0.000000e+00
    endloop
  endfacet
  facet normal -1.000000e+00 0.000000e+00 0.000000e+00
    outer loop
      vertex -3.750000e+01 2.467770e+01 0.000000e+00
      vertex -3.750000e+01 -2.200000e+01 2.500000e+01
      vertex -3.750000e+01 2.467770e+01 2.500000e+01
    endloop
  endfacet
  facet normal 0.000000e+00 1.000000e+00 0.000000e+00
    outer loop
      vertex -3.950000e+01 -2.200000e+01 0.000000e+00
      vertex -3.950000e+01 -2.200000e+01 2.500000e+01
      vertex -3.750000e+01 -2.200000e+01 0.000000e+00
    endloop
  endfacet
  facet normal 0.000000e+00 1.000000e+00 0.000000e+00
    outer loop
      vertex -3.750000e+01 -2.200000e+01 0.000000e+00
      vertex -3.950000e+01 -2.200000e+01 2.500000e+01
      vertex -3.750000e+01 -2.200000e+01 2.500000e+01
    endloop
  endfacet
  facet normal -1.000000e+00 1.776360e-15 0.000000e+00
    outer loop
      vertex -3.950000e+01 -2.600000e+01 0.000000e+00
      vertex -3.950000e+01 -2.600000e+01 2.500000e+01
      vertex -3.950000e+01 -2.200000e+01 0.000000e+00
    endloop
  endfacet
  facet normal -1.000000e+00 1.776360e-15 0.000000e+00
    outer loop
      vertex -3.950000e+01 -2.200000e+01 0.000000e+00
      vertex -3.950000e+01 -2.600000e+01 2.500000e+01
      vertex -3.950000e+01 -2.200000e+01 2.500000e+01
    endloop
  endfacet
  facet normal -1.000000e+00 -0.000000e+00 -0.000000e+00
    outer loop
      vertex -3.950000e+01 -2.700000e+01 0.000000e+00
      vertex -3.950000e+01 -2.700000e+01 2.500000e+01
      vertex -3.950000e+01 -2.600000e+01 0.000000e+00
    endloop
  endfacet
  facet normal -1.000000e+00 0.000000e+00 0.000000e+00
    outer loop
      vertex -3.950000e+01 -2.600000e+01 0.000000e+00
      vertex -3.950000e+01 -2.700000e+01 2.500000e+01
      vertex -3.950000e+01 -2.600000e+01 2.500000e+01
    endloop
  endfacet
  facet normal -1.776360e-15 -1.000000e+00 0.000000e+00
    outer loop
      vertex -3.950000e+01 -2.700000e+01 2.500000e+01
      vertex -3.950000e+01 -2.700000e+01 0.000000e+00
      vertex -3.750000e+01 -2.700000e+01 0.000000e+00
    endloop
  endfacet
  facet normal -1.776360e-15 -1.000000e+00 0.000000e+00
    outer loop
      vertex -3.750000e+01 -2.700000e+01 2.500000e+01
      vertex -3.950000e+01 -2.700000e+01 2.500000e+01
      vertex -3.750000e+01 -2.700000e+01 0.000000e+00
    endloop
  endfacet
  facet normal -1.184240e-15 -1.000000e+00 0.000000e+00
    outer loop
      vertex -3.750000e+01 -2.700000e+01 2.500000e+01
      vertex -3.750000e+01 -2.700000e+01 0.000000e+00
      vertex -3.450000e+01 -2.700000e+01 0.000000e+00
    endloop
  endfacet
  facet normal -1.184240e-15 -1.000000e+00 0.000000e+00
    outer loop
      vertex -3.450000e+01 -2.700000e+01 2.500000e+01
      vertex -3.750000e+01 -2.700000e+01 2.500000e+01
      vertex -3.450000e+01 -2.700000e+01 0.000000e+00
    endloop
  endfacet
  facet normal 1.000000e+00 -3.552710e-15 0.000000e+00
    outer loop
      vertex -3.450000e+01 -2.700000e+01 2.500000e+01
      vertex -3.450000e+01 -2.700000e+01 0.000000e+00
      vertex -3.450000e+01 -2.500000e+01 0.000000e+00
    endloop
  endfacet
  facet normal 1.000000e+00 -3.552710e-15 0.000000e+00
    outer loop
      vertex -3.450000e+01 -2.500000e+01 2.500000e+01
      vertex -3.450000e+01 -2.700000e+01 2.500000e+01
      vertex -3.450000e+01 -2.500000e+01 0.000000e+00
    endloop
  endfacet
  facet normal 0.000000e+00 1.000000e+00 0.000000e+00
    outer loop
      vertex -3.725000e+01 -2.500000e+01 0.000000e+00
      vertex -3.725000e+01 -2.500000e+01 2.500000e+01
      vertex -3.450000e+01 -2.500000e+01 0.000000e+00
    endloop
  endfacet
  facet normal 0.000000e+00 1.000000e+00 0.000000e+00
    outer loop
      vertex -3.450000e+01 -2.500000e+01 0.000000e+00
      vertex -3.725000e+01 -2.500000e+01 2.500000e+01
      vertex -3.450000e+01 -2.500000e+01 2.500000e+01
    endloop
  endfacet
  facet normal 0.000000e+00 -1.000000e+00 0.000000e+00
    outer loop
      vertex -3.725000e+01 -2.500000e+01 2.500000e+01
      vertex -3.725000e+01 -2.500000e+01 0.000000e+00
      vertex 3.450000e+01 -2.500000e+01 0.000000e+00
    endloop
  endfacet
  facet normal 0.000000e+00 -1.000000e+00 0.000000e+00
    outer loop
      vertex -1.405360e+00 -2.500000e+01 1.763285e+01
      vertex -3.725000e+01 -2.500000e+01 2.500000e+01
      vertex 3.450000e+01 -2.500000e+01 0.000000e+00
    endloop
  endfacet
  facet normal 0.000000e+00 -1.000000e+00 0.000000e+00
    outer loop
      vertex 3.450000e+01 -2.500000e+01 2.500000e+01
      vertex 7.500000e+00 -2.500000e+01 2.500000e+01
      vertex 3.450000e+01 -2.500000e+01 0.000000e+00
    endloop
  endfacet
  facet normal 0.000000e+00 -1.000000e+00 0.000000e+00
    outer loop
      vertex 7.500000e+00 -2.500000e+01 2.500000e+01
      vertex 7.440860e+00 -2.500000e+01 2.406000e+01
      vertex 3.450000e+01 -2.500000e+01 0.000000e+00
    endloop
  endfacet
  facet normal 0.000000e+00 -1.000000e+00 0.000000e+00
    outer loop
      vertex 7.440860e+00 -2.500000e+01 2.406000e+01
      vertex 7.264370e+00 -2.500000e+01 2.313480e+01
      vertex 3.450000e+01 -2.500000e+01 0.000000e+00
    endloop
  endfacet
  facet normal 0.000000e+00 -1.000000e+00 0.000000e+00
    outer loop
      vertex 7.264370e+00 -2.500000e+01 2.313480e+01
      vertex 6.973320e+00 -2.500000e+01 2.223907e+01
      vertex 3.450000e+01 -2.500000e+01 0.000000e+00
    endloop
  endfacet
  facet normal 0.000000e+00 -1.000000e+00 0.000000e+00
    outer loop
      vertex 6.973320e+00 -2.500000e+01 2.223907e+01
      vertex 6.572300e+00 -2.500000e+01 2.138685e+01
      vertex 3.450000e+01 -2.500000e+01 0.000000e+00
    endloop
  endfacet
  facet normal 0.000000e+00 -1.000000e+00 0.000000e+00
    outer loop
      vertex -7.264370e+00 -2.500000e+01 2.313480e+01
      vertex -7.440860e+00 -2.500000e+01 2.406000e+01
      vertex -3.725000e+01 -2.500000e+01 2.500000e+01
    endloop
  endfacet
  facet normal 0.000000e+00 -1.000000e+00 0.000000e+00
    outer loop
      vertex 6.572300e+00 -2.500000e+01 2.138685e+01
      vertex 6.067630e+00 -2.500000e+01 2.059161e+01
      vertex 3.450000e+01 -2.500000e+01 0.000000e+00
    endloop
  endfacet
  facet normal 0.000000e+00 -1.000000e+00 0.000000e+00
    outer loop
      vertex 6.067630e+00 -2.500000e+01 2.059161e+01
      vertex 5.467260e+00 -2.500000e+01 1.986590e+01
      vertex 3.450000e+01 -2.500000e+01 0.000000e+00
    endloop
  endfacet
  facet normal 0.000000e+00 -1.000000e+00 0.000000e+00
    outer loop
      vertex 5.467260e+00 -2.500000e+01 1.986590e+01
      vertex 4.780680e+00 -2.500000e+01 1.922115e+01
      vertex 3.450000e+01 -2.500000e+01 0.000000e+00
    endloop
  endfacet
  facet normal 0.000000e+00 -1.000000e+00 0.000000e+00
    outer loop
      vertex -6.572300e+00 -2.500000e+01 2.138685e+01
      vertex -6.973320e+00 -2.500000e+01 2.223907e+01
      vertex -3.725000e+01 -2.500000e+01 2.500000e+01
    endloop
  endfacet
  facet normal 0.000000e+00 -1.000000e+00 0.000000e+00
    outer loop
      vertex 4.780680e+00 -2.500000e+01 1.922115e+01
      vertex 4.018700e+00 -2.500000e+01 1.866754e+01
      vertex 3.450000e+01 -2.500000e+01 0.000000e+00
    endloop
  endfacet
  facet normal 0.000000e+00 -1.000000e+00 0.000000e+00
    outer loop
      vertex 4.018700e+00 -2.500000e+01 1.866754e+01
      vertex 3.193340e+00 -2.500000e+01 1.821380e+01
      vertex 3.450000e+01 -2.500000e+01 0.000000e+00
    endloop
  endfacet
  facet normal 0.000000e+00 -1.000000e+00 0.000000e+00
    outer loop
      vertex 3.193340e+00 -2.500000e+01 1.821380e+01
      vertex 2.317630e+00 -2.500000e+01 1.786708e+01
      vertex 3.450000e+01 -2.500000e+01 0.000000e+00
    endloop
  endfacet
  facet normal 0.000000e+00 -1.000000e+00 0.000000e+00
    outer loop
      vertex 2.317630e+00 -2.500000e+01 1.786708e+01
      vertex 1.405360e+00 -2.500000e+01 1.763285e+01
      vertex 3.450000e+01 -2.500000e+01 0.000000e+00
    endloop
  endfacet
  facet normal 0.000000e+00 -1.000000e+00 0.000000e+00
    outer loop
      vertex 1.405360e+00 -2.500000e+01 1.763285e+01
      vertex 4.709290e-01 -2.500000e+01 1.751480e+01
      vertex 3.450000e+01 -2.500000e+01 0.000000e+00
    endloop
  endfacet
  facet normal 0.000000e+00 -1.000000e+00 0.000000e+00
    outer loop
      vertex -4.018700e+00 -2.500000e+01 1.866754e+01
      vertex -4.780680e+00 -2.500000e+01 1.922115e+01
      vertex -3.725000e+01 -2.500000e+01 2.500000e+01
    endloop
  endfacet
  facet normal 0.000000e+00 -1.000000e+00 0.000000e+00
    outer loop
      vertex 4.709290e-01 -2.500000e+01 1.751480e+01
      vertex -4.709290e-01 -2.500000e+01 1.751480e+01
      vertex 3.450000e+01 -2.500000e+01 0.000000e+00
    endloop
  endfacet
  facet normal 0.000000e+00 -1.000000e+00 0.000000e+00
    outer loop
      vertex -4.709290e-01 -2.500000e+01 1.751480e+01
      vertex -1.405360e+00 -2.500000e+01 1.763285e+01
      vertex 3.450000e+01 -2.500000e+01 0.000000e+00
    endloop
  endfacet
  facet normal 0.000000e+00 -1.000000e+00 0.000000e+00
    outer loop
      vertex -2.317630e+00 -2.500000e+01 1.786708e+01
      vertex -3.725000e+01 -2.500000e+01 2.500000e+01
      vertex -1.405360e+00 -2.500000e+01 1.763285e+01
    endloop
  endfacet
  facet normal 0.000000e+00 -1.000000e+00 0.000000e+00
    outer loop
      vertex -6.067630e+00 -2.500000e+01 2.059161e+01
      vertex -6.572300e+00 -2.500000e+01 2.138685e+01
      vertex -3.725000e+01 -2.500000e+01 2.500000e+01
    endloop
  endfacet
  facet normal 0.000000e+00 -1.000000e+00 0.000000e+00
    outer loop
      vertex -4.780680e+00 -2.500000e+01 1.922115e+01
      vertex -5.467260e+00 -2.500000e+01 1.986590e+01
      vertex -3.725000e+01 -2.500000e+01 2.500000e+01
    endloop
  endfacet
  facet normal 0.000000e+00 -1.000000e+00 0.000000e+00
    outer loop
      vertex -5.467260e+00 -2.500000e+01 1.986590e+01
      vertex -6.067630e+00 -2.500000e+01 2.059161e+01
      vertex -3.725000e+01 -2.500000e+01 2.500000e+01
    endloop
  endfacet
  facet normal 0.000000e+00 -1.000000e+00 0.000000e+00
    outer loop
      vertex -6.973320e+00 -2.500000e+01 2.223907e+01
      vertex -7.264370e+00 -2.500000e+01 2.313480e+01
      vertex -3.725000e+01 -2.500000e+01 2.500000e+01
    endloop
  endfacet
  facet normal 0.000000e+00 -1.000000e+00 0.000000e+00
    outer loop
      vertex -7.440860e+00 -2.500000e+01 2.406000e+01
      vertex -7.500000e+00 -2.500000e+01 2.500000e+01
      vertex -3.725000e+01 -2.500000e+01 2.500000e+01
    endloop
  endfacet
  facet normal 0.000000e+00 -1.000000e+00 0.000000e+00
    outer loop
      vertex -2.317630e+00 -2.500000e+01 1.786708e+01
      vertex -3.193340e+00 -2.500000e+01 1.821380e+01
      vertex -3.725000e+01 -2.500000e+01 2.500000e+01
    endloop
  endfacet
  facet normal 0.000000e+00 -1.000000e+00 0.000000e+00
    outer loop
      vertex -3.193340e+00 -2.500000e+01 1.821380e+01
      vertex -4.018700e+00 -2.500000e+01 1.866754e+01
      vertex -3.725000e+01 -2.500000e+01 2.500000e+01
    endloop
  endfacet
  facet normal -1.000000e+00 -0.000000e+00 -0.000000e+00
    outer loop
      vertex 3.450000e+01 -2.700000e+01 0.000000e+00
      vertex 3.450000e+01 -2.700000e+01 2.500000e+01
      vertex 3.450000e+01 -2.500000e+01 0.000000e+00
    endloop
  endfacet
  facet normal -1.000000e+00 0.000000e+00 0.000000e+00
    outer loop
      vertex 3.450000e+01 -2.500000e+01 0.000000e+00
      vertex 3.450000e+01 -2.700000e+01 2.500000e+01
      vertex 3.450000e+01 -2.500000e+01 2.500000e+01
    endloop
  endfacet
  facet normal 0.000000e+00 -1.000000e+00 0.000000e+00
    outer loop
      vertex 3.450000e+01 -2.700000e+01 2.500000e+01
      vertex 3.450000e+01 -2.700000e+01 0.000000e+00
      vertex 3.850000e+01 -2.700000e+01 0.000000e+00
    endloop
  endfacet
  facet normal 0.000000e+00 -1.000000e+00 0.000000e+00
    outer loop
      vertex 3.850000e+01 -2.700000e+01 2.500000e+01
      vertex 3.450000e+01 -2.700000e+01 2.500000e+01
      vertex 3.850000e+01 -2.700000e+01 0.000000e+00
    endloop
  endfacet
  facet normal 0.000000e+00 -1.000000e+00 0.000000e+00
    outer loop
      vertex 3.850000e+01 -2.700000e+01 2.500000e+01
      vertex 3.850000e+01 -2.700000e+01 0.000000e+00
      vertex 3.950000e+01 -2.700000e+01 0.000000e+00
    endloop
  endfacet
  facet normal 0.000000e+00 -1.000000e+00 0.000000e+00
    outer loop
      vertex 3.950000e+01 -2.700000e+01 2.500000e+01
      vertex 3.850000e+01 -2.700000e+01 2.500000e+01
      vertex 3.950000e+01 -2.700000e+01 0.000000e+00
    endloop
  endfacet
  facet normal 1.000000e+00 0.000000e+00 0.000000e+00
    outer loop
      vertex 3.950000e+01 -2.700000e+01 2.500000e+01
      vertex 3.950000e+01 -2.700000e+01 0.000000e+00
      vertex 3.950000e+01 -2.500000e+01 0.000000e+00
    endloop
  endfacet
  facet normal 1.000000e+00 0.000000e+00 0.000000e+00
    outer loop
      vertex 3.950000e+01 -2.500000e+01 2.500000e+01
      vertex 3.950000e+01 -2.700000e+01 2.500000e+01
      vertex 3.950000e+01 -2.500000e+01 0.000000e+00
    endloop
  endfacet
  facet normal 1.000000e+00 -2.368480e-15 0.000000e+00
    outer loop
      vertex 3.950000e+01 -2.500000e+01 2.500000e+01
      vertex 3.950000e+01 -2.500000e+01 0.000000e+00
      vertex 3.950000e+01 -2.200000e+01 0.000000e+00
    endloop
  endfacet
  facet normal 1.000000e+00 -2.368480e-15 0.000000e+00
    outer loop
      vertex 3.950000e+01 -2.200000e+01 2.500000e+01
      vertex 3.950000e+01 -2.500000e+01 2.500000e+01
      vertex 3.950000e+01 -2.200000e+01 0.000000e+00
    endloop
  endfacet
  facet normal 1.776360e-15 1.000000e+00 0.000000e+00
    outer loop
      vertex 3.750000e+01 -2.200000e+01 0.000000e+00
      vertex 3.750000e+01 -2.200000e+01 2.500000e+01
      vertex 3.950000e+01 -2.200000e+01 0.000000e+00
    endloop
  endfacet
  facet normal 1.776360e-15 1.000000e+00 0.000000e+00
    outer loop
      vertex 3.950000e+01 -2.200000e+01 0.000000e+00
      vertex 3.750000e+01 -2.200000e+01 2.500000e+01
      vertex 3.950000e+01 -2.200000e+01 2.500000e+01
    endloop
  endfacet
  facet normal -1.000000e+00 -0.000000e+00 -0.000000e+00
    outer loop
      vertex 3.750000e+01 -2.450000e+01 0.000000e+00
      vertex 3.750000e+01 -2.450000e+01 2.500000e+01
      vertex 3.750000e+01 -2.200000e+01 0.000000e+00
    endloop
  endfacet
  facet normal -1.000000e+00 0.000000e+00 0.000000e+00
    outer loop
      vertex 3.750000e+01 -2.200000e+01 0.000000e+00
      vertex 3.750000e+01 -2.450000e+01 2.500000e+01
      vertex 3.750000e+01 -2.200000e+01 2.500000e+01
    endloop
  endfacet
  facet normal 1.000000e+00 0.000000e+00 0.000000e+00
    outer loop
      vertex 3.750000e+01 -2.450000e+01 2.500000e+01
      vertex 3.750000e+01 -2.450000e+01 0.000000e+00
      vertex 3.750000e+01 2.200000e+01 0.000000e+00
    endloop
  endfacet
  facet normal 1.000000e+00 0.000000e+00 0.000000e+00
    outer loop
      vertex 3.750000e+01 2.200000e+01 2.500000e+01
      vertex 3.750000e+01 -2.450000e+01 2.500000e+01
      vertex 3.750000e+01 2.200000e+01 0.000000e+00
    endloop
  endfacet
  facet normal 0.000000e+00 -1.000000e+00 0.000000e+00
    outer loop
      vertex 3.750000e+01 2.200000e+01 2.500000e+01
      vertex 3.750000e+01 2.200000e+01 0.000000e+00
      vertex 3.950000e+01 2.200000e+01 0.000000e+00
    endloop
  endfacet
  facet normal 0.000000e+00 -1.000000e+00 0.000000e+00
    outer loop
      vertex 3.950000e+01 2.200000e+01 2.500000e+01
      vertex 3.750000e+01 2.200000e+01 2.500000e+01
      vertex 3.950000e+01 2.200000e+01 0.000000e+00
    endloop
  endfacet
  facet normal 1.000000e+00 -1.776360e-15 0.000000e+00
    outer loop
      vertex 3.950000e+01 2.200000e+01 2.500000e+01
      vertex 3.950000e+01 2.200000e+01 0.000000e+00
      vertex 3.950000e+01 2.600000e+01 0.000000e+00
    endloop
  endfacet
  facet normal 1.000000e+00 -1.776360e-15 0.000000e+00
    outer loop
      vertex 3.950000e+01 2.600000e+01 2.500000e+01
      vertex 3.950000e+01 2.200000e+01 2.500000e+01
      vertex 3.950000e+01 2.600000e+01 0.000000e+00
    endloop
  endfacet
  facet normal 1.000000e+00 0.000000e+00 0.000000e+00
    outer loop
      vertex 3.950000e+01 2.600000e+01 2.500000e+01
      vertex 3.950000e+01 2.600000e+01 0.000000e+00
      vertex 3.950000e+01 2.700000e+01 0.000000e+00
    endloop
  endfacet
  facet normal 1.000000e+00 0.000000e+00 0.000000e+00
    outer loop
      vertex 3.950000e+01 2.700000e+01 2.500000e+01
      vertex 3.950000e+01 2.600000e+01 2.500000e+01
      vertex 3.950000e+01 2.700000e+01 0.000000e+00
    endloop
  endfacet
  facet normal 1.776360e-15 1.000000e+00 0.000000e+00
    outer loop
      vertex 3.750000e+01 2.700000e+01 0.000000e+00
      vertex 3.750000e+01 2.700000e+01 2.500000e+01
      vertex 3.950000e+01 2.700000e+01 0.000000e+00
    endloop
  endfacet
  facet normal 1.776360e-15 1.000000e+00 0.000000e+00
    outer loop
      vertex 3.950000e+01 2.700000e+01 0.000000e+00
      vertex 3.750000e+01 2.700000e+01 2.500000e+01
      vertex 3.950000e+01 2.700000e+01 2.500000e+01
    endloop
  endfacet
  facet normal 1.184240e-15 1.000000e+00 0.000000e+00
    outer loop
      vertex 3.450000e+01 2.700000e+01 0.000000e+00
      vertex 3.450000e+01 2.700000e+01 2.500000e+01
      vertex 3.750000e+01 2.700000e+01 0.000000e+00
    endloop
  endfacet
  facet normal 1.184240e-15 1.000000e+00 0.000000e+00
    outer loop
      vertex 3.750000e+01 2.700000e+01 0.000000e+00
      vertex 3.450000e+01 2.700000e+01 2.500000e+01
      vertex 3.750000e+01 2.700000e+01 2.500000e+01
    endloop
  endfacet
  facet normal -1.000000e+00 3.552710e-15 0.000000e+00
    outer loop
      vertex 3.450000e+01 2.500000e+01 0.000000e+00
      vertex 3.450000e+01 2.500000e+01 2.500000e+01
      vertex 3.450000e+01 2.700000e+01 0.000000e+00
    endloop
  endfacet
  facet normal -1.000000e+00 3.552710e-15 0.000000e+00
    outer loop
      vertex 3.450000e+01 2.700000e+01 0.000000e+00
      vertex 3.450000e+01 2.500000e+01 2.500000e+01
      vertex 3.450000e+01 2.700000e+01 2.500000e+01
    endloop
  endfacet
  facet normal 0.000000e+00 -1.000000e+00 0.000000e+00
    outer loop
      vertex 3.450000e+01 2.500000e+01 2.500000e+01
      vertex 3.450000e+01 2.500000e+01 0.000000e+00
      vertex 3.725000e+01 2.500000e+01 0.000000e+00
    endloop
  endfacet
  facet normal 0.000000e+00 -1.000000e+00 0.000000e+00
    outer loop
      vertex 3.725000e+01 2.500000e+01 2.500000e+01
      vertex 3.450000e+01 2.500000e+01 2.500000e+01
      vertex 3.725000e+01 2.500000e+01 0.000000e+00
    endloop
  endfacet
  facet normal 0.000000e+00 1.000000e+00 0.000000e+00
    outer loop
      vertex -2.544500e+01 2.500000e+01 2.394990e+01
      vertex -3.450000e+01 2.500000e+01 2.500000e+01
      vertex 3.725000e+01 2.500000e+01 2.500000e+01
    endloop
  endfacet
  facet normal 0.000000e+00 1.000000e+00 0.000000e+00
    outer loop
      vertex -3.450000e+01 2.500000e+01 0.000000e+00
      vertex -3.450000e+01 2.500000e+01 2.500000e+01
      vertex -2.680190e+01 2.500000e+01 2.113223e+01
    endloop
  endfacet
  facet normal 0.000000e+00 1.000000e+00 0.000000e+00
    outer loop
      vertex -3.450000e+01 2.500000e+01 0.000000e+00
      vertex -2.680190e+01 2.500000e+01 2.113223e+01
      vertex -2.544500e+01 2.500000e+01 2.005014e+01
    endloop
  endfacet
  facet normal 0.000000e+00 1.000000e+00 0.000000e+00
    outer loop
      vertex -3.450000e+01 2.500000e+01 0.000000e+00
      vertex -2.544500e+01 2.500000e+01 2.005014e+01
      vertex 3.725000e+01 2.500000e+01 0.000000e+00
    endloop
  endfacet
  facet normal 0.000000e+00 1.000000e+00 0.000000e+00
    outer loop
      vertex -2.375300e+01 2.500000e+01 2.043634e+01
      vertex 3.725000e+01 2.500000e+01 0.000000e+00
      vertex -2.544500e+01 2.500000e+01 2.005014e+01
    endloop
  endfacet
  facet normal 0.000000e+00 1.000000e+00 0.000000e+00
    outer loop
      vertex -2.300000e+01 2.500000e+01 2.200000e+01
      vertex 3.725000e+01 2.500000e+01 0.000000e+00
      vertex -2.375300e+01 2.500000e+01 2.043634e+01
    endloop
  endfacet
  facet normal 0.000000e+00 1.000000e+00 0.000000e+00
    outer loop
      vertex -2.375300e+01 2.500000e+01 2.356370e+01
      vertex 3.725000e+01 2.500000e+01 2.500000e+01
      vertex -2.300000e+01 2.500000e+01 2.200000e+01
    endloop
  endfacet
  facet normal 0.000000e+00 1.000000e+00 0.000000e+00
    outer loop
      vertex 2.455500e+01 2.500000e+01 2.394990e+01
      vertex -2.300000e+01 2.500000e+01 2.200000e+01
      vertex 3.725000e+01 2.500000e+01 2.500000e+01
    endloop
  endfacet
  facet normal 0.000000e+00 1.000000e+00 0.000000e+00
    outer loop
      vertex -2.680190e+01 2.500000e+01 2.113223e+01
      vertex -3.450000e+01 2.500000e+01 2.500000e+01
      vertex -2.680190e+01 2.500000e+01 2.286780e+01
    endloop
  endfacet
  facet normal 0.000000e+00 1.000000e+00 0.000000e+00
    outer loop
      vertex 2.319810e+01 2.500000e+01 2.286780e+01
      vertex -2.300000e+01 2.500000e+01 2.200000e+01
      vertex 2.455500e+01 2.500000e+01 2.394990e+01
    endloop
  endfacet
  facet normal 0.000000e+00 1.000000e+00 0.000000e+00
    outer loop
      vertex -2.375300e+01 2.500000e+01 2.356370e+01
      vertex -2.544500e+01 2.500000e+01 2.394990e+01
      vertex 3.725000e+01 2.500000e+01 2.500000e+01
    endloop
  endfacet
  facet normal 0.000000e+00 1.000000e+00 0.000000e+00
    outer loop
      vertex 2.319810e+01 2.500000e+01 2.113223e+01
      vertex -2.300000e+01 2.500000e+01 2.200000e+01
      vertex 2.319810e+01 2.500000e+01 2.286780e+01
    endloop
  endfacet
  facet normal 0.000000e+00 1.000000e+00 0.000000e+00
    outer loop
      vertex 3.725000e+01 2.500000e+01 0.000000e+00
      vertex -2.300000e+01 2.500000e+01 2.200000e+01
      vertex 2.319810e+01 2.500000e+01 2.113223e+01
    endloop
  endfacet
  facet normal 0.000000e+00 1.000000e+00 0.000000e+00
    outer loop
      vertex 3.725000e+01 2.500000e+01 0.000000e+00
      vertex 2.319810e+01 2.500000e+01 2.113223e+01
      vertex 2.455500e+01 2.500000e+01 2.005014e+01
    endloop
  endfacet
  facet normal 0.000000e+00 1.000000e+00 0.000000e+00
    outer loop
      vertex 2.624700e+01 2.500000e+01 2.356370e+01
      vertex 3.725000e+01 2.500000e+01 2.500000e+01
      vertex 2.700000e+01 2.500000e+01 2.200000e+01
    endloop
  endfacet
  facet normal 0.000000e+00 1.000000e+00 0.000000e+00
    outer loop
      vertex 3.725000e+01 2.500000e+01 0.000000e+00
      vertex 2.624700e+01 2.500000e+01 2.043634e+01
      vertex 3.725000e+01 2.500000e+01 2.500000e+01
    endloop
  endfacet
  facet normal 0.000000e+00 1.000000e+00 0.000000e+00
    outer loop
      vertex 2.624700e+01 2.500000e+01 2.043634e+01
      vertex 2.700000e+01 2.500000e+01 2.200000e+01
      vertex 3.725000e+01 2.500000e+01 2.500000e+01
    endloop
  endfacet
  facet normal 0.000000e+00 1.000000e+00 0.000000e+00
    outer loop
      vertex 2.624700e+01 2.500000e+01 2.043634e+01
      vertex 3.725000e+01 2.500000e+01 0.000000e+00
      vertex 2.455500e+01 2.500000e+01 2.005014e+01
    endloop
  endfacet
  facet normal 0.000000e+00 1.000000e+00 0.000000e+00
    outer loop
      vertex 2.624700e+01 2.500000e+01 2.356370e+01
      vertex 2.455500e+01 2.500000e+01 2.394990e+01
      vertex 3.725000e+01 2.500000e+01 2.500000e+01
    endloop
  endfacet
  facet normal 0.000000e+00 1.000000e+00 0.000000e+00
    outer loop
      vertex -2.680190e+01 2.500000e+01 2.286780e+01
      vertex -3.450000e+01 2.500000e+01 2.500000e+01
      vertex -2.544500e+01 2.500000e+01 2.394990e+01
    endloop
  endfacet
  facet normal 1.000000e+00 0.000000e+00 0.000000e+00
    outer loop
      vertex -3.450000e+01 2.500000e+01 2.500000e+01
      vertex -3.450000e+01 2.500000e+01 0.000000e+00
      vertex -3.450000e+01 2.700000e+01 0.000000e+00
    endloop
  endfacet
  facet normal 1.000000e+00 0.000000e+00 0.000000e+00
    outer loop
      vertex -3.450000e+01 2.700000e+01 2.500000e+01
      vertex -3.450000e+01 2.500000e+01 2.500000e+01
      vertex -3.450000e+01 2.700000e+01 0.000000e+00
    endloop
  endfacet
  facet normal 8.881780e-16 1.000000e+00 0.000000e+00
    outer loop
      vertex -3.850000e+01 2.700000e+01 0.000000e+00
      vertex -3.850000e+01 2.700000e+01 2.500000e+01
      vertex -3.450000e+01 2.700000e+01 0.000000e+00
    endloop
  endfacet
  facet normal 8.881780e-16 1.000000e+00 0.000000e+00
    outer loop
      vertex -3.450000e+01 2.700000e+01 0.000000e+00
      vertex -3.850000e+01 2.700000e+01 2.500000e+01
      vertex -3.450000e+01 2.700000e+01 2.500000e+01
    endloop
  endfacet
  facet normal 0.000000e+00 1.000000e+00 0.000000e+00
    outer loop
      vertex -3.950000e+01 2.700000e+01 0.000000e+00
      vertex -3.950000e+01 2.700000e+01 2.500000e+01
      vertex -3.850000e+01 2.700000e+01 0.000000e+00
    endloop
  endfacet
  facet normal 0.000000e+00 1.000000e+00 0.000000e+00
    outer loop
      vertex -3.850000e+01 2.700000e+01 0.000000e+00
      vertex -3.950000e+01 2.700000e+01 2.500000e+01
      vertex -3.850000e+01 2.700000e+01 2.500000e+01
    endloop
  endfacet
  facet normal -1.000000e+00 3.552710e-15 0.000000e+00
    outer loop
      vertex -3.950000e+01 2.500000e+01 0.000000e+00
      vertex -3.950000e+01 2.500000e+01 2.500000e+01
      vertex -3.950000e+01 2.700000e+01 0.000000e+00
    endloop
  endfacet
  facet normal -1.000000e+00 3.552710e-15 0.000000e+00
    outer loop
      vertex -3.950000e+01 2.700000e+01 0.000000e+00
      vertex -3.950000e+01 2.500000e+01 2.500000e+01
      vertex -3.950000e+01 2.700000e+01 2.500000e+01
    endloop
  endfacet
  facet normal 0.000000e+00 0.000000e+00 1.000000e+00
    outer loop
      vertex 7.500000e+00 -2.600000e+01 2.500000e+01
      vertex 7.500000e+00 -2.500000e+01 2.500000e+01
      vertex -7.500000e+00 -2.500000e+01 2.500000e+01
    endloop
  endfacet
  facet normal 0.000000e+00 0.000000e+00 1.000000e+00
    outer loop
      vertex -7.500000e+00 -2.600000e+01 2.500000e+01
      vertex 7.500000e+00 -2.600000e+01 2.500000e+01
      vertex -7.500000e+00 -2.500000e+01 2.500000e+01
    endloop
  endfacet
  facet normal 9.980267e-01 0.000000e+00 -6.279078e-02
    outer loop
      vertex 7.500000e+00 -2.600000e+01 2.500000e+01
      vertex 7.440860e+00 -2.600000e+01 2.406000e+01
      vertex 7.440860e+00 -2.500000e+01 2.406000e+01
    endloop
  endfacet
  facet normal 9.980267e-01 0.000000e+00 -6.279078e-02
    outer loop
      vertex 7.500000e+00 -2.500000e+01 2.500000e+01
      vertex 7.500000e+00 -2.600000e+01 2.500000e+01
      vertex 7.440860e+00 -2.500000e+01 2.406000e+01
    endloop
  endfacet
  facet normal -9.980267e-01 -0.000000e+00 -6.279078e-02
    outer loop
      vertex -7.500000e+00 -2.600000e+01 2.500000e+01
      vertex -7.500000e+00 -2.500000e+01 2.500000e+01
      vertex -7.440860e+00 -2.600000e+01 2.406000e+01
    endloop
  endfacet
  facet normal -9.980267e-01 -0.000000e+00 -6.279078e-02
    outer loop
      vertex -7.440860e+00 -2.600000e+01 2.406000e+01
      vertex -7.500000e+00 -2.500000e+01 2.500000e+01
      vertex -7.440860e+00 -2.500000e+01 2.406000e+01
    endloop
  endfacet
  facet normal 1.000000e+00 0.000000e+00 0.000000e+00
    outer loop
      vertex -3.550000e+01 2.300000e+01 2.000000e+00
      vertex -3.550000e+01 2.300000e+01 2.500000e+01
      vertex -3.550000e+01 -2.300000e+01 2.500000e+01
    endloop
  endfacet
  facet normal 1.000000e+00 0.000000e+00 0.000000e+00
    outer loop
      vertex -3.550000e+01 -2.300000e+01 2.000000e+00
      vertex -3.550000e+01 2.300000e+01 2.000000e+00
      vertex -3.550000e+01 -2.300000e+01 2.500000e+01
    endloop
  endfacet
  facet normal 0.000000e+00 1.000000e+00 0.000000e+00
    outer loop
      vertex -1.000000e+00 -2.300000e+01 1.925000e+01
      vertex 3.550000e+01 -2.300000e+01 2.000000e+00
      vertex -3.550000e+01 -2.300000e+01 2.500000e+01
    endloop
  endfacet
  facet normal 0.000000e+00 1.000000e+00 0.000000e+00
    outer loop
      vertex -3.550000e+01 -2.300000e+01 2.500000e+01
      vertex 3.550000e+01 -2.300000e+01 2.000000e+00
      vertex -3.550000e+01 -2.300000e+01 2.000000e+00
    endloop
  endfacet
  facet normal 0.000000e+00 1.000000e+00 0.000000e+00
    outer loop
      vertex 2.000000e+00 -2.300000e+01 2.200000e+01
      vertex 3.550000e+01 -2.300000e+01 2.500000e+01
      vertex 1.246980e+00 -2.300000e+01 2.043634e+01
    endloop
  endfacet
  facet normal 0.000000e+00 1.000000e+00 0.000000e+00
    outer loop
      vertex 1.000000e+00 -2.300000e+01 2.037997e+01
      vertex 3.550000e+01 -2.300000e+01 2.000000e+00
      vertex 1.000000e+00 -2.300000e+01 1.925000e+01
    endloop
  endfacet
  facet normal 0.000000e+00 1.000000e+00 0.000000e+00
    outer loop
      vertex -1.801940e+00 -2.300000e+01 2.113223e+01
      vertex -1.000000e+00 -2.300000e+01 2.049271e+01
      vertex -3.550000e+01 -2.300000e+01 2.500000e+01
    endloop
  endfacet
  facet normal 0.000000e+00 1.000000e+00 0.000000e+00
    outer loop
      vertex 1.000000e+00 -2.300000e+01 1.925000e+01
      vertex 3.550000e+01 -2.300000e+01 2.000000e+00
      vertex -1.000000e+00 -2.300000e+01 1.925000e+01
    endloop
  endfacet
  facet normal 0.000000e+00 1.000000e+00 0.000000e+00
    outer loop
      vertex -1.000000e+00 -2.300000e+01 2.049271e+01
      vertex -1.000000e+00 -2.300000e+01 1.925000e+01
      vertex -3.550000e+01 -2.300000e+01 2.500000e+01
    endloop
  endfacet
  facet normal 0.000000e+00 1.000000e+00 0.000000e+00
    outer loop
      vertex 3.550000e+01 -2.300000e+01 2.500000e+01
      vertex 3.550000e+01 -2.300000e+01 2.000000e+00
      vertex 1.000000e+00 -2.300000e+01 2.037997e+01
    endloop
  endfacet
  facet normal 0.000000e+00 1.000000e+00 0.000000e+00
    outer loop
      vertex 3.550000e+01 -2.300000e+01 2.500000e+01
      vertex 1.000000e+00 -2.300000e+01 2.037997e+01
      vertex 1.246980e+00 -2.300000e+01 2.043634e+01
    endloop
  endfacet
  facet normal 0.000000e+00 1.000000e+00 0.000000e+00
    outer loop
      vertex -1.801940e+00 -2.300000e+01 2.286780e+01
      vertex -3.550000e+01 -2.300000e+01 2.500000e+01
      vertex -4.450420e-01 -2.300000e+01 2.394990e+01
    endloop
  endfacet
  facet normal 0.000000e+00 1.000000e+00 0.000000e+00
    outer loop
      vertex 3.550000e+01 -2.300000e+01 2.500000e+01
      vertex 2.000000e+00 -2.300000e+01 2.200000e+01
      vertex 1.246980e+00 -2.300000e+01 2.356370e+01
    endloop
  endfacet
  facet normal 0.000000e+00 1.000000e+00 0.000000e+00
    outer loop
      vertex 3.550000e+01 -2.300000e+01 2.500000e+01
      vertex 1.246980e+00 -2.300000e+01 2.356370e+01
      vertex -4.450420e-01 -2.300000e+01 2.394990e+01
    endloop
  endfacet
  facet normal 0.000000e+00 1.000000e+00 0.000000e+00
    outer loop
      vertex 3.550000e+01 -2.300000e+01 2.500000e+01
      vertex -4.450420e-01 -2.300000e+01 2.394990e+01
      vertex -3.550000e+01 -2.300000e+01 2.500000e+01
    endloop
  endfacet
  facet normal 0.000000e+00 1.000000e+00 0.000000e+00
    outer loop
      vertex -1.801940e+00 -2.300000e+01 2.113223e+01
      vertex -3.550000e+01 -2.300000e+01 2.500000e+01
      vertex -1.801940e+00 -2.300000e+01 2.286780e+01
    endloop
  endfacet
  facet normal -1.000000e+00 0.000000e+00 0.000000e+00
    outer loop
      vertex 3.550000e+01 2.300000e+01 2.500000e+01
      vertex 3.550000e+01 2.300000e+01 2.000000e+00
      vertex 3.550000e+01 -2.300000e+01 2.500000e+01
    endloop
  endfacet
  facet normal -1.000000e+00 0.000000e+00 0.000000e+00
    outer loop
      vertex 3.550000e+01 -2.300000e+01 2.500000e+01
      vertex 3.550000e+01 2.300000e+01 2.000000e+00
      vertex 3.550000e+01 -2.300000e+01 2.000000e+00
    endloop
  endfacet
  facet normal 0.000000e+00 -1.000000e+00 0.000000e+00
    outer loop
      vertex -2.544500e+01 2.300000e+01 2.394990e+01
      vertex 3.550000e+01 2.300000e+01 2.500000e+01
      vertex -3.550000e+01 2.300000e+01 2.500000e+01
    endloop
  endfacet
  facet normal 0.000000e+00 -1.000000e+00 0.000000e+00
    outer loop
      vertex -2.375300e+01 2.300000e+01 2.356370e+01
      vertex -2.300000e+01 2.300000e+01 2.200000e+01
      vertex 3.550000e+01 2.300000e+01 2.500000e+01
    endloop
  endfacet
  facet normal 0.000000e+00 -1.000000e+00 0.000000e+00
    outer loop
      vertex -2.680190e+01 2.300000e+01 2.286780e+01
      vertex -2.544500e+01 2.300000e+01 2.394990e+01
      vertex -3.550000e+01 2.300000e+01 2.500000e+01
    endloop
  endfacet
  facet normal 0.000000e+00 -1.000000e+00 0.000000e+00
    outer loop
      vertex -2.375300e+01 2.300000e+01 2.356370e+01
      vertex 3.550000e+01 2.300000e+01 2.500000e+01
      vertex -2.544500e+01 2.300000e+01 2.394990e+01
    endloop
  endfacet
  facet normal 0.000000e+00 -1.000000e+00 0.000000e+00
    outer loop
      vertex -2.300000e+01 2.300000e+01 2.200000e+01
      vertex -2.375300e+01 2.300000e+01 2.043634e+01
      vertex 3.550000e+01 2.300000e+01 2.000000e+00
    endloop
  endfacet
  facet normal 0.000000e+00 -1.000000e+00 0.000000e+00
    outer loop
      vertex 2.624700e+01 2.300000e+01 2.356370e+01
      vertex 2.700000e+01 2.300000e+01 2.200000e+01
      vertex 3.550000e+01 2.300000e+01 2.500000e+01
    endloop
  endfacet
  facet normal 0.000000e+00 -1.000000e+00 0.000000e+00
    outer loop
      vertex 2.455500e+01 2.300000e+01 2.394990e+01
      vertex 3.550000e+01 2.300000e+01 2.500000e+01
      vertex -2.300000e+01 2.300000e+01 2.200000e+01
    endloop
  endfacet
  facet normal 0.000000e+00 -1.000000e+00 0.000000e+00
    outer loop
      vertex -3.550000e+01 2.300000e+01 2.000000e+00
      vertex 3.550000e+01 2.300000e+01 2.000000e+00
      vertex -2.375300e+01 2.300000e+01 2.043634e+01
    endloop
  endfacet
  facet normal 0.000000e+00 -1.000000e+00 0.000000e+00
    outer loop
      vertex -3.550000e+01 2.300000e+01 2.000000e+00
      vertex -2.544500e+01 2.300000e+01 2.005014e+01
      vertex -3.550000e+01 2.300000e+01 2.500000e+01
    endloop
  endfacet
  facet normal 0.000000e+00 -1.000000e+00 0.000000e+00
    outer loop
      vertex -3.550000e+01 2.300000e+01 2.000000e+00
      vertex -2.375300e+01 2.300000e+01 2.043634e+01
      vertex -2.544500e+01 2.300000e+01 2.005014e+01
    endloop
  endfacet
  facet normal 0.000000e+00 -1.000000e+00 0.000000e+00
    outer loop
      vertex -2.544500e+01 2.300000e+01 2.005014e+01
      vertex -2.680190e+01 2.300000e+01 2.113223e+01
      vertex -3.550000e+01 2.300000e+01 2.500000e+01
    endloop
  endfacet
  facet normal 0.000000e+00 -1.000000e+00 0.000000e+00
    outer loop
      vertex 2.319810e+01 2.300000e+01 2.113223e+01
      vertex 2.319810e+01 2.300000e+01 2.286780e+01
      vertex -2.300000e+01 2.300000e+01 2.200000e+01
    endloop
  endfacet
  facet normal 0.000000e+00 -1.000000e+00 0.000000e+00
    outer loop
      vertex 2.319810e+01 2.300000e+01 2.286780e+01
      vertex 2.455500e+01 2.300000e+01 2.394990e+01
      vertex -2.300000e+01 2.300000e+01 2.200000e+01
    endloop
  endfacet
  facet normal 0.000000e+00 -1.000000e+00 0.000000e+00
    outer loop
      vertex 2.624700e+01 2.300000e+01 2.356370e+01
      vertex 3.550000e+01 2.300000e+01 2.500000e+01
      vertex 2.455500e+01 2.300000e+01 2.394990e+01
    endloop
  endfacet
  facet normal 0.000000e+00 -1.000000e+00 0.000000e+00
    outer loop
      vertex 2.624700e+01 2.300000e+01 2.043634e+01
      vertex 2.455500e+01 2.300000e+01 2.005014e+01
      vertex 3.550000e+01 2.300000e+01 2.000000e+00
    endloop
  endfacet
  facet normal 0.000000e+00 -1.000000e+00 0.000000e+00
    outer loop
      vertex 3.550000e+01 2.300000e+01 2.000000e+00
      vertex 3.550000e+01 2.300000e+01 2.500000e+01
      vertex 2.700000e+01 2.300000e+01 2.200000e+01
    endloop
  endfacet
  facet normal 0.000000e+00 -1.000000e+00 0.000000e+00
    outer loop
      vertex 3.550000e+01 2.300000e+01 2.000000e+00
      vertex 2.700000e+01 2.300000e+01 2.200000e+01
      vertex 2.624700e+01 2.300000e+01 2.043634e+01
    endloop
  endfacet
  facet normal 0.000000e+00 -1.000000e+00 0.000000e+00
    outer loop
      vertex 3.550000e+01 2.300000e+01 2.000000e+00
      vertex 2.455500e+01 2.300000e+01 2.005014e+01
      vertex -2.300000e+01 2.300000e+01 2.200000e+01
    endloop
  endfacet
  facet normal 0.000000e+00 -1.000000e+00 0.000000e+00
    outer loop
      vertex 2.455500e+01 2.300000e+01 2.005014e+01
      vertex 2.319810e+01 2.300000e+01 2.113223e+01
      vertex -2.300000e+01 2.300000e+01 2.200000e+01
    endloop
  endfacet
  facet normal 0.000000e+00 -1.000000e+00 0.000000e+00
    outer loop
      vertex -2.680190e+01 2.300000e+01 2.113223e+01
      vertex -2.680190e+01 2.300000e+01 2.286780e+01
      vertex -3.550000e+01 2.300000e+01 2.500000e+01
    endloop
  endfacet
  facet normal -9.822873e-01 -0.000000e+00 -1.873811e-01
    outer loop
      vertex -7.440860e+00 -2.600000e+01 2.406000e+01
      vertex -7.440860e+00 -2.500000e+01 2.406000e+01
      vertex -7.264370e+00 -2.600000e+01 2.313480e+01
    endloop
  endfacet
  facet normal -9.822873e-01 -3.328551e-16 -1.873811e-01
    outer loop
      vertex -7.264370e+00 -2.600000e+01 2.313480e+01
      vertex -7.440860e+00 -2.500000e+01 2.406000e+01
      vertex -7.264370e+00 -2.500000e+01 2.313480e+01
    endloop
  endfacet
  facet normal -9.510565e-01 -5.489237e-16 -3.090169e-01
    outer loop
      vertex -7.264370e+00 -2.600000e+01 2.313480e+01
      vertex -7.264370e+00 -2.500000e+01 2.313480e+01
      vertex -6.973320e+00 -2.600000e+01 2.223907e+01
    endloop
  endfacet
  facet normal -9.510565e-01 -0.000000e+00 -3.090169e-01
    outer loop
      vertex -6.973320e+00 -2.600000e+01 2.223907e+01
      vertex -7.264370e+00 -2.500000e+01 2.313480e+01
      vertex -6.973320e+00 -2.500000e+01 2.223907e+01
    endloop
  endfacet
  facet normal -9.048272e-01 -0.000000e+00 -4.257791e-01
    outer loop
      vertex -6.973320e+00 -2.600000e+01 2.223907e+01
      vertex -6.973320e+00 -2.500000e+01 2.223907e+01
      vertex -6.572300e+00 -2.600000e+01 2.138685e+01
    endloop
  endfacet
  facet normal -9.048272e-01 -0.000000e+00 -4.257791e-01
    outer loop
      vertex -6.572300e+00 -2.600000e+01 2.138685e+01
      vertex -6.973320e+00 -2.500000e+01 2.223907e+01
      vertex -6.572300e+00 -2.500000e+01 2.138685e+01
    endloop
  endfacet
  facet normal -8.443276e-01 -0.000000e+00 -5.358273e-01
    outer loop
      vertex -6.572300e+00 -2.600000e+01 2.138685e+01
      vertex -6.572300e+00 -2.500000e+01 2.138685e+01
      vertex -6.067630e+00 -2.600000e+01 2.059161e+01
    endloop
  endfacet
  facet normal -8.443276e-01 -9.518216e-16 -5.358273e-01
    outer loop
      vertex -6.067630e+00 -2.600000e+01 2.059161e+01
      vertex -6.572300e+00 -2.500000e+01 2.138685e+01
      vertex -6.067630e+00 -2.500000e+01 2.059161e+01
    endloop
  endfacet
  facet normal -7.705141e-01 -1.132290e-15 -6.374230e-01
    outer loop
      vertex -6.067630e+00 -2.600000e+01 2.059161e+01
      vertex -6.067630e+00 -2.500000e+01 2.059161e+01
      vertex -5.467260e+00 -2.600000e+01 1.986590e+01
    endloop
  endfacet
  facet normal -7.705141e-01 -5.661461e-16 -6.374230e-01
    outer loop
      vertex -5.467260e+00 -2.600000e+01 1.986590e+01
      vertex -6.067630e+00 -2.500000e+01 2.059161e+01
      vertex -5.467260e+00 -2.500000e+01 1.986590e+01
    endloop
  endfacet
  facet normal -6.845469e-01 -6.474539e-16 -7.289689e-01
    outer loop
      vertex -5.467260e+00 -2.600000e+01 1.986590e+01
      vertex -5.467260e+00 -2.500000e+01 1.986590e+01
      vertex -4.780680e+00 -2.600000e+01 1.922115e+01
    endloop
  endfacet
  facet normal -6.845469e-01 -6.474539e-16 -7.289689e-01
    outer loop
      vertex -4.780680e+00 -2.600000e+01 1.922115e+01
      vertex -5.467260e+00 -2.500000e+01 1.986590e+01
      vertex -4.780680e+00 -2.500000e+01 1.922115e+01
    endloop
  endfacet
  facet normal -5.877851e-01 -7.185521e-16 -8.090171e-01
    outer loop
      vertex -4.780680e+00 -2.600000e+01 1.922115e+01
      vertex -4.780680e+00 -2.500000e+01 1.922115e+01
      vertex -4.018700e+00 -2.600000e+01 1.866754e+01
    endloop
  endfacet
  facet normal -5.877851e-01 -7.185521e-16 -8.090171e-01
    outer loop
      vertex -4.018700e+00 -2.600000e+01 1.866754e+01
      vertex -4.780680e+00 -2.500000e+01 1.922115e+01
      vertex -4.018700e+00 -2.500000e+01 1.866754e+01
    endloop
  endfacet
  facet normal -4.817542e-01 -7.783164e-16 -8.763064e-01
    outer loop
      vertex -4.018700e+00 -2.600000e+01 1.866754e+01
      vertex -4.018700e+00 -2.500000e+01 1.866754e+01
      vertex -3.193340e+00 -2.600000e+01 1.821380e+01
    endloop
  endfacet
  facet normal -4.817542e-01 -7.783164e-16 -8.763064e-01
    outer loop
      vertex -3.193340e+00 -2.600000e+01 1.821380e+01
      vertex -4.018700e+00 -2.500000e+01 1.866754e+01
      vertex -3.193340e+00 -2.500000e+01 1.821380e+01
    endloop
  endfacet
  facet normal -3.681239e-01 -8.258077e-16 -9.297767e-01
    outer loop
      vertex -3.193340e+00 -2.600000e+01 1.821380e+01
      vertex -3.193340e+00 -2.500000e+01 1.821380e+01
      vertex -2.317630e+00 -2.600000e+01 1.786708e+01
    endloop
  endfacet
  facet normal -3.681239e-01 -8.258077e-16 -9.297767e-01
    outer loop
      vertex -2.317630e+00 -2.600000e+01 1.786708e+01
      vertex -3.193340e+00 -2.500000e+01 1.821380e+01
      vertex -2.317630e+00 -2.500000e+01 1.786708e+01
    endloop
  endfacet
  facet normal -2.486900e-01 -8.602751e-16 -9.685831e-01
    outer loop
      vertex -2.317630e+00 -2.600000e+01 1.786708e+01
      vertex -2.317630e+00 -2.500000e+01 1.786708e+01
      vertex -1.405360e+00 -2.600000e+01 1.763285e+01
    endloop
  endfacet
  facet normal -2.486900e-01 -8.602751e-16 -9.685831e-01
    outer loop
      vertex -1.405360e+00 -2.600000e+01 1.763285e+01
      vertex -2.317630e+00 -2.500000e+01 1.786708e+01
      vertex -1.405360e+00 -2.500000e+01 1.763285e+01
    endloop
  endfacet
  facet normal -1.253330e-01 -8.811747e-16 -9.921147e-01
    outer loop
      vertex -1.405360e+00 -2.600000e+01 1.763285e+01
      vertex -1.405360e+00 -2.500000e+01 1.763285e+01
      vertex -4.709290e-01 -2.600000e+01 1.751480e+01
    endloop
  endfacet
  facet normal -1.253330e-01 -8.811747e-16 -9.921147e-01
    outer loop
      vertex -4.709290e-01 -2.600000e+01 1.751480e+01
      vertex -1.405360e+00 -2.500000e+01 1.763285e+01
      vertex -4.709290e-01 -2.500000e+01 1.751480e+01
    endloop
  endfacet
  facet normal -0.000000e+00 -8.881780e-16 -1.000000e+00
    outer loop
      vertex -4.709290e-01 -2.600000e+01 1.751480e+01
      vertex -4.709290e-01 -2.500000e+01 1.751480e+01
      vertex 4.709290e-01 -2.600000e+01 1.751480e+01
    endloop
  endfacet
  facet normal 0.000000e+00 -8.881780e-16 -1.000000e+00
    outer loop
      vertex 4.709290e-01 -2.600000e+01 1.751480e+01
      vertex -4.709290e-01 -2.500000e+01 1.751480e+01
      vertex 4.709290e-01 -2.500000e+01 1.751480e+01
    endloop
  endfacet
  facet normal 1.253330e-01 -8.811747e-16 -9.921147e-01
    outer loop
      vertex 4.709290e-01 -2.600000e+01 1.751480e+01
      vertex 4.709290e-01 -2.500000e+01 1.751480e+01
      vertex 1.405360e+00 -2.600000e+01 1.763285e+01
    endloop
  endfacet
  facet normal 1.253330e-01 -8.811747e-16 -9.921147e-01
    outer loop
      vertex 1.405360e+00 -2.600000e+01 1.763285e+01
      vertex 4.709290e-01 -2.500000e+01 1.751480e+01
      vertex 1.405360e+00 -2.500000e+01 1.763285e+01
    endloop
  endfacet
  facet normal 2.486900e-01 -8.602751e-16 -9.685831e-01
    outer loop
      vertex 1.405360e+00 -2.600000e+01 1.763285e+01
      vertex 1.405360e+00 -2.500000e+01 1.763285e+01
      vertex 2.317630e+00 -2.600000e+01 1.786708e+01
    endloop
  endfacet
  facet normal 2.486900e-01 -8.602751e-16 -9.685831e-01
    outer loop
      vertex 2.317630e+00 -2.600000e+01 1.786708e+01
      vertex 1.405360e+00 -2.500000e+01 1.763285e+01
      vertex 2.317630e+00 -2.500000e+01 1.786708e+01
    endloop
  endfacet
  facet normal 3.681239e-01 -8.258077e-16 -9.297767e-01
    outer loop
      vertex 2.317630e+00 -2.600000e+01 1.786708e+01
      vertex 2.317630e+00 -2.500000e+01 1.786708e+01
      vertex 3.193340e+00 -2.600000e+01 1.821380e+01
    endloop
  endfacet
  facet normal 3.681239e-01 -8.258077e-16 -9.297767e-01
    outer loop
      vertex 3.193340e+00 -2.600000e+01 1.821380e+01
      vertex 2.317630e+00 -2.500000e+01 1.786708e+01
      vertex 3.193340e+00 -2.500000e+01 1.821380e+01
    endloop
  endfacet
  facet normal 4.817542e-01 -7.783164e-16 -8.763064e-01
    outer loop
      vertex 3.193340e+00 -2.600000e+01 1.821380e+01
      vertex 3.193340e+00 -2.500000e+01 1.821380e+01
      vertex 4.018700e+00 -2.600000e+01 1.866754e+01
    endloop
  endfacet
  facet normal 4.817542e-01 -7.783164e-16 -8.763064e-01
    outer loop
      vertex 4.018700e+00 -2.600000e+01 1.866754e+01
      vertex 3.193340e+00 -2.500000e+01 1.821380e+01
      vertex 4.018700e+00 -2.500000e+01 1.866754e+01
    endloop
  endfacet
  facet normal 5.877851e-01 -7.185521e-16 -8.090171e-01
    outer loop
      vertex 4.018700e+00 -2.600000e+01 1.866754e+01
      vertex 4.018700e+00 -2.500000e+01 1.866754e+01
      vertex 4.780680e+00 -2.600000e+01 1.922115e+01
    endloop
  endfacet
  facet normal 5.877851e-01 -7.185521e-16 -8.090171e-01
    outer loop
      vertex 4.780680e+00 -2.600000e+01 1.922115e+01
      vertex 4.018700e+00 -2.500000e+01 1.866754e+01
      vertex 4.780680e+00 -2.500000e+01 1.922115e+01
    endloop
  endfacet
  facet normal 6.845469e-01 -6.474539e-16 -7.289689e-01
    outer loop
      vertex 4.780680e+00 -2.600000e+01 1.922115e+01
      vertex 4.780680e+00 -2.500000e+01 1.922115e+01
      vertex 5.467260e+00 -2.600000e+01 1.986590e+01
    endloop
  endfacet
  facet normal 6.845469e-01 -6.474539e-16 -7.289689e-01
    outer loop
      vertex 5.467260e+00 -2.600000e+01 1.986590e+01
      vertex 4.780680e+00 -2.500000e+01 1.922115e+01
      vertex 5.467260e+00 -2.500000e+01 1.986590e+01
    endloop
  endfacet
  facet normal 7.705141e-01 -5.893800e-16 -6.374230e-01
    outer loop
      vertex 6.067630e+00 -2.600000e+01 2.059161e+01
      vertex 5.467260e+00 -2.600000e+01 1.986590e+01
      vertex 5.467260e+00 -2.500000e+01 1.986590e+01
    endloop
  endfacet
  facet normal 7.705141e-01 -1.132290e-15 -6.374230e-01
    outer loop
      vertex 6.067630e+00 -2.500000e+01 2.059161e+01
      vertex 6.067630e+00 -2.600000e+01 2.059161e+01
      vertex 5.467260e+00 -2.500000e+01 1.986590e+01
    endloop
  endfacet
  facet normal 8.443276e-01 -9.430076e-16 -5.358273e-01
    outer loop
      vertex 6.572300e+00 -2.600000e+01 2.138685e+01
      vertex 6.067630e+00 -2.600000e+01 2.059161e+01
      vertex 6.067630e+00 -2.500000e+01 2.059161e+01
    endloop
  endfacet
  facet normal 8.443276e-01 0.000000e+00 -5.358273e-01
    outer loop
      vertex 6.572300e+00 -2.500000e+01 2.138685e+01
      vertex 6.572300e+00 -2.600000e+01 2.138685e+01
      vertex 6.067630e+00 -2.500000e+01 2.059161e+01
    endloop
  endfacet
  facet normal 9.048272e-01 0.000000e+00 -4.257791e-01
    outer loop
      vertex 6.973320e+00 -2.600000e+01 2.223907e+01
      vertex 6.572300e+00 -2.600000e+01 2.138685e+01
      vertex 6.572300e+00 -2.500000e+01 2.138685e+01
    endloop
  endfacet
  facet normal 9.048272e-01 0.000000e+00 -4.257791e-01
    outer loop
      vertex 6.973320e+00 -2.500000e+01 2.223907e+01
      vertex 6.973320e+00 -2.600000e+01 2.223907e+01
      vertex 6.572300e+00 -2.500000e+01 2.138685e+01
    endloop
  endfacet
  facet normal 9.510565e-01 0.000000e+00 -3.090169e-01
    outer loop
      vertex 7.264370e+00 -2.600000e+01 2.313480e+01
      vertex 6.973320e+00 -2.600000e+01 2.223907e+01
      vertex 6.973320e+00 -2.500000e+01 2.223907e+01
    endloop
  endfacet
  facet normal 9.510565e-01 -5.489237e-16 -3.090169e-01
    outer loop
      vertex 7.264370e+00 -2.500000e+01 2.313480e+01
      vertex 7.264370e+00 -2.600000e+01 2.313480e+01
      vertex 6.973320e+00 -2.500000e+01 2.223907e+01
    endloop
  endfacet
  facet normal 9.822873e-01 -3.241591e-16 -1.873811e-01
    outer loop
      vertex 7.440860e+00 -2.600000e+01 2.406000e+01
      vertex 7.264370e+00 -2.600000e+01 2.313480e+01
      vertex 7.264370e+00 -2.500000e+01 2.313480e+01
    endloop
  endfacet
  facet normal 9.822873e-01 0.000000e+00 -1.873811e-01
    outer loop
      vertex 7.440860e+00 -2.500000e+01 2.406000e+01
      vertex 7.440860e+00 -2.600000e+01 2.406000e+01
      vertex 7.264370e+00 -2.500000e+01 2.313480e+01
    endloop
  endfacet
  facet normal 6.234901e-01 0.000000e+00 -7.818312e-01
    outer loop
      vertex -2.544500e+01 2.500000e+01 2.394990e+01
      vertex -2.544500e+01 2.300000e+01 2.394990e+01
      vertex -2.680190e+01 2.500000e+01 2.286780e+01
    endloop
  endfacet
  facet normal 6.234901e-01 0.000000e+00 -7.818312e-01
    outer loop
      vertex -2.680190e+01 2.500000e+01 2.286780e+01
      vertex -2.544500e+01 2.300000e+01 2.394990e+01
      vertex -2.680190e+01 2.300000e+01 2.286780e+01
    endloop
  endfacet
  facet normal 1.000000e+00 0.000000e+00 0.000000e+00
    outer loop
      vertex -2.680190e+01 2.500000e+01 2.113223e+01
      vertex -2.680190e+01 2.500000e+01 2.286780e+01
      vertex -2.680190e+01 2.300000e+01 2.286780e+01
    endloop
  endfacet
  facet normal 1.000000e+00 0.000000e+00 0.000000e+00
    outer loop
      vertex -2.680190e+01 2.300000e+01 2.113223e+01
      vertex -2.680190e+01 2.500000e+01 2.113223e+01
      vertex -2.680190e+01 2.300000e+01 2.286780e+01
    endloop
  endfacet
  facet normal -2.225210e-01 0.000000e+00 -9.749279e-01
    outer loop
      vertex -2.375300e+01 2.500000e+01 2.356370e+01
      vertex -2.375300e+01 2.300000e+01 2.356370e+01
      vertex -2.544500e+01 2.500000e+01 2.394990e+01
    endloop
  endfacet
  facet normal -2.225210e-01 0.000000e+00 -9.749279e-01
    outer loop
      vertex -2.544500e+01 2.500000e+01 2.394990e+01
      vertex -2.375300e+01 2.300000e+01 2.356370e+01
      vertex -2.544500e+01 2.300000e+01 2.394990e+01
    endloop
  endfacet
  facet normal -9.009688e-01 0.000000e+00 -4.338839e-01
    outer loop
      vertex -2.300000e+01 2.500000e+01 2.200000e+01
      vertex -2.300000e+01 2.300000e+01 2.200000e+01
      vertex -2.375300e+01 2.500000e+01 2.356370e+01
    endloop
  endfacet
  facet normal -9.009688e-01 0.000000e+00 -4.338839e-01
    outer loop
      vertex -2.375300e+01 2.500000e+01 2.356370e+01
      vertex -2.300000e+01 2.300000e+01 2.200000e+01
      vertex -2.375300e+01 2.300000e+01 2.356370e+01
    endloop
  endfacet
  facet normal -9.009688e-01 0.000000e+00 4.338839e-01
    outer loop
      vertex -2.300000e+01 2.500000e+01 2.200000e+01
      vertex -2.375300e+01 2.500000e+01 2.043634e+01
      vertex -2.300000e+01 2.300000e+01 2.200000e+01
    endloop
  endfacet
  facet normal -9.009688e-01 1.919100e-16 4.338839e-01
    outer loop
      vertex -2.300000e+01 2.300000e+01 2.200000e+01
      vertex -2.375300e+01 2.500000e+01 2.043634e+01
      vertex -2.375300e+01 2.300000e+01 2.043634e+01
    endloop
  endfacet
  facet normal -2.225210e-01 4.329549e-16 9.749279e-01
    outer loop
      vertex -2.375300e+01 2.300000e+01 2.043634e+01
      vertex -2.375300e+01 2.500000e+01 2.043634e+01
      vertex -2.544500e+01 2.500000e+01 2.005014e+01
    endloop
  endfacet
  facet normal -2.225210e-01 4.329549e-16 9.749279e-01
    outer loop
      vertex -2.544500e+01 2.300000e+01 2.005014e+01
      vertex -2.375300e+01 2.300000e+01 2.043634e+01
      vertex -2.544500e+01 2.500000e+01 2.005014e+01
    endloop
  endfacet
  facet normal 6.234901e-01 3.472031e-16 7.818312e-01
    outer loop
      vertex -2.544500e+01 2.300000e+01 2.005014e+01
      vertex -2.544500e+01 2.500000e+01 2.005014e+01
      vertex -2.680190e+01 2.500000e+01 2.113223e+01
    endloop
  endfacet
  facet normal 6.234901e-01 0.000000e+00 7.818312e-01
    outer loop
      vertex -2.680190e+01 2.300000e+01 2.113223e+01
      vertex -2.544500e+01 2.300000e+01 2.005014e+01
      vertex -2.680190e+01 2.500000e+01 2.113223e+01
    endloop
  endfacet
  facet normal 6.234901e-01 0.000000e+00 -7.818312e-01
    outer loop
      vertex 2.455500e+01 2.500000e+01 2.394990e+01
      vertex 2.455500e+01 2.300000e+01 2.394990e+01
      vertex 2.319810e+01 2.500000e+01 2.286780e+01
    endloop
  endfacet
  facet normal 6.234901e-01 0.000000e+00 -7.818312e-01
    outer loop
      vertex 2.319810e+01 2.500000e+01 2.286780e+01
      vertex 2.455500e+01 2.300000e+01 2.394990e+01
      vertex 2.319810e+01 2.300000e+01 2.286780e+01
    endloop
  endfacet
  facet normal 1.000000e+00 0.000000e+00 0.000000e+00
    outer loop
      vertex 2.319810e+01 2.500000e+01 2.113223e+01
      vertex 2.319810e+01 2.500000e+01 2.286780e+01
      vertex 2.319810e+01 2.300000e+01 2.286780e+01
    endloop
  endfacet
  facet normal 1.000000e+00 0.000000e+00 0.000000e+00
    outer loop
      vertex 2.319810e+01 2.300000e+01 2.113223e+01
      vertex 2.319810e+01 2.500000e+01 2.113223e+01
      vertex 2.319810e+01 2.300000e+01 2.286780e+01
    endloop
  endfacet
  facet normal -2.225210e-01 0.000000e+00 -9.749279e-01
    outer loop
      vertex 2.624700e+01 2.500000e+01 2.356370e+01
      vertex 2.624700e+01 2.300000e+01 2.356370e+01
      vertex 2.455500e+01 2.500000e+01 2.394990e+01
    endloop
  endfacet
  facet normal -2.225210e-01 0.000000e+00 -9.749279e-01
    outer loop
      vertex 2.455500e+01 2.500000e+01 2.394990e+01
      vertex 2.624700e+01 2.300000e+01 2.356370e+01
      vertex 2.455500e+01 2.300000e+01 2.394990e+01
    endloop
  endfacet
  facet normal -9.009688e-01 0.000000e+00 -4.338839e-01
    outer loop
      vertex 2.700000e+01 2.500000e+01 2.200000e+01
      vertex 2.700000e+01 2.300000e+01 2.200000e+01
      vertex 2.624700e+01 2.500000e+01 2.356370e+01
    endloop
  endfacet
  facet normal -9.009688e-01 0.000000e+00 -4.338839e-01
    outer loop
      vertex 2.624700e+01 2.500000e+01 2.356370e+01
      vertex 2.700000e+01 2.300000e+01 2.200000e+01
      vertex 2.624700e+01 2.300000e+01 2.356370e+01
    endloop
  endfacet
  facet normal -9.009688e-01 0.000000e+00 4.338839e-01
    outer loop
      vertex 2.700000e+01 2.500000e+01 2.200000e+01
      vertex 2.624700e+01 2.500000e+01 2.043634e+01
      vertex 2.700000e+01 2.300000e+01 2.200000e+01
    endloop
  endfacet
  facet normal -9.009688e-01 1.919100e-16 4.338839e-01
    outer loop
      vertex 2.700000e+01 2.300000e+01 2.200000e+01
      vertex 2.624700e+01 2.500000e+01 2.043634e+01
      vertex 2.624700e+01 2.300000e+01 2.043634e+01
    endloop
  endfacet
  facet normal -2.225210e-01 4.329549e-16 9.749279e-01
    outer loop
      vertex 2.624700e+01 2.300000e+01 2.043634e+01
      vertex 2.624700e+01 2.500000e+01 2.043634e+01
      vertex 2.455500e+01 2.500000e+01 2.005014e+01
    endloop
  endfacet
  facet normal -2.225210e-01 4.329549e-16 9.749279e-01
    outer loop
      vertex 2.455500e+01 2.300000e+01 2.005014e+01
      vertex 2.624700e+01 2.300000e+01 2.043634e+01
      vertex 2.455500e+01 2.500000e+01 2.005014e+01
    endloop
  endfacet
  facet normal 6.234901e-01 3.472031e-16 7.818312e-01
    outer loop
      vertex 2.455500e+01 2.300000e+01 2.005014e+01
      vertex 2.455500e+01 2.500000e+01 2.005014e+01
      vertex 2.319810e+01 2.500000e+01 2.113223e+01
    endloop
  endfacet
  facet normal 6.234901e-01 0.000000e+00 7.818312e-01
    outer loop
      vertex 2.319810e+01 2.300000e+01 2.113223e+01
      vertex 2.455500e+01 2.300000e+01 2.005014e+01
      vertex 2.319810e+01 2.500000e+01 2.113223e+01
    endloop
  endfacet
  facet normal 0.000000e+00 -1.000000e+00 0.000000e+00
    outer loop
      vertex 7.500000e+00 -2.600000e+01 2.500000e+01
      vertex -7.500000e+00 -2.600000e+01 2.500000e+01
      vertex -7.440860e+00 -2.600000e+01 2.406000e+01
    endloop
  endfacet
  facet normal 0.000000e+00 -1.000000e+00 0.000000e+00
    outer loop
      vertex -4.450420e-01 -2.600000e+01 2.394990e+01
      vertex 7.500000e+00 -2.600000e+01 2.500000e+01
      vertex -7.264370e+00 -2.600000e+01 2.313480e+01
    endloop
  endfacet
  facet normal 0.000000e+00 -1.000000e+00 0.000000e+00
    outer loop
      vertex -7.264370e+00 -2.600000e+01 2.313480e+01
      vertex 7.500000e+00 -2.600000e+01 2.500000e+01
      vertex -7.440860e+00 -2.600000e+01 2.406000e+01
    endloop
  endfacet
  facet normal 0.000000e+00 -1.000000e+00 0.000000e+00
    outer loop
      vertex -4.450420e-01 -2.600000e+01 2.394990e+01
      vertex 1.246980e+00 -2.600000e+01 2.356370e+01
      vertex 7.500000e+00 -2.600000e+01 2.500000e+01
    endloop
  endfacet
  facet normal 0.000000e+00 -1.000000e+00 0.000000e+00
    outer loop
      vertex 2.000000e+00 -2.600000e+01 2.200000e+01
      vertex 1.246980e+00 -2.600000e+01 2.043634e+01
      vertex 7.500000e+00 -2.600000e+01 2.500000e+01
    endloop
  endfacet
  facet normal 0.000000e+00 -1.000000e+00 0.000000e+00
    outer loop
      vertex 1.000000e+00 -2.600000e+01 2.037997e+01
      vertex 1.000000e+00 -2.600000e+01 1.925000e+01
      vertex 1.246980e+00 -2.600000e+01 2.043634e+01
    endloop
  endfacet
  facet normal 0.000000e+00 -1.000000e+00 0.000000e+00
    outer loop
      vertex 1.246980e+00 -2.600000e+01 2.043634e+01
      vertex 1.000000e+00 -2.600000e+01 1.925000e+01
      vertex 7.500000e+00 -2.600000e+01 2.500000e+01
    endloop
  endfacet
  facet normal 0.000000e+00 -1.000000e+00 0.000000e+00
    outer loop
      vertex 1.000000e+00 -2.600000e+01 1.925000e+01
      vertex -2.317630e+00 -2.600000e+01 1.786708e+01
      vertex -1.405360e+00 -2.600000e+01 1.763285e+01
    endloop
  endfacet
  facet normal 0.000000e+00 -1.000000e+00 0.000000e+00
    outer loop
      vertex 4.709290e-01 -2.600000e+01 1.751480e+01
      vertex 7.500000e+00 -2.600000e+01 2.500000e+01
      vertex -4.709290e-01 -2.600000e+01 1.751480e+01
    endloop
  endfacet
  facet normal 0.000000e+00 -1.000000e+00 0.000000e+00
    outer loop
      vertex 1.405360e+00 -2.600000e+01 1.763285e+01
      vertex 7.500000e+00 -2.600000e+01 2.500000e+01
      vertex 4.709290e-01 -2.600000e+01 1.751480e+01
    endloop
  endfacet
  facet normal 0.000000e+00 -1.000000e+00 0.000000e+00
    outer loop
      vertex 2.317630e+00 -2.600000e+01 1.786708e+01
      vertex 7.500000e+00 -2.600000e+01 2.500000e+01
      vertex 1.405360e+00 -2.600000e+01 1.763285e+01
    endloop
  endfacet
  facet normal 0.000000e+00 -1.000000e+00 0.000000e+00
    outer loop
      vertex 3.193340e+00 -2.600000e+01 1.821380e+01
      vertex 7.500000e+00 -2.600000e+01 2.500000e+01
      vertex 2.317630e+00 -2.600000e+01 1.786708e+01
    endloop
  endfacet
  facet normal 0.000000e+00 -1.000000e+00 0.000000e+00
    outer loop
      vertex 4.018700e+00 -2.600000e+01 1.866754e+01
      vertex 7.500000e+00 -2.600000e+01 2.500000e+01
      vertex 3.193340e+00 -2.600000e+01 1.821380e+01
    endloop
  endfacet
  facet normal 0.000000e+00 -1.000000e+00 0.000000e+00
    outer loop
      vertex 4.780680e+00 -2.600000e+01 1.922115e+01
      vertex 7.500000e+00 -2.600000e+01 2.500000e+01
      vertex 4.018700e+00 -2.600000e+01 1.866754e+01
    endloop
  endfacet
  facet normal 0.000000e+00 -1.000000e+00 0.000000e+00
    outer loop
      vertex 5.467260e+00 -2.600000e+01 1.986590e+01
      vertex 7.500000e+00 -2.600000e+01 2.500000e+01
      vertex 4.780680e+00 -2.600000e+01 1.922115e+01
    endloop
  endfacet
  facet normal 0.000000e+00 -1.000000e+00 0.000000e+00
    outer loop
      vertex 6.067630e+00 -2.600000e+01 2.059161e+01
      vertex 7.500000e+00 -2.600000e+01 2.500000e+01
      vertex 5.467260e+00 -2.600000e+01 1.986590e+01
    endloop
  endfacet
  facet normal 0.000000e+00 -1.000000e+00 0.000000e+00
    outer loop
      vertex 6.572300e+00 -2.600000e+01 2.138685e+01
      vertex 7.500000e+00 -2.600000e+01 2.500000e+01
      vertex 6.067630e+00 -2.600000e+01 2.059161e+01
    endloop
  endfacet
  facet normal 0.000000e+00 -1.000000e+00 0.000000e+00
    outer loop
      vertex 6.973320e+00 -2.600000e+01 2.223907e+01
      vertex 7.500000e+00 -2.600000e+01 2.500000e+01
      vertex 6.572300e+00 -2.600000e+01 2.138685e+01
    endloop
  endfacet
  facet normal 0.000000e+00 -1.000000e+00 0.000000e+00
    outer loop
      vertex 7.264370e+00 -2.600000e+01 2.313480e+01
      vertex 7.500000e+00 -2.600000e+01 2.500000e+01
      vertex 6.973320e+00 -2.600000e+01 2.223907e+01
    endloop
  endfacet
  facet normal 0.000000e+00 -1.000000e+00 0.000000e+00
    outer loop
      vertex 7.440860e+00 -2.600000e+01 2.406000e+01
      vertex 7.500000e+00 -2.600000e+01 2.500000e+01
      vertex 7.264370e+00 -2.600000e+01 2.313480e+01
    endloop
  endfacet
  facet normal 0.000000e+00 -1.000000e+00 0.000000e+00
    outer loop
      vertex -4.780680e+00 -2.600000e+01 1.922115e+01
      vertex -1.801940e+00 -2.600000e+01 2.113223e+01
      vertex -5.467260e+00 -2.600000e+01 1.986590e+01
    endloop
  endfacet
  facet normal 0.000000e+00 -1.000000e+00 0.000000e+00
    outer loop
      vertex -6.572300e+00 -2.600000e+01 2.138685e+01
      vertex -1.801940e+00 -2.600000e+01 2.286780e+01
      vertex -6.973320e+00 -2.600000e+01 2.223907e+01
    endloop
  endfacet
  facet normal 0.000000e+00 -1.000000e+00 0.000000e+00
    outer loop
      vertex -6.973320e+00 -2.600000e+01 2.223907e+01
      vertex -4.450420e-01 -2.600000e+01 2.394990e+01
      vertex -7.264370e+00 -2.600000e+01 2.313480e+01
    endloop
  endfacet
  facet normal 0.000000e+00 -1.000000e+00 0.000000e+00
    outer loop
      vertex 1.246980e+00 -2.600000e+01 2.356370e+01
      vertex 2.000000e+00 -2.600000e+01 2.200000e+01
      vertex 7.500000e+00 -2.600000e+01 2.500000e+01
    endloop
  endfacet
  facet normal 0.000000e+00 -1.000000e+00 0.000000e+00
    outer loop
      vertex -1.801940e+00 -2.600000e+01 2.286780e+01
      vertex -4.450420e-01 -2.600000e+01 2.394990e+01
      vertex -6.973320e+00 -2.600000e+01 2.223907e+01
    endloop
  endfacet
  facet normal 0.000000e+00 -1.000000e+00 0.000000e+00
    outer loop
      vertex -1.801940e+00 -2.600000e+01 2.113223e+01
      vertex -6.067630e+00 -2.600000e+01 2.059161e+01
      vertex -5.467260e+00 -2.600000e+01 1.986590e+01
    endloop
  endfacet
  facet normal 0.000000e+00 -1.000000e+00 0.000000e+00
    outer loop
      vertex -1.000000e+00 -2.600000e+01 1.925000e+01
      vertex -4.018700e+00 -2.600000e+01 1.866754e+01
      vertex -3.193340e+00 -2.600000e+01 1.821380e+01
    endloop
  endfacet
  facet normal 0.000000e+00 -1.000000e+00 0.000000e+00
    outer loop
      vertex 1.000000e+00 -2.600000e+01 1.925000e+01
      vertex -1.000000e+00 -2.600000e+01 1.925000e+01
      vertex -2.317630e+00 -2.600000e+01 1.786708e+01
    endloop
  endfacet
  facet normal 0.000000e+00 -1.000000e+00 0.000000e+00
    outer loop
      vertex -4.709290e-01 -2.600000e+01 1.751480e+01
      vertex 1.000000e+00 -2.600000e+01 1.925000e+01
      vertex -1.405360e+00 -2.600000e+01 1.763285e+01
    endloop
  endfacet
  facet normal 0.000000e+00 -1.000000e+00 0.000000e+00
    outer loop
      vertex -4.709290e-01 -2.600000e+01 1.751480e+01
      vertex 7.500000e+00 -2.600000e+01 2.500000e+01
      vertex 1.000000e+00 -2.600000e+01 1.925000e+01
    endloop
  endfacet
  facet normal 0.000000e+00 -1.000000e+00 0.000000e+00
    outer loop
      vertex -2.317630e+00 -2.600000e+01 1.786708e+01
      vertex -1.000000e+00 -2.600000e+01 1.925000e+01
      vertex -3.193340e+00 -2.600000e+01 1.821380e+01
    endloop
  endfacet
  facet normal 0.000000e+00 -1.000000e+00 0.000000e+00
    outer loop
      vertex -4.018700e+00 -2.600000e+01 1.866754e+01
      vertex -1.000000e+00 -2.600000e+01 2.049271e+01
      vertex -4.780680e+00 -2.600000e+01 1.922115e+01
    endloop
  endfacet
  facet normal 0.000000e+00 -1.000000e+00 0.000000e+00
    outer loop
      vertex -1.000000e+00 -2.600000e+01 1.925000e+01
      vertex -1.000000e+00 -2.600000e+01 2.049271e+01
      vertex -4.018700e+00 -2.600000e+01 1.866754e+01
    endloop
  endfacet
  facet normal 0.000000e+00 -1.000000e+00 0.000000e+00
    outer loop
      vertex -1.000000e+00 -2.600000e+01 2.049271e+01
      vertex -1.801940e+00 -2.600000e+01 2.113223e+01
      vertex -4.780680e+00 -2.600000e+01 1.922115e+01
    endloop
  endfacet
  facet normal 0.000000e+00 -1.000000e+00 0.000000e+00
    outer loop
      vertex -1.801940e+00 -2.600000e+01 2.113223e+01
      vertex -6.572300e+00 -2.600000e+01 2.138685e+01
      vertex -6.067630e+00 -2.600000e+01 2.059161e+01
    endloop
  endfacet
  facet normal 0.000000e+00 -1.000000e+00 0.000000e+00
    outer loop
      vertex -1.801940e+00 -2.600000e+01 2.113223e+01
      vertex -1.801940e+00 -2.600000e+01 2.286780e+01
      vertex -6.572300e+00 -2.600000e+01 2.138685e+01
    endloop
  endfacet
  facet normal 0.000000e+00 0.000000e+00 1.000000e+00
    outer loop
      vertex 3.550000e+01 -2.300000e+01 2.000000e+00
      vertex 3.550000e+01 2.300000e+01 2.000000e+00
      vertex -3.550000e+01 2.300000e+01 2.000000e+00
    endloop
  endfacet
  facet normal 0.000000e+00 0.000000e+00 1.000000e+00
    outer loop
      vertex -3.550000e+01 -2.300000e+01 2.000000e+00
      vertex 3.550000e+01 -2.300000e+01 2.000000e+00
      vertex -3.550000e+01 2.300000e+01 2.000000e+00
    endloop
  endfacet
  facet normal 1.000000e+00 0.000000e+00 0.000000e+00
    outer loop
      vertex -1.801940e+00 -2.300000e+01 2.113223e+01
      vertex -1.801940e+00 -2.300000e+01 2.286780e+01
      vertex -1.801940e+00 -2.600000e+01 2.286780e+01
    endloop
  endfacet
  facet normal 1.000000e+00 0.000000e+00 0.000000e+00
    outer loop
      vertex -1.801940e+00 -2.600000e+01 2.113223e+01
      vertex -1.801940e+00 -2.300000e+01 2.113223e+01
      vertex -1.801940e+00 -2.600000e+01 2.286780e+01
    endloop
  endfacet
  facet normal 6.234901e-01 0.000000e+00 7.818312e-01
    outer loop
      vertex -1.000000e+00 -2.600000e+01 2.049271e+01
      vertex -1.000000e+00 -2.300000e+01 2.049271e+01
      vertex -1.801940e+00 -2.300000e+01 2.113223e+01
    endloop
  endfacet
  facet normal 6.234901e-01 0.000000e+00 7.818312e-01
    outer loop
      vertex -1.801940e+00 -2.600000e+01 2.113223e+01
      vertex -1.000000e+00 -2.600000e+01 2.049271e+01
      vertex -1.801940e+00 -2.300000e+01 2.113223e+01
    endloop
  endfacet
  facet normal 6.234901e-01 0.000000e+00 -7.818312e-01
    outer loop
      vertex -4.450420e-01 -2.300000e+01 2.394990e+01
      vertex -4.450420e-01 -2.600000e+01 2.394990e+01
      vertex -1.801940e+00 -2.300000e+01 2.286780e+01
    endloop
  endfacet
  facet normal 6.234901e-01 0.000000e+00 -7.818312e-01
    outer loop
      vertex -1.801940e+00 -2.300000e+01 2.286780e+01
      vertex -4.450420e-01 -2.600000e+01 2.394990e+01
      vertex -1.801940e+00 -2.600000e+01 2.286780e+01
    endloop
  endfacet
  facet normal -2.225210e-01 -5.772730e-16 -9.749279e-01
    outer loop
      vertex 1.246980e+00 -2.300000e+01 2.356370e+01
      vertex 1.246980e+00 -2.600000e+01 2.356370e+01
      vertex -4.450420e-01 -2.300000e+01 2.394990e+01
    endloop
  endfacet
  facet normal -2.225210e-01 0.000000e+00 -9.749279e-01
    outer loop
      vertex -4.450420e-01 -2.300000e+01 2.394990e+01
      vertex 1.246980e+00 -2.600000e+01 2.356370e+01
      vertex -4.450420e-01 -2.600000e+01 2.394990e+01
    endloop
  endfacet
  facet normal -9.009688e-01 -2.569109e-16 -4.338839e-01
    outer loop
      vertex 2.000000e+00 -2.300000e+01 2.200000e+01
      vertex 2.000000e+00 -2.600000e+01 2.200000e+01
      vertex 1.246980e+00 -2.300000e+01 2.356370e+01
    endloop
  endfacet
  facet normal -9.009688e-01 -2.569109e-16 -4.338839e-01
    outer loop
      vertex 1.246980e+00 -2.300000e+01 2.356370e+01
      vertex 2.000000e+00 -2.600000e+01 2.200000e+01
      vertex 1.246980e+00 -2.600000e+01 2.356370e+01
    endloop
  endfacet
  facet normal -9.009688e-01 2.569109e-16 4.338839e-01
    outer loop
      vertex 2.000000e+00 -2.300000e+01 2.200000e+01
      vertex 1.246980e+00 -2.300000e+01 2.043634e+01
      vertex 2.000000e+00 -2.600000e+01 2.200000e+01
    endloop
  endfacet
  facet normal -9.009688e-01 1.279400e-16 4.338839e-01
    outer loop
      vertex 2.000000e+00 -2.600000e+01 2.200000e+01
      vertex 1.246980e+00 -2.300000e+01 2.043634e+01
      vertex 1.246980e+00 -2.600000e+01 2.043634e+01
    endloop
  endfacet
  facet normal -2.225210e-01 2.886370e-16 9.749279e-01
    outer loop
      vertex 1.246980e+00 -2.600000e+01 2.043634e+01
      vertex 1.246980e+00 -2.300000e+01 2.043634e+01
      vertex 1.000000e+00 -2.300000e+01 2.037997e+01
    endloop
  endfacet
  facet normal -2.225210e-01 2.886370e-16 9.749279e-01
    outer loop
      vertex 1.000000e+00 -2.600000e+01 2.037997e+01
      vertex 1.246980e+00 -2.600000e+01 2.043634e+01
      vertex 1.000000e+00 -2.300000e+01 2.037997e+01
    endloop
  endfacet
  facet normal -1.000000e+00 0.000000e+00 0.000000e+00
    outer loop
      vertex 1.000000e+00 -2.300000e+01 2.037997e+01
      vertex 1.000000e+00 -2.300000e+01 1.925000e+01
      vertex 1.000000e+00 -2.600000e+01 2.037997e+01
    endloop
  endfacet
  facet normal -1.000000e+00 0.000000e+00 0.000000e+00
    outer loop
      vertex 1.000000e+00 -2.600000e+01 2.037997e+01
      vertex 1.000000e+00 -2.300000e+01 1.925000e+01
      vertex 1.000000e+00 -2.600000e+01 1.925000e+01
    endloop
  endfacet
  facet normal 0.000000e+00 0.000000e+00 1.000000e+00
    outer loop
      vertex 1.000000e+00 -2.600000e+01 1.925000e+01
      vertex 1.000000e+00 -2.300000e+01 1.925000e+01
      vertex -1.000000e+00 -2.300000e+01 1.925000e+01
    endloop
  endfacet
  facet normal 0.000000e+00 0.000000e+00 1.000000e+00
    outer loop
      vertex -1.000000e+00 -2.600000e+01 1.925000e+01
      vertex 1.000000e+00 -2.600000e+01 1.925000e+01
      vertex -1.000000e+00 -2.300000e+01 1.925000e+01
    endloop
  endfacet
  facet normal 1.000000e+00 0.000000e+00 0.000000e+00
    outer loop
      vertex -1.000000e+00 -2.300000e+01 1.925000e+01
      vertex -1.000000e+00 -2.300000e+01 2.049271e+01
      vertex -1.000000e+00 -2.600000e+01 2.049271e+01
    endloop
  endfacet
  facet normal 1.000000e+00 0.000000e+00 0.000000e+00
    outer loop
      vertex -1.000000e+00 -2.600000e+01 1.925000e+01
      vertex -1.000000e+00 -2.300000e+01 1.925000e+01
      vertex -1.000000e+00 -2.600000e+01 2.049271e+01
    endloop
  endfacet
endsolid Default
