  0
SECTION
  2
BLOCKS
  0
ENDSEC
  0
SECTION
  2
ENTITIES
  0
LINE
  8
0
 10
-108
 11
-108
 20
30
 21
35
  0
LINE
  8
0
 10
-108
 11
-107.126
 20
35
 21
43.316
  0
LINE
  8
0
 10
-107.126
 11
-104.542
 20
43.316
 21
51.269
  0
LINE
  8
0
 10
-104.542
 11
-100.361
 20
51.269
 21
58.511
  0
LINE
  8
0
 10
-100.361
 11
-94.765
 20
58.511
 21
64.726
  0
LINE
  8
0
 10
-94.765
 11
-88
 20
64.726
 21
69.641
  0
LINE
  8
0
 10
-88
 11
-80.361
 20
69.641
 21
73.042
  0
LINE
  8
0
 10
-80.361
 11
-72.181
 20
73.042
 21
74.781
  0
LINE
  8
0
 10
-72.181
 11
-68
 20
74.781
 21
74.781
  0
LINE
  8
0
 10
-68
 11
-68
 20
74.781
 21
70
  0
LINE
  8
0
 10
-68
 11
-62
 20
70
 21
70
  0
LINE
  8
0
 10
-62
 11
-62
 20
70
 21
60
  0
LINE
  8
0
 10
-62
 11
-68
 20
60
 21
60
  0
LINE
  8
0
 10
-68
 11
-68
 20
60
 21
54.89
  0
LINE
  8
0
 10
-68
 11
-71.136
 20
54.89
 21
54.89
  0
LINE
  8
0
 10
-71.136
 11
-77.271
 20
54.89
 21
54.021
  0
LINE
  8
0
 10
-77.271
 11
-83
 20
54.021
 21
52.321
  0
LINE
  8
0
 10
-83
 11
-88.074
 20
52.321
 21
49.863
  0
LINE
  8
0
 10
-88.074
 11
-92.271
 20
49.863
 21
46.756
  0
LINE
  8
0
 10
-92.271
 11
-95.406
 20
46.756
 21
43.135
  0
LINE
  8
0
 10
-95.406
 11
-97.344
 20
43.135
 21
39.158
  0
LINE
  8
0
 10
-97.344
 11
-98
 20
39.158
 21
35
  0
LINE
  8
0
 10
-98
 11
-98
 20
35
 21
30
  0
LINE
  8
0
 10
-98
 11
-108
 20
30
 21
30
  0
LINE
  8
0
 10
-103
 11
-103
 20
-25
 21
25
  0
LINE
  8
0
 10
-103
 11
-93
 20
25
 21
25
  0
LINE
  8
0
 10
-93
 11
-93
 20
25
 21
28
  0
LINE
  8
0
 10
-93
 11
-83
 20
28
 21
28
  0
LINE
  8
0
 10
-83
 11
-83
 20
28
 21
25
  0
LINE
  8
0
 10
-83
 11
-73
 20
25
 21
25
  0
LINE
  8
0
 10
-73
 11
-73
 20
25
 21
-25
  0
LINE
  8
0
 10
-73
 11
-83
 20
-25
 21
-25
  0
LINE
  8
0
 10
-83
 11
-83
 20
-25
 21
-28
  0
LINE
  8
0
 10
-83
 11
-93
 20
-28
 21
-28
  0
LINE
  8
0
 10
-93
 11
-93
 20
-28
 21
-25
  0
LINE
  8
0
 10
-93
 11
-103
 20
-25
 21
-25
  0
LINE
  8
0
 10
-102
 11
-101.781
 20
-120
 21
-117.921
  0
LINE
  8
0
 10
-101.781
 11
-101.135
 20
-117.921
 21
-115.933
  0
LINE
  8
0
 10
-101.135
 11
-100.09
 20
-115.933
 21
-114.122
  0
LINE
  8
0
 10
-100.09
 11
-98.691
 20
-114.122
 21
-112.569
  0
LINE
  8
0
 10
-98.691
 11
-97
 20
-112.569
 21
-111.34
  0
LINE
  8
0
 10
-97
 11
-95.09
 20
-111.34
 21
-110.489
  0
LINE
  8
0
 10
-95.09
 11
-93.045
 20
-110.489
 21
-110.055
  0
LINE
  8
0
 10
-93.045
 11
-92
 20
-110.055
 21
-110.055
  0
LINE
  8
0
 10
-92
 11
-92
 20
-110.055
 21
-109.836
  0
LINE
  8
0
 10
-92
 11
-89.909
 20
-109.836
 21
-109.836
  0
LINE
  8
0
 10
-89.909
 11
-85.82
 20
-109.836
 21
-108.532
  0
LINE
  8
0
 10
-85.82
 11
-82
 20
-108.532
 21
-105.981
  0
LINE
  8
0
 10
-82
 11
-78.617
 20
-105.981
 21
-102.294
  0
LINE
  8
0
 10
-78.617
 11
-75.82
 20
-102.294
 21
-97.634
  0
LINE
  8
0
 10
-75.82
 11
-73.729
 20
-97.634
 21
-92.202
  0
LINE
  8
0
 10
-73.729
 11
-72.437
 20
-92.202
 21
-86.237
  0
LINE
  8
0
 10
-72.437
 11
-72
 20
-86.237
 21
-80
  0
LINE
  8
0
 10
-72
 11
-71.619
 20
-80
 21
-78.087
  0
LINE
  8
0
 10
-71.619
 11
-70.536
 20
-78.087
 21
-76.464
  0
LINE
  8
0
 10
-70.536
 11
-68.913
 20
-76.464
 21
-75.381
  0
LINE
  8
0
 10
-68.913
 11
-67.05
 20
-75.381
 21
-75.01
  0
LINE
  8
0
 10
-67.05
 11
-67.05
 20
-75.01
 21
-104.9
  0
LINE
  8
0
 10
-67.05
 11
-63.95
 20
-104.9
 21
-104.9
  0
LINE
  8
0
 10
-63.95
 11
-63.95
 20
-104.9
 21
30
  0
LINE
  8
0
 10
-63.95
 11
-31
 20
30
 21
30
  0
LINE
  8
0
 10
-31
 11
-31
 20
30
 21
-75
  0
LINE
  8
0
 10
-31
 11
-29.087
 20
-75
 21
-75.381
  0
LINE
  8
0
 10
-29.087
 11
-27.464
 20
-75.381
 21
-76.464
  0
LINE
  8
0
 10
-27.464
 11
-26.381
 20
-76.464
 21
-78.087
  0
LINE
  8
0
 10
-26.381
 11
-26
 20
-78.087
 21
-80
  0
LINE
  8
0
 10
-26
 11
-25.563
 20
-80
 21
-86.237
  0
LINE
  8
0
 10
-25.563
 11
-24.271
 20
-86.237
 21
-92.202
  0
LINE
  8
0
 10
-24.271
 11
-22.18
 20
-92.202
 21
-97.634
  0
LINE
  8
0
 10
-22.18
 11
-19.383
 20
-97.634
 21
-102.294
  0
LINE
  8
0
 10
-19.383
 11
-16
 20
-102.294
 21
-105.981
  0
LINE
  8
0
 10
-16
 11
-12.18
 20
-105.981
 21
-108.532
  0
LINE
  8
0
 10
-12.18
 11
-8.091
 20
-108.532
 21
-109.836
  0
LINE
  8
0
 10
-8.091
 11
-6
 20
-109.836
 21
-109.836
  0
LINE
  8
0
 10
-6
 11
-6
 20
-109.836
 21
-110.055
  0
LINE
  8
0
 10
-6
 11
-4.955
 20
-110.055
 21
-110.055
  0
LINE
  8
0
 10
-4.955
 11
-2.91
 20
-110.055
 21
-110.489
  0
LINE
  8
0
 10
-2.91
 11
-1
 20
-110.489
 21
-111.34
  0
LINE
  8
0
 10
-1
 11
0.691
 20
-111.34
 21
-112.569
  0
LINE
  8
0
 10
0.691
 11
2.09
 20
-112.569
 21
-114.122
  0
LINE
  8
0
 10
2.09
 11
3.135
 20
-114.122
 21
-115.933
  0
LINE
  8
0
 10
3.135
 11
3.781
 20
-115.933
 21
-117.921
  0
LINE
  8
0
 10
3.781
 11
4
 20
-117.921
 21
-120
  0
LINE
  8
0
 10
4
 11
-30.95
 20
-120
 21
-120
  0
LINE
  8
0
 10
-30.95
 11
-30.95
 20
-120
 21
-104.95
  0
LINE
  8
0
 10
-30.95
 11
-34.05
 20
-104.95
 21
-104.95
  0
LINE
  8
0
 10
-34.05
 11
-34.05
 20
-104.95
 21
-120
  0
LINE
  8
0
 10
-34.05
 11
-102
 20
-120
 21
-120
  0
LINE
  8
0
 10
-92
 11
-91.696
 20
0
 21
1.531
  0
LINE
  8
0
 10
-91.696
 11
-90.828
 20
1.531
 21
2.828
  0
LINE
  8
0
 10
-90.828
 11
-89.531
 20
2.828
 21
3.696
  0
LINE
  8
0
 10
-89.531
 11
-88
 20
3.696
 21
4
  0
LINE
  8
0
 10
-88
 11
-86.469
 20
4
 21
3.696
  0
LINE
  8
0
 10
-86.469
 11
-85.172
 20
3.696
 21
2.828
  0
LINE
  8
0
 10
-85.172
 11
-84.304
 20
2.828
 21
1.531
  0
LINE
  8
0
 10
-84.304
 11
-84
 20
1.531
 21
0
  0
LINE
  8
0
 10
-84
 11
-84.304
 20
0
 21
-1.531
  0
LINE
  8
0
 10
-84.304
 11
-85.172
 20
-1.531
 21
-2.828
  0
LINE
  8
0
 10
-85.172
 11
-86.469
 20
-2.828
 21
-3.696
  0
LINE
  8
0
 10
-86.469
 11
-88
 20
-3.696
 21
-4
  0
LINE
  8
0
 10
-88
 11
-89.531
 20
-4
 21
-3.696
  0
LINE
  8
0
 10
-89.531
 11
-90.828
 20
-3.696
 21
-2.828
  0
LINE
  8
0
 10
-90.828
 11
-91.696
 20
-2.828
 21
-1.531
  0
LINE
  8
0
 10
-91.696
 11
-92
 20
-1.531
 21
0
  0
LINE
  8
0
 10
-63
 11
-28.05
 20
75
 21
75
  0
LINE
  8
0
 10
-28.05
 11
-28.05
 20
75
 21
59.95
  0
LINE
  8
0
 10
-28.05
 11
-24.95
 20
59.95
 21
59.95
  0
LINE
  8
0
 10
-24.95
 11
-24.95
 20
59.95
 21
75
  0
LINE
  8
0
 10
-24.95
 11
24.95
 20
75
 21
75
  0
LINE
  8
0
 10
24.95
 11
24.95
 20
75
 21
59.95
  0
LINE
  8
0
 10
24.95
 11
28.05
 20
59.95
 21
59.95
  0
LINE
  8
0
 10
28.05
 11
28.05
 20
59.95
 21
75
  0
LINE
  8
0
 10
28.05
 11
63
 20
75
 21
75
  0
LINE
  8
0
 10
63
 11
62.781
 20
75
 21
72.921
  0
LINE
  8
0
 10
62.781
 11
62.135
 20
72.921
 21
70.933
  0
LINE
  8
0
 10
62.135
 11
61.09
 20
70.933
 21
69.122
  0
LINE
  8
0
 10
61.09
 11
59.691
 20
69.122
 21
67.569
  0
LINE
  8
0
 10
59.691
 11
58
 20
67.569
 21
66.34
  0
LINE
  8
0
 10
58
 11
56.09
 20
66.34
 21
65.489
  0
LINE
  8
0
 10
56.09
 11
54.045
 20
65.489
 21
65.055
  0
LINE
  8
0
 10
54.045
 11
53
 20
65.055
 21
65.055
  0
LINE
  8
0
 10
53
 11
53
 20
65.055
 21
64.836
  0
LINE
  8
0
 10
53
 11
50.909
 20
64.836
 21
64.836
  0
LINE
  8
0
 10
50.909
 11
46.82
 20
64.836
 21
63.532
  0
LINE
  8
0
 10
46.82
 11
43
 20
63.532
 21
60.981
  0
LINE
  8
0
 10
43
 11
39.617
 20
60.981
 21
57.294
  0
LINE
  8
0
 10
39.617
 11
36.82
 20
57.294
 21
52.634
  0
LINE
  8
0
 10
36.82
 11
34.729
 20
52.634
 21
47.202
  0
LINE
  8
0
 10
34.729
 11
33.437
 20
47.202
 21
41.237
  0
LINE
  8
0
 10
33.437
 11
33
 20
41.237
 21
35
  0
LINE
  8
0
 10
33
 11
32.619
 20
35
 21
33.087
  0
LINE
  8
0
 10
32.619
 11
31.536
 20
33.087
 21
31.464
  0
LINE
  8
0
 10
31.536
 11
29.913
 20
31.464
 21
30.381
  0
LINE
  8
0
 10
29.913
 11
28
 20
30.381
 21
30
  0
LINE
  8
0
 10
28
 11
28
 20
30
 21
-75
  0
LINE
  8
0
 10
28
 11
-28
 20
-75
 21
-75
  0
LINE
  8
0
 10
-28
 11
-28
 20
-75
 21
30
  0
LINE
  8
0
 10
-28
 11
-29.913
 20
30
 21
30.381
  0
LINE
  8
0
 10
-29.913
 11
-31.536
 20
30.381
 21
31.464
  0
LINE
  8
0
 10
-31.536
 11
-32.619
 20
31.464
 21
33.087
  0
LINE
  8
0
 10
-32.619
 11
-33
 20
33.087
 21
35
  0
LINE
  8
0
 10
-33
 11
-33.437
 20
35
 21
41.237
  0
LINE
  8
0
 10
-33.437
 11
-34.729
 20
41.237
 21
47.202
  0
LINE
  8
0
 10
-34.729
 11
-36.82
 20
47.202
 21
52.634
  0
LINE
  8
0
 10
-36.82
 11
-39.617
 20
52.634
 21
57.294
  0
LINE
  8
0
 10
-39.617
 11
-43
 20
57.294
 21
60.981
  0
LINE
  8
0
 10
-43
 11
-46.82
 20
60.981
 21
63.532
  0
LINE
  8
0
 10
-46.82
 11
-50.909
 20
63.532
 21
64.836
  0
LINE
  8
0
 10
-50.909
 11
-53
 20
64.836
 21
64.836
  0
LINE
  8
0
 10
-53
 11
-53
 20
64.836
 21
65.055
  0
LINE
  8
0
 10
-53
 11
-54.045
 20
65.055
 21
65.055
  0
LINE
  8
0
 10
-54.045
 11
-56.09
 20
65.055
 21
65.489
  0
LINE
  8
0
 10
-56.09
 11
-58
 20
65.489
 21
66.34
  0
LINE
  8
0
 10
-58
 11
-59.691
 20
66.34
 21
67.569
  0
LINE
  8
0
 10
-59.691
 11
-61.09
 20
67.569
 21
69.122
  0
LINE
  8
0
 10
-61.09
 11
-62.135
 20
69.122
 21
70.933
  0
LINE
  8
0
 10
-62.135
 11
-62.781
 20
70.933
 21
72.921
  0
LINE
  8
0
 10
-62.781
 11
-63
 20
72.921
 21
75
  0
LINE
  8
0
 10
-54
 11
-54
 20
-110
 21
-107
  0
LINE
  8
0
 10
-54
 11
-44
 20
-107
 21
-107
  0
LINE
  8
0
 10
-44
 11
-44
 20
-107
 21
-110
  0
LINE
  8
0
 10
-44
 11
-54
 20
-110
 21
-110
  0
LINE
  8
0
 10
-50.6
 11
-50.6
 20
-5
 21
5
  0
LINE
  8
0
 10
-50.6
 11
-47.4
 20
5
 21
5
  0
LINE
  8
0
 10
-47.4
 11
-47.4
 20
5
 21
-5
  0
LINE
  8
0
 10
-47.4
 11
-50.6
 20
-5
 21
-5
  0
LINE
  8
0
 10
-50.5
 11
-50.386
 20
25.5
 21
26.074
  0
LINE
  8
0
 10
-50.386
 11
-50.061
 20
26.074
 21
26.561
  0
LINE
  8
0
 10
-50.061
 11
-49.574
 20
26.561
 21
26.886
  0
LINE
  8
0
 10
-49.574
 11
-49
 20
26.886
 21
27
  0
LINE
  8
0
 10
-49
 11
-48.426
 20
27
 21
26.886
  0
LINE
  8
0
 10
-48.426
 11
-47.939
 20
26.886
 21
26.561
  0
LINE
  8
0
 10
-47.939
 11
-47.614
 20
26.561
 21
26.074
  0
LINE
  8
0
 10
-47.614
 11
-47.5
 20
26.074
 21
25.5
  0
LINE
  8
0
 10
-47.5
 11
-47.614
 20
25.5
 21
24.926
  0
LINE
  8
0
 10
-47.614
 11
-47.939
 20
24.926
 21
24.439
  0
LINE
  8
0
 10
-47.939
 11
-48.426
 20
24.439
 21
24.114
  0
LINE
  8
0
 10
-48.426
 11
-49
 20
24.114
 21
24
  0
LINE
  8
0
 10
-49
 11
-49.574
 20
24
 21
24.114
  0
LINE
  8
0
 10
-49.574
 11
-50.061
 20
24.114
 21
24.439
  0
LINE
  8
0
 10
-50.061
 11
-50.386
 20
24.439
 21
24.926
  0
LINE
  8
0
 10
-50.386
 11
-50.5
 20
24.926
 21
25.5
  0
LINE
  8
0
 10
28
 11
28.219
 20
-120
 21
-117.921
  0
LINE
  8
0
 10
28.219
 11
28.865
 20
-117.921
 21
-115.933
  0
LINE
  8
0
 10
28.865
 11
29.91
 20
-115.933
 21
-114.122
  0
LINE
  8
0
 10
29.91
 11
31.309
 20
-114.122
 21
-112.569
  0
LINE
  8
0
 10
31.309
 11
33
 20
-112.569
 21
-111.34
  0
LINE
  8
0
 10
33
 11
34.91
 20
-111.34
 21
-110.489
  0
LINE
  8
0
 10
34.91
 11
36.955
 20
-110.489
 21
-110.055
  0
LINE
  8
0
 10
36.955
 11
38
 20
-110.055
 21
-110.055
  0
LINE
  8
0
 10
38
 11
38
 20
-110.055
 21
-109.836
  0
LINE
  8
0
 10
38
 11
40.091
 20
-109.836
 21
-109.836
  0
LINE
  8
0
 10
40.091
 11
44.18
 20
-109.836
 21
-108.532
  0
LINE
  8
0
 10
44.18
 11
48
 20
-108.532
 21
-105.981
  0
LINE
  8
0
 10
48
 11
51.383
 20
-105.981
 21
-102.294
  0
LINE
  8
0
 10
51.383
 11
54.18
 20
-102.294
 21
-97.634
  0
LINE
  8
0
 10
54.18
 11
56.271
 20
-97.634
 21
-92.202
  0
LINE
  8
0
 10
56.271
 11
57.563
 20
-92.202
 21
-86.237
  0
LINE
  8
0
 10
57.563
 11
58
 20
-86.237
 21
-80
  0
LINE
  8
0
 10
58
 11
58.381
 20
-80
 21
-78.087
  0
LINE
  8
0
 10
58.381
 11
59.464
 20
-78.087
 21
-76.464
  0
LINE
  8
0
 10
59.464
 11
61.087
 20
-76.464
 21
-75.381
  0
LINE
  8
0
 10
61.087
 11
62.95
 20
-75.381
 21
-75.01
  0
LINE
  8
0
 10
62.95
 11
62.95
 20
-75.01
 21
-104.9
  0
LINE
  8
0
 10
62.95
 11
66.05
 20
-104.9
 21
-104.9
  0
LINE
  8
0
 10
66.05
 11
66.05
 20
-104.9
 21
30
  0
LINE
  8
0
 10
66.05
 11
115.95
 20
30
 21
30
  0
LINE
  8
0
 10
115.95
 11
115.95
 20
30
 21
-104.9
  0
LINE
  8
0
 10
115.95
 11
119.05
 20
-104.9
 21
-104.9
  0
LINE
  8
0
 10
119.05
 11
119.05
 20
-104.9
 21
-75.01
  0
LINE
  8
0
 10
119.05
 11
120.913
 20
-75.01
 21
-75.381
  0
LINE
  8
0
 10
120.913
 11
122.536
 20
-75.381
 21
-76.464
  0
LINE
  8
0
 10
122.536
 11
123.619
 20
-76.464
 21
-78.087
  0
LINE
  8
0
 10
123.619
 11
124
 20
-78.087
 21
-80
  0
LINE
  8
0
 10
124
 11
124.437
 20
-80
 21
-86.237
  0
LINE
  8
0
 10
124.437
 11
125.729
 20
-86.237
 21
-92.202
  0
LINE
  8
0
 10
125.729
 11
127.82
 20
-92.202
 21
-97.634
  0
LINE
  8
0
 10
127.82
 11
130.617
 20
-97.634
 21
-102.294
  0
LINE
  8
0
 10
130.617
 11
134
 20
-102.294
 21
-105.981
  0
LINE
  8
0
 10
134
 11
137.82
 20
-105.981
 21
-108.532
  0
LINE
  8
0
 10
137.82
 11
141.909
 20
-108.532
 21
-109.836
  0
LINE
  8
0
 10
141.909
 11
144
 20
-109.836
 21
-109.836
  0
LINE
  8
0
 10
144
 11
144
 20
-109.836
 21
-110.055
  0
LINE
  8
0
 10
144
 11
145.045
 20
-110.055
 21
-110.055
  0
LINE
  8
0
 10
145.045
 11
147.09
 20
-110.055
 21
-110.489
  0
LINE
  8
0
 10
147.09
 11
149
 20
-110.489
 21
-111.34
  0
LINE
  8
0
 10
149
 11
150.691
 20
-111.34
 21
-112.569
  0
LINE
  8
0
 10
150.691
 11
152.09
 20
-112.569
 21
-114.122
  0
LINE
  8
0
 10
152.09
 11
153.135
 20
-114.122
 21
-115.933
  0
LINE
  8
0
 10
153.135
 11
153.781
 20
-115.933
 21
-117.921
  0
LINE
  8
0
 10
153.781
 11
154
 20
-117.921
 21
-120
  0
LINE
  8
0
 10
154
 11
95
 20
-120
 21
-120
  0
LINE
  8
0
 10
95
 11
95
 20
-120
 21
-113.95
  0
LINE
  8
0
 10
95
 11
94.99
 20
-113.95
 21
-113.95
  0
LINE
  8
0
 10
94.99
 11
94.696
 20
-113.95
 21
-112.469
  0
LINE
  8
0
 10
94.696
 11
93.828
 20
-112.469
 21
-111.172
  0
LINE
  8
0
 10
93.828
 11
92.531
 20
-111.172
 21
-110.304
  0
LINE
  8
0
 10
92.531
 11
91
 20
-110.304
 21
-110
  0
LINE
  8
0
 10
91
 11
89.469
 20
-110
 21
-110.304
  0
LINE
  8
0
 10
89.469
 11
88.172
 20
-110.304
 21
-111.172
  0
LINE
  8
0
 10
88.172
 11
87.304
 20
-111.172
 21
-112.469
  0
LINE
  8
0
 10
87.304
 11
87.01
 20
-112.469
 21
-113.95
  0
LINE
  8
0
 10
87.01
 11
87
 20
-113.95
 21
-113.95
  0
LINE
  8
0
 10
87
 11
87
 20
-113.95
 21
-120
  0
LINE
  8
0
 10
87
 11
28
 20
-120
 21
-120
  0
LINE
  8
0
 10
89.5
 11
89.614
 20
25.5
 21
26.074
  0
LINE
  8
0
 10
89.614
 11
89.939
 20
26.074
 21
26.561
  0
LINE
  8
0
 10
89.939
 11
90.426
 20
26.561
 21
26.886
  0
LINE
  8
0
 10
90.426
 11
91
 20
26.886
 21
27
  0
LINE
  8
0
 10
91
 11
91.574
 20
27
 21
26.886
  0
LINE
  8
0
 10
91.574
 11
92.061
 20
26.886
 21
26.561
  0
LINE
  8
0
 10
92.061
 11
92.386
 20
26.561
 21
26.074
  0
LINE
  8
0
 10
92.386
 11
92.5
 20
26.074
 21
25.5
  0
LINE
  8
0
 10
92.5
 11
92.386
 20
25.5
 21
24.926
  0
LINE
  8
0
 10
92.386
 11
92.061
 20
24.926
 21
24.439
  0
LINE
  8
0
 10
92.061
 11
91.574
 20
24.439
 21
24.114
  0
LINE
  8
0
 10
91.574
 11
91
 20
24.114
 21
24
  0
LINE
  8
0
 10
91
 11
90.426
 20
24
 21
24.114
  0
LINE
  8
0
 10
90.426
 11
89.939
 20
24.114
 21
24.439
  0
LINE
  8
0
 10
89.939
 11
89.614
 20
24.439
 21
24.926
  0
LINE
  8
0
 10
89.614
 11
89.5
 20
24.926
 21
25.5
  0
LINE
  8
0
 10
129
 11
196.95
 20
75
 21
75
  0
LINE
  8
0
 10
196.95
 11
196.95
 20
75
 21
59.95
  0
LINE
  8
0
 10
196.95
 11
200.05
 20
59.95
 21
59.95
  0
LINE
  8
0
 10
200.05
 11
200.05
 20
59.95
 21
75
  0
LINE
  8
0
 10
200.05
 11
235
 20
75
 21
75
  0
LINE
  8
0
 10
235
 11
234.781
 20
75
 21
72.921
  0
LINE
  8
0
 10
234.781
 11
234.135
 20
72.921
 21
70.933
  0
LINE
  8
0
 10
234.135
 11
233.09
 20
70.933
 21
69.122
  0
LINE
  8
0
 10
233.09
 11
231.691
 20
69.122
 21
67.569
  0
LINE
  8
0
 10
231.691
 11
230
 20
67.569
 21
66.34
  0
LINE
  8
0
 10
230
 11
228.09
 20
66.34
 21
65.489
  0
LINE
  8
0
 10
228.09
 11
226.045
 20
65.489
 21
65.055
  0
LINE
  8
0
 10
226.045
 11
225
 20
65.055
 21
65.055
  0
LINE
  8
0
 10
225
 11
225
 20
65.055
 21
64.836
  0
LINE
  8
0
 10
225
 11
222.909
 20
64.836
 21
64.836
  0
LINE
  8
0
 10
222.909
 11
218.82
 20
64.836
 21
63.532
  0
LINE
  8
0
 10
218.82
 11
215
 20
63.532
 21
60.981
  0
LINE
  8
0
 10
215
 11
211.617
 20
60.981
 21
57.294
  0
LINE
  8
0
 10
211.617
 11
208.82
 20
57.294
 21
52.634
  0
LINE
  8
0
 10
208.82
 11
206.729
 20
52.634
 21
47.202
  0
LINE
  8
0
 10
206.729
 11
205.437
 20
47.202
 21
41.237
  0
LINE
  8
0
 10
205.437
 11
205
 20
41.237
 21
35
  0
LINE
  8
0
 10
205
 11
204.619
 20
35
 21
33.087
  0
LINE
  8
0
 10
204.619
 11
203.536
 20
33.087
 21
31.464
  0
LINE
  8
0
 10
203.536
 11
201.913
 20
31.464
 21
30.381
  0
LINE
  8
0
 10
201.913
 11
200
 20
30.381
 21
30
  0
LINE
  8
0
 10
200
 11
200
 20
30
 21
-75
  0
LINE
  8
0
 10
200
 11
167.05
 20
-75
 21
-75
  0
LINE
  8
0
 10
167.05
 11
167.05
 20
-75
 21
59.9
  0
LINE
  8
0
 10
167.05
 11
163.95
 20
59.9
 21
59.9
  0
LINE
  8
0
 10
163.95
 11
163.95
 20
59.9
 21
30.01
  0
LINE
  8
0
 10
163.95
 11
162.087
 20
30.01
 21
30.381
  0
LINE
  8
0
 10
162.087
 11
160.464
 20
30.381
 21
31.464
  0
LINE
  8
0
 10
160.464
 11
159.381
 20
31.464
 21
33.087
  0
LINE
  8
0
 10
159.381
 11
159
 20
33.087
 21
35
  0
LINE
  8
0
 10
159
 11
158.563
 20
35
 21
41.237
  0
LINE
  8
0
 10
158.563
 11
157.271
 20
41.237
 21
47.202
  0
LINE
  8
0
 10
157.271
 11
155.18
 20
47.202
 21
52.634
  0
LINE
  8
0
 10
155.18
 11
152.383
 20
52.634
 21
57.294
  0
LINE
  8
0
 10
152.383
 11
149
 20
57.294
 21
60.981
  0
LINE
  8
0
 10
149
 11
145.18
 20
60.981
 21
63.532
  0
LINE
  8
0
 10
145.18
 11
141.091
 20
63.532
 21
64.836
  0
LINE
  8
0
 10
141.091
 11
139
 20
64.836
 21
64.836
  0
LINE
  8
0
 10
139
 11
139
 20
64.836
 21
65.055
  0
LINE
  8
0
 10
139
 11
137.955
 20
65.055
 21
65.055
  0
LINE
  8
0
 10
137.955
 11
135.91
 20
65.055
 21
65.489
  0
LINE
  8
0
 10
135.91
 11
134
 20
65.489
 21
66.34
  0
LINE
  8
0
 10
134
 11
132.309
 20
66.34
 21
67.569
  0
LINE
  8
0
 10
132.309
 11
130.91
 20
67.569
 21
69.122
  0
LINE
  8
0
 10
130.91
 11
129.865
 20
69.122
 21
70.933
  0
LINE
  8
0
 10
129.865
 11
129.219
 20
70.933
 21
72.921
  0
LINE
  8
0
 10
129.219
 11
129
 20
72.921
 21
75
  0
LINE
  8
0
 10
177
 11
177
 20
62
 21
65
  0
LINE
  8
0
 10
177
 11
187
 20
65
 21
65
  0
LINE
  8
0
 10
187
 11
187
 20
65
 21
62
  0
LINE
  8
0
 10
187
 11
177
 20
62
 21
62
  0
LINE
  8
0
 10
180.4
 11
180.4
 20
-50
 21
-40
  0
LINE
  8
0
 10
180.4
 11
183.6
 20
-40
 21
-40
  0
LINE
  8
0
 10
183.6
 11
183.6
 20
-40
 21
-50
  0
LINE
  8
0
 10
183.6
 11
180.4
 20
-50
 21
-50
  0
LINE
  8
0
 10
180.5
 11
180.614
 20
-70.5
 21
-69.926
  0
LINE
  8
0
 10
180.614
 11
180.939
 20
-69.926
 21
-69.439
  0
LINE
  8
0
 10
180.939
 11
181.426
 20
-69.439
 21
-69.114
  0
LINE
  8
0
 10
181.426
 11
182
 20
-69.114
 21
-69
  0
LINE
  8
0
 10
182
 11
182.574
 20
-69
 21
-69.114
  0
LINE
  8
0
 10
182.574
 11
183.061
 20
-69.114
 21
-69.439
  0
LINE
  8
0
 10
183.061
 11
183.386
 20
-69.439
 21
-69.926
  0
LINE
  8
0
 10
183.386
 11
183.5
 20
-69.926
 21
-70.5
  0
LINE
  8
0
 10
183.5
 11
183.386
 20
-70.5
 21
-71.074
  0
LINE
  8
0
 10
183.386
 11
183.061
 20
-71.074
 21
-71.561
  0
LINE
  8
0
 10
183.061
 11
182.574
 20
-71.561
 21
-71.886
  0
LINE
  8
0
 10
182.574
 11
182
 20
-71.886
 21
-72
  0
LINE
  8
0
 10
182
 11
181.426
 20
-72
 21
-71.886
  0
LINE
  8
0
 10
181.426
 11
180.939
 20
-71.886
 21
-71.561
  0
LINE
  8
0
 10
180.939
 11
180.614
 20
-71.561
 21
-71.074
  0
LINE
  8
0
 10
180.614
 11
180.5
 20
-71.074
 21
-70.5
  0
LINE
  8
0
 10
248
 11
248
 20
-95
 21
-85
  0
LINE
  8
0
 10
248
 11
253
 20
-85
 21
-85
  0
LINE
  8
0
 10
253
 11
257.158
 20
-85
 21
-84.344
  0
LINE
  8
0
 10
257.158
 11
261.135
 20
-84.344
 21
-82.406
  0
LINE
  8
0
 10
261.135
 11
264.756
 20
-82.406
 21
-79.271
  0
LINE
  8
0
 10
264.756
 11
267.863
 20
-79.271
 21
-75.074
  0
LINE
  8
0
 10
267.863
 11
270.321
 20
-75.074
 21
-70
  0
LINE
  8
0
 10
270.321
 11
272.021
 20
-70
 21
-64.271
  0
LINE
  8
0
 10
272.021
 11
272.89
 20
-64.271
 21
-58.136
  0
LINE
  8
0
 10
272.89
 11
272.89
 20
-58.136
 21
-55
  0
LINE
  8
0
 10
272.89
 11
278
 20
-55
 21
-55
  0
LINE
  8
0
 10
278
 11
278
 20
-55
 21
-49
  0
LINE
  8
0
 10
278
 11
288
 20
-49
 21
-49
  0
LINE
  8
0
 10
288
 11
288
 20
-49
 21
-55
  0
LINE
  8
0
 10
288
 11
292.781
 20
-55
 21
-55
  0
LINE
  8
0
 10
292.781
 11
292.781
 20
-55
 21
-59.181
  0
LINE
  8
0
 10
292.781
 11
291.042
 20
-59.181
 21
-67.361
  0
LINE
  8
0
 10
291.042
 11
287.641
 20
-67.361
 21
-75
  0
LINE
  8
0
 10
287.641
 11
282.726
 20
-75
 21
-81.765
  0
LINE
  8
0
 10
282.726
 11
276.511
 20
-81.765
 21
-87.361
  0
LINE
  8
0
 10
276.511
 11
269.269
 20
-87.361
 21
-91.542
  0
LINE
  8
0
 10
269.269
 11
261.316
 20
-91.542
 21
-94.126
  0
LINE
  8
0
 10
261.316
 11
253
 20
-94.126
 21
-95
  0
LINE
  8
0
 10
253
 11
248
 20
-95
 21
-95
  0
ENDSEC
  0
SECTION
  2
OBJECTS
  0
DICTIONARY
  0
ENDSEC
  0
EOF
