  0
SECTION
  2
BLOCKS
  0
ENDSEC
  0
SECTION
  2
ENTITIES
  0
LINE
  8
0
 10
-90
 11
-89.344
 20
10
 21
14.158
  0
LINE
  8
0
 10
-89.344
 11
-87.406
 20
14.158
 21
18.135
  0
LINE
  8
0
 10
-87.406
 11
-84.271
 20
18.135
 21
21.756
  0
LINE
  8
0
 10
-84.271
 11
-80.074
 20
21.756
 21
24.863
  0
LINE
  8
0
 10
-80.074
 11
-75
 20
24.863
 21
27.321
  0
LINE
  8
0
 10
-75
 11
-69.271
 20
27.321
 21
29.021
  0
LINE
  8
0
 10
-69.271
 11
-63.136
 20
29.021
 21
29.89
  0
LINE
  8
0
 10
-63.136
 11
-56.864
 20
29.89
 21
29.89
  0
LINE
  8
0
 10
-56.864
 11
-50.729
 20
29.89
 21
29.021
  0
LINE
  8
0
 10
-50.729
 11
-45
 20
29.021
 21
27.321
  0
LINE
  8
0
 10
-45
 11
-42.944
 20
27.321
 21
26.325
  0
LINE
  8
0
 10
-42.944
 11
-40.451
 20
26.325
 21
30.859
  0
LINE
  8
0
 10
-40.451
 11
-33.457
 20
30.859
 21
39.015
  0
LINE
  8
0
 10
-33.457
 11
-25
 20
39.015
 21
45.466
  0
LINE
  8
0
 10
-25
 11
-15.451
 20
45.466
 21
49.93
  0
LINE
  8
0
 10
-15.451
 11
-5.226
 20
49.93
 21
52.212
  0
LINE
  8
0
 10
-5.226
 11
5.226
 20
52.212
 21
52.212
  0
LINE
  8
0
 10
5.226
 11
15.451
 20
52.212
 21
49.93
  0
LINE
  8
0
 10
15.451
 11
25
 20
49.93
 21
45.466
  0
LINE
  8
0
 10
25
 11
33.457
 20
45.466
 21
39.015
  0
LINE
  8
0
 10
33.457
 11
40.451
 20
39.015
 21
30.859
  0
LINE
  8
0
 10
40.451
 11
42.944
 20
30.859
 21
26.325
  0
LINE
  8
0
 10
42.944
 11
45
 20
26.325
 21
27.321
  0
LINE
  8
0
 10
45
 11
50.729
 20
27.321
 21
29.021
  0
LINE
  8
0
 10
50.729
 11
56.864
 20
29.021
 21
29.89
  0
LINE
  8
0
 10
56.864
 11
63.136
 20
29.89
 21
29.89
  0
LINE
  8
0
 10
63.136
 11
69.271
 20
29.89
 21
29.021
  0
LINE
  8
0
 10
69.271
 11
75
 20
29.021
 21
27.321
  0
LINE
  8
0
 10
75
 11
80.074
 20
27.321
 21
24.863
  0
LINE
  8
0
 10
80.074
 11
84.271
 20
24.863
 21
21.756
  0
LINE
  8
0
 10
84.271
 11
87.406
 20
21.756
 21
18.135
  0
LINE
  8
0
 10
87.406
 11
89.344
 20
18.135
 21
14.158
  0
LINE
  8
0
 10
89.344
 11
90
 20
14.158
 21
10
  0
LINE
  8
0
 10
90
 11
89.344
 20
10
 21
5.842
  0
LINE
  8
0
 10
89.344
 11
87.406
 20
5.842
 21
1.865
  0
LINE
  8
0
 10
87.406
 11
84.271
 20
1.865
 21
-1.756
  0
LINE
  8
0
 10
84.271
 11
80.074
 20
-1.756
 21
-4.863
  0
LINE
  8
0
 10
80.074
 11
75
 20
-4.863
 21
-7.321
  0
LINE
  8
0
 10
75
 11
69.271
 20
-7.321
 21
-9.021
  0
LINE
  8
0
 10
69.271
 11
63.136
 20
-9.021
 21
-9.89
  0
LINE
  8
0
 10
63.136
 11
56.864
 20
-9.89
 21
-9.89
  0
LINE
  8
0
 10
56.864
 11
50.729
 20
-9.89
 21
-9.021
  0
LINE
  8
0
 10
50.729
 11
49.144
 20
-9.021
 21
-8.551
  0
LINE
  8
0
 10
49.144
 11
48.907
 20
-8.551
 21
-10.915
  0
LINE
  8
0
 10
48.907
 11
45.677
 20
-10.915
 21
-21.354
  0
LINE
  8
0
 10
45.677
 11
40.451
 20
-21.354
 21
-30.859
  0
LINE
  8
0
 10
40.451
 11
33.457
 20
-30.859
 21
-39.015
  0
LINE
  8
0
 10
33.457
 11
25
 20
-39.015
 21
-45.466
  0
LINE
  8
0
 10
25
 11
15.451
 20
-45.466
 21
-49.93
  0
LINE
  8
0
 10
15.451
 11
5.226
 20
-49.93
 21
-52.212
  0
LINE
  8
0
 10
5.226
 11
-5.226
 20
-52.212
 21
-52.212
  0
LINE
  8
0
 10
-5.226
 11
-15.451
 20
-52.212
 21
-49.93
  0
LINE
  8
0
 10
-15.451
 11
-25
 20
-49.93
 21
-45.466
  0
LINE
  8
0
 10
-25
 11
-33.457
 20
-45.466
 21
-39.015
  0
LINE
  8
0
 10
-33.457
 11
-40.451
 20
-39.015
 21
-30.859
  0
LINE
  8
0
 10
-40.451
 11
-45.677
 20
-30.859
 21
-21.354
  0
LINE
  8
0
 10
-45.677
 11
-48.907
 20
-21.354
 21
-10.915
  0
LINE
  8
0
 10
-48.907
 11
-49.144
 20
-10.915
 21
-8.551
  0
LINE
  8
0
 10
-49.144
 11
-50.729
 20
-8.551
 21
-9.021
  0
LINE
  8
0
 10
-50.729
 11
-56.864
 20
-9.021
 21
-9.89
  0
LINE
  8
0
 10
-56.864
 11
-63.136
 20
-9.89
 21
-9.89
  0
LINE
  8
0
 10
-63.136
 11
-69.271
 20
-9.89
 21
-9.021
  0
LINE
  8
0
 10
-69.271
 11
-75
 20
-9.021
 21
-7.321
  0
LINE
  8
0
 10
-75
 11
-80.074
 20
-7.321
 21
-4.863
  0
LINE
  8
0
 10
-80.074
 11
-84.271
 20
-4.863
 21
-1.756
  0
LINE
  8
0
 10
-84.271
 11
-87.406
 20
-1.756
 21
1.865
  0
LINE
  8
0
 10
-87.406
 11
-89.344
 20
1.865
 21
5.842
  0
LINE
  8
0
 10
-89.344
 11
-90
 20
5.842
 21
10
  0
LINE
  8
0
 10
130
 11
130.656
 20
10
 21
14.158
  0
LINE
  8
0
 10
130.656
 11
132.594
 20
14.158
 21
18.135
  0
LINE
  8
0
 10
132.594
 11
135.729
 20
18.135
 21
21.756
  0
LINE
  8
0
 10
135.729
 11
139.926
 20
21.756
 21
24.863
  0
LINE
  8
0
 10
139.926
 11
145
 20
24.863
 21
27.321
  0
LINE
  8
0
 10
145
 11
150.729
 20
27.321
 21
29.021
  0
LINE
  8
0
 10
150.729
 11
156.864
 20
29.021
 21
29.89
  0
LINE
  8
0
 10
156.864
 11
163.136
 20
29.89
 21
29.89
  0
LINE
  8
0
 10
163.136
 11
169.271
 20
29.89
 21
29.021
  0
LINE
  8
0
 10
169.271
 11
175
 20
29.021
 21
27.321
  0
LINE
  8
0
 10
175
 11
177.056
 20
27.321
 21
26.325
  0
LINE
  8
0
 10
177.056
 11
179.549
 20
26.325
 21
30.859
  0
LINE
  8
0
 10
179.549
 11
186.543
 20
30.859
 21
39.015
  0
LINE
  8
0
 10
186.543
 11
195
 20
39.015
 21
45.466
  0
LINE
  8
0
 10
195
 11
204.549
 20
45.466
 21
49.93
  0
LINE
  8
0
 10
204.549
 11
214.774
 20
49.93
 21
52.212
  0
LINE
  8
0
 10
214.774
 11
225.226
 20
52.212
 21
52.212
  0
LINE
  8
0
 10
225.226
 11
235.451
 20
52.212
 21
49.93
  0
LINE
  8
0
 10
235.451
 11
245
 20
49.93
 21
45.466
  0
LINE
  8
0
 10
245
 11
253.457
 20
45.466
 21
39.015
  0
LINE
  8
0
 10
253.457
 11
260.451
 20
39.015
 21
30.859
  0
LINE
  8
0
 10
260.451
 11
262.944
 20
30.859
 21
26.325
  0
LINE
  8
0
 10
262.944
 11
265
 20
26.325
 21
27.321
  0
LINE
  8
0
 10
265
 11
270.729
 20
27.321
 21
29.021
  0
LINE
  8
0
 10
270.729
 11
276.864
 20
29.021
 21
29.89
  0
LINE
  8
0
 10
276.864
 11
283.136
 20
29.89
 21
29.89
  0
LINE
  8
0
 10
283.136
 11
289.271
 20
29.89
 21
29.021
  0
LINE
  8
0
 10
289.271
 11
295
 20
29.021
 21
27.321
  0
LINE
  8
0
 10
295
 11
300.074
 20
27.321
 21
24.863
  0
LINE
  8
0
 10
300.074
 11
304.271
 20
24.863
 21
21.756
  0
LINE
  8
0
 10
304.271
 11
307.406
 20
21.756
 21
18.135
  0
LINE
  8
0
 10
307.406
 11
309.344
 20
18.135
 21
14.158
  0
LINE
  8
0
 10
309.344
 11
310
 20
14.158
 21
10
  0
LINE
  8
0
 10
310
 11
309.344
 20
10
 21
5.842
  0
LINE
  8
0
 10
309.344
 11
307.406
 20
5.842
 21
1.865
  0
LINE
  8
0
 10
307.406
 11
304.271
 20
1.865
 21
-1.756
  0
LINE
  8
0
 10
304.271
 11
300.074
 20
-1.756
 21
-4.863
  0
LINE
  8
0
 10
300.074
 11
295
 20
-4.863
 21
-7.321
  0
LINE
  8
0
 10
295
 11
289.271
 20
-7.321
 21
-9.021
  0
LINE
  8
0
 10
289.271
 11
283.136
 20
-9.021
 21
-9.89
  0
LINE
  8
0
 10
283.136
 11
276.864
 20
-9.89
 21
-9.89
  0
LINE
  8
0
 10
276.864
 11
270.729
 20
-9.89
 21
-9.021
  0
LINE
  8
0
 10
270.729
 11
269.144
 20
-9.021
 21
-8.551
  0
LINE
  8
0
 10
269.144
 11
268.907
 20
-8.551
 21
-10.915
  0
LINE
  8
0
 10
268.907
 11
265.677
 20
-10.915
 21
-21.354
  0
LINE
  8
0
 10
265.677
 11
260.451
 20
-21.354
 21
-30.859
  0
LINE
  8
0
 10
260.451
 11
253.457
 20
-30.859
 21
-39.015
  0
LINE
  8
0
 10
253.457
 11
245
 20
-39.015
 21
-45.466
  0
LINE
  8
0
 10
245
 11
235.451
 20
-45.466
 21
-49.93
  0
LINE
  8
0
 10
235.451
 11
225.226
 20
-49.93
 21
-52.212
  0
LINE
  8
0
 10
225.226
 11
214.774
 20
-52.212
 21
-52.212
  0
LINE
  8
0
 10
214.774
 11
204.549
 20
-52.212
 21
-49.93
  0
LINE
  8
0
 10
204.549
 11
195
 20
-49.93
 21
-45.466
  0
LINE
  8
0
 10
195
 11
186.543
 20
-45.466
 21
-39.015
  0
LINE
  8
0
 10
186.543
 11
179.549
 20
-39.015
 21
-30.859
  0
LINE
  8
0
 10
179.549
 11
174.323
 20
-30.859
 21
-21.354
  0
LINE
  8
0
 10
174.323
 11
171.093
 20
-21.354
 21
-10.915
  0
LINE
  8
0
 10
171.093
 11
170.856
 20
-10.915
 21
-8.551
  0
LINE
  8
0
 10
170.856
 11
169.271
 20
-8.551
 21
-9.021
  0
LINE
  8
0
 10
169.271
 11
163.136
 20
-9.021
 21
-9.89
  0
LINE
  8
0
 10
163.136
 11
156.864
 20
-9.89
 21
-9.89
  0
LINE
  8
0
 10
156.864
 11
150.729
 20
-9.89
 21
-9.021
  0
LINE
  8
0
 10
150.729
 11
145
 20
-9.021
 21
-7.321
  0
LINE
  8
0
 10
145
 11
139.926
 20
-7.321
 21
-4.863
  0
LINE
  8
0
 10
139.926
 11
135.729
 20
-4.863
 21
-1.756
  0
LINE
  8
0
 10
135.729
 11
132.594
 20
-1.756
 21
1.865
  0
LINE
  8
0
 10
132.594
 11
130.656
 20
1.865
 21
5.842
  0
LINE
  8
0
 10
130.656
 11
130
 20
5.842
 21
10
  0
LINE
  8
0
 10
217
 11
217.228
 20
34.5
 21
35.648
  0
LINE
  8
0
 10
217.228
 11
217.879
 20
35.648
 21
36.621
  0
LINE
  8
0
 10
217.879
 11
218.852
 20
36.621
 21
37.272
  0
LINE
  8
0
 10
218.852
 11
220
 20
37.272
 21
37.5
  0
LINE
  8
0
 10
220
 11
221.148
 20
37.5
 21
37.272
  0
LINE
  8
0
 10
221.148
 11
222.121
 20
37.272
 21
36.621
  0
LINE
  8
0
 10
222.121
 11
222.772
 20
36.621
 21
35.648
  0
LINE
  8
0
 10
222.772
 11
223
 20
35.648
 21
34.5
  0
LINE
  8
0
 10
223
 11
222.772
 20
34.5
 21
33.352
  0
LINE
  8
0
 10
222.772
 11
222.121
 20
33.352
 21
32.379
  0
LINE
  8
0
 10
222.121
 11
221.148
 20
32.379
 21
31.728
  0
LINE
  8
0
 10
221.148
 11
220
 20
31.728
 21
31.5
  0
LINE
  8
0
 10
220
 11
218.852
 20
31.5
 21
31.728
  0
LINE
  8
0
 10
218.852
 11
217.879
 20
31.728
 21
32.379
  0
LINE
  8
0
 10
217.879
 11
217.228
 20
32.379
 21
33.352
  0
LINE
  8
0
 10
217.228
 11
217
 20
33.352
 21
34.5
  0
LINE
  8
0
 10
350
 11
350.656
 20
10
 21
14.158
  0
LINE
  8
0
 10
350.656
 11
352.594
 20
14.158
 21
18.135
  0
LINE
  8
0
 10
352.594
 11
355.729
 20
18.135
 21
21.756
  0
LINE
  8
0
 10
355.729
 11
359.926
 20
21.756
 21
24.863
  0
LINE
  8
0
 10
359.926
 11
365
 20
24.863
 21
27.321
  0
LINE
  8
0
 10
365
 11
370.729
 20
27.321
 21
29.021
  0
LINE
  8
0
 10
370.729
 11
376.864
 20
29.021
 21
29.89
  0
LINE
  8
0
 10
376.864
 11
383.136
 20
29.89
 21
29.89
  0
LINE
  8
0
 10
383.136
 11
389.271
 20
29.89
 21
29.021
  0
LINE
  8
0
 10
389.271
 11
395
 20
29.021
 21
27.321
  0
LINE
  8
0
 10
395
 11
397.056
 20
27.321
 21
26.325
  0
LINE
  8
0
 10
397.056
 11
399.549
 20
26.325
 21
30.859
  0
LINE
  8
0
 10
399.549
 11
406.543
 20
30.859
 21
39.015
  0
LINE
  8
0
 10
406.543
 11
412
 20
39.015
 21
43.178
  0
LINE
  8
0
 10
412
 11
412
 20
43.178
 21
30
  0
LINE
  8
0
 10
412
 11
415
 20
30
 21
30
  0
LINE
  8
0
 10
415
 11
415
 20
30
 21
24
  0
LINE
  8
0
 10
415
 11
402.668
 20
24
 21
24
  0
LINE
  8
0
 10
402.668
 11
399.86
 20
24
 21
18.893
  0
LINE
  8
0
 10
399.86
 11
399.416
 20
18.893
 21
19.405
  0
LINE
  8
0
 10
399.416
 11
396.059
 20
19.405
 21
21.89
  0
LINE
  8
0
 10
396.059
 11
392
 20
21.89
 21
23.856
  0
LINE
  8
0
 10
392
 11
391.516
 20
23.856
 21
24
  0
LINE
  8
0
 10
391.516
 11
390
 20
24
 21
24
  0
LINE
  8
0
 10
390
 11
390
 20
24
 21
24.45
  0
LINE
  8
0
 10
390
 11
387.416
 20
24.45
 21
25.217
  0
LINE
  8
0
 10
387.416
 11
382.509
 20
25.217
 21
25.912
  0
LINE
  8
0
 10
382.509
 11
377.491
 20
25.912
 21
25.912
  0
LINE
  8
0
 10
377.491
 11
372.584
 20
25.912
 21
25.217
  0
LINE
  8
0
 10
372.584
 11
368
 20
25.217
 21
23.856
  0
LINE
  8
0
 10
368
 11
363.941
 20
23.856
 21
21.89
  0
LINE
  8
0
 10
363.941
 11
360.584
 20
21.89
 21
19.405
  0
LINE
  8
0
 10
360.584
 11
358.075
 20
19.405
 21
16.508
  0
LINE
  8
0
 10
358.075
 11
356.524
 20
16.508
 21
13.327
  0
LINE
  8
0
 10
356.524
 11
356
 20
13.327
 21
10
  0
LINE
  8
0
 10
356
 11
356.524
 20
10
 21
6.673
  0
LINE
  8
0
 10
356.524
 11
358.075
 20
6.673
 21
3.492
  0
LINE
  8
0
 10
358.075
 11
360.584
 20
3.492
 21
0.595
  0
LINE
  8
0
 10
360.584
 11
363.941
 20
0.595
 21
-1.89
  0
LINE
  8
0
 10
363.941
 11
368
 20
-1.89
 21
-3.856
  0
LINE
  8
0
 10
368
 11
372.584
 20
-3.856
 21
-5.217
  0
LINE
  8
0
 10
372.584
 11
377.491
 20
-5.217
 21
-5.912
  0
LINE
  8
0
 10
377.491
 11
382.509
 20
-5.912
 21
-5.912
  0
LINE
  8
0
 10
382.509
 11
387.416
 20
-5.912
 21
-5.217
  0
LINE
  8
0
 10
387.416
 11
392
 20
-5.217
 21
-3.856
  0
LINE
  8
0
 10
392
 11
396.059
 20
-3.856
 21
-1.89
  0
LINE
  8
0
 10
396.059
 11
396.18
 20
-1.89
 21
-1.801
  0
LINE
  8
0
 10
396.18
 11
396.962
 20
-1.801
 21
-9.606
  0
LINE
  8
0
 10
396.962
 11
399.804
 20
-9.606
 21
-18.791
  0
LINE
  8
0
 10
399.804
 11
404.403
 20
-18.791
 21
-27.156
  0
LINE
  8
0
 10
404.403
 11
410.558
 20
-27.156
 21
-34.333
  0
LINE
  8
0
 10
410.558
 11
418
 20
-34.333
 21
-40.01
  0
LINE
  8
0
 10
418
 11
426.403
 20
-40.01
 21
-43.939
  0
LINE
  8
0
 10
426.403
 11
435.401
 20
-43.939
 21
-45.947
  0
LINE
  8
0
 10
435.401
 11
444.599
 20
-45.947
 21
-45.947
  0
LINE
  8
0
 10
444.599
 11
453.597
 20
-45.947
 21
-43.939
  0
LINE
  8
0
 10
453.597
 11
462
 20
-43.939
 21
-40.01
  0
LINE
  8
0
 10
462
 11
469.442
 20
-40.01
 21
-34.333
  0
LINE
  8
0
 10
469.442
 11
475.597
 20
-34.333
 21
-27.156
  0
LINE
  8
0
 10
475.597
 11
480.196
 20
-27.156
 21
-18.791
  0
LINE
  8
0
 10
480.196
 11
483.038
 20
-18.791
 21
-9.606
  0
LINE
  8
0
 10
483.038
 11
483.82
 20
-9.606
 21
-1.801
  0
LINE
  8
0
 10
483.82
 11
483.941
 20
-1.801
 21
-1.89
  0
LINE
  8
0
 10
483.941
 11
488
 20
-1.89
 21
-3.856
  0
LINE
  8
0
 10
488
 11
492.584
 20
-3.856
 21
-5.217
  0
LINE
  8
0
 10
492.584
 11
497.491
 20
-5.217
 21
-5.912
  0
LINE
  8
0
 10
497.491
 11
502.509
 20
-5.912
 21
-5.912
  0
LINE
  8
0
 10
502.509
 11
507.416
 20
-5.912
 21
-5.217
  0
LINE
  8
0
 10
507.416
 11
512
 20
-5.217
 21
-3.856
  0
LINE
  8
0
 10
512
 11
516.059
 20
-3.856
 21
-1.89
  0
LINE
  8
0
 10
516.059
 11
519.416
 20
-1.89
 21
0.595
  0
LINE
  8
0
 10
519.416
 11
521.925
 20
0.595
 21
3.492
  0
LINE
  8
0
 10
521.925
 11
523.476
 20
3.492
 21
6.673
  0
LINE
  8
0
 10
523.476
 11
524
 20
6.673
 21
10
  0
LINE
  8
0
 10
524
 11
523.476
 20
10
 21
13.327
  0
LINE
  8
0
 10
523.476
 11
521.925
 20
13.327
 21
16.508
  0
LINE
  8
0
 10
521.925
 11
519.416
 20
16.508
 21
19.405
  0
LINE
  8
0
 10
519.416
 11
516.059
 20
19.405
 21
21.89
  0
LINE
  8
0
 10
516.059
 11
512
 20
21.89
 21
23.856
  0
LINE
  8
0
 10
512
 11
507.416
 20
23.856
 21
25.217
  0
LINE
  8
0
 10
507.416
 11
502.509
 20
25.217
 21
25.912
  0
LINE
  8
0
 10
502.509
 11
497.491
 20
25.912
 21
25.912
  0
LINE
  8
0
 10
497.491
 11
492.584
 20
25.912
 21
25.217
  0
LINE
  8
0
 10
492.584
 11
490
 20
25.217
 21
24.45
  0
LINE
  8
0
 10
490
 11
490
 20
24.45
 21
24
  0
LINE
  8
0
 10
490
 11
488.484
 20
24
 21
24
  0
LINE
  8
0
 10
488.484
 11
488
 20
24
 21
23.856
  0
LINE
  8
0
 10
488
 11
483.941
 20
23.856
 21
21.89
  0
LINE
  8
0
 10
483.941
 11
480.584
 20
21.89
 21
19.405
  0
LINE
  8
0
 10
480.584
 11
480.14
 20
19.405
 21
18.893
  0
LINE
  8
0
 10
480.14
 11
477.332
 20
18.893
 21
24
  0
LINE
  8
0
 10
477.332
 11
465
 20
24
 21
24
  0
LINE
  8
0
 10
465
 11
465
 20
24
 21
30
  0
LINE
  8
0
 10
465
 11
468
 20
30
 21
30
  0
LINE
  8
0
 10
468
 11
468
 20
30
 21
43.178
  0
LINE
  8
0
 10
468
 11
473.457
 20
43.178
 21
39.015
  0
LINE
  8
0
 10
473.457
 11
480.451
 20
39.015
 21
30.859
  0
LINE
  8
0
 10
480.451
 11
482.944
 20
30.859
 21
26.325
  0
LINE
  8
0
 10
482.944
 11
485
 20
26.325
 21
27.321
  0
LINE
  8
0
 10
485
 11
490.729
 20
27.321
 21
29.021
  0
LINE
  8
0
 10
490.729
 11
496.864
 20
29.021
 21
29.89
  0
LINE
  8
0
 10
496.864
 11
503.136
 20
29.89
 21
29.89
  0
LINE
  8
0
 10
503.136
 11
509.271
 20
29.89
 21
29.021
  0
LINE
  8
0
 10
509.271
 11
515
 20
29.021
 21
27.321
  0
LINE
  8
0
 10
515
 11
520.074
 20
27.321
 21
24.863
  0
LINE
  8
0
 10
520.074
 11
524.271
 20
24.863
 21
21.756
  0
LINE
  8
0
 10
524.271
 11
527.406
 20
21.756
 21
18.135
  0
LINE
  8
0
 10
527.406
 11
529.344
 20
18.135
 21
14.158
  0
LINE
  8
0
 10
529.344
 11
530
 20
14.158
 21
10
  0
LINE
  8
0
 10
530
 11
529.344
 20
10
 21
5.842
  0
LINE
  8
0
 10
529.344
 11
527.406
 20
5.842
 21
1.865
  0
LINE
  8
0
 10
527.406
 11
524.271
 20
1.865
 21
-1.756
  0
LINE
  8
0
 10
524.271
 11
520.074
 20
-1.756
 21
-4.863
  0
LINE
  8
0
 10
520.074
 11
515
 20
-4.863
 21
-7.321
  0
LINE
  8
0
 10
515
 11
509.271
 20
-7.321
 21
-9.021
  0
LINE
  8
0
 10
509.271
 11
503.136
 20
-9.021
 21
-9.89
  0
LINE
  8
0
 10
503.136
 11
496.864
 20
-9.89
 21
-9.89
  0
LINE
  8
0
 10
496.864
 11
490.729
 20
-9.89
 21
-9.021
  0
LINE
  8
0
 10
490.729
 11
489.144
 20
-9.021
 21
-8.551
  0
LINE
  8
0
 10
489.144
 11
488.907
 20
-8.551
 21
-10.915
  0
LINE
  8
0
 10
488.907
 11
485.677
 20
-10.915
 21
-21.354
  0
LINE
  8
0
 10
485.677
 11
480.451
 20
-21.354
 21
-30.859
  0
LINE
  8
0
 10
480.451
 11
473.457
 20
-30.859
 21
-39.015
  0
LINE
  8
0
 10
473.457
 11
465
 20
-39.015
 21
-45.466
  0
LINE
  8
0
 10
465
 11
455.451
 20
-45.466
 21
-49.93
  0
LINE
  8
0
 10
455.451
 11
445.226
 20
-49.93
 21
-52.212
  0
LINE
  8
0
 10
445.226
 11
434.774
 20
-52.212
 21
-52.212
  0
LINE
  8
0
 10
434.774
 11
424.549
 20
-52.212
 21
-49.93
  0
LINE
  8
0
 10
424.549
 11
415
 20
-49.93
 21
-45.466
  0
LINE
  8
0
 10
415
 11
406.543
 20
-45.466
 21
-39.015
  0
LINE
  8
0
 10
406.543
 11
399.549
 20
-39.015
 21
-30.859
  0
LINE
  8
0
 10
399.549
 11
394.323
 20
-30.859
 21
-21.354
  0
LINE
  8
0
 10
394.323
 11
391.093
 20
-21.354
 21
-10.915
  0
LINE
  8
0
 10
391.093
 11
390.856
 20
-10.915
 21
-8.551
  0
LINE
  8
0
 10
390.856
 11
389.271
 20
-8.551
 21
-9.021
  0
LINE
  8
0
 10
389.271
 11
383.136
 20
-9.021
 21
-9.89
  0
LINE
  8
0
 10
383.136
 11
376.864
 20
-9.89
 21
-9.89
  0
LINE
  8
0
 10
376.864
 11
370.729
 20
-9.89
 21
-9.021
  0
LINE
  8
0
 10
370.729
 11
365
 20
-9.021
 21
-7.321
  0
LINE
  8
0
 10
365
 11
359.926
 20
-7.321
 21
-4.863
  0
LINE
  8
0
 10
359.926
 11
355.729
 20
-4.863
 21
-1.756
  0
LINE
  8
0
 10
355.729
 11
352.594
 20
-1.756
 21
1.865
  0
LINE
  8
0
 10
352.594
 11
350.656
 20
1.865
 21
5.842
  0
LINE
  8
0
 10
350.656
 11
350
 20
5.842
 21
10
  0
LINE
  8
0
 10
570
 11
570.656
 20
10
 21
14.158
  0
LINE
  8
0
 10
570.656
 11
572.594
 20
14.158
 21
18.135
  0
LINE
  8
0
 10
572.594
 11
575.729
 20
18.135
 21
21.756
  0
LINE
  8
0
 10
575.729
 11
579.926
 20
21.756
 21
24.863
  0
LINE
  8
0
 10
579.926
 11
585
 20
24.863
 21
27.321
  0
LINE
  8
0
 10
585
 11
590.729
 20
27.321
 21
29.021
  0
LINE
  8
0
 10
590.729
 11
592
 20
29.021
 21
29.201
  0
LINE
  8
0
 10
592
 11
592
 20
29.201
 21
25
  0
LINE
  8
0
 10
592
 11
602
 20
25
 21
25
  0
LINE
  8
0
 10
602
 11
602
 20
25
 21
29.89
  0
LINE
  8
0
 10
602
 11
603.136
 20
29.89
 21
29.89
  0
LINE
  8
0
 10
603.136
 11
609.271
 20
29.89
 21
29.021
  0
LINE
  8
0
 10
609.271
 11
615
 20
29.021
 21
27.321
  0
LINE
  8
0
 10
615
 11
617.056
 20
27.321
 21
26.325
  0
LINE
  8
0
 10
617.056
 11
619.549
 20
26.325
 21
30.859
  0
LINE
  8
0
 10
619.549
 11
626.543
 20
30.859
 21
39.015
  0
LINE
  8
0
 10
626.543
 11
632
 20
39.015
 21
43.178
  0
LINE
  8
0
 10
632
 11
632
 20
43.178
 21
37.5
  0
LINE
  8
0
 10
632
 11
629
 20
37.5
 21
37.5
  0
LINE
  8
0
 10
629
 11
629
 20
37.5
 21
31.5
  0
LINE
  8
0
 10
629
 11
632
 20
31.5
 21
31.5
  0
LINE
  8
0
 10
632
 11
632
 20
31.5
 21
30
  0
LINE
  8
0
 10
632
 11
635
 20
30
 21
30
  0
LINE
  8
0
 10
635
 11
635
 20
30
 21
24
  0
LINE
  8
0
 10
635
 11
622.668
 20
24
 21
24
  0
LINE
  8
0
 10
622.668
 11
619.86
 20
24
 21
18.893
  0
LINE
  8
0
 10
619.86
 11
619.416
 20
18.893
 21
19.405
  0
LINE
  8
0
 10
619.416
 11
616.059
 20
19.405
 21
21.89
  0
LINE
  8
0
 10
616.059
 11
612
 20
21.89
 21
23.856
  0
LINE
  8
0
 10
612
 11
611.516
 20
23.856
 21
24
  0
LINE
  8
0
 10
611.516
 11
610
 20
24
 21
24
  0
LINE
  8
0
 10
610
 11
610
 20
24
 21
24.45
  0
LINE
  8
0
 10
610
 11
607.416
 20
24.45
 21
25.217
  0
LINE
  8
0
 10
607.416
 11
605
 20
25.217
 21
25.559
  0
LINE
  8
0
 10
605
 11
605
 20
25.559
 21
22
  0
LINE
  8
0
 10
605
 11
589
 20
22
 21
22
  0
LINE
  8
0
 10
589
 11
589
 20
22
 21
24.153
  0
LINE
  8
0
 10
589
 11
588
 20
24.153
 21
23.856
  0
LINE
  8
0
 10
588
 11
583.941
 20
23.856
 21
21.89
  0
LINE
  8
0
 10
583.941
 11
580.584
 20
21.89
 21
19.405
  0
LINE
  8
0
 10
580.584
 11
578.075
 20
19.405
 21
16.508
  0
LINE
  8
0
 10
578.075
 11
576.524
 20
16.508
 21
13.327
  0
LINE
  8
0
 10
576.524
 11
576
 20
13.327
 21
10
  0
LINE
  8
0
 10
576
 11
576.524
 20
10
 21
6.673
  0
LINE
  8
0
 10
576.524
 11
578.075
 20
6.673
 21
3.492
  0
LINE
  8
0
 10
578.075
 11
580.584
 20
3.492
 21
0.595
  0
LINE
  8
0
 10
580.584
 11
583.941
 20
0.595
 21
-1.89
  0
LINE
  8
0
 10
583.941
 11
588
 20
-1.89
 21
-3.856
  0
LINE
  8
0
 10
588
 11
592.584
 20
-3.856
 21
-5.217
  0
LINE
  8
0
 10
592.584
 11
597.491
 20
-5.217
 21
-5.912
  0
LINE
  8
0
 10
597.491
 11
602.509
 20
-5.912
 21
-5.912
  0
LINE
  8
0
 10
602.509
 11
607.416
 20
-5.912
 21
-5.217
  0
LINE
  8
0
 10
607.416
 11
612
 20
-5.217
 21
-3.856
  0
LINE
  8
0
 10
612
 11
616.059
 20
-3.856
 21
-1.89
  0
LINE
  8
0
 10
616.059
 11
616.18
 20
-1.89
 21
-1.801
  0
LINE
  8
0
 10
616.18
 11
616.962
 20
-1.801
 21
-9.606
  0
LINE
  8
0
 10
616.962
 11
619.804
 20
-9.606
 21
-18.791
  0
LINE
  8
0
 10
619.804
 11
624.403
 20
-18.791
 21
-27.156
  0
LINE
  8
0
 10
624.403
 11
630.558
 20
-27.156
 21
-34.333
  0
LINE
  8
0
 10
630.558
 11
638
 20
-34.333
 21
-40.01
  0
LINE
  8
0
 10
638
 11
646.403
 20
-40.01
 21
-43.939
  0
LINE
  8
0
 10
646.403
 11
655.401
 20
-43.939
 21
-45.947
  0
LINE
  8
0
 10
655.401
 11
664.599
 20
-45.947
 21
-45.947
  0
LINE
  8
0
 10
664.599
 11
673.597
 20
-45.947
 21
-43.939
  0
LINE
  8
0
 10
673.597
 11
682
 20
-43.939
 21
-40.01
  0
LINE
  8
0
 10
682
 11
689.442
 20
-40.01
 21
-34.333
  0
LINE
  8
0
 10
689.442
 11
695.597
 20
-34.333
 21
-27.156
  0
LINE
  8
0
 10
695.597
 11
700.196
 20
-27.156
 21
-18.791
  0
LINE
  8
0
 10
700.196
 11
703.038
 20
-18.791
 21
-9.606
  0
LINE
  8
0
 10
703.038
 11
703.82
 20
-9.606
 21
-1.801
  0
LINE
  8
0
 10
703.82
 11
703.941
 20
-1.801
 21
-1.89
  0
LINE
  8
0
 10
703.941
 11
708
 20
-1.89
 21
-3.856
  0
LINE
  8
0
 10
708
 11
712.584
 20
-3.856
 21
-5.217
  0
LINE
  8
0
 10
712.584
 11
717.491
 20
-5.217
 21
-5.912
  0
LINE
  8
0
 10
717.491
 11
722.509
 20
-5.912
 21
-5.912
  0
LINE
  8
0
 10
722.509
 11
727.416
 20
-5.912
 21
-5.217
  0
LINE
  8
0
 10
727.416
 11
732
 20
-5.217
 21
-3.856
  0
LINE
  8
0
 10
732
 11
736.059
 20
-3.856
 21
-1.89
  0
LINE
  8
0
 10
736.059
 11
739.416
 20
-1.89
 21
0.595
  0
LINE
  8
0
 10
739.416
 11
741.925
 20
0.595
 21
3.492
  0
LINE
  8
0
 10
741.925
 11
743.476
 20
3.492
 21
6.673
  0
LINE
  8
0
 10
743.476
 11
744
 20
6.673
 21
10
  0
LINE
  8
0
 10
744
 11
743.476
 20
10
 21
13.327
  0
LINE
  8
0
 10
743.476
 11
741.925
 20
13.327
 21
16.508
  0
LINE
  8
0
 10
741.925
 11
739.416
 20
16.508
 21
19.405
  0
LINE
  8
0
 10
739.416
 11
736.059
 20
19.405
 21
21.89
  0
LINE
  8
0
 10
736.059
 11
732
 20
21.89
 21
23.856
  0
LINE
  8
0
 10
732
 11
731
 20
23.856
 21
24.153
  0
LINE
  8
0
 10
731
 11
731
 20
24.153
 21
22
  0
LINE
  8
0
 10
731
 11
715
 20
22
 21
22
  0
LINE
  8
0
 10
715
 11
715
 20
22
 21
25.559
  0
LINE
  8
0
 10
715
 11
712.584
 20
25.559
 21
25.217
  0
LINE
  8
0
 10
712.584
 11
710
 20
25.217
 21
24.45
  0
LINE
  8
0
 10
710
 11
710
 20
24.45
 21
24
  0
LINE
  8
0
 10
710
 11
708.484
 20
24
 21
24
  0
LINE
  8
0
 10
708.484
 11
708
 20
24
 21
23.856
  0
LINE
  8
0
 10
708
 11
703.941
 20
23.856
 21
21.89
  0
LINE
  8
0
 10
703.941
 11
700.584
 20
21.89
 21
19.405
  0
LINE
  8
0
 10
700.584
 11
700.14
 20
19.405
 21
18.893
  0
LINE
  8
0
 10
700.14
 11
697.332
 20
18.893
 21
24
  0
LINE
  8
0
 10
697.332
 11
685
 20
24
 21
24
  0
LINE
  8
0
 10
685
 11
685
 20
24
 21
30
  0
LINE
  8
0
 10
685
 11
688
 20
30
 21
30
  0
LINE
  8
0
 10
688
 11
688
 20
30
 21
31.5
  0
LINE
  8
0
 10
688
 11
691
 20
31.5
 21
31.5
  0
LINE
  8
0
 10
691
 11
691
 20
31.5
 21
37.5
  0
LINE
  8
0
 10
691
 11
688
 20
37.5
 21
37.5
  0
LINE
  8
0
 10
688
 11
688
 20
37.5
 21
43.178
  0
LINE
  8
0
 10
688
 11
693.457
 20
43.178
 21
39.015
  0
LINE
  8
0
 10
693.457
 11
700.451
 20
39.015
 21
30.859
  0
LINE
  8
0
 10
700.451
 11
702.944
 20
30.859
 21
26.325
  0
LINE
  8
0
 10
702.944
 11
705
 20
26.325
 21
27.321
  0
LINE
  8
0
 10
705
 11
710.729
 20
27.321
 21
29.021
  0
LINE
  8
0
 10
710.729
 11
716.864
 20
29.021
 21
29.89
  0
LINE
  8
0
 10
716.864
 11
718
 20
29.89
 21
29.89
  0
LINE
  8
0
 10
718
 11
718
 20
29.89
 21
25
  0
LINE
  8
0
 10
718
 11
728
 20
25
 21
25
  0
LINE
  8
0
 10
728
 11
728
 20
25
 21
29.201
  0
LINE
  8
0
 10
728
 11
729.271
 20
29.201
 21
29.021
  0
LINE
  8
0
 10
729.271
 11
735
 20
29.021
 21
27.321
  0
LINE
  8
0
 10
735
 11
740.074
 20
27.321
 21
24.863
  0
LINE
  8
0
 10
740.074
 11
744.271
 20
24.863
 21
21.756
  0
LINE
  8
0
 10
744.271
 11
747.406
 20
21.756
 21
18.135
  0
LINE
  8
0
 10
747.406
 11
749.344
 20
18.135
 21
14.158
  0
LINE
  8
0
 10
749.344
 11
750
 20
14.158
 21
10
  0
LINE
  8
0
 10
750
 11
749.344
 20
10
 21
5.842
  0
LINE
  8
0
 10
749.344
 11
747.406
 20
5.842
 21
1.865
  0
LINE
  8
0
 10
747.406
 11
744.271
 20
1.865
 21
-1.756
  0
LINE
  8
0
 10
744.271
 11
740.074
 20
-1.756
 21
-4.863
  0
LINE
  8
0
 10
740.074
 11
735
 20
-4.863
 21
-7.321
  0
LINE
  8
0
 10
735
 11
729.271
 20
-7.321
 21
-9.021
  0
LINE
  8
0
 10
729.271
 11
723.136
 20
-9.021
 21
-9.89
  0
LINE
  8
0
 10
723.136
 11
716.864
 20
-9.89
 21
-9.89
  0
LINE
  8
0
 10
716.864
 11
710.729
 20
-9.89
 21
-9.021
  0
LINE
  8
0
 10
710.729
 11
709.144
 20
-9.021
 21
-8.551
  0
LINE
  8
0
 10
709.144
 11
708.907
 20
-8.551
 21
-10.915
  0
LINE
  8
0
 10
708.907
 11
705.677
 20
-10.915
 21
-21.354
  0
LINE
  8
0
 10
705.677
 11
700.451
 20
-21.354
 21
-30.859
  0
LINE
  8
0
 10
700.451
 11
693.457
 20
-30.859
 21
-39.015
  0
LINE
  8
0
 10
693.457
 11
685
 20
-39.015
 21
-45.466
  0
LINE
  8
0
 10
685
 11
675.451
 20
-45.466
 21
-49.93
  0
LINE
  8
0
 10
675.451
 11
665.226
 20
-49.93
 21
-52.212
  0
LINE
  8
0
 10
665.226
 11
654.774
 20
-52.212
 21
-52.212
  0
LINE
  8
0
 10
654.774
 11
644.549
 20
-52.212
 21
-49.93
  0
LINE
  8
0
 10
644.549
 11
635
 20
-49.93
 21
-45.466
  0
LINE
  8
0
 10
635
 11
626.543
 20
-45.466
 21
-39.015
  0
LINE
  8
0
 10
626.543
 11
619.549
 20
-39.015
 21
-30.859
  0
LINE
  8
0
 10
619.549
 11
614.323
 20
-30.859
 21
-21.354
  0
LINE
  8
0
 10
614.323
 11
611.093
 20
-21.354
 21
-10.915
  0
LINE
  8
0
 10
611.093
 11
610.856
 20
-10.915
 21
-8.551
  0
LINE
  8
0
 10
610.856
 11
609.271
 20
-8.551
 21
-9.021
  0
LINE
  8
0
 10
609.271
 11
603.136
 20
-9.021
 21
-9.89
  0
LINE
  8
0
 10
603.136
 11
596.864
 20
-9.89
 21
-9.89
  0
LINE
  8
0
 10
596.864
 11
590.729
 20
-9.89
 21
-9.021
  0
LINE
  8
0
 10
590.729
 11
585
 20
-9.021
 21
-7.321
  0
LINE
  8
0
 10
585
 11
579.926
 20
-7.321
 21
-4.863
  0
LINE
  8
0
 10
579.926
 11
575.729
 20
-4.863
 21
-1.756
  0
LINE
  8
0
 10
575.729
 11
572.594
 20
-1.756
 21
1.865
  0
LINE
  8
0
 10
572.594
 11
570.656
 20
1.865
 21
5.842
  0
LINE
  8
0
 10
570.656
 11
570
 20
5.842
 21
10
  0
LINE
  8
0
 10
790
 11
790.656
 20
10
 21
14.158
  0
LINE
  8
0
 10
790.656
 11
792.594
 20
14.158
 21
18.135
  0
LINE
  8
0
 10
792.594
 11
795.729
 20
18.135
 21
21.756
  0
LINE
  8
0
 10
795.729
 11
799.926
 20
21.756
 21
24.863
  0
LINE
  8
0
 10
799.926
 11
805
 20
24.863
 21
27.321
  0
LINE
  8
0
 10
805
 11
810.729
 20
27.321
 21
29.021
  0
LINE
  8
0
 10
810.729
 11
816.864
 20
29.021
 21
29.89
  0
LINE
  8
0
 10
816.864
 11
823.136
 20
29.89
 21
29.89
  0
LINE
  8
0
 10
823.136
 11
829.271
 20
29.89
 21
29.021
  0
LINE
  8
0
 10
829.271
 11
835
 20
29.021
 21
27.321
  0
LINE
  8
0
 10
835
 11
837.056
 20
27.321
 21
26.325
  0
LINE
  8
0
 10
837.056
 11
839.549
 20
26.325
 21
30.859
  0
LINE
  8
0
 10
839.549
 11
846.543
 20
30.859
 21
39.015
  0
LINE
  8
0
 10
846.543
 11
852
 20
39.015
 21
43.178
  0
LINE
  8
0
 10
852
 11
852
 20
43.178
 21
30
  0
LINE
  8
0
 10
852
 11
855
 20
30
 21
30
  0
LINE
  8
0
 10
855
 11
855
 20
30
 21
45.466
  0
LINE
  8
0
 10
855
 11
864.549
 20
45.466
 21
49.93
  0
LINE
  8
0
 10
864.549
 11
874.774
 20
49.93
 21
52.212
  0
LINE
  8
0
 10
874.774
 11
885.226
 20
52.212
 21
52.212
  0
LINE
  8
0
 10
885.226
 11
895.451
 20
52.212
 21
49.93
  0
LINE
  8
0
 10
895.451
 11
905
 20
49.93
 21
45.466
  0
LINE
  8
0
 10
905
 11
905
 20
45.466
 21
30
  0
LINE
  8
0
 10
905
 11
908
 20
30
 21
30
  0
LINE
  8
0
 10
908
 11
908
 20
30
 21
43.178
  0
LINE
  8
0
 10
908
 11
913.457
 20
43.178
 21
39.015
  0
LINE
  8
0
 10
913.457
 11
920.451
 20
39.015
 21
30.859
  0
LINE
  8
0
 10
920.451
 11
922.944
 20
30.859
 21
26.325
  0
LINE
  8
0
 10
922.944
 11
925
 20
26.325
 21
27.321
  0
LINE
  8
0
 10
925
 11
930.729
 20
27.321
 21
29.021
  0
LINE
  8
0
 10
930.729
 11
936.864
 20
29.021
 21
29.89
  0
LINE
  8
0
 10
936.864
 11
943.136
 20
29.89
 21
29.89
  0
LINE
  8
0
 10
943.136
 11
949.271
 20
29.89
 21
29.021
  0
LINE
  8
0
 10
949.271
 11
955
 20
29.021
 21
27.321
  0
LINE
  8
0
 10
955
 11
960.074
 20
27.321
 21
24.863
  0
LINE
  8
0
 10
960.074
 11
964.271
 20
24.863
 21
21.756
  0
LINE
  8
0
 10
964.271
 11
967.406
 20
21.756
 21
18.135
  0
LINE
  8
0
 10
967.406
 11
969.344
 20
18.135
 21
14.158
  0
LINE
  8
0
 10
969.344
 11
970
 20
14.158
 21
10
  0
LINE
  8
0
 10
970
 11
969.344
 20
10
 21
5.842
  0
LINE
  8
0
 10
969.344
 11
967.406
 20
5.842
 21
1.865
  0
LINE
  8
0
 10
967.406
 11
964.271
 20
1.865
 21
-1.756
  0
LINE
  8
0
 10
964.271
 11
960.074
 20
-1.756
 21
-4.863
  0
LINE
  8
0
 10
960.074
 11
955
 20
-4.863
 21
-7.321
  0
LINE
  8
0
 10
955
 11
949.271
 20
-7.321
 21
-9.021
  0
LINE
  8
0
 10
949.271
 11
943.136
 20
-9.021
 21
-9.89
  0
LINE
  8
0
 10
943.136
 11
936.864
 20
-9.89
 21
-9.89
  0
LINE
  8
0
 10
936.864
 11
930.729
 20
-9.89
 21
-9.021
  0
LINE
  8
0
 10
930.729
 11
929.144
 20
-9.021
 21
-8.551
  0
LINE
  8
0
 10
929.144
 11
928.907
 20
-8.551
 21
-10.915
  0
LINE
  8
0
 10
928.907
 11
925.677
 20
-10.915
 21
-21.354
  0
LINE
  8
0
 10
925.677
 11
920.451
 20
-21.354
 21
-30.859
  0
LINE
  8
0
 10
920.451
 11
913.457
 20
-30.859
 21
-39.015
  0
LINE
  8
0
 10
913.457
 11
905
 20
-39.015
 21
-45.466
  0
LINE
  8
0
 10
905
 11
895.451
 20
-45.466
 21
-49.93
  0
LINE
  8
0
 10
895.451
 11
885.226
 20
-49.93
 21
-52.212
  0
LINE
  8
0
 10
885.226
 11
874.774
 20
-52.212
 21
-52.212
  0
LINE
  8
0
 10
874.774
 11
864.549
 20
-52.212
 21
-49.93
  0
LINE
  8
0
 10
864.549
 11
855
 20
-49.93
 21
-45.466
  0
LINE
  8
0
 10
855
 11
846.543
 20
-45.466
 21
-39.015
  0
LINE
  8
0
 10
846.543
 11
839.549
 20
-39.015
 21
-30.859
  0
LINE
  8
0
 10
839.549
 11
834.323
 20
-30.859
 21
-21.354
  0
LINE
  8
0
 10
834.323
 11
831.093
 20
-21.354
 21
-10.915
  0
LINE
  8
0
 10
831.093
 11
830.856
 20
-10.915
 21
-8.551
  0
LINE
  8
0
 10
830.856
 11
829.271
 20
-8.551
 21
-9.021
  0
LINE
  8
0
 10
829.271
 11
823.136
 20
-9.021
 21
-9.89
  0
LINE
  8
0
 10
823.136
 11
816.864
 20
-9.89
 21
-9.89
  0
LINE
  8
0
 10
816.864
 11
810.729
 20
-9.89
 21
-9.021
  0
LINE
  8
0
 10
810.729
 11
805
 20
-9.021
 21
-7.321
  0
LINE
  8
0
 10
805
 11
799.926
 20
-7.321
 21
-4.863
  0
LINE
  8
0
 10
799.926
 11
795.729
 20
-4.863
 21
-1.756
  0
LINE
  8
0
 10
795.729
 11
792.594
 20
-1.756
 21
1.865
  0
LINE
  8
0
 10
792.594
 11
790.656
 20
1.865
 21
5.842
  0
LINE
  8
0
 10
790.656
 11
790
 20
5.842
 21
10
  0
LINE
  8
0
 10
796
 11
796.524
 20
10
 21
13.327
  0
LINE
  8
0
 10
796.524
 11
798.075
 20
13.327
 21
16.508
  0
LINE
  8
0
 10
798.075
 11
800.584
 20
16.508
 21
19.405
  0
LINE
  8
0
 10
800.584
 11
803.941
 20
19.405
 21
21.89
  0
LINE
  8
0
 10
803.941
 11
808
 20
21.89
 21
23.856
  0
LINE
  8
0
 10
808
 11
812.584
 20
23.856
 21
25.217
  0
LINE
  8
0
 10
812.584
 11
817.491
 20
25.217
 21
25.912
  0
LINE
  8
0
 10
817.491
 11
822.509
 20
25.912
 21
25.912
  0
LINE
  8
0
 10
822.509
 11
827.416
 20
25.912
 21
25.217
  0
LINE
  8
0
 10
827.416
 11
830
 20
25.217
 21
24.45
  0
LINE
  8
0
 10
830
 11
830
 20
24.45
 21
24
  0
LINE
  8
0
 10
830
 11
831.516
 20
24
 21
24
  0
LINE
  8
0
 10
831.516
 11
832
 20
24
 21
23.856
  0
LINE
  8
0
 10
832
 11
836.059
 20
23.856
 21
21.89
  0
LINE
  8
0
 10
836.059
 11
839.416
 20
21.89
 21
19.405
  0
LINE
  8
0
 10
839.416
 11
839.86
 20
19.405
 21
18.893
  0
LINE
  8
0
 10
839.86
 11
842.668
 20
18.893
 21
24
  0
LINE
  8
0
 10
842.668
 11
917.332
 20
24
 21
24
  0
LINE
  8
0
 10
917.332
 11
920.14
 20
24
 21
18.893
  0
LINE
  8
0
 10
920.14
 11
920.584
 20
18.893
 21
19.405
  0
LINE
  8
0
 10
920.584
 11
923.941
 20
19.405
 21
21.89
  0
LINE
  8
0
 10
923.941
 11
928
 20
21.89
 21
23.856
  0
LINE
  8
0
 10
928
 11
928.484
 20
23.856
 21
24
  0
LINE
  8
0
 10
928.484
 11
930
 20
24
 21
24
  0
LINE
  8
0
 10
930
 11
930
 20
24
 21
24.45
  0
LINE
  8
0
 10
930
 11
932.584
 20
24.45
 21
25.217
  0
LINE
  8
0
 10
932.584
 11
937.491
 20
25.217
 21
25.912
  0
LINE
  8
0
 10
937.491
 11
942.509
 20
25.912
 21
25.912
  0
LINE
  8
0
 10
942.509
 11
947.416
 20
25.912
 21
25.217
  0
LINE
  8
0
 10
947.416
 11
952
 20
25.217
 21
23.856
  0
LINE
  8
0
 10
952
 11
956.059
 20
23.856
 21
21.89
  0
LINE
  8
0
 10
956.059
 11
959.416
 20
21.89
 21
19.405
  0
LINE
  8
0
 10
959.416
 11
961.925
 20
19.405
 21
16.508
  0
LINE
  8
0
 10
961.925
 11
963.476
 20
16.508
 21
13.327
  0
LINE
  8
0
 10
963.476
 11
964
 20
13.327
 21
10
  0
LINE
  8
0
 10
964
 11
963.476
 20
10
 21
6.673
  0
LINE
  8
0
 10
963.476
 11
961.925
 20
6.673
 21
3.492
  0
LINE
  8
0
 10
961.925
 11
959.416
 20
3.492
 21
0.595
  0
LINE
  8
0
 10
959.416
 11
956.059
 20
0.595
 21
-1.89
  0
LINE
  8
0
 10
956.059
 11
952
 20
-1.89
 21
-3.856
  0
LINE
  8
0
 10
952
 11
947.416
 20
-3.856
 21
-5.217
  0
LINE
  8
0
 10
947.416
 11
942.509
 20
-5.217
 21
-5.912
  0
LINE
  8
0
 10
942.509
 11
937.491
 20
-5.912
 21
-5.912
  0
LINE
  8
0
 10
937.491
 11
932.584
 20
-5.912
 21
-5.217
  0
LINE
  8
0
 10
932.584
 11
928
 20
-5.217
 21
-3.856
  0
LINE
  8
0
 10
928
 11
923.941
 20
-3.856
 21
-1.89
  0
LINE
  8
0
 10
923.941
 11
923.82
 20
-1.89
 21
-1.801
  0
LINE
  8
0
 10
923.82
 11
923.038
 20
-1.801
 21
-9.606
  0
LINE
  8
0
 10
923.038
 11
920.196
 20
-9.606
 21
-18.791
  0
LINE
  8
0
 10
920.196
 11
915.597
 20
-18.791
 21
-27.156
  0
LINE
  8
0
 10
915.597
 11
909.442
 20
-27.156
 21
-34.333
  0
LINE
  8
0
 10
909.442
 11
902
 20
-34.333
 21
-40.01
  0
LINE
  8
0
 10
902
 11
893.597
 20
-40.01
 21
-43.939
  0
LINE
  8
0
 10
893.597
 11
884.599
 20
-43.939
 21
-45.947
  0
LINE
  8
0
 10
884.599
 11
875.401
 20
-45.947
 21
-45.947
  0
LINE
  8
0
 10
875.401
 11
866.403
 20
-45.947
 21
-43.939
  0
LINE
  8
0
 10
866.403
 11
858
 20
-43.939
 21
-40.01
  0
LINE
  8
0
 10
858
 11
850.558
 20
-40.01
 21
-34.333
  0
LINE
  8
0
 10
850.558
 11
844.403
 20
-34.333
 21
-27.156
  0
LINE
  8
0
 10
844.403
 11
839.804
 20
-27.156
 21
-18.791
  0
LINE
  8
0
 10
839.804
 11
836.962
 20
-18.791
 21
-9.606
  0
LINE
  8
0
 10
836.962
 11
836.18
 20
-9.606
 21
-1.801
  0
LINE
  8
0
 10
836.18
 11
836.059
 20
-1.801
 21
-1.89
  0
LINE
  8
0
 10
836.059
 11
832
 20
-1.89
 21
-3.856
  0
LINE
  8
0
 10
832
 11
827.416
 20
-3.856
 21
-5.217
  0
LINE
  8
0
 10
827.416
 11
822.509
 20
-5.217
 21
-5.912
  0
LINE
  8
0
 10
822.509
 11
817.491
 20
-5.912
 21
-5.912
  0
LINE
  8
0
 10
817.491
 11
812.584
 20
-5.912
 21
-5.217
  0
LINE
  8
0
 10
812.584
 11
808
 20
-5.217
 21
-3.856
  0
LINE
  8
0
 10
808
 11
803.941
 20
-3.856
 21
-1.89
  0
LINE
  8
0
 10
803.941
 11
800.584
 20
-1.89
 21
0.595
  0
LINE
  8
0
 10
800.584
 11
798.075
 20
0.595
 21
3.492
  0
LINE
  8
0
 10
798.075
 11
796.524
 20
3.492
 21
6.673
  0
LINE
  8
0
 10
796.524
 11
796
 20
6.673
 21
10
  0
LINE
  8
0
 10
876.5
 11
878.25
 20
34.5
 21
37.531
  0
LINE
  8
0
 10
878.25
 11
881.75
 20
37.531
 21
37.531
  0
LINE
  8
0
 10
881.75
 11
883.5
 20
37.531
 21
34.5
  0
LINE
  8
0
 10
883.5
 11
881.75
 20
34.5
 21
31.469
  0
LINE
  8
0
 10
881.75
 11
878.25
 20
31.469
 21
31.469
  0
LINE
  8
0
 10
878.25
 11
876.5
 20
31.469
 21
34.5
  0
LINE
  8
0
 10
1010
 11
1010.66
 20
10
 21
14.158
  0
LINE
  8
0
 10
1010.66
 11
1012.59
 20
14.158
 21
18.135
  0
LINE
  8
0
 10
1012.59
 11
1015.73
 20
18.135
 21
21.756
  0
LINE
  8
0
 10
1015.73
 11
1019.93
 20
21.756
 21
24.863
  0
LINE
  8
0
 10
1019.93
 11
1025
 20
24.863
 21
27.321
  0
LINE
  8
0
 10
1025
 11
1030.73
 20
27.321
 21
29.021
  0
LINE
  8
0
 10
1030.73
 11
1036.86
 20
29.021
 21
29.89
  0
LINE
  8
0
 10
1036.86
 11
1043.14
 20
29.89
 21
29.89
  0
LINE
  8
0
 10
1043.14
 11
1049.27
 20
29.89
 21
29.021
  0
LINE
  8
0
 10
1049.27
 11
1055
 20
29.021
 21
27.321
  0
LINE
  8
0
 10
1055
 11
1057.06
 20
27.321
 21
26.325
  0
LINE
  8
0
 10
1057.06
 11
1059.55
 20
26.325
 21
30.859
  0
LINE
  8
0
 10
1059.55
 11
1066.54
 20
30.859
 21
39.015
  0
LINE
  8
0
 10
1066.54
 11
1072
 20
39.015
 21
43.178
  0
LINE
  8
0
 10
1072
 11
1072
 20
43.178
 21
30
  0
LINE
  8
0
 10
1072
 11
1075
 20
30
 21
30
  0
LINE
  8
0
 10
1075
 11
1075
 20
30
 21
45.466
  0
LINE
  8
0
 10
1075
 11
1084.55
 20
45.466
 21
49.93
  0
LINE
  8
0
 10
1084.55
 11
1094.77
 20
49.93
 21
52.212
  0
LINE
  8
0
 10
1094.77
 11
1105.23
 20
52.212
 21
52.212
  0
LINE
  8
0
 10
1105.23
 11
1115.45
 20
52.212
 21
49.93
  0
LINE
  8
0
 10
1115.45
 11
1125
 20
49.93
 21
45.466
  0
LINE
  8
0
 10
1125
 11
1125
 20
45.466
 21
30
  0
LINE
  8
0
 10
1125
 11
1128
 20
30
 21
30
  0
LINE
  8
0
 10
1128
 11
1128
 20
30
 21
43.178
  0
LINE
  8
0
 10
1128
 11
1133.46
 20
43.178
 21
39.015
  0
LINE
  8
0
 10
1133.46
 11
1140.45
 20
39.015
 21
30.859
  0
LINE
  8
0
 10
1140.45
 11
1142.94
 20
30.859
 21
26.325
  0
LINE
  8
0
 10
1142.94
 11
1145
 20
26.325
 21
27.321
  0
LINE
  8
0
 10
1145
 11
1150.73
 20
27.321
 21
29.021
  0
LINE
  8
0
 10
1150.73
 11
1156.86
 20
29.021
 21
29.89
  0
LINE
  8
0
 10
1156.86
 11
1163.14
 20
29.89
 21
29.89
  0
LINE
  8
0
 10
1163.14
 11
1169.27
 20
29.89
 21
29.021
  0
LINE
  8
0
 10
1169.27
 11
1175
 20
29.021
 21
27.321
  0
LINE
  8
0
 10
1175
 11
1180.07
 20
27.321
 21
24.863
  0
LINE
  8
0
 10
1180.07
 11
1184.27
 20
24.863
 21
21.756
  0
LINE
  8
0
 10
1184.27
 11
1187.41
 20
21.756
 21
18.135
  0
LINE
  8
0
 10
1187.41
 11
1189.34
 20
18.135
 21
14.158
  0
LINE
  8
0
 10
1189.34
 11
1190
 20
14.158
 21
10
  0
LINE
  8
0
 10
1190
 11
1189.34
 20
10
 21
5.842
  0
LINE
  8
0
 10
1189.34
 11
1187.41
 20
5.842
 21
1.865
  0
LINE
  8
0
 10
1187.41
 11
1184.27
 20
1.865
 21
-1.756
  0
LINE
  8
0
 10
1184.27
 11
1180.07
 20
-1.756
 21
-4.863
  0
LINE
  8
0
 10
1180.07
 11
1175
 20
-4.863
 21
-7.321
  0
LINE
  8
0
 10
1175
 11
1169.27
 20
-7.321
 21
-9.021
  0
LINE
  8
0
 10
1169.27
 11
1163.14
 20
-9.021
 21
-9.89
  0
LINE
  8
0
 10
1163.14
 11
1156.86
 20
-9.89
 21
-9.89
  0
LINE
  8
0
 10
1156.86
 11
1150.73
 20
-9.89
 21
-9.021
  0
LINE
  8
0
 10
1150.73
 11
1149.14
 20
-9.021
 21
-8.551
  0
LINE
  8
0
 10
1149.14
 11
1148.91
 20
-8.551
 21
-10.915
  0
LINE
  8
0
 10
1148.91
 11
1145.68
 20
-10.915
 21
-21.354
  0
LINE
  8
0
 10
1145.68
 11
1140.45
 20
-21.354
 21
-30.859
  0
LINE
  8
0
 10
1140.45
 11
1133.46
 20
-30.859
 21
-39.015
  0
LINE
  8
0
 10
1133.46
 11
1125
 20
-39.015
 21
-45.466
  0
LINE
  8
0
 10
1125
 11
1115.45
 20
-45.466
 21
-49.93
  0
LINE
  8
0
 10
1115.45
 11
1105.23
 20
-49.93
 21
-52.212
  0
LINE
  8
0
 10
1105.23
 11
1094.77
 20
-52.212
 21
-52.212
  0
LINE
  8
0
 10
1094.77
 11
1084.55
 20
-52.212
 21
-49.93
  0
LINE
  8
0
 10
1084.55
 11
1075
 20
-49.93
 21
-45.466
  0
LINE
  8
0
 10
1075
 11
1066.54
 20
-45.466
 21
-39.015
  0
LINE
  8
0
 10
1066.54
 11
1059.55
 20
-39.015
 21
-30.859
  0
LINE
  8
0
 10
1059.55
 11
1054.32
 20
-30.859
 21
-21.354
  0
LINE
  8
0
 10
1054.32
 11
1051.09
 20
-21.354
 21
-10.915
  0
LINE
  8
0
 10
1051.09
 11
1050.86
 20
-10.915
 21
-8.551
  0
LINE
  8
0
 10
1050.86
 11
1049.27
 20
-8.551
 21
-9.021
  0
LINE
  8
0
 10
1049.27
 11
1043.14
 20
-9.021
 21
-9.89
  0
LINE
  8
0
 10
1043.14
 11
1036.86
 20
-9.89
 21
-9.89
  0
LINE
  8
0
 10
1036.86
 11
1030.73
 20
-9.89
 21
-9.021
  0
LINE
  8
0
 10
1030.73
 11
1025
 20
-9.021
 21
-7.321
  0
LINE
  8
0
 10
1025
 11
1019.93
 20
-7.321
 21
-4.863
  0
LINE
  8
0
 10
1019.93
 11
1015.73
 20
-4.863
 21
-1.756
  0
LINE
  8
0
 10
1015.73
 11
1012.59
 20
-1.756
 21
1.865
  0
LINE
  8
0
 10
1012.59
 11
1010.66
 20
1.865
 21
5.842
  0
LINE
  8
0
 10
1010.66
 11
1010
 20
5.842
 21
10
  0
LINE
  8
0
 10
1016
 11
1016.52
 20
10
 21
13.327
  0
LINE
  8
0
 10
1016.52
 11
1018.08
 20
13.327
 21
16.508
  0
LINE
  8
0
 10
1018.08
 11
1020.58
 20
16.508
 21
19.405
  0
LINE
  8
0
 10
1020.58
 11
1023.94
 20
19.405
 21
21.89
  0
LINE
  8
0
 10
1023.94
 11
1028
 20
21.89
 21
23.856
  0
LINE
  8
0
 10
1028
 11
1032.58
 20
23.856
 21
25.217
  0
LINE
  8
0
 10
1032.58
 11
1037.49
 20
25.217
 21
25.912
  0
LINE
  8
0
 10
1037.49
 11
1042.51
 20
25.912
 21
25.912
  0
LINE
  8
0
 10
1042.51
 11
1047.42
 20
25.912
 21
25.217
  0
LINE
  8
0
 10
1047.42
 11
1050
 20
25.217
 21
24.45
  0
LINE
  8
0
 10
1050
 11
1050
 20
24.45
 21
24
  0
LINE
  8
0
 10
1050
 11
1051.52
 20
24
 21
24
  0
LINE
  8
0
 10
1051.52
 11
1052
 20
24
 21
23.856
  0
LINE
  8
0
 10
1052
 11
1056.06
 20
23.856
 21
21.89
  0
LINE
  8
0
 10
1056.06
 11
1059.42
 20
21.89
 21
19.405
  0
LINE
  8
0
 10
1059.42
 11
1059.86
 20
19.405
 21
18.893
  0
LINE
  8
0
 10
1059.86
 11
1062.67
 20
18.893
 21
24
  0
LINE
  8
0
 10
1062.67
 11
1137.33
 20
24
 21
24
  0
LINE
  8
0
 10
1137.33
 11
1140.14
 20
24
 21
18.893
  0
LINE
  8
0
 10
1140.14
 11
1140.58
 20
18.893
 21
19.405
  0
LINE
  8
0
 10
1140.58
 11
1143.94
 20
19.405
 21
21.89
  0
LINE
  8
0
 10
1143.94
 11
1148
 20
21.89
 21
23.856
  0
LINE
  8
0
 10
1148
 11
1148.48
 20
23.856
 21
24
  0
LINE
  8
0
 10
1148.48
 11
1150
 20
24
 21
24
  0
LINE
  8
0
 10
1150
 11
1150
 20
24
 21
24.45
  0
LINE
  8
0
 10
1150
 11
1152.58
 20
24.45
 21
25.217
  0
LINE
  8
0
 10
1152.58
 11
1157.49
 20
25.217
 21
25.912
  0
LINE
  8
0
 10
1157.49
 11
1162.51
 20
25.912
 21
25.912
  0
LINE
  8
0
 10
1162.51
 11
1167.42
 20
25.912
 21
25.217
  0
LINE
  8
0
 10
1167.42
 11
1172
 20
25.217
 21
23.856
  0
LINE
  8
0
 10
1172
 11
1176.06
 20
23.856
 21
21.89
  0
LINE
  8
0
 10
1176.06
 11
1179.42
 20
21.89
 21
19.405
  0
LINE
  8
0
 10
1179.42
 11
1181.92
 20
19.405
 21
16.508
  0
LINE
  8
0
 10
1181.92
 11
1183.48
 20
16.508
 21
13.327
  0
LINE
  8
0
 10
1183.48
 11
1184
 20
13.327
 21
10
  0
LINE
  8
0
 10
1184
 11
1183.48
 20
10
 21
6.673
  0
LINE
  8
0
 10
1183.48
 11
1181.92
 20
6.673
 21
3.492
  0
LINE
  8
0
 10
1181.92
 11
1179.42
 20
3.492
 21
0.595
  0
LINE
  8
0
 10
1179.42
 11
1176.06
 20
0.595
 21
-1.89
  0
LINE
  8
0
 10
1176.06
 11
1172
 20
-1.89
 21
-3.856
  0
LINE
  8
0
 10
1172
 11
1167.42
 20
-3.856
 21
-5.217
  0
LINE
  8
0
 10
1167.42
 11
1162.51
 20
-5.217
 21
-5.912
  0
LINE
  8
0
 10
1162.51
 11
1157.49
 20
-5.912
 21
-5.912
  0
LINE
  8
0
 10
1157.49
 11
1152.58
 20
-5.912
 21
-5.217
  0
LINE
  8
0
 10
1152.58
 11
1148
 20
-5.217
 21
-3.856
  0
LINE
  8
0
 10
1148
 11
1143.94
 20
-3.856
 21
-1.89
  0
LINE
  8
0
 10
1143.94
 11
1143.82
 20
-1.89
 21
-1.801
  0
LINE
  8
0
 10
1143.82
 11
1143.04
 20
-1.801
 21
-9.606
  0
LINE
  8
0
 10
1143.04
 11
1140.2
 20
-9.606
 21
-18.791
  0
LINE
  8
0
 10
1140.2
 11
1135.6
 20
-18.791
 21
-27.156
  0
LINE
  8
0
 10
1135.6
 11
1129.44
 20
-27.156
 21
-34.333
  0
LINE
  8
0
 10
1129.44
 11
1122
 20
-34.333
 21
-40.01
  0
LINE
  8
0
 10
1122
 11
1113.6
 20
-40.01
 21
-43.939
  0
LINE
  8
0
 10
1113.6
 11
1104.6
 20
-43.939
 21
-45.947
  0
LINE
  8
0
 10
1104.6
 11
1095.4
 20
-45.947
 21
-45.947
  0
LINE
  8
0
 10
1095.4
 11
1086.4
 20
-45.947
 21
-43.939
  0
LINE
  8
0
 10
1086.4
 11
1078
 20
-43.939
 21
-40.01
  0
LINE
  8
0
 10
1078
 11
1070.56
 20
-40.01
 21
-34.333
  0
LINE
  8
0
 10
1070.56
 11
1064.4
 20
-34.333
 21
-27.156
  0
LINE
  8
0
 10
1064.4
 11
1059.8
 20
-27.156
 21
-18.791
  0
LINE
  8
0
 10
1059.8
 11
1056.96
 20
-18.791
 21
-9.606
  0
LINE
  8
0
 10
1056.96
 11
1056.18
 20
-9.606
 21
-1.801
  0
LINE
  8
0
 10
1056.18
 11
1056.06
 20
-1.801
 21
-1.89
  0
LINE
  8
0
 10
1056.06
 11
1052
 20
-1.89
 21
-3.856
  0
LINE
  8
0
 10
1052
 11
1047.42
 20
-3.856
 21
-5.217
  0
LINE
  8
0
 10
1047.42
 11
1042.51
 20
-5.217
 21
-5.912
  0
LINE
  8
0
 10
1042.51
 11
1037.49
 20
-5.912
 21
-5.912
  0
LINE
  8
0
 10
1037.49
 11
1032.58
 20
-5.912
 21
-5.217
  0
LINE
  8
0
 10
1032.58
 11
1028
 20
-5.217
 21
-3.856
  0
LINE
  8
0
 10
1028
 11
1023.94
 20
-3.856
 21
-1.89
  0
LINE
  8
0
 10
1023.94
 11
1020.58
 20
-1.89
 21
0.595
  0
LINE
  8
0
 10
1020.58
 11
1018.08
 20
0.595
 21
3.492
  0
LINE
  8
0
 10
1018.08
 11
1016.52
 20
3.492
 21
6.673
  0
LINE
  8
0
 10
1016.52
 11
1016
 20
6.673
 21
10
  0
LINE
  8
0
 10
1098.5
 11
1098.61
 20
34.5
 21
35.074
  0
LINE
  8
0
 10
1098.61
 11
1098.94
 20
35.074
 21
35.561
  0
LINE
  8
0
 10
1098.94
 11
1099.43
 20
35.561
 21
35.886
  0
LINE
  8
0
 10
1099.43
 11
1100
 20
35.886
 21
36
  0
LINE
  8
0
 10
1100
 11
1100.57
 20
36
 21
35.886
  0
LINE
  8
0
 10
1100.57
 11
1101.06
 20
35.886
 21
35.561
  0
LINE
  8
0
 10
1101.06
 11
1101.39
 20
35.561
 21
35.074
  0
LINE
  8
0
 10
1101.39
 11
1101.5
 20
35.074
 21
34.5
  0
LINE
  8
0
 10
1101.5
 11
1101.39
 20
34.5
 21
33.926
  0
LINE
  8
0
 10
1101.39
 11
1101.06
 20
33.926
 21
33.439
  0
LINE
  8
0
 10
1101.06
 11
1100.57
 20
33.439
 21
33.114
  0
LINE
  8
0
 10
1100.57
 11
1100
 20
33.114
 21
33
  0
LINE
  8
0
 10
1100
 11
1099.43
 20
33
 21
33.114
  0
LINE
  8
0
 10
1099.43
 11
1098.94
 20
33.114
 21
33.439
  0
LINE
  8
0
 10
1098.94
 11
1098.61
 20
33.439
 21
33.926
  0
LINE
  8
0
 10
1098.61
 11
1098.5
 20
33.926
 21
34.5
  0
ENDSEC
  0
SECTION
  2
OBJECTS
  0
DICTIONARY
  0
ENDSEC
  0
EOF
